<svg xmlns="http://www.w3.org/2000/svg" width="25" height="29" fill="#62ac44" xmlns:v="https://vecta.io/nano"><path d="M23.358 25.768c1.983-1.983-.991-4.815-2.832-2.832-1.983-1.983-4.815.991-2.832 2.832l2.832 2.832 2.832-2.832zm-3.399-10.197l3.965.991.991-3.966c.708-2.691-3.257-3.682-3.966-.991-2.691-.567-3.682 3.399-.991 3.965zM1.548 17.837l3.965.991.991-3.965c.708-2.691-3.257-3.682-3.965-.991-2.549-.567-3.682 3.399-.991 3.965zm11.366-7.321l4.674-4.815c3.116-3.116-1.558-7.789-4.674-4.674C9.798-2.089 5.125 2.585 8.24 5.701l4.674 4.815z"/></svg>