<svg xmlns="http://www.w3.org/2000/svg" width="27" height="26" fill="#62ac44" xmlns:v="https://vecta.io/nano"><path d="M21.548.988c-1.145 0-2.259.984-3.129 2.773-.542 1.109-.976 2.505-1.255 4.035l-.032.182.182-.028c.146-.024.312-.032.502-.032 2.226 0 4.04 1.809 4.04 4.035s-1.813 4.035-4.04 4.035c-.178 0-.364-.012-.534-.036l-.178-.028.032.178c.162.951.389 1.862.672 2.704v.02l.012.02.057.17c.919 2.591 2.259 4.08 3.671 4.08 2.578 0 4.756-5.064 4.756-11.054S24.126.988 21.548.988zm-.308 10.965a3.43 3.43 0 0 0-3.424-3.42c-.235 0-.469.024-.696.069l-.093.02-.012.093a24.34 24.34 0 0 0-.227 3.327c0 1.068.069 2.129.202 3.145l.012.093.089.02c.239.053.482.077.72.077 1.894-.004 3.428-1.538 3.428-3.424zm-4.808 3.695l.012-.012-.024-.077c-.162-1.109-.243-2.295-.243-3.521 0-1.279.093-2.53.275-3.712a19.11 19.11 0 0 1 .547-2.546l.13-.445-.344.312c-1.17 1.056-3.096 2.319-5.655 2.319a8.49 8.49 0 0 1-.89-.049l-5.966.028C2.135 7.953.399 9.759.399 11.965c0 2.218 1.745 4.023 3.89 4.023h1.813v9.241c0 .259.194.478.421.478h5.201c.19 0 .3-.134.344-.206.101-.158.105-.352.02-.518l-1.077-2.125c-.332-.66-.514-1.409-.514-2.166v-4.695l.437.024c.024 0 .044.004.077.008 2.598.206 4.497 1.145 5.634 1.894l.283.186-.081-.328-.417-2.133z"/></svg>