<svg xmlns="http://www.w3.org/2000/svg" width="39" height="29" fill="none" xmlns:v="https://vecta.io/nano"><path d="M38.576.917c-.364-1.164-1.647.36-1.945.719-.92 1.109-1.082 1.046-2.5 1.187-1.473.147-1.648-.535-2.647-1.584-1.058-1.111-1.726-.603-1.507.922.174 1.211.57 2.353.901 3.513.444 1.556 1.258 1.969-.388 2.854-1.333.717-3.98.303-5.5.387-4.807.265-8.645.156-12.481 3.456-1.917 1.648-3.354 2.944-5.853 3.872-1.105.41-2.131.531-3.32.481-.543-.024-2.417-.707-2.753-.384-.844.813 2.247 1.731 2.732 1.769 1.313.103 2.904.149 4.192-.214 1.504-.424 3.127-1.163 4.433-2.04.231-.155 1.305-1.193 1.582-1.168.53-.489.751.769.959 1.089.688 1.063 1.126 2.057.376 3.153-.962 1.405-.64 2.606-.42 4.21.594.889-.141 2.82.859 3.52.857.6 3.492-.079 2.155-1.339 1.698 1.286 3.292-1.303 1.567-1.134-1.197.116-1.708-2.427-.916-3.106.836-.716 2.226-1.255 3.198-1.857 1.167-.722 2.234-1.221 3.642-1.063.98.111 2.808-.461 3.655.098.941.106 1.303 3.081 1.514 3.82.579 2.024.731 6.08 3.186 6.081.648 0 .691-.593 1.051-.709.623.416 1.939-.085 1.839-.889-.134-1.072-1.57-.543-1.579-2.349-.007-1.257.123-2.576.182-3.837.071-1.512.652-2.446 1.073-3.874.396-1.345.791-2.593.891-3.952.109-1.476.004-3.007.297-4.444.967-1.452 1.923-5.647 1.526-7.19zM16.703 25.143c-.275-.706-.47-1.463-.508-2.222.24.654.526 1.814 1.119 2.236-.201-.046-.404-.051-.611-.014zm16.223-.291c0-1.385-.754-2.891-.436-4.27.193 1.858.561 3.707.871 5.548-.327-.301-.402-.862-.435-1.278z" fill="#62ac44"/></svg>