<svg width="17" height="21" viewBox="0 0 17 21" fill="none" xmlns="http://www.w3.org/2000/svg">
<path d="M14.1616 16.4375H2.83811C1.82295 16.4375 1 15.5599 1 14.4773C1 14.122 1.09054 13.7734 1.26194 13.4688C2.35489 11.5262 2.93223 9.30331 2.93223 7.03787V5.75C2.93223 3.12665 4.9264 1 7.38634 1H9.61339C12.0733 1 14.0675 3.12665 14.0675 5.75V7.03787C14.0675 9.30331 14.6448 11.5262 15.7378 13.4688C16.2601 14.3971 15.9778 15.6012 15.1073 16.1582C14.8216 16.3409 14.4948 16.4375 14.1616 16.4375ZM11.2837 18.2188C10.5413 19.4062 9.61339 20 8.49986 20C7.38634 20 6.4584 19.4062 5.71605 18.2188" fill="#fcfcfc"/>
<path d="M11.2837 18.2188C10.5413 19.4062 9.61339 20 8.49986 20C7.38634 20 6.4584 19.4062 5.71605 18.2188M14.1616 16.4375H2.83811C1.82295 16.4375 1 15.5599 1 14.4773C1 14.122 1.09054 13.7734 1.26194 13.4688C2.35489 11.5262 2.93223 9.30331 2.93223 7.03787V5.75C2.93223 3.12665 4.9264 1 7.38634 1H9.61339C12.0733 1 14.0675 3.12665 14.0675 5.75V7.03787C14.0675 9.30331 14.6448 11.5262 15.7378 13.4688C16.2601 14.3971 15.9778 15.6012 15.1073 16.1582C14.8216 16.3409 14.4948 16.4375 14.1616 16.4375V16.4375Z" stroke="#2A2E3B" stroke-width="1.5" stroke-linecap="round" stroke-linejoin="round"/>
</svg>
