<svg xmlns="http://www.w3.org/2000/svg" width="29" height="25" fill="none" xmlns:v="https://vecta.io/nano"><path d="M28.706 5.386c.108 1.766-.417 3.853-1.519 6.034-1.111 2.196-2.779 4.439-4.824 6.484l-6.022 6.36-3.361-3.657c3.623-4.054 5.024-8.912 1.804-11.424-.822-.642-1.661-.887-2.458-.887-2.544-.001-4.687 2.483-4.687 2.483S6.239 9.155 4.357 8.534c-.31-1.12-.441-2.182-.381-3.148.109-1.783.862-3.232 2.238-4.305C7.146.354 8.113 0 9.171 0c3.233 0 6.154 3.316 6.182 3.347l.988 1.146.988-1.146c.008-.009.753-.859 1.905-1.697C20.269.897 21.851 0 23.511 0c.53 0 1.036.089 1.527.268a5.26 5.26 0 0 1 1.431.813c1.375 1.074 2.128 2.522 2.237 4.306zm-14.725 4.825c-.526-.41-1.067-.61-1.655-.61-1.892-.001-3.68 2.011-3.698 2.031l-.995 1.152-.981-1.151c-.497-.567-2.122-2.032-3.699-2.032-.587 0-1.13.2-1.656.61-.804.628-1.225 1.441-1.289 2.486-.137 2.219 1.402 5.221 4.016 7.833 1.23 1.231 2.635 2.672 3.616 3.785.98-1.113 2.385-2.553 3.615-3.785 2.613-2.613 4.152-5.614 4.016-7.833-.064-1.046-.486-1.858-1.289-2.486z" fill="#62ac44"/></svg>