<svg width="98" height="98" viewBox="0 0 98 98" fill="none" xmlns="http://www.w3.org/2000/svg">
<path d="M92.75 49C92.7657 54.7586 91.6399 60.4632 89.4377 65.7842C87.2356 71.1051 84.0007 75.9368 79.92 80C75.8581 84.0825 71.0266 87.3185 65.7054 89.5208C60.3842 91.7231 54.679 92.8479 48.92 92.83C43.1609 92.849 37.4554 91.7247 32.134 89.5224C26.8126 87.32 21.9813 84.0834 17.92 80C13.8394 75.9368 10.6045 71.1051 8.40231 65.7842C6.20014 60.4632 5.07436 54.7586 5.09003 49C5.07326 43.2413 6.19854 37.5363 8.40077 32.2153C10.603 26.8942 13.8385 22.0626 17.92 18C21.9813 13.9167 26.8126 10.6801 32.134 8.4777C37.4554 6.27534 43.1609 5.15106 48.92 5.17004C54.679 5.15216 60.3842 6.27694 65.7054 8.47924C71.0266 10.6815 75.8581 13.9176 79.92 18C84.0016 22.0626 87.237 26.8942 89.4393 32.2153C91.6415 37.5363 92.7668 43.2413 92.75 49V49Z" fill="#5FA503"/>
<path d="M49 0C36.0044 0 23.541 5.16248 14.3518 14.3518C5.16248 23.541 0 36.0044 0 49C0 61.9956 5.16248 74.459 14.3518 83.6482C23.541 92.8375 36.0044 98 49 98C61.9956 98 74.4589 92.8375 83.6482 83.6482C92.8375 74.459 98 61.9956 98 49C98 36.0044 92.8375 23.541 83.6482 14.3518C74.4589 5.16248 61.9956 0 49 0ZM49 92.82C43.2408 92.8401 37.5348 91.7163 32.2133 89.5139C26.8918 87.3115 22.0606 84.0742 18 79.99C13.9162 75.9286 10.6786 71.0974 8.47459 65.7762C6.27059 60.4551 5.14399 54.7495 5.16 48.99C5.14289 43.2303 6.26897 37.5245 8.47304 32.2031C10.6771 26.8818 13.9153 22.0508 18 17.99C22.0606 13.9058 26.8918 10.6685 32.2133 8.46611C37.5348 6.26368 43.2408 5.13992 49 5.16C54.7591 5.14103 60.4647 6.26529 65.786 8.46765C71.1074 10.67 75.9387 13.9067 80 17.99C84.0847 22.0508 87.3229 26.8818 89.5269 32.2031C91.731 37.5245 92.8571 43.2303 92.84 48.99C92.856 54.7495 91.7294 60.4551 89.5254 65.7762C87.3214 71.0974 84.0838 75.9286 80 79.99C75.9387 84.0733 71.1074 87.31 65.786 89.5123C60.4647 91.7147 54.7591 92.839 49 92.82Z" fill="#003226"/>
<path d="M52.98 78.63C52.9972 78.7181 52.9966 78.8088 52.9781 78.8967C52.9596 78.9845 52.9236 79.0678 52.8723 79.1415C52.821 79.2152 52.7554 79.2778 52.6794 79.3257C52.6034 79.3735 52.5186 79.4056 52.43 79.42L51.43 79.6C51.2548 79.6116 51.0818 79.556 50.9462 79.4445C50.8105 79.3331 50.7225 79.1741 50.7 79L50.48 77.74L50.75 77.39C51.1942 76.7696 51.8359 76.3183 52.57 76.11L52.98 78.63Z" fill="white"/>
<path d="M56.01 78.1C56.0258 78.188 56.0242 78.2782 56.0051 78.3656C55.986 78.4529 55.9499 78.5357 55.8988 78.6091C55.8477 78.6824 55.7827 78.745 55.7074 78.7932C55.6321 78.8414 55.548 78.8743 55.46 78.89L54.46 79.06C54.2838 79.0891 54.1032 79.0477 53.9573 78.9448C53.8113 78.8419 53.7117 78.6857 53.68 78.51L53.23 76.03C53.9905 75.9712 54.7485 76.1721 55.38 76.6L55.76 76.85L56.01 78.1Z" fill="white"/>
<path d="M59.95 77.4H59.88C58.62 77.61 57.12 76.91 55.79 76.02C54.9093 75.4218 53.8297 75.1915 52.7815 75.3783C51.7334 75.5652 50.7998 76.1543 50.18 77.02C49.4113 78.2942 48.2126 79.2518 46.8 79.72C44.9025 80.0501 42.9567 79.9758 41.0899 79.5019C39.2232 79.0281 37.4775 78.1654 35.9671 76.9703C34.4567 75.7752 33.2157 74.2747 32.3253 72.5669C31.4349 70.8591 30.9151 68.9825 30.8 67.06C30.6346 64.6199 31.1321 62.1804 32.24 60C31.654 56.2048 32.321 52.322 34.14 48.94C31.86 46.74 29.2 44.5 26.02 41.52C21.14 36.93 18.76 23.14 20.36 22.11C21.96 21.08 30.36 26.99 34.08 33.11C36.46 36.98 37.56 40.3 39 43.3C41.236 41.5945 43.8496 40.4524 46.62 39.97C51.1753 39.1662 55.8641 40.1828 59.6774 42.8011C63.4907 45.4194 66.1238 49.43 67.01 53.97C68.6325 55.4754 69.8587 57.3576 70.58 59.45C71.2278 61.3261 71.4596 63.3208 71.2593 65.2955C71.059 67.2702 70.4314 69.1777 69.42 70.8856C68.4086 72.5934 67.0377 74.0607 65.4024 75.1856C63.7671 76.3106 61.9066 77.0662 59.95 77.4V77.4Z" fill="white"/>
<path d="M37.05 44.9C36.4382 45.5242 35.8734 46.1927 35.36 46.9C34.24 45.84 33.06 44.78 31.79 43.64C30.52 42.5 29.09 41.22 27.56 39.8C24.69 37.09 22.86 30.46 22.31 26.41C22.2989 26.2876 22.3211 26.1645 22.3744 26.0537C22.4277 25.9429 22.51 25.8487 22.6126 25.781C22.7152 25.7133 22.8342 25.6746 22.957 25.6692C23.0798 25.6637 23.2018 25.6917 23.31 25.75C26.7053 28.0267 29.6233 30.9446 31.9 34.34C33.2305 36.5815 34.3872 38.9217 35.36 41.34C35.94 42.53 36.46 43.73 37.05 44.9Z" fill="#003021"/>
<path d="M44.19 63.07C42.6584 62.1055 40.8213 61.7488 39.04 62.07H38.86C38.5426 61.4722 38.3232 60.8273 38.21 60.16C37.75 57.55 38.88 55.16 40.74 54.85C42.6 54.54 44.48 56.36 44.94 58.97C45.2354 60.3821 44.9662 61.8538 44.19 63.07V63.07Z" fill="#003021"/>
<path d="M40.16 58.72C40.6184 58.72 40.99 58.3484 40.99 57.89C40.99 57.4316 40.6184 57.06 40.16 57.06C39.7016 57.06 39.33 57.4316 39.33 57.89C39.33 58.3484 39.7016 58.72 40.16 58.72Z" fill="white"/>
<path d="M54.84 67.26C54.4551 67.4694 54.0902 67.7138 53.75 67.99C52.9807 68.6573 52.3547 69.4738 51.91 70.39C51.1735 69.6843 50.303 69.1335 49.35 68.77C48.9384 68.6213 48.513 68.5141 48.08 68.45C48.0183 68.3016 47.9714 68.1476 47.94 67.99C47.61 66.1 49.09 65.52 50.94 65.19C52.79 64.86 54.42 64.89 54.76 66.79C54.8021 66.9436 54.8289 67.1011 54.84 67.26V67.26Z" fill="#003021"/>
<path d="M38.35 69.6C38.8139 69.6 39.19 69.2239 39.19 68.76C39.19 68.2961 38.8139 67.92 38.35 67.92C37.8861 67.92 37.51 68.2961 37.51 68.76C37.51 69.2239 37.8861 69.6 38.35 69.6Z" fill="#003021"/>
<path d="M37.8 73.12C38.2639 73.12 38.64 72.7439 38.64 72.28C38.64 71.8161 38.2639 71.44 37.8 71.44C37.336 71.44 36.96 71.8161 36.96 72.28C36.96 72.7439 37.336 73.12 37.8 73.12Z" fill="#003021"/>
<path d="M41.82 73.27C42.2839 73.27 42.66 72.8939 42.66 72.43C42.66 71.9661 42.2839 71.59 41.82 71.59C41.3561 71.59 40.98 71.9661 40.98 72.43C40.98 72.8939 41.3561 73.27 41.82 73.27Z" fill="#003021"/>
<path d="M61.5 65.84C61.9639 65.84 62.34 65.4639 62.34 65C62.34 64.5361 61.9639 64.16 61.5 64.16C61.0361 64.16 60.66 64.5361 60.66 65C60.66 65.4639 61.0361 65.84 61.5 65.84Z" fill="#003021"/>
<path d="M63.01 69.53C63.4739 69.53 63.85 69.1539 63.85 68.69C63.85 68.2261 63.4739 67.85 63.01 67.85C62.5461 67.85 62.17 68.2261 62.17 68.69C62.17 69.1539 62.5461 69.53 63.01 69.53Z" fill="#003021"/>
<path d="M59.35 70.17C59.8139 70.17 60.19 69.7939 60.19 69.33C60.19 68.8661 59.8139 68.49 59.35 68.49C58.8861 68.49 58.51 68.8661 58.51 69.33C58.51 69.7939 58.8861 70.17 59.35 70.17Z" fill="#003021"/>
<path d="M61.45 44.24C62.85 41.35 64.61 38.31 66.61 34.36C69.61 28.36 67.15 14.6 65.29 14.18C63.43 13.76 57.59 22.18 56.15 29.18C55.23 33.67 55.33 37.18 55 40.52C52.5611 39.7393 49.9817 39.497 47.44 39.81C45.8864 38.3846 44.54 36.7488 43.44 34.95C43.3966 36.5005 43.5071 38.0514 43.77 39.58C43.8027 39.7756 43.8461 39.9692 43.9 40.16C42.8674 39.4105 41.9036 38.5705 41.02 37.65C41.02 38.2 41.14 38.76 41.24 39.33C41.3701 40.0646 41.5369 40.7922 41.74 41.51C43.2465 44.0599 45.1275 46.369 47.32 48.36C48.63 49.71 48.92 52.97 48.92 54.22C48.92 58.4 51.77 61.53 55.92 61.53C60.07 61.53 62.6 57.47 62.6 57.47C63.3055 56.0065 64.4865 54.8255 65.95 54.12C66.27 54.06 66.57 54 66.88 53.92C66.1648 50.1909 64.2595 46.7943 61.45 44.24V44.24Z" fill="#003021"/>
</svg>
