<svg width="44" height="46" viewBox="0 0 44 46" fill="none" xmlns="http://www.w3.org/2000/svg">
<path d="M13.5701 42.2917H13.9837L28.364 42.2917C28.3645 42.2917 28.365 42.2917 28.3655 42.2917C29.2516 42.2893 30.127 42.0978 30.9332 41.7299C31.7386 41.3622 32.4563 40.827 33.0384 40.16C33.0392 40.159 33.0401 40.1581 33.0409 40.1571L42.222 29.4504L42.2307 29.4403L42.2307 29.4404C42.5876 29.0352 42.7689 28.5049 42.7348 27.966C42.7007 27.4272 42.4539 26.924 42.0487 26.5671C41.6436 26.2102 41.1132 26.0289 40.5744 26.063C40.0363 26.0971 39.5336 26.3433 39.1768 26.7475C39.1764 26.748 39.1759 26.7486 39.1755 26.7491L31.8294 35.1665L31.8233 35.1734L31.8233 35.1734C31.4062 35.6425 30.8944 36.018 30.3216 36.275L29.9123 35.3626L30.3216 36.275C29.7489 36.5319 29.1281 36.6646 28.5004 36.6642M13.5701 42.2917L21.639 35.6642C21.3941 35.6472 21.1646 35.5379 20.9971 35.3584C20.8296 35.1788 20.7364 34.9424 20.7364 34.6969C20.7364 34.4513 20.8296 34.2149 20.9971 34.0353M13.5701 42.2917L13.2773 42.5839L11.4124 44.4453L1.9534 36.6909M13.5701 42.2917L1.9534 36.6909M28.5004 36.6642L28.501 35.6642V36.6642H28.5004ZM28.5004 36.6642H21.639H21.6044L21.5699 36.6618C21.0723 36.6273 20.6063 36.4053 20.266 36.0406C19.9257 35.6759 19.7364 35.1957 19.7364 34.6969C19.7364 34.198 19.9257 33.7178 20.266 33.3531L20.9971 34.0353M20.9971 34.0353L20.266 33.3531C20.6063 32.9884 21.0723 32.7664 21.5699 32.7319L21.6044 32.7295H21.639H27.6705C28.1811 32.7295 28.6708 32.5267 29.0319 32.1656C29.3929 31.8046 29.5958 31.3149 29.5958 30.8042C29.5958 30.2936 29.3929 29.8039 29.0319 29.4429C28.6708 29.0818 28.1811 28.879 27.6705 28.879H19.9038H19.7107L19.5314 28.8071C17.5071 27.9948 15.2897 27.7915 13.1514 28.222C11.0131 28.6525 9.04715 29.6982 7.49492 31.2306L7.49425 31.2312L1.9534 36.6909M20.9971 34.0353L1.9534 36.6909M30.5012 7.46157L30.5013 7.46154L30.4962 7.45178C30.4624 7.38719 30.4473 7.31446 30.4527 7.24177C30.458 7.16909 30.4834 7.09932 30.5262 7.04032L30.5283 7.0374L34.5137 1.49774L34.5187 1.49076L34.5236 1.4837C34.5597 1.4317 34.6078 1.38921 34.6639 1.35986C34.72 1.33051 34.7823 1.31519 34.8456 1.31519C34.9089 1.31519 34.9713 1.33052 35.0273 1.35986C35.0834 1.38921 35.1315 1.4317 35.1676 1.48371L35.172 1.49009L35.1766 1.49639L39.148 7.03605L39.1532 7.0433L39.1586 7.05045C39.2025 7.10948 39.2289 7.17968 39.2348 7.25301C39.2407 7.32636 39.2258 7.39988 39.1919 7.46516C39.158 7.53046 39.1063 7.58487 39.0429 7.62217L39.55 8.48407L39.0429 7.62218C38.9795 7.65949 38.9069 7.67819 38.8333 7.67614L38.8194 7.67576H38.8055H38.0261H37.0261V8.67576V23.0585C37.0261 23.1944 36.9721 23.3247 36.8759 23.4209C36.7798 23.517 36.6495 23.571 36.5135 23.571H33.1545C33.0186 23.571 32.8882 23.517 32.7921 23.4209C32.696 23.3247 32.642 23.1944 32.642 23.0585V8.67576V7.67576H31.642H30.8625V7.67572L30.8539 7.6758C30.781 7.67643 30.7094 7.65671 30.6471 7.61886C30.5848 7.58102 30.5343 7.52655 30.5012 7.46157ZM15.4477 23.0847V23.0817V18.6601C15.4477 18.5242 15.5017 18.3939 15.5978 18.2977C15.6939 18.2016 15.8243 18.1476 15.9602 18.1476H19.3193C19.4552 18.1476 19.5855 18.2016 19.6816 18.2977C19.7778 18.3939 19.8318 18.5242 19.8318 18.6601V23.0863C19.8318 23.2222 19.7778 23.3526 19.6816 23.4487C19.5855 23.5448 19.4552 23.5988 19.3193 23.5988H15.9602C15.8928 23.5988 15.826 23.5855 15.7637 23.5596C15.7014 23.5338 15.6448 23.4959 15.5972 23.4481C15.5496 23.4004 15.5119 23.3437 15.4862 23.2813C15.4606 23.219 15.4475 23.1522 15.4477 23.0847ZM24.5573 23.5988V23.5988L24.5481 23.5988C24.4804 23.5995 24.4133 23.5867 24.3506 23.5612C24.2878 23.5357 24.2308 23.4981 24.1827 23.4504C24.1346 23.4028 24.0964 23.3461 24.0704 23.2836C24.0443 23.2211 24.0309 23.154 24.0309 23.0863V23.0863V13.7004V13.7004C24.0309 13.6327 24.0443 13.5657 24.0704 13.5032C24.0964 13.4407 24.1346 13.384 24.1827 13.3363L23.4788 12.626L24.1827 13.3363C24.2308 13.2887 24.2878 13.251 24.3506 13.2255C24.4133 13.2001 24.4804 13.1873 24.5481 13.1879V13.1879H24.5573H27.9164C28.0523 13.1879 28.1827 13.2419 28.2788 13.338C28.3749 13.4341 28.4289 13.5645 28.4289 13.7004V23.0863C28.4289 23.1536 28.4156 23.2202 28.3899 23.2824L29.3138 23.6651L28.3899 23.2824C28.3641 23.3446 28.3264 23.4011 28.2788 23.4487C28.2312 23.4963 28.1747 23.534 28.1125 23.5598C28.0504 23.5855 27.9837 23.5988 27.9164 23.5988H24.5573Z" fill="#404040" stroke="#404040" stroke-width="2"/>
</svg>
