<svg width="355" height="114" viewBox="0 0 355 114" fill="none" xmlns="http://www.w3.org/2000/svg">
<path fill-rule="evenodd" clip-rule="evenodd" d="M354.107 0.87326L339.421 2.24144C324.481 3.60963 295.107 6.34599 265.481 14.5551C236.107 22.7642 206.481 23.5367 177.107 20.8004C147.481 18.2595 118.107 11.8187 88.4808 6.34599C59.1074 0.87326 29.4808 9.08236 14.7941 13.1869L0.107422 17.2915V98.873C0.107422 106.984 6.68286 113.56 14.7941 113.56C29.4808 113.56 59.1074 113.56 88.4808 113.56C118.107 113.56 147.481 113.56 177.107 113.56C206.481 113.56 236.107 113.56 265.481 113.56C295.107 113.56 324.481 113.56 339.421 113.56C347.532 113.56 354.107 106.984 354.107 98.873V0.87326Z" fill="#5FA503"/>
</svg>
