<svg xmlns="http://www.w3.org/2000/svg" width="110" height="129" fill="none"><path fill="#003226" d="m70.967 11.81 2.027-5.406a8.403 8.403 0 0 1 4.302-4.682c1.998-.945 4.219-1.065 6.26-.32a7.855 7.855 0 0 1 4.553 4.222c.893 1.99.96 4.223.182 6.301l-2.027 5.406-3.548-1.28 2.027-5.405a4.397 4.397 0 0 0-.093-3.369 4.23 4.23 0 0 0-2.438-2.253 4.339 4.339 0 0 0-3.35.17 4.478 4.478 0 0 0-2.296 2.508l-2.027 5.406-3.572-1.298Z"/><path fill="#68B845" d="m86.773 29.696 3.09-8.395c.605-1.638-.063-3.49-1.597-4.334a64.95 64.95 0 0 0-9.115-4.17 65.922 65.922 0 0 0-9.647-2.73c-1.718-.348-3.42.625-4.025 2.263l-3.09 8.395 24.384 8.971ZM103.439 81.94a48.928 48.928 0 0 1-12.488 25.538 48.993 48.993 0 0 1-24.587 14.298 49.062 49.062 0 0 1-28.4-1.76 49.035 49.035 0 0 1-22.64-17.226 48.959 48.959 0 0 1-8.036-17.388 48.914 48.914 0 0 1 18.955-51.118 49.013 49.013 0 0 1 17.433-7.955A49.056 49.056 0 0 1 94.78 45.475a48.627 48.627 0 0 1 8.659 36.466Z"/><path fill="#003226" d="M63.766 20.074C33.888 15.254 5.761 35.542.946 65.391c-4.816 29.85 15.504 57.952 45.383 62.772 29.878 4.82 58.006-15.47 62.821-45.316C113.964 53 93.647 24.895 63.766 20.074ZM47.25 122.453a49.052 49.052 0 0 1-25.573-12.479A48.972 48.972 0 0 1 7.351 85.407a48.914 48.914 0 0 1 1.748-28.373 48.946 48.946 0 0 1 17.235-22.616 49.042 49.042 0 0 1 36.5-8.642A49.042 49.042 0 0 1 94.767 45.45a48.936 48.936 0 0 1 8.663 36.466 48.936 48.936 0 0 1-19.683 31.897 48.682 48.682 0 0 1-36.498 8.64Z"/><path fill="#fff" d="M67.628 100.537a11.606 11.606 0 0 1-5.425 3.564c-1.265.412-2.58.652-3.908.714-.953.056-1.91.019-2.856-.112a12.317 12.317 0 0 1-6.006-2.432 27.47 27.47 0 0 0 8.958-2.361c.827.199 1.652.371 2.445.499 2.244.387 4.535.43 6.792.128ZM82.902 81.108a49.798 49.798 0 0 1-.45 1.69c-.086.336-.186.67-.288.978-.127.42-.26.831-.399 1.242-.14.41-.251.713-.387 1.055-.029.072-.055.148-.08.22-.13.329-.254.637-.387.944a2.01 2.01 0 0 1-.08.197c-.144.326-.287.652-.435.96-.055.127-.12.25-.186.371-.065.123-.08.176-.122.26-4.92.324-11.619 1.754-12.861 2.703a.276.276 0 0 0-.061.378.266.266 0 0 0 .179.102.283.283 0 0 0 .203-.048c1.145-.863 7.483-2.243 12.249-2.585-.153.297-.318.588-.49.868-.17.28-.33.561-.506.823-.175.261-.348.534-.532.787-.047.077-.1.151-.154.223-.155.22-.313.424-.474.622-.1.123-.198.25-.306.377-4.423-.225-8.568.161-9.82.752a.273.273 0 0 0-.047.461.259.259 0 0 0 .119.05c.054.008.11.002.16-.02 1.052-.5 4.883-.913 9.153-.734-.17.19-.336.372-.514.546-.26.272-.526.533-.797.783-.175.157-.354.292-.53.452a8.986 8.986 0 0 1-.716.562c-.21.155-.422.299-.629.437-.036.025-.077.046-.117.078-3.881-.58-7.854-.977-8.895-.736a.276.276 0 0 0-.202.317.27.27 0 0 0 .222.206c.033.01.068.015.102.017.855-.211 4.398.144 8.032.653a.844.844 0 0 1-.097.061c-.256.137-.515.266-.763.398-.157.083-.32.157-.486.221a14.121 14.121 0 0 1-2.143.751c-.193.05-.398.107-.601.151a14.102 14.102 0 0 1-.963.187c-.276.047-.565.087-.846.115l-.04.011c-.214.025-.433.042-.645.06a7.94 7.94 0 0 1-.603.036l-.158.006c-.195.014-.39.01-.582.01-.262.004-.518.008-.776-.013a.569.569 0 0 1-.113.003 19.6 19.6 0 0 1-.902-.055.12.12 0 0 1-.048-.008 14.042 14.042 0 0 1-.993-.1c-.335-.048-.684-.087-1.008-.139a30.3 30.3 0 0 1-2.86-.611c-.271.127-.548.26-.828.373l-.703.291c-.519.207-1.05.404-1.596.585-.267.093-.542.174-.817.255-1.034.316-2.088.56-3.156.731-.18.039-.361.066-.544.083a17.73 17.73 0 0 1-2.032.189 7.9 7.9 0 0 1-.651.014l-.011.001a.034.034 0 0 1-.01-.004c-.217.003-.44.005-.656-.001-.216-.007-.452-.014-.673-.032-.22-.018-.459-.032-.689-.059a.235.235 0 0 1-.064-.01c-.28-.045-.559-.069-.834-.114l-.68-.11c-.229-.036-.44-.095-.657-.151l-.67-.181c-.223-.068-.435-.14-.663-.219l-.658-.25a44.11 44.11 0 0 1-.509-.225l-.207-.1a8.978 8.978 0 0 1-.534-.263 4.626 4.626 0 0 1-.18-.114c3.898-.893 9.4-1.595 10.6-1.433a.272.272 0 1 0 .086-.537c-1.319-.16-7.342.614-11.352 1.594-.345-.22-.68-.459-1.014-.708a11.105 11.105 0 0 1-.495-.394 15.555 15.555 0 0 1-.55-.49 27.427 27.427 0 0 1-.485-.477 21.865 21.865 0 0 1-.596-.634c-.202-.221-.323-.401-.483-.598l-.05-.06c3.71-.51 7.813-.591 11.815.365a.258.258 0 0 0 .322-.2.266.266 0 0 0-.2-.325c-4.178-1.002-8.466-.88-12.311-.334a19.581 19.581 0 0 1-1.831-3.135c5.34.324 13.242 1.413 14.569 2.302a.272.272 0 0 0 .363-.085.265.265 0 0 0-.078-.362c-1.51-1.012-9.79-2.093-15.12-2.394-.186-.424-.359-.871-.54-1.326-.109-.3-.216-.608-.324-.919-.057-.187-.118-.368-.177-.566-.104-.331-.195-.674-.296-1.026a40.424 40.424 0 0 1-1.048-5.407c-.051-.417-.093-.85-.141-1.29a57.919 57.919 0 0 1-.21-2.829l.005-.034s11.757-3.285 13.102-21.84a40.73 40.73 0 0 1 1.7-.773l.5-.195a25.325 25.325 0 0 1 2.884-.932l.63-.16c.295-.075.599-.138.906-.203a23.729 23.729 0 0 1 1.654-.292c.244-.041.49-.078.74-.104.248-.027.475-.067.712-.088.237-.021.541-.063.814-.085l.057.009c10.89 9.132 4.195 14.72 4.187 24.573 0 12.625 12.57 12.047 24.35 3.628Z"/><path fill="#003226" fill-rule="evenodd" d="m30.666 77.528.404 1.445-1.16.324-.567-1.062a1.744 1.744 0 0 1-.158-.419 73.033 73.033 0 0 0-1.21-3.878l-.001-.003c-.698-2.008-1.325-3.457-1.908-4.804-.172-.398-.34-.787-.506-1.18-.728-1.728-1.354-3.425-1.838-5.921v-.003c-.376-1.957-.744-5.694-.078-8.784.33-1.535.965-3.144 2.213-4.216 1.345-1.154 3.127-1.461 5.194-.885 6.637 1.854 10.198 3.675 12.057 4.939l.01.007.285.201c.615.414 1.15.935 1.58 1.539l.313.44-.04.537c-.692 9.61-4.105 15.41-7.477 18.817-1.675 1.692-3.313 2.769-4.55 3.427a14.19 14.19 0 0 1-1.511.7 9.297 9.297 0 0 1-.581.204l-.042.013-.015.004-.005.002h-.003s-.003.001-.406-1.444Z" clip-rule="evenodd"/><path fill="#003226" d="M46.637 85.853c-2.907.163-5.396-1.618-5.537-3.994-.145-2.238 1.85-4.193 4.529-4.56a7.016 7.016 0 0 0-.305 2.28 6.04 6.04 0 0 0 1.097 3.372 7.585 7.585 0 0 0 .808-3.491 6.385 6.385 0 0 0-.49-2.223c2.645.077 4.805 1.777 4.943 3.993.13 2.374-2.127 4.438-5.045 4.623ZM48.574 93.699a.272.272 0 0 1-.363.084c-1.327-.888-9.229-1.977-14.569-2.301a33.106 33.106 0 0 0-3.718-.052.212.212 0 0 1-.064-.01.276.276 0 0 1 .028-.544 33.42 33.42 0 0 1 3.484.05c5.333.3 13.61 1.381 15.12 2.393a.264.264 0 0 1 .082.38ZM47.974 95.272a.257.257 0 0 1-.322.2c-3.998-.957-8.1-.875-11.814-.367a58.622 58.622 0 0 0-7.68 1.604.268.268 0 0 1-.253-.061.262.262 0 0 1-.046-.327.273.273 0 0 1 .154-.124 60.958 60.958 0 0 1 7.455-1.591c3.845-.546 8.14-.667 12.312.334a.266.266 0 0 1 .194.332ZM51.114 97.193a.276.276 0 0 1-.306.233c-1.202-.148-6.704.553-10.6 1.433-1.618.375-2.968.775-3.607 1.164a.27.27 0 0 1-.184.037.254.254 0 0 1-.182-.127.264.264 0 0 1 .01-.303.26.26 0 0 1 .082-.07c.61-.366 1.782-.743 3.213-1.088 4-.982 10.034-1.755 11.353-1.594a.274.274 0 0 1 .219.208.273.273 0 0 1 .002.107ZM84.37 89.454a.289.289 0 0 1-.317.211c-.99-.212-2.517-.22-4.25-.088-4.766.341-11.1 1.701-12.249 2.585a.283.283 0 0 1-.203.047.264.264 0 0 1-.18-.102.276.276 0 0 1 .062-.378c1.242-.948 7.94-2.379 12.861-2.702a16.893 16.893 0 0 1 4.079.113.27.27 0 0 1 .197.314ZM85.181 94.75a.268.268 0 0 1-.23.198.264.264 0 0 1-.107-.011 34.732 34.732 0 0 0-7.932-1.14c-4.27-.179-8.102.233-9.153.734a.297.297 0 0 1-.16.02.26.26 0 0 1-.2-.151.272.272 0 0 1 .128-.36c1.252-.591 5.396-.977 9.82-.753 2.583.096 5.147.477 7.646 1.136a.263.263 0 0 1 .196.223.266.266 0 0 1-.007.104ZM81.69 98.577a.272.272 0 0 1-.348.16c-1.318-.488-4.924-1.143-8.466-1.641-3.633-.51-7.179-.85-8.031-.653a.437.437 0 0 1-.102-.017.269.269 0 0 1-.222-.207.276.276 0 0 1 .201-.316c1.041-.238 5.014.159 8.895.736 3.411.505 6.745 1.14 7.922 1.575a.28.28 0 0 1 .15.363ZM62.776 91.653c-.017-1.152-2.188-1.855-4.852-1.813-2.664.041-4.812.798-4.795 1.95.017 1.152 2.23 5.011 4.892 4.98 2.663-.031 4.77-3.973 4.755-5.117Zm-2.003.983a.879.879 0 1 1 .87-.908.87.87 0 0 1-.87.908ZM84.184 72.378a70.91 70.91 0 0 0-1.098 3.692 14.715 14.715 0 0 1-.184 5.038c-11.78 8.42-24.35 8.993-24.356-3.653.007-9.854 6.702-15.441-4.187-24.573.414-.038.818-.071 1.223-.093a47.49 47.49 0 0 1 2.328-.075c.506.001 1.015.007 1.51.034a30.54 30.54 0 0 1 3.934.376l.916.148.476.098c.256.041.506.113.748.173.477.115.949.244 1.405.384.253.072.508.159.764.242.048.015.095.033.141.054.205.071.41.14.615.218.204.078.302.115.45.177.252.1.504.207.755.318a5.518 5.518 0 0 1 1.32-1.184c1.612-1.165 4.99-3.037 11.723-4.979 6.732-1.941 6.247 8.401 5.568 12.133-.875 4.84-2.234 5.992-4.05 11.472Z"/></svg>