<svg width="155" height="155" viewBox="0 0 155 155" fill="none" xmlns="http://www.w3.org/2000/svg">
<path d="M146.606 77.3246C146.606 90.9985 142.546 104.365 134.941 115.734C127.335 127.103 116.526 135.964 103.879 141.197C91.2327 146.429 77.3168 147.797 63.8915 145.129C50.4662 142.461 38.1345 135.876 28.4558 126.206C21.9893 119.795 16.8535 112.172 13.3433 103.773C9.83297 95.3749 8.01721 86.3667 8.00012 77.2657C7.98304 68.1646 9.76497 59.1497 13.2437 50.7381C16.7224 42.3266 21.8295 34.6839 28.2719 28.2486C34.7143 21.8133 42.3653 16.7119 50.7859 13.2372C59.2065 9.76245 68.2311 7.98273 77.3418 8.00013C86.4526 8.01752 95.4703 9.83168 103.878 13.3385C112.285 16.8454 119.916 21.9759 126.334 28.4358C132.781 34.8408 137.893 42.4598 141.373 50.8516C144.852 59.2434 146.631 68.2414 146.606 77.3246V77.3246Z" fill="#5FA503" stroke="#5FA503" stroke-width="1.84"/>
<path d="M77.3856 0C34.6485 0 0 34.6082 0 77.3034C0 119.999 34.6485 154.607 77.3856 154.607C120.123 154.607 154.771 119.995 154.771 77.3034C154.771 34.6117 120.126 0 77.3856 0ZM77.3856 146.439C63.6959 146.442 50.3128 142.389 38.9289 134.794C27.545 127.198 18.6717 116.401 13.4311 103.767C8.19052 91.1336 6.81812 77.2313 9.48744 63.8186C12.1568 50.4059 18.7479 38.0851 28.4273 28.4145C41.4063 15.4466 59.0107 8.16014 77.3677 8.15818C95.7247 8.15621 113.331 15.4389 126.312 28.4041C139.294 41.3693 146.588 58.9549 146.59 77.2925C146.592 95.63 139.302 113.217 126.323 126.185C119.913 132.627 112.286 137.734 103.886 141.211C95.4858 144.688 86.4784 146.465 77.3856 146.439V146.439Z" fill="#003226"/>
<path d="M100.864 111.304C99.2449 113.968 96.899 116.115 94.1019 117.492C92.4314 118.351 90.6531 118.981 88.8147 119.366C87.4982 119.659 86.1562 119.822 84.8078 119.853C81.706 119.981 78.6264 119.277 75.8887 117.813C80.1461 116.734 84.1893 114.94 87.8459 112.507C89.0435 112.599 90.2314 112.653 91.3658 112.653C94.582 112.687 97.7848 112.232 100.864 111.304V111.304Z" fill="white" stroke="white" stroke-width="1.5"/>
<path d="M117.788 80.7831C117.744 81.3137 117.695 81.8249 117.641 82.3361C117.612 82.638 117.578 82.9398 117.539 83.2417C117.495 83.7285 117.432 84.2154 117.359 84.6682C117.276 85.2816 117.184 85.8853 117.082 86.489C116.979 87.0927 116.892 87.5406 116.78 88.047C116.755 88.1541 116.736 88.266 116.716 88.3731C116.609 88.86 116.507 89.3176 116.39 89.7753C116.373 89.8738 116.35 89.9713 116.322 90.0674C116.195 90.5543 116.069 91.0411 115.933 91.5036C115.884 91.6935 115.821 91.8785 115.757 92.0635C115.694 92.2485 115.684 92.3264 115.645 92.453C108.859 94.0109 99.842 97.5114 98.323 99.1132C98.2531 99.1858 98.214 99.2826 98.214 99.3834C98.214 99.4842 98.2531 99.581 98.323 99.6536C98.3593 99.688 98.4022 99.7147 98.449 99.7323C98.4958 99.7498 98.5457 99.7578 98.5956 99.7558C98.6975 99.7547 98.795 99.7146 98.8683 99.6439C100.27 98.1833 108.795 94.8337 115.363 93.2855C115.217 93.7334 115.051 94.1765 114.876 94.6049C114.701 95.0333 114.54 95.4618 114.355 95.8659C114.17 96.27 113.99 96.6887 113.79 97.083C113.741 97.201 113.686 97.3164 113.625 97.4287C113.459 97.7695 113.284 98.0908 113.104 98.4024C112.992 98.5971 112.885 98.7967 112.763 98.9963C106.546 99.6779 100.855 101.148 99.2432 102.253C99.1605 102.311 99.104 102.4 99.0858 102.499C99.0676 102.598 99.0891 102.701 99.1458 102.784C99.1795 102.836 99.2258 102.878 99.2803 102.907C99.3348 102.936 99.3957 102.951 99.4574 102.95C99.5349 102.949 99.6107 102.927 99.6765 102.886C101.03 101.952 106.278 100.515 112.271 99.8045C112.077 100.106 111.887 100.398 111.677 100.681C111.376 101.119 111.064 101.543 110.743 101.952C110.533 102.21 110.314 102.438 110.105 102.701C109.896 102.964 109.579 103.295 109.306 103.573C109.283 103.598 109.259 103.623 109.233 103.646C108.975 103.909 108.713 104.157 108.454 104.396C108.411 104.439 108.357 104.478 108.308 104.532C102.768 104.595 97.1399 104.936 95.7427 105.506C95.6528 105.545 95.5812 105.618 95.5424 105.708C95.5036 105.798 95.5003 105.9 95.5333 105.992C95.5617 106.063 95.6108 106.124 95.6742 106.167C95.7376 106.209 95.8124 106.232 95.8887 106.231C95.9372 106.237 95.9863 106.237 96.0348 106.231C97.1789 105.744 102.198 105.442 107.379 105.335C107.34 105.374 107.3 105.409 107.257 105.442C106.931 105.691 106.6 105.929 106.283 106.168C106.082 106.32 105.872 106.459 105.655 106.586C104.999 107.014 104.317 107.403 103.615 107.75C103.357 107.877 103.094 108.003 102.836 108.115C102.578 108.227 102.305 108.354 102.033 108.461C101.648 108.617 101.254 108.763 100.86 108.894C100.818 108.911 100.776 108.926 100.733 108.938C100.358 109.065 99.9637 109.186 99.5791 109.288L99.5255 109.313C99.2334 109.396 98.9316 109.469 98.6395 109.542C98.3474 109.615 98.0893 109.678 97.8069 109.727L97.5878 109.77C97.3201 109.834 97.0474 109.873 96.7797 109.917C96.4145 109.98 96.0591 110.043 95.694 110.072C95.6432 110.087 95.591 110.097 95.5382 110.102C95.1146 110.155 94.6959 110.194 94.2675 110.228C94.245 110.233 94.2218 110.233 94.1993 110.228C93.7125 110.272 93.2694 110.301 92.7923 110.311C92.3152 110.321 91.8186 110.345 91.3561 110.345C90.0124 110.345 88.6394 110.272 87.2324 110.136C86.8819 110.374 86.5265 110.622 86.1613 110.842L85.2461 111.406C84.5693 111.81 83.8731 112.205 83.1526 112.58C82.802 112.769 82.4369 112.945 82.0717 113.12C80.7014 113.793 79.2861 114.371 77.8361 114.848C77.5944 114.942 77.3473 115.022 77.0961 115.087C76.1805 115.379 75.2491 115.62 74.3064 115.807C74.0046 115.871 73.7027 115.934 73.4008 115.973C73.3963 115.975 73.3913 115.976 73.3862 115.976C73.3812 115.976 73.3762 115.975 73.3716 115.973V115.973C73.0698 116.027 72.7582 116.08 72.4563 116.119C72.1545 116.158 71.8234 116.202 71.5118 116.226C71.2002 116.251 70.8643 116.285 70.5381 116.299C70.5075 116.304 70.4763 116.304 70.4456 116.299C70.0464 116.299 69.652 116.328 69.2577 116.328C68.9364 116.328 68.6102 116.328 68.284 116.328C67.9578 116.328 67.6511 116.294 67.3346 116.265L66.3609 116.163C66.0347 116.119 65.7231 116.066 65.3872 116.007L64.4135 115.807C64.1652 115.744 63.9266 115.681 63.654 115.608L63.3424 115.515C63.0698 115.442 62.8117 115.36 62.5391 115.267C62.4482 115.231 62.3557 115.192 62.2616 115.15C67.4953 113.028 75.0075 110.812 76.7163 110.769C76.8183 110.769 76.9162 110.728 76.9883 110.656C77.0604 110.584 77.101 110.486 77.101 110.384C77.101 110.282 77.0604 110.184 76.9883 110.112C76.9162 110.04 76.8183 109.999 76.7163 109.999C74.8419 110.072 66.619 112.507 61.2489 114.775C60.7183 114.547 60.1973 114.288 59.6764 114.016C59.4183 113.88 59.1554 113.733 58.8974 113.578C58.6053 113.402 58.3132 113.213 58.0211 113.018C57.7582 112.838 57.5001 112.653 57.2372 112.463C56.9743 112.273 56.5946 111.976 56.2635 111.713C55.9325 111.45 55.7231 111.226 55.4553 110.988L55.3726 110.915C60.431 109.371 66.1321 108.334 71.9257 108.768C71.9756 108.773 72.0261 108.768 72.074 108.753C72.1219 108.738 72.1662 108.713 72.2041 108.68C72.242 108.647 72.2728 108.607 72.2944 108.562C72.316 108.516 72.3281 108.467 72.3298 108.417C72.3344 108.367 72.329 108.317 72.3138 108.269C72.2985 108.221 72.2738 108.176 72.2411 108.138C72.2084 108.1 72.1684 108.069 72.1234 108.047C72.0784 108.024 72.0294 108.011 71.9792 108.008C65.9276 107.55 59.9782 108.685 54.7397 110.311C53.5337 109.095 52.4434 107.77 51.4826 106.353C58.9997 105.603 70.2606 105.345 72.3103 106.285C72.4016 106.319 72.5028 106.318 72.5932 106.281C72.6836 106.244 72.7565 106.174 72.7971 106.085C72.8351 105.995 72.8365 105.894 72.801 105.803C72.7656 105.712 72.696 105.639 72.6073 105.598C70.2752 104.527 58.4885 104.882 50.9909 105.661C50.6355 105.111 50.2947 104.527 49.9392 103.933C49.7202 103.539 49.5011 103.135 49.282 102.726C49.1603 102.477 49.0337 102.239 48.9071 101.976C48.688 101.538 48.4835 101.08 48.2645 100.613C47.207 98.2421 46.3124 95.8022 45.5868 93.3099C45.4212 92.7403 45.2654 92.1463 45.0999 91.5426C44.764 90.2962 44.4621 88.9915 44.17 87.6477C44.17 87.6477 44.17 87.6185 44.17 87.599C44.17 87.5796 59.8224 80.3741 57.5245 54.2056C58.2207 53.7187 58.951 53.2319 59.7202 52.745L60.3726 52.3604C61.6032 51.6357 62.8762 50.9854 64.1847 50.413L65.0269 50.0478C65.4213 49.8774 65.8303 49.7216 66.2441 49.561C66.9646 49.2835 67.7046 49.0206 68.4836 48.782C68.8147 48.67 69.1506 48.5629 69.4914 48.4704C69.8322 48.3779 70.1389 48.2708 70.4651 48.188C70.7913 48.1053 71.2051 47.9787 71.58 47.8862H71.6628C88.8975 58.1686 80.8205 67.4627 83.026 81.2018C85.8644 98.8016 103.26 95.1697 117.788 80.7831Z" fill="white" stroke="white" stroke-width="1.5"/>
<path d="M44.5752 86.7479C44.5068 86.7881 44.4434 86.8244 44.3854 86.8572C43.481 84.9449 42.6736 83.3153 41.9032 81.8943C40.4283 79.1593 39.1638 77.1795 38.0421 75.4231C37.7195 74.9179 37.4086 74.4312 37.108 73.9503C35.7644 71.8013 34.6069 69.7434 33.4517 66.5949C32.5449 64.1076 31.3162 59.359 31.523 55.4014C31.6266 53.4194 32.0865 51.7148 33.0464 50.5783C33.9791 49.474 35.4531 48.8259 37.7948 49.089C47.2777 50.1605 52.3519 51.8435 54.894 53.0306L55.3379 53.2477L55.3378 53.2479L55.3496 53.2533C55.9672 53.5358 56.5327 53.9196 57.0228 54.3886C58.1198 67.248 54.8259 75.4187 51.2911 80.3683C49.5121 82.8594 47.6649 84.5447 46.2677 85.6048C45.5691 86.1348 44.9832 86.5084 44.5752 86.7479Z" fill="#003226" stroke="white"/>
<path d="M44.1603 87.5406C44.1368 87.5098 44.1187 87.4752 44.1067 87.4384C43.133 85.3693 42.2762 83.6312 41.4631 82.1317C37.6851 75.1258 35.3239 73.1492 32.9821 66.7665C31.1466 61.7324 27.9723 47.4821 37.8506 48.5921C47.3735 49.6681 52.505 51.3624 55.1097 52.5795L55.5576 52.7986C56.2841 53.1309 56.9441 53.5929 57.505 54.1618C59.8127 80.3157 44.1603 87.5406 44.1603 87.5406Z" stroke="#003226" stroke-width="3"/>
<path d="M68.2986 95.5543C64.282 96.4355 60.4115 94.5124 59.6812 91.231C58.9753 88.1443 61.317 84.97 64.9685 83.8551C64.8188 84.935 64.8484 86.0322 65.0561 87.1025C65.3559 88.7829 66.153 90.3347 67.3443 91.5572C67.8595 89.9257 67.9764 88.1945 67.6851 86.5085C67.473 85.4492 67.0723 84.4367 66.5021 83.5192C70.207 83.0323 73.6004 84.9165 74.2918 87.9739C75.0074 91.2553 72.3249 94.639 68.2986 95.5543Z" fill="#003226"/>
<path d="M72.763 106.056C72.7224 106.145 72.6495 106.215 72.5591 106.252C72.4687 106.289 72.3675 106.29 72.2762 106.255C70.2265 105.316 58.9656 105.574 51.4485 106.324C49.704 106.481 47.9696 106.736 46.2537 107.088C46.2231 107.093 46.1919 107.093 46.1613 107.088C46.0689 107.083 45.9814 107.045 45.9143 106.982C45.8472 106.918 45.8048 106.833 45.7949 106.741C45.7849 106.649 45.808 106.557 45.86 106.48C45.9119 106.404 45.9894 106.348 46.0785 106.324C47.6878 106.001 49.3128 105.762 50.947 105.608C58.4495 104.829 70.2314 104.473 72.5634 105.545C72.6113 105.564 72.6548 105.592 72.6911 105.629C72.7274 105.665 72.7558 105.709 72.7745 105.757C72.7932 105.805 72.8019 105.856 72.7999 105.907C72.7979 105.959 72.7854 106.009 72.763 106.056V106.056Z" fill="#003226"/>
<path d="M72.2811 108.383C72.2794 108.433 72.2673 108.482 72.2457 108.528C72.2241 108.573 72.1933 108.613 72.1554 108.646C72.1175 108.679 72.0732 108.704 72.0253 108.719C71.9774 108.734 71.9269 108.739 71.877 108.733C66.0883 108.3 60.3872 109.337 55.3239 110.881C51.7907 111.969 48.3344 113.293 44.9782 114.844C44.9278 114.866 44.8729 114.878 44.8175 114.878C44.7445 114.877 44.6732 114.855 44.6125 114.815C44.5519 114.774 44.5046 114.716 44.4767 114.649C44.4409 114.559 44.44 114.459 44.4743 114.369C44.5086 114.279 44.5755 114.205 44.6617 114.162C47.9219 112.656 51.2731 111.355 54.6958 110.267C59.9344 108.641 65.8935 107.507 71.9354 107.964C71.986 107.968 72.0355 107.982 72.0806 108.005C72.1257 108.028 72.1656 108.06 72.198 108.1C72.2303 108.139 72.2543 108.184 72.2686 108.233C72.2829 108.281 72.2871 108.333 72.2811 108.383V108.383Z" fill="#003226"/>
<path d="M77.0912 110.355C77.0925 110.456 77.0541 110.555 76.9841 110.628C76.914 110.702 76.8179 110.745 76.7163 110.749C75.0075 110.812 67.4953 113.028 62.2616 115.131C60.0902 116.017 58.2986 116.879 57.4953 117.565C57.4258 117.624 57.338 117.657 57.2469 117.658C57.1927 117.658 57.1391 117.645 57.0902 117.622C57.0413 117.598 56.9983 117.564 56.9646 117.521C56.9302 117.484 56.904 117.439 56.8875 117.391C56.871 117.343 56.8646 117.292 56.8687 117.241C56.8728 117.191 56.8873 117.141 56.9114 117.097C56.9354 117.052 56.9684 117.012 57.0084 116.981C57.7776 116.333 59.3258 115.545 61.244 114.741C66.5995 112.473 74.8371 110.038 76.7115 109.965C76.762 109.966 76.8118 109.976 76.8583 109.996C76.9047 110.016 76.9467 110.045 76.982 110.081C77.0173 110.117 77.0451 110.16 77.0638 110.207C77.0825 110.254 77.0918 110.304 77.0912 110.355Z" fill="#003226"/>
<path d="M121.712 92.0879C121.701 92.1861 121.655 92.2772 121.583 92.3443C121.51 92.4114 121.416 92.45 121.317 92.453C119.891 92.38 117.758 92.711 115.373 93.2855C108.805 94.8337 100.28 98.1541 98.878 99.6439C98.8047 99.7146 98.7072 99.7547 98.6054 99.7558C98.5554 99.7578 98.5055 99.7498 98.4587 99.7323C98.4119 99.7147 98.369 99.688 98.3327 99.6536C98.2628 99.581 98.2238 99.4842 98.2238 99.3834C98.2238 99.2826 98.2628 99.1858 98.3327 99.1132C99.8517 97.5114 108.868 94.0109 115.655 92.453C117.521 91.9701 119.439 91.715 121.366 91.6935C121.463 91.7022 121.553 91.748 121.618 91.8214C121.682 91.8949 121.716 91.9903 121.712 92.0879Z" fill="#003226"/>
<path d="M124.034 99.2885C124.029 99.3392 124.014 99.3884 123.99 99.4331C123.965 99.4779 123.932 99.5172 123.892 99.5486C123.852 99.58 123.806 99.603 123.756 99.616C123.707 99.629 123.656 99.6319 123.605 99.6244C119.839 99.2525 116.042 99.3179 112.291 99.8191C106.298 100.53 101.049 101.966 99.6959 102.901C99.6302 102.942 99.5543 102.964 99.4768 102.964C99.4152 102.965 99.3542 102.951 99.2997 102.922C99.2453 102.893 99.199 102.85 99.1653 102.799C99.1086 102.715 99.0871 102.613 99.1053 102.513C99.1235 102.414 99.18 102.326 99.2626 102.268C100.874 101.163 106.565 99.6925 112.783 99.0109C116.405 98.5637 120.066 98.518 123.698 98.8746C123.747 98.8795 123.795 98.8941 123.839 98.9176C123.882 98.941 123.921 98.973 123.952 99.0114C123.984 99.0499 124.007 99.0942 124.021 99.1418C124.035 99.1893 124.039 99.2392 124.034 99.2885V99.2885Z" fill="#003226"/>
<path d="M120.027 105.408C120.007 105.507 119.949 105.595 119.865 105.651C119.781 105.708 119.678 105.729 119.579 105.71C117.632 105.325 112.456 105.223 107.408 105.325C102.228 105.433 97.2081 105.754 96.064 106.221C96.0155 106.227 95.9664 106.227 95.9179 106.221C95.8416 106.222 95.7668 106.199 95.7034 106.157C95.64 106.114 95.5909 106.054 95.5625 105.983C95.5296 105.89 95.5328 105.789 95.5716 105.698C95.6104 105.608 95.682 105.536 95.7719 105.496C97.1691 104.931 102.797 104.59 108.338 104.522C113.206 104.459 117.997 104.595 119.735 104.936C119.836 104.96 119.923 105.024 119.978 105.112C120.033 105.2 120.05 105.307 120.027 105.408V105.408Z" fill="#003226"/>
<path d="M92.101 100.009C91.8186 98.4072 88.6345 97.9155 84.9296 98.5728C81.2246 99.23 78.4008 100.768 78.6832 102.37C78.9656 103.972 82.9189 108.855 86.6238 108.213C90.3288 107.57 92.3785 101.601 92.101 100.009ZM89.5304 101.83C89.2895 101.871 89.0418 101.841 88.8182 101.742C88.5946 101.643 88.4051 101.481 88.2735 101.275C88.1419 101.069 88.0739 100.829 88.0782 100.585C88.0825 100.34 88.1589 100.102 88.2977 99.9013C88.4365 99.7002 88.6316 99.5444 88.8585 99.4537C89.0855 99.3629 89.3341 99.3412 89.5734 99.3911C89.8126 99.4411 90.0318 99.5606 90.2034 99.7346C90.375 99.9086 90.4915 100.129 90.5382 100.369C90.5718 100.532 90.5722 100.699 90.5393 100.862C90.5064 101.024 90.4408 101.179 90.3466 101.315C90.2524 101.452 90.1315 101.568 89.9912 101.656C89.8509 101.745 89.6942 101.804 89.5304 101.83V101.83Z" fill="#003226"/>
<path d="M117.612 68.3244C117.369 69.8629 117.125 71.6448 116.911 73.7188C117.607 76.0056 117.904 78.3954 117.788 80.7831C103.26 95.1697 85.8643 98.7967 83.0114 81.1677C80.8059 67.4286 88.8829 58.1345 71.6482 47.8521C72.2178 47.7061 72.7728 47.5697 73.3327 47.448C74.4281 47.2046 75.5089 47.0001 76.5605 46.82C77.2665 46.708 77.9773 46.6009 78.6735 46.5279C79.4622 46.4256 80.246 46.3429 81.0153 46.2893C82.1204 46.2065 83.1915 46.1676 84.2431 46.1676C84.691 46.1676 85.1243 46.1676 85.5528 46.1676L86.2392 46.1968C86.6044 46.1968 86.9695 46.2406 87.3201 46.2699C88.0114 46.3234 88.6979 46.3964 89.3649 46.4889C89.7349 46.5327 90.1097 46.596 90.4846 46.6545C90.5553 46.6644 90.6252 46.679 90.694 46.6983C90.9958 46.7518 91.2977 46.8005 91.5995 46.8638C91.9014 46.9271 92.0474 46.9563 92.2665 47.0099C92.6414 47.0926 93.0163 47.1851 93.3911 47.2825C93.8069 46.5528 94.338 45.8952 94.9637 45.3351C96.9501 43.3487 101.239 39.9797 110.188 35.7586C119.136 31.5376 120.787 46.0654 120.679 51.4208C120.548 58.3633 118.912 60.2767 117.612 68.3244V68.3244Z" fill="#003226" stroke="#003021" stroke-width="3"/>
</svg>
