<svg width="22" height="21" viewBox="0 0 22 21" fill="none" xmlns="http://www.w3.org/2000/svg">
<path fill-rule="evenodd" clip-rule="evenodd" d="M11 17.8966C16.5228 17.8966 21 14.1141 21 9.44828C21 4.78242 16.5228 1 11 1C5.47715 1 1 4.78242 1 9.44828C1 11.2701 1.68254 12.9571 2.84337 14.337L1.625 20.0625L6.52009 17.0034C7.86773 17.5749 9.3894 17.8966 11 17.8966Z" fill="#fcfcfc" stroke="#2A2E3B" stroke-width="1.5" stroke-linecap="round" stroke-linejoin="round"/>
<path fill-rule="evenodd" clip-rule="evenodd" d="M10.9986 10.6875C11.6236 10.6875 12.2486 10.0625 12.2486 9.4375C12.2486 8.8125 11.6236 8.1875 10.9986 8.1875C10.3736 8.1875 9.75 8.8125 9.75 9.4375C9.75 10.0625 10.3736 10.6875 10.9986 10.6875ZM5.99855 10.6875C6.62355 10.6875 7.24855 10.0625 7.24855 9.4375C7.24855 8.8125 6.62355 8.1875 5.99855 8.1875C5.37355 8.1875 4.75 8.8125 4.75 9.4375C4.75 10.0625 5.37355 10.6875 5.99855 10.6875ZM15.9986 10.6875C16.6236 10.6875 17.2486 10.0625 17.2486 9.4375C17.2486 8.8125 16.6236 8.1875 15.9986 8.1875C15.3736 8.1875 14.75 8.8125 14.75 9.4375C14.75 10.0625 15.3736 10.6875 15.9986 10.6875Z" fill="#2A2E3B"/>
</svg>
