<?xml version="1.0" encoding="utf-8"?>
<!-- Generator: Adobe Illustrator 21.1.0, SVG Export Plug-In . SVG Version: 6.00 Build 0)  -->
<svg version="1.1" id="Layer_1" xmlns="http://www.w3.org/2000/svg" xmlns:xlink="http://www.w3.org/1999/xlink" x="0px" y="0px"
	 viewBox="0 0 544.5 487.5" style="enable-background:new 0 0 544.5 487.5;" xml:space="preserve">
<style type="text/css">
	.st0{fill:#5FA503;}
	.st1{fill:#14281D;}
	.st2{fill:#FFFFFF;}
	.st3{fill:none;stroke:#5DBA33;stroke-width:2.4537;}
</style>
<path class="st0" d="M128,52.6c-3.1-0.2-5.4,2.4-6.3,5.3c-0.5-2.9-2.4-5.8-5.5-6.1c-3.3-0.3-5.5,2.3-5.8,5.9
	c-0.4,5.7,4.2,10.7,9.3,16.2c0.5,0.5,1.3,0.6,1.8,0.1c5.8-4.8,11-9.1,11.4-14.8C133.1,55.6,131.3,52.8,128,52.6z M89.4,67
	c-2.9,1.2-3.8,4.5-3.4,7.4c-1.7-2.4-4.7-4.2-7.6-3.1c-3.1,1.2-4,4.5-2.7,7.8c2.1,5.3,8.4,7.9,15.3,10.7c0.7,0.3,1.4,0,1.7-0.7
	c3.1-6.8,6-13,3.9-18.3C95.3,67.6,92.5,65.8,89.4,67z M44.2,197.4c-2.9,1.2-3.8,4.5-3.4,7.4c-1.7-2.4-4.7-4.2-7.6-3.1
	c-3.1,1.2-4,4.5-2.7,7.8c2.1,5.3,8.4,7.9,15.3,10.7c0.7,0.3,1.4,0,1.7-0.7c3.1-6.8,6-13,3.9-18.3C50.2,197.9,47.3,196.1,44.2,197.4z
	 M69.8,378.8c-3,0.6-4.6,3.7-4.7,6.7c-1.2-2.7-3.8-5.1-6.8-4.5c-3.3,0.6-4.8,3.6-4.1,7.2c1,5.6,6.7,9.3,13,13.4
	c0.6,0.4,1.4,0.2,1.8-0.3c4.4-6.1,8.4-11.6,7.3-17.2C75.5,380.4,73.1,378.1,69.8,378.8z M244.6,431.1c-3-0.7-5.7,1.5-7,4.2
	c0-3-1.4-6.2-4.4-6.9c-3.2-0.8-5.8,1.4-6.7,4.9c-1.3,5.6,2.4,11.2,6.5,17.5c0.4,0.6,1.2,0.8,1.8,0.4c6.5-3.8,12.3-7.2,13.7-12.8
	C249.2,434.9,247.8,431.8,244.6,431.1z M516.6,197.2c-3-0.7-5.7,1.5-7,4.2c0-3-1.4-6.2-4.4-6.9c-3.2-0.8-5.8,1.4-6.7,4.9
	c-1.3,5.6,2.4,11.2,6.5,17.5c0.4,0.6,1.2,0.8,1.8,0.4c6.5-3.8,12.3-7.2,13.7-12.8C521.2,201,519.9,197.9,516.6,197.2z M466.8,69.9
	c-3-0.8-5.7,1.4-7.1,4c0.1-3-1.3-6.2-4.3-7c-3.2-0.9-5.9,1.2-6.8,4.7c-1.5,5.5,2.1,11.3,6.1,17.7c0.4,0.6,1.2,0.8,1.8,0.5
	c6.6-3.7,12.5-6.9,14-12.4C471.3,73.8,470,70.7,466.8,69.9z"/>
<path class="st1" d="M152.5,56.7c-0.3,0-0.5,0.1-0.7,0.2c-0.3,0.3-0.6,0.7-0.7,1.3c-0.5,2,0.9,4.2,2.6,6.7c2.6-1.5,4.8-2.9,5.2-4.9
	c0.1-0.5,0.1-1.1-0.1-1.4c-0.2-0.3-0.4-0.5-0.9-0.6l0,0c-0.8-0.2-1.6,0.5-2,1.3c-0.2,0.4-0.7,0.6-1.1,0.5c-0.2-0.1-0.4-0.2-0.6-0.3
	c-0.1-0.2-0.2-0.4-0.2-0.6c0-0.9-0.4-1.9-1.2-2.1C152.7,56.7,152.6,56.7,152.5,56.7z M153.5,67c-0.3,0-0.5-0.1-0.8-0.2
	c-0.2-0.1-0.4-0.3-0.6-0.5l-0.1-0.1c-1.9-2.9-3.6-5.6-3-8.4c0.2-1,0.7-1.8,1.4-2.4c0.8-0.6,1.7-0.8,2.7-0.6c1.1,0.3,1.8,1,2.2,1.9
	c0.8-0.6,1.8-0.9,2.8-0.7c1,0.2,1.8,0.8,2.2,1.7c0.4,0.8,0.5,1.7,0.3,2.8c-0.7,2.9-3.4,4.5-6.4,6.3l-0.1,0.1
	C154,66.9,153.8,67,153.5,67z M32.3,236.7c-0.2,0.1-0.4,0.3-0.5,0.6c-0.1,0.4-0.1,0.9,0.1,1.4c0.7,1.9,3,3,5.8,4.2
	c1.3-2.7,2.4-5,1.7-6.9c-0.2-0.5-0.5-0.9-0.9-1.1c-0.3-0.2-0.7-0.2-1.1-0.1l0,0c-0.8,0.3-1.1,1.3-0.9,2.2c0.1,0.5-0.2,0.9-0.6,1
	c-0.4,0.2-0.9,0-1.2-0.4c-0.5-0.7-1.4-1.4-2.2-1.1C32.5,236.6,32.4,236.6,32.3,236.7z M38.7,244.7c-0.4,0.3-1,0.3-1.5,0.1l-0.1-0.1
	c-3.1-1.4-6.1-2.7-7.1-5.4c-0.4-1-0.4-1.9-0.1-2.8c0.3-0.9,1-1.6,2-1.9c1-0.4,2-0.2,2.9,0.3c0.3-0.9,1-1.7,2-2.1
	c0.9-0.4,1.9-0.3,2.8,0.2c0.8,0.4,1.4,1.2,1.7,2.2c1,2.8-0.4,5.7-1.9,8.7l-0.1,0.1C39.2,244.3,39,244.6,38.7,244.7z M87.5,300.8
	c-0.2,0.1-0.4,0.3-0.5,0.5c-0.2,0.4-0.2,0.9-0.1,1.4c0.4,2,2.6,3.4,5.1,5c1.7-2.5,3.1-4.6,2.7-6.6c-0.1-0.6-0.4-1-0.7-1.3
	c-0.3-0.2-0.6-0.3-1-0.2c-0.8,0.2-1.2,1.2-1.3,2.1c0,0.5-0.3,0.9-0.8,0.9c-0.2,0-0.4,0-0.6-0.1c-0.2-0.1-0.4-0.3-0.5-0.5
	c-0.4-0.8-1.1-1.5-2-1.4C87.7,300.7,87.6,300.7,87.5,300.8z M92.8,309.7c-0.5,0.2-1,0.2-1.5-0.1l-0.1-0.1c-2.9-1.8-5.7-3.5-6.3-6.4
	c-0.2-1-0.1-2,0.3-2.8c0.4-0.9,1.2-1.4,2.2-1.6c1.1-0.2,2,0.1,2.8,0.7c0.5-0.9,1.2-1.6,2.3-1.8c1-0.2,1.9,0,2.7,0.6
	c0.7,0.6,1.2,1.4,1.4,2.4c0.6,2.9-1.2,5.5-3.1,8.4l-0.1,0.1C93.2,309.4,93,309.5,92.8,309.7z M63.9,427.2c-0.2,0.1-0.4,0.3-0.5,0.5
	c-0.2,0.4-0.2,0.9,0,1.4c0.5,2,2.8,3.2,5.4,4.7c1.5-2.6,2.8-4.8,2.3-6.8c-0.2-0.5-0.4-1-0.8-1.2c-0.3-0.2-0.7-0.3-1.1-0.2h0
	c-0.8,0.2-1.2,1.2-1.1,2.1c0,0.5-0.3,0.9-0.7,1c-0.4,0.1-0.9-0.1-1.1-0.5c-0.4-0.8-1.2-1.5-2.1-1.3C64.1,427.1,64,427.2,63.9,427.2z
	 M69.7,435.8c-0.5,0.2-1,0.3-1.5,0l-0.1-0.1c-3-1.6-5.8-3.2-6.6-6c-0.3-1-0.2-2,0.1-2.8c0.4-0.9,1.2-1.5,2.1-1.8
	c1.1-0.3,2.1,0,2.9,0.6c0.4-0.9,1.1-1.6,2.2-1.9c1-0.3,1.9-0.1,2.7,0.5c0.7,0.5,1.2,1.3,1.5,2.3c0.8,2.8-0.9,5.6-2.7,8.5l-0.1,0.1
	C70.2,435.5,70,435.7,69.7,435.8z M157.8,470.6c-0.2,0.1-0.4,0.2-0.6,0.4c-0.2,0.3-0.4,0.8-0.3,1.4c0.1,2,2.1,3.7,4.4,5.7
	c2-2.2,3.8-4.1,3.7-6.2c0-0.6-0.2-1-0.5-1.3c-0.3-0.3-0.6-0.4-1-0.4c-0.9,0.1-1.4,1-1.5,1.9c-0.1,0.5-0.5,0.8-0.9,0.8
	c-0.2,0-0.4,0-0.6-0.2c-0.2-0.1-0.3-0.3-0.4-0.5c-0.3-0.9-0.9-1.7-1.8-1.7C158,470.5,157.9,470.5,157.8,470.6z M161.7,480.1
	c-0.5,0.1-1,0-1.5-0.3l-0.1-0.1c-2.6-2.2-5.1-4.3-5.2-7.2c-0.1-1,0.2-2,0.7-2.7c0.6-0.8,1.4-1.2,2.4-1.3c1.1-0.1,2,0.4,2.7,1.2
	c0.6-0.8,1.4-1.4,2.5-1.5c1-0.1,1.9,0.3,2.6,1c0.6,0.6,1,1.5,1,2.6c0.2,2.9-2,5.3-4.4,7.8l-0.1,0.1
	C162.2,479.9,161.9,480.1,161.7,480.1z M268.4,436.6c-0.3,0-0.5,0.1-0.7,0.2c-0.3,0.3-0.6,0.7-0.7,1.3c-0.5,2,0.9,4.2,2.6,6.7
	c2.6-1.5,4.8-2.9,5.2-4.9c0.1-0.5,0.1-1.1-0.1-1.4c-0.2-0.3-0.4-0.5-0.9-0.6l0,0c-0.8-0.2-1.6,0.5-2,1.3c-0.2,0.4-0.7,0.6-1.1,0.5
	c-0.2-0.1-0.4-0.2-0.6-0.3c-0.1-0.2-0.2-0.4-0.2-0.6c0-0.9-0.4-1.9-1.2-2.1C268.6,436.6,268.5,436.6,268.4,436.6z M269.4,446.9
	c-0.3,0-0.5-0.1-0.8-0.2c-0.2-0.1-0.4-0.3-0.6-0.5l-0.1-0.1c-1.9-2.9-3.6-5.6-3-8.4c0.2-1,0.7-1.8,1.4-2.4c0.8-0.6,1.7-0.8,2.7-0.6
	c1.1,0.3,1.8,1,2.2,1.9c0.8-0.6,1.8-0.9,2.8-0.7c1,0.2,1.8,0.8,2.2,1.7c0.4,0.8,0.5,1.7,0.3,2.8c-0.7,2.9-3.4,4.5-6.4,6.3l-0.1,0.1
	C270,446.8,269.7,446.9,269.4,446.9z M519.3,273c-0.3-0.1-0.5,0-0.7,0.1c-0.4,0.2-0.7,0.5-1,1c-0.9,1.8-0.1,4.3,0.9,7.1
	c2.9-0.9,5.3-1.6,6.3-3.4c0.3-0.5,0.3-1,0.3-1.4c-0.1-0.4-0.3-0.6-0.7-0.8c-0.8-0.4-1.7,0.1-2.3,0.8c-0.3,0.3-0.8,0.4-1.2,0.2
	c-0.2-0.1-0.4-0.3-0.4-0.5c-0.1-0.2-0.1-0.4-0.1-0.6c0.2-0.9,0.1-1.9-0.7-2.3C519.5,273.1,519.4,273.1,519.3,273z M517.8,283.3
	c-0.5-0.1-0.9-0.5-1.1-1l0-0.1c-1.1-3.2-2.2-6.3-0.8-8.9c0.5-0.9,1.2-1.6,2-1.9c0.9-0.4,1.9-0.3,2.8,0.1c1,0.5,1.5,1.4,1.7,2.4
	c0.9-0.4,1.9-0.5,2.9,0c0.9,0.5,1.5,1.2,1.7,2.2c0.2,0.9,0,1.8-0.4,2.7c-1.3,2.6-4.4,3.5-7.7,4.5l-0.1,0
	C518.3,283.3,518.1,283.3,517.8,283.3z M518.3,174c-0.3-0.1-0.5,0-0.7,0.1c-0.4,0.2-0.7,0.5-1,1c-0.9,1.8-0.1,4.3,0.9,7.1
	c2.9-0.9,5.3-1.6,6.3-3.5c0.3-0.5,0.3-1,0.3-1.4c-0.1-0.4-0.3-0.6-0.7-0.8v0c-0.8-0.4-1.7,0.1-2.3,0.8c-0.3,0.3-0.8,0.4-1.2,0.2
	c-0.2-0.1-0.4-0.3-0.4-0.5c-0.1-0.2-0.1-0.4-0.1-0.6c0.2-0.9,0.1-1.9-0.7-2.3C518.5,174,518.4,174,518.3,174z M516.8,184.2
	c-0.3-0.1-0.5-0.2-0.7-0.4c-0.2-0.2-0.3-0.4-0.4-0.6l0-0.1c-1.1-3.2-2.2-6.3-0.8-8.9c0.5-0.9,1.2-1.6,2-1.9c0.9-0.4,1.9-0.3,2.8,0.1
	c1,0.5,1.5,1.4,1.7,2.3c0.9-0.4,1.9-0.5,2.9,0c0.9,0.5,1.5,1.2,1.7,2.2c0.2,0.9,0,1.8-0.4,2.7c-1.3,2.6-4.4,3.5-7.7,4.5l-0.1,0
	C517.3,184.3,517,184.3,516.8,184.2z M418.1,194c-0.2,0.2-0.3,0.4-0.4,0.6c-0.1,0.4-0.1,0.9,0.2,1.4c0.8,1.9,3.2,2.8,6,3.8
	c1.2-2.8,2.1-5.2,1.3-7c-0.2-0.5-0.6-0.9-0.9-1.1c-0.3-0.2-0.7-0.2-1.1,0c-0.8,0.3-1,1.4-0.8,2.3c0.1,0.5-0.2,0.9-0.6,1.1
	c-0.4,0.2-0.9,0.1-1.2-0.3c-0.5-0.7-1.4-1.3-2.2-0.9C418.3,193.9,418.2,194,418.1,194z M425.1,201.7c-0.4,0.3-1,0.4-1.5,0.2l-0.1,0
	c-3.2-1.2-6.2-2.3-7.4-5c-0.4-1-0.5-1.9-0.3-2.8c0.3-0.9,0.9-1.7,1.8-2.1c1-0.4,2-0.3,2.9,0.2c0.3-0.9,0.9-1.8,1.9-2.2
	c0.9-0.4,1.9-0.4,2.8,0c0.8,0.4,1.4,1.1,1.9,2.1c1.2,2.7-0.1,5.7-1.4,8.8l0,0.1C425.5,201.3,425.3,201.5,425.1,201.7z M484.8,85
	c-0.3-0.1-0.5,0-0.7,0.1c-0.4,0.2-0.7,0.5-1,1c-0.9,1.8-0.1,4.3,0.9,7.1c2.9-0.9,5.3-1.7,6.3-3.5c0.3-0.5,0.3-1,0.2-1.4
	c-0.1-0.4-0.3-0.6-0.7-0.8v0c-0.8-0.4-1.7,0.1-2.3,0.8c-0.3,0.4-0.8,0.5-1.2,0.2c-0.4-0.2-0.6-0.7-0.5-1.1c0.2-0.9,0.1-1.9-0.7-2.3
	C485,85.1,484.9,85,484.8,85z M483.3,95.2c-0.3-0.1-0.5-0.2-0.7-0.4c-0.2-0.2-0.3-0.4-0.4-0.6l0-0.1c-1.1-3.2-2.2-6.3-0.9-8.9
	c0.5-0.9,1.2-1.6,2-2c0.9-0.4,1.9-0.4,2.8,0.1c1,0.5,1.5,1.4,1.7,2.3c0.9-0.4,1.9-0.5,2.9,0c0.9,0.4,1.5,1.2,1.7,2.2
	c0.2,0.9,0.1,1.8-0.4,2.7c-1.3,2.6-4.4,3.6-7.7,4.6l-0.1,0C483.8,95.3,483.6,95.3,483.3,95.2z M179.6,185.9c-0.3,0-0.5,0-0.7,0.1
	c-0.4,0.2-0.7,0.6-0.9,1.1c-0.7,1.9,0.4,4.2,1.7,7c2.8-1.2,5.1-2.2,5.8-4.1c0.2-0.5,0.2-1,0.1-1.4c-0.1-0.4-0.4-0.6-0.8-0.7v0
	c-0.8-0.3-1.7,0.3-2.2,1.1c-0.3,0.4-0.7,0.5-1.2,0.4c-0.4-0.2-0.7-0.6-0.6-1.1c0.1-0.9-0.1-1.9-0.9-2.2
	C179.8,186,179.7,185.9,179.6,185.9z M179.2,196.3c-0.5-0.1-1-0.4-1.2-0.9l-0.1-0.1c-1.5-3.1-2.9-6-1.8-8.7c0.4-1,1-1.7,1.7-2.2
	c0.8-0.5,1.8-0.5,2.8-0.2c1,0.4,1.7,1.2,2,2.1c0.9-0.5,1.9-0.7,2.9-0.3c0.9,0.3,1.6,1,1.9,2c0.3,0.8,0.2,1.8-0.1,2.8
	c-1,2.7-4,4-7.2,5.4l-0.1,0.1C179.8,196.3,179.5,196.3,179.2,196.3z"/>
<path class="st0" d="M120.9,174.1c0,1.4-1.1,2.5-2.5,2.5c-1.4,0-2.5-1.1-2.5-2.5c0-1.4,1.1-2.5,2.5-2.5
	C119.8,171.6,120.9,172.7,120.9,174.1z M189.6,162.3c0,1.4-1.1,2.5-2.5,2.5c-1.4,0-2.5-1.1-2.5-2.5s1.1-2.5,2.5-2.5
	C188.5,159.8,189.6,161,189.6,162.3z M184.8,55.7c0,1.4-1.1,2.5-2.5,2.5c-1.4,0-2.5-1.1-2.5-2.5c0-1.4,1.1-2.5,2.5-2.5
	C183.6,53.3,184.8,54.4,184.8,55.7z M397.4,47.5c0,1.4-1.1,2.5-2.5,2.5c-1.4,0-2.5-1.1-2.5-2.5c0-1.4,1.1-2.5,2.5-2.5
	C396.3,45,397.4,46.1,397.4,47.5z M456.3,49c0,1.4-1.1,2.5-2.5,2.5c-1.4,0-2.5-1.1-2.5-2.5c0-1.4,1.1-2.5,2.5-2.5
	C455.2,46.5,456.3,47.7,456.3,49z M412.3,120.6c0,1.4-1.1,2.5-2.5,2.5c-1.4,0-2.5-1.1-2.5-2.5c0-1.4,1.1-2.5,2.5-2.5
	C411.2,118.2,412.3,119.3,412.3,120.6z M509.6,104.3c0,1.4-1.1,2.5-2.5,2.5s-2.5-1.1-2.5-2.5c0-1.4,1.1-2.5,2.5-2.5
	S509.6,102.9,509.6,104.3z M527.4,151.7c0,1.4-1.1,2.5-2.5,2.5c-1.4,0-2.5-1.1-2.5-2.5c0-1.4,1.1-2.5,2.5-2.5
	C526.3,149.3,527.4,150.4,527.4,151.7z M487.5,232.1c0,1.4-1.1,2.5-2.5,2.5c-1.4,0-2.5-1.1-2.5-2.5c0-1.4,1.1-2.5,2.5-2.5
	C486.4,229.7,487.5,230.8,487.5,232.1z M514.1,302.7c0,1.4-1.1,2.5-2.5,2.5c-1.4,0-2.5-1.1-2.5-2.5s1.1-2.5,2.5-2.5
	C513,300.2,514.1,301.4,514.1,302.7z M217.6,463.8c0,1.4-1.1,2.5-2.5,2.5c-1.4,0-2.5-1.1-2.5-2.5c0-1.4,1.1-2.5,2.5-2.5
	C216.5,461.3,217.6,462.4,217.6,463.8z M296.7,452.9c0,1.4-1.1,2.5-2.5,2.5c-1.4,0-2.5-1.1-2.5-2.5c0-1.4,1.1-2.5,2.5-2.5
	C295.6,450.5,296.7,451.6,296.7,452.9z M167.7,365.2c0,1.4-1.1,2.5-2.5,2.5c-1.4,0-2.5-1.1-2.5-2.5c0-1.4,1.1-2.5,2.5-2.5
	C166.6,362.7,167.7,363.8,167.7,365.2z M110.3,323.5c0,1.4-1.1,2.5-2.5,2.5c-1.4,0-2.5-1.1-2.5-2.5c0-1.4,1.1-2.5,2.5-2.5
	C109.2,321,110.3,322.1,110.3,323.5z M36.8,265.4c0,1.4-1.1,2.5-2.5,2.5c-1.4,0-2.5-1.1-2.5-2.5c0-1.4,1.1-2.5,2.5-2.5
	C35.7,263,36.8,264.1,36.8,265.4z M19.4,187.8c0,1.4-1.1,2.5-2.5,2.5c-1.4,0-2.5-1.1-2.5-2.5s1.1-2.5,2.5-2.5
	C18.2,185.3,19.4,186.4,19.4,187.8z M83.5,456.6c0,1.4-1.1,2.5-2.5,2.5c-1.4,0-2.5-1.1-2.5-2.5c0-1.4,1.1-2.5,2.5-2.5
	C82.4,454.1,83.5,455.2,83.5,456.6z M49.2,359.9c0,1.4-1.1,2.5-2.5,2.5c-1.4,0-2.5-1.1-2.5-2.5c0-1.4,1.1-2.5,2.5-2.5
	C48.1,357.4,49.2,358.5,49.2,359.9z M164.8,405.2c3.6,9.5,3.3,19.8-0.9,29c-4.2,9.2-11.7,16.3-21.2,19.9c-9.5,3.6-19.8,3.3-29-0.9
	c-9.2-4.2-16.3-11.7-19.9-21.1c-3.6-9.5-3.3-19.8,0.9-29c4.2-9.2,11.7-16.3,21.2-19.9c9.5-3.6,19.8-3.3,29,0.9
	C154.2,388.2,161.2,395.7,164.8,405.2z"/>
<path class="st1" d="M142.8,454.1c-9.5,3.6-19.8,3.3-29-0.9c-9.2-4.2-16.3-11.7-19.9-21.2c-3.6-9.5-3.3-19.8,0.9-29
	c4.2-9.2,11.7-16.3,21.2-19.9c9.5-3.6,19.8-3.3,29,0.9c9.2,4.2,16.3,11.7,19.9,21.1c3.6,9.5,3.3,19.8-0.9,29
	C159.8,443.4,152.3,450.5,142.8,454.1z M114.4,378.9c-21.9,8.3-32.9,32.8-24.7,54.7c8.3,21.9,32.8,32.9,54.7,24.7
	c21.9-8.3,32.9-32.8,24.7-54.7C160.8,381.7,136.3,370.7,114.4,378.9z"/>
<path class="st2" d="M116.7,438.8c2.5,1,6.3,0.5,7.4,0.3c1.4,1.1,4.8,2.5,7,2.6C126.7,445,119,442.7,116.7,438.8z"/>
<path class="st2" d="M124.5,437.8c13.6,8.5,22.6-4.2,24.3-11.1c2.8-5.6,6.3-6.6,8.3-12.4c1.3-3.6,1.9-7.7-0.7-8.6
	c-2.5-0.8-9.2-0.4-12.9,1.4c-5.4-4.1-12.8-6.5-20.2-5.5c-1.8-2.7-3.1-3.8-4.9-5.1c-1.8-1.3-4.3-3.3-5.8-3.4
	c-1.5-0.1-4.7,2.6-5.1,9.2c-0.4,5.5,1.3,9.2,0.6,13C104.2,430.2,109.7,439.6,124.5,437.8z"/>
<path class="st1" d="M117.9,432.1c0,0-0.1,0-0.1,0c-3.3-2.4-9.5-5-13.5-6.1c0,0-0.1,0-0.1,0c0,0,0,0-0.1-0.1c0,0,0-0.1,0-0.1
	c0,0,0-0.1,0-0.1c0-0.1,0.2-0.2,0.3-0.2c4.1,1.2,10.4,3.8,13.7,6.2c0,0,0,0,0.1,0.1c0,0,0,0.1,0,0.1c0,0,0,0.1,0,0.1
	c0,0,0,0.1,0,0.1C118,432.1,118,432.1,117.9,432.1C118,432.1,117.9,432.1,117.9,432.1z M117,433.2c0,0-0.1,0-0.1,0
	c-4.1-2.3-9.6-3.6-15.2-3.5c-0.1,0-0.2-0.1-0.2-0.2c0-0.1,0-0.1,0.1-0.2c0,0,0.1-0.1,0.2-0.1c5.7-0.1,11.3,1.2,15.5,3.6
	c0.1,0,0.1,0.1,0.1,0.1c0,0.1,0,0.1,0,0.2c0,0,0,0.1-0.1,0.1C117.1,433.2,117,433.2,117,433.2z M119,435.5
	C119,435.5,118.9,435.5,119,435.5c-3.5-1.1-7.8-1.6-11.7-1.3c-0.1,0-0.2-0.1-0.2-0.2c0-0.1,0-0.1,0.1-0.2s0.1-0.1,0.2-0.1
	c3.9-0.2,8.3,0.3,11.8,1.3c0.1,0,0.2,0.2,0.1,0.3c0,0,0,0.1-0.1,0.1C119.1,435.5,119,435.5,119,435.5z M146.5,437.3
	C146.5,437.3,146.4,437.3,146.5,437.3c-2.8-1.3-9.4-2.5-13.4-2c-0.1,0-0.2-0.1-0.2-0.2c0,0,0-0.1,0-0.1c0,0,0-0.1,0-0.1
	c0,0,0,0,0.1-0.1c0,0,0.1,0,0.1,0c4.1-0.5,10.8,0.7,13.6,2c0.1,0,0.1,0.1,0.1,0.1c0,0.1,0,0.1,0,0.2c0,0,0,0.1-0.1,0.1
	C146.6,437.3,146.5,437.3,146.5,437.3z M145.9,441.5c0,0-0.1,0-0.1,0c-2.9-1.9-9.5-4.3-13.1-4.3c0,0,0,0,0,0c-0.1,0-0.1,0-0.2-0.1
	c0,0-0.1-0.1-0.1-0.2c0-0.1,0.1-0.2,0.3-0.2c3.7,0,10.3,2.4,13.3,4.4c0.1,0.1,0.1,0.2,0.1,0.3c0,0,0,0.1-0.1,0.1
	C146,441.5,145.9,441.5,145.9,441.5z M142.3,443.7c0,0-0.1,0-0.1,0c-2.4-1.6-11.2-5.8-12.2-5.6c-0.1,0-0.2-0.1-0.2-0.2
	c0-0.1,0-0.1,0-0.2c0,0,0.1-0.1,0.1-0.1c1.2-0.2,10.4,4.3,12.5,5.7c0,0,0.1,0.1,0.1,0.1s0,0.1,0,0.2c0,0,0,0.1-0.1,0.1
	C142.4,443.6,142.4,443.7,142.3,443.7z M127.9,434.2c-0.4,0-0.7-0.3-0.7-0.7c0-0.4,0.3-0.7,0.7-0.7c0.4,0,0.7,0.3,0.7,0.7
	C128.6,433.8,128.3,434.2,127.9,434.2z M126.9,431.5c-1.8-0.6-4.5-1.1-4.9,0.1c-0.4,1.2,0.7,4.4,2.4,4.9c1.8,0.6,4.3-0.9,5.1-2.7
	C129.8,433.1,128.7,432.2,126.9,431.5z M108,415.4c6.2,0,12.3-5.6,15.3-13.8c-1.8-2.7-3.1-3.8-4.9-5.1c-1.8-1.3-4.3-3.3-5.8-3.4
	c-1.5-0.1-4.7,2.6-5.1,9.2C107,407.9,108.7,411.5,108,415.4C108,415.4,108,415.4,108,415.4z M156.4,405.6c-2.5-0.8-9.2-0.4-12.9,1.4
	c-3.2-2.4-7.2-4.3-11.4-5.2c3.7,5.7,3.4,9.1,0.2,14.3c-2.6,4.1-3.9,8.5-2.4,12.1c1.7,3.9,9.5,5.1,17.5,2.2c0.7-1.4,1.2-2.7,1.4-3.8
	c2.8-5.6,6.3-6.6,8.3-12.4C158.4,410.6,159,406.5,156.4,405.6z M120.5,419c0.1,1.1-0.1,2.8-1.6,4.3c-0.6-1.7-0.1-3.3,0.8-4.5
	c-2.1-0.3-4.1,0.7-4.5,2.4c-0.5,1.9,1,3.8,3.3,4.4c2.3,0.6,4.5-0.5,4.9-2.4C123.7,421.5,122.5,419.7,120.5,419z"/>
<path class="st0" d="M500.6,133.4c3.6,9.5,3.3,19.8-0.9,29c-4.2,9.2-11.7,16.3-21.1,19.9c-9.5,3.6-19.8,3.3-29-0.9
	c-9.2-4.2-16.3-11.7-19.9-21.1c-3.6-9.5-3.3-19.8,0.9-29c4.2-9.2,11.7-16.3,21.2-19.9c9.5-3.6,19.8-3.3,29,0.9
	C490,116.4,497,123.9,500.6,133.4z"/>
<path class="st1" d="M478.6,182.2c-9.5,3.6-19.8,3.3-29-0.9c-9.2-4.2-16.3-11.7-19.9-21.2c-3.6-9.5-3.3-19.8,0.9-29
	c4.2-9.2,11.7-16.3,21.2-19.9c9.5-3.6,19.8-3.3,29,0.9c9.2,4.2,16.3,11.7,19.9,21.2c3.6,9.5,3.3,19.8-0.9,29
	C495.6,171.6,488.1,178.6,478.6,182.2z M450.2,107.1c-21.9,8.3-32.9,32.8-24.7,54.7c8.3,21.9,32.8,32.9,54.7,24.7
	c21.9-8.3,32.9-32.8,24.7-54.7C496.6,109.8,472.1,98.8,450.2,107.1z"/>
<path class="st2" d="M477.5,169.5c0.2,0.3,0.1,0.6-0.2,0.8l-0.7,0.4c-0.3,0.2-0.6,0.1-0.8-0.2l-0.6-0.9c0-0.1,0.1-0.2,0.1-0.4
	c0.2-0.7,0.6-1.2,1.1-1.6L477.5,169.5z M479.8,168.2c0.2,0.3,0.1,0.6-0.2,0.8l-0.7,0.4c-0.3,0.2-0.6,0.1-0.8-0.2l-1.1-1.9
	c0.6-0.3,1.2-0.3,1.9-0.2c0.1,0,0.3,0.1,0.4,0.1L479.8,168.2z"/>
<path class="st2" d="M482.8,166.4C482.8,166.4,482.7,166.4,482.8,166.4c-1,0.6-2.4,0.5-3.8,0.2c-1.9-0.4-3.7,0.7-4.2,2.5
	c-0.4,1.3-1,2.6-1.9,3.2c0,0,0,0,0,0c-6,3.6-13.9,1.2-16.9-5.3c-0.9-2-1.2-4.1-1-6.2c-1.7-3-2.3-6.3-1.8-9.5
	c-2.5-1.1-5.4-2.1-8.8-3.5c-5.4-2.2-11.5-12.6-10.5-14c1-1.3,9.6,0.9,14.5,4.7c3.1,2.4,5,4.8,7.1,6.7c1.2-2,3-3.7,5.1-5
	c7.2-4.3,16.4-2,20.8,5.1c1.7,0.7,3.3,1.8,4.6,3.3C490.6,154.3,488.9,162.7,482.8,166.4z"/>
<path class="st1" d="M454.3,147.1c-0.3,0.7-0.6,1.4-0.8,2.1c-1.2-0.5-2.5-1-3.9-1.5c-1.4-0.6-2.9-1.1-4.6-1.8
	c-3.2-1.3-6.7-6.1-8.4-9.2c-0.2-0.4,0.2-1,0.7-0.9c2.7,0.6,6.7,2.1,9.6,4.3c2,1.6,3.5,3.1,4.9,4.6
	C452.7,145.5,453.4,146.3,454.3,147.1z M465.6,159.6c-1.5-0.3-3.1-0.1-4.5,0.7c0,0-0.1,0.1-0.1,0.1c-0.4-0.4-0.8-0.8-1.1-1.3
	c-1.2-2-1-4.2,0.4-5.1c1.4-0.8,3.5,0.1,4.7,2C465.7,157.3,465.9,158.6,465.6,159.6z"/>
<path class="st2" d="M460.3,156.1c0.3-0.3,0.8-0.2,1,0.1c0.3,0.3,0.2,0.8-0.1,1c-0.3,0.3-0.8,0.2-1-0.1
	C460,156.8,460,156.4,460.3,156.1z"/>
<path class="st1" d="M475.5,159.7c-0.2,0.3-0.5,0.6-0.7,0.9c-0.5,0.9-0.7,1.9-0.8,2.5c-0.6-0.2-1.5-0.5-2.6-0.5
	c-0.4,0-0.8,0-1.1,0.1c-0.1-0.1-0.2-0.2-0.2-0.3c-0.9-1.4,0.2-2.4,1.6-3.2c1.4-0.9,2.7-1.3,3.6,0.1
	C475.4,159.5,475.5,159.6,475.5,159.7z M462.8,165.3c0.4,0.1,0.6,0.5,0.5,0.9c-0.1,0.4-0.5,0.6-0.9,0.5c-0.4-0.1-0.6-0.5-0.5-0.9
	C462,165.4,462.4,165.2,462.8,165.3z M463.9,168.7c0.2,0.3,0.1,0.8-0.3,1c-0.3,0.2-0.8,0.1-1-0.3c-0.2-0.3-0.1-0.8,0.3-1
	C463.2,168.2,463.7,168.3,463.9,168.7z M467.2,167.5c0.2,0.3,0.1,0.8-0.3,1c-0.3,0.2-0.8,0.1-1-0.3c-0.2-0.3-0.1-0.8,0.3-1
	C466.5,167.1,467,167.2,467.2,167.5z M479.6,156.3c0.2,0.3,0.7,0.5,1,0.3c0.3-0.2,0.5-0.7,0.3-1c-0.2-0.3-0.7-0.5-1-0.3
	C479.5,155.5,479.4,155.9,479.6,156.3z M481.9,158.8c0.2,0.3,0.7,0.5,1,0.3c0.3-0.2,0.5-0.7,0.3-1c-0.2-0.3-0.7-0.5-1-0.3
	C481.9,158,481.7,158.4,481.9,158.8z M479.2,160.4c0.2,0.3,0.7,0.5,1,0.3c0.3-0.2,0.5-0.7,0.3-1c-0.2-0.3-0.7-0.5-1-0.3
	C479.1,159.6,479,160.1,479.2,160.4z M473.8,139.1c0.3-2.8,0.7-5.8,1.2-9.6c0.6-5.8-5.6-16.2-7.2-15.9c-1.6,0.2-3.8,8.8-2.8,14.9
	c0.6,3.9,1.8,6.7,2.5,9.5c-2.2,0.1-4.3,0.7-6.3,1.7c-1.7-0.7-3.3-1.6-4.7-2.7c0.4,1.2,1,2.5,1.7,3.6c0.1,0.1,0.2,0.3,0.3,0.4
	c-1.1-0.3-2.1-0.7-3.1-1.1c0.2,0.4,0.4,0.9,0.7,1.3c0.3,0.6,0.7,1.1,1.1,1.6l0,0c2.6,2.2,5.6,3.4,6.6,3.8c1.5,0.7,2.7,3.2,3.1,4.3
	c1.3,3.4,4.6,5,7.9,3.8c3.3-1.3,4.2-5.3,4.2-5.3c0.1-1.6,1.2-3.4,1.7-3.7c0.2-0.1,0.5-0.3,0.7-0.4
	C479.4,142.3,476.8,140.2,473.8,139.1z"/>
<path class="st0" d="M90.7,165.3c-5.2,8.7-13.5,14.8-23.4,17.2c-9.8,2.4-20,0.9-28.7-4.3c-8.7-5.2-14.8-13.5-17.2-23.4
	c-2.4-9.8-0.9-20,4.3-28.7c5.2-8.7,13.5-14.8,23.4-17.2c9.8-2.4,20-0.9,28.7,4.3c8.7,5.2,14.8,13.5,17.2,23.4
	C97.5,146.4,96,156.6,90.7,165.3z"/>
<path class="st3" d="M90.7,165.3c-5.2,8.7-13.5,14.8-23.4,17.2c-9.8,2.4-20,0.9-28.7-4.3c-8.7-5.2-14.8-13.5-17.2-23.4
	c-2.4-9.8-0.9-20,4.3-28.7c5.2-8.7,13.5-14.8,23.4-17.2c9.8-2.4,20-0.9,28.7,4.3c8.7,5.2,14.8,13.5,17.2,23.4
	C97.5,146.4,96,156.6,90.7,165.3L90.7,165.3z"/>
<path class="st1" d="M38.7,178.2c-8.7-5.2-14.8-13.5-17.2-23.4c-2.4-9.8-0.9-20,4.3-28.7c5.2-8.7,13.5-14.8,23.4-17.2
	c9.8-2.4,20-0.9,28.7,4.3c8.7,5.2,14.8,13.5,17.2,23.4c2.4,9.8,0.9,20-4.3,28.7c-5.2,8.7-13.5,14.8-23.4,17.2
	C57.5,184.9,47.3,183.4,38.7,178.2z M80.2,109.4c-20.1-12.1-46.1-5.7-58.2,14.4c-12.1,20.1-5.7,46.1,14.4,58.2
	c20.1,12.1,46.1,5.7,58.2-14.4C106.7,147.5,100.2,121.5,80.2,109.4z"/>
<path class="st2" d="M63.4,167c-1.3,5.3-4.2,5.5-14.2,1.9l-0.2-0.1c-9.9-4.1-11.8-6.1-9.2-11c1.3-2.5,0.9-7.3,0.8-10.8
	c0-0.8,0-1.6,0-2.3c0-0.3,0-0.6,0.1-0.9l0,0c0.2-2.1,0.8-3.8,1.6-5.4c5.3-3.4,14.1-11.8,13.8-15c3.6-0.1,12.6,1.4,15.7,3.2
	c-1-0.1-1.7,0.1-2.1,0.8c-1.8,3.6-1,10-1.1,13.9c-0.1,5-4.4,2.8-6.2,7.6c-1.8,4.8,2.7,7.4,7.7,9.3C67.6,161,64.1,164.2,63.4,167z"/>
<path class="st1" d="M42.3,138.5c-1.2,0.8-2.3,1.3-3,1.5c0.1-0.8,0.3-1.8-0.1-2.6c-0.9,0.8-1.7,1.6-2.6,2.4
	c-0.8-4.8-6-14.9,0.5-18.5c2.9-1.6,6.5-1.7,9.7-1.7c4.3,0,6.2,0.3,9,3.2c0.2,0.2,0.3,0.4,0.3,0.7C56.3,126.7,47.6,135.1,42.3,138.5z
	 M77.1,153.3c-0.4-0.8,0.3-2.5,0.3-3.4c-1.6,2.3-3.1,4.8-4.3,7.4c-0.3-0.4-0.6-0.9-0.9-1.3c-0.2,0.2-2.1,2.4-2.1,2.4
	c-5-1.9-9.6-4.5-7.7-9.3c1.9-4.8,6.1-2.6,6.2-7.6c0.1-4-0.7-10.4,1.1-13.9c0.3-0.7,1.1-0.9,2.1-0.8c3,0.3,7.4,3.3,10,5.3
	c2.7,2,8.1,6.6,7.7,11.2C89.2,146.2,77.8,154.8,77.1,153.3z M49.2,145c-0.3-0.2-0.5-0.6-0.3-0.9c0.2-0.3,0.6-0.5,1-0.3
	c0.3,0.2,0.5,0.6,0.3,1C50,145.1,49.6,145.2,49.2,145z M44.4,143.5c-0.2,3.5,4.3,5.2,6.8,2.6C51.4,141.8,46.5,140.6,44.4,143.5z
	 M54.9,163.3c-0.2,0.3-0.7,0.4-1,0.2c-0.3-0.2-0.4-0.7-0.2-1c0.2-0.3,0.7-0.4,1-0.2C55.1,162.5,55.1,162.9,54.9,163.3z M47.3,161.2
	c-1.2,5.9,5.3,8.2,8.2,3.3C57.8,160.7,48.2,156.9,47.3,161.2z"/>
<path class="st2" d="M55,172.6c-0.2,0.5-3.4,1.8-7.4,0.3l0,0c-4-1.5-5.5-4.7-5.3-5.2c0.1-0.3,0.4-0.4,0.7-0.3
	c0.4,0.2,2.1,2.1,5.4,3.4c3.3,1.3,5.9,1,6.3,1.1C55,172.1,55.1,172.4,55,172.6z"/>
<path class="st0" d="M213.5,313.6c0,0-20.9,106.7-33.8,153.3c7.9-9,18-15.3,27.2-19.3c5.9-37.5,18.6-104.8,23.9-129.4l-11-7.6
	L213.5,313.6z"/>
<path class="st0" d="M189.1,366.2l54.4-20.6c-3.4,8.9-6,18.8-6.8,28.1c-15.1-0.1-35.5,1.2-53.3,11.5L189.1,366.2z M257.6,393.5
	c-2.7,0-4.4-1.9-4.4-4.6c0-8.2,16.7-15,23.7-22.8C274.1,380.5,265.1,393.5,257.6,393.5z M296.4,340.7c0-12.5-6.7-18.5-17.1-18.5
	c-8.8,0-19.2,4.2-25.5,10.2c0,0-3.6,15.5-5.5,22.3c6.8-6.9,19.4-12.6,27.1-12.6c3,0,4.4,1.5,4.4,3.6c0,10.3-44.6,19.9-44.6,51.6
	c0,11.5,5.9,18.1,14.1,18.1c9.3,0,16.6-7.1,21.5-16.9c-0.7,3.6-1.5,7.1-2.3,10c0,0,14.5-5.2,20.6-7.4
	C284.9,382.3,296.4,361.8,296.4,340.7z M305.4,314c3.5,4.9,4.3,12,2.6,20.8c-3.9,21.2-7.8,42.4-11.7,63.6l18.4-6.6
	c5.4-31.9,11.9-66.8,19.3-66.8c1.2,0,1.9,1.3,1.9,4.8c0,11.1-5.1,27.7-10.3,58l17.1-6.2c5.3-28.8,9.7-58.5,16.3-58.5
	c1.7,0,2.7,2.4,2.7,5.7c0,10.1-4.8,28.5-8.2,48.9l20-7.2c-1.5-22.5,6.7-39.4,6.7-55.5c0-8.8-3.4-17.4-11.8-17.4
	c-8.3,0-16.2,8.2-19.7,18.3h6c1.1-7.5-2.4-16.9-11.1-16.9c-9.5,0-19.4,12.4-21.7,24.5h3.1c2.8-7.5,1.6-17.1-3.1-20.8L305.4,314z
	 M396.5,280.2c-3.4,27-9.7,60.7-15.3,87.6l20.3-7.3c2.8-30.8,8.1-56.9,15.8-87.8L396.5,280.2z M427,269.2
	c-2.7,21.6-10.7,66-16.2,87.9l40.1-14.4l5.9-27.1c0,0-11.8,10.9-22.7,15.2c3.3-21.3,8.9-45.4,14.6-69.3L427,269.2z"/>
<path class="st0" d="M458.3,258c0.8,11.3-6.2,26.1-6.2,39.5c0,11.7,6.7,17.7,14.2,17.7c14.5,0,19.3-17.7,25-34.4l-7.5,7.1
	c-9.4,51.6-20.8,79.1-72.7,89.4c-59.4,11.7-96.8,28.7-121,53.3c10.1-0.3,19.9,2.3,25.5,8.1c25.8-22.6,53.6-34.8,104.5-47
	c49.1-11.8,66.3-31.6,75.7-86.3c3.1-17.7,7.9-55.1,7.9-55.1l-3.3,6c5.7-1.6,13.5-0.9,19.2-0.2l6.6-22.9l-36.6,13.5
	c-4.1,21.7-9.4,49.2-16.8,49.2c-2.5,0-3.5-2.2-3.5-5.8c0-7.9,8-30.6,11.5-40.2L458.3,258z"/>
<path class="st1" d="M409.9,242.5c-1.2,5.8-4,10.4-6.1,10.4c-2.2,0-3-4.7-1.8-10.5c1.2-5.8,4-10.4,6.1-10.4
	C410.3,232.1,411.1,236.8,409.9,242.5z M409.9,224.6c-8.9,0-17.2,12.6-17.2,25.6c0,6.8,3.3,12.4,8.7,12.4c8.8,0,17.2-11.4,17.2-25.6
	C418.6,230.3,415.3,224.6,409.9,224.6z M362.3,241.7c1.8,8.5-1.5,14.6-1.5,22c0,6.1,3.4,9.4,7.4,9.4s8.4-3.9,9.8-9.9h-2.4
	c-1.2,10.8-5.3,16.6-14.8,13.4l-3.7,10c14.7,3.9,23.4-6.4,26-20.5c2.3-12.7,7.6-34.6,7.6-34.6l-10,3.6c-1.1,12.3-4.5,29.1-9,29.1
	c-1.4,0-2.3-1.4-2.3-4.5c0-5.1,2.4-16.7,4.3-22.1L362.3,241.7z M426.1,218.8c0.6,7.9-3.1,15.9-3.1,24.2c0,6.2,3.6,9,7.9,9
	c5.7,0,10.8-7.2,13.3-16.1h-2.2c-1.7,3.6-2.7,8.8-1.4,12.6l8.4-3c-0.8-10.4,1.3-25.4,4.7-36.6l-10.1,3.7
	c-1.2,15.2-5.9,29.4-9.9,29.4c-1,0-1.8-0.9-1.8-2.5c0-4.7,3.4-15.7,5-24.5L426.1,218.8z M460.4,206.4c-1.1,9.5-4.1,26.7-6.6,37.3
	l10.7-3.8c-0.1-14,4.4-30.2,8.8-30.2c2,0,2.1,5.2-0.3,11.4l8.7-3.7c4.4-10.1,2.3-17.4-3.4-17.4c-6.7,0-13.4,8.7-15.1,18.7h1.7
	l3.4-15.1L460.4,206.4z"/>
<path class="st0" d="M46.8,302.6c0-53.1,33.7-114.4,61.3-114.4c13.5,0,21.1,12,21.1,35.6c0,22.7-7.3,46.4-17.1,63.1
	c-4.7-4.9-12.5-8-20.1-8.6c8.5-16.2,16.6-40.8,16.6-57.4c0-5.6-1.4-9.9-4.8-9.9c-13.4,0-37.5,49.8-37.5,91.7
	c0,24.8,11.1,40.7,33.7,40.7c49.8,0,165-92.1,244.5-81.5c-7.4,5.5-13.3,14.2-16.1,23.2c-82.1-4-177.3,78.3-230.2,78.3
	C66.9,363.5,46.8,344.5,46.8,302.6z"/>
<path class="st0" d="M140,172.5c3.8,43.2-8.7,107.7-16.3,140.2l22.3-8c0-24.6,9.1-65.8,18.6-65.8c2.1,0,3.5,2.2,3.5,6.1
	c0,10.8-5.3,37.4-10,55.4l21.9-7.9c-1.6-18.3,8.2-42.1,8.2-60.2c0-12.8-4.1-20.8-11.4-20.8c-8,0-22.1,14.3-25.2,30.7h2.4
	c0-24.6,10.8-70.5,19.3-94.4C162.3,158.7,151.1,167.2,140,172.5z M214.1,260.4c-3.2-0.2-4.7-4.8-4.3-10.9
	c0.9-17.1,8.3-38.2,15.7-37.8c3.2,0.2,4.7,4.8,4.3,10.9C228.8,239.3,221.4,260.8,214.1,260.4z M228.1,193.5
	c-15.6,0-34.3,27.1-34.3,61.4c0,15,6.4,26.4,16.5,26.4c15.6,0,34.3-27.1,34.3-61.4C244.6,205.8,238.2,193.5,228.1,193.5z M270.5,240
	c-3.2-0.2-4.7-4.8-4.3-10.9c0.9-17.1,8.3-38.2,15.7-37.8c3.2,0.2,4.7,4.8,4.3,10.9C285.3,218.8,277.8,240.4,270.5,240z M284.5,173.1
	c-15.6,0-34.3,27.1-34.3,61.4c0,15,6.4,26.4,16.5,26.4c15.6,0,34.3-27.1,34.3-61.4C301,185.3,294.6,173.1,284.5,173.1L284.5,173.1z
	 M324.1,240.4c12.3,0,23.3-8.1,23.3-26.3c0-17.2-18.4-29.6-18.4-38.3c0-2.6,1.9-5,4.6-5c5.9,0,10.3,11.1,11.3,15.8
	c0,0,9.1-13.3,11.4-19c-4.9-7.5-12.5-12.6-22.3-12.6c-9,0-20.8,7.3-20.8,23.2c0,14.5,17.6,28.3,17.6,36.9c0,4-2,5.9-4.7,5.9
	c-4.2,0-7.1-6.1-7.6-11.9c-5,2.6-10.6,5.9-14.3,9.4C306,231.4,313.7,240.4,324.1,240.4z M355.8,201.4c0-27.9,18.7-67.3,38.7-67.3
	c13.9,0,21.1,17.5,9.9,43.3l-37,11l1.5-17.2l24.1-7.2c1.4-6,0.3-10.9-3.6-10.9c-7,0-17.3,25-17.3,40.8c0,5,1.2,8.3,4.5,8.3
	c6.8,0,20-11,26-16.6l-3.9,21.6c-7.6,7.6-17.9,16-28,16C361.6,223.2,355.8,216.4,355.8,201.4z"/>
<path class="st1" d="M347.8,122.1c-1.7,0-2.5-1.1-2.5-2.6c0-5,6.8-6.5,10.3-8.8C354.8,114.7,351.8,122.1,347.8,122.1z M364.5,100.9
	c0-5-2.7-8.8-7-8.8c-4.7,0-9.7,2.3-13.7,4.4l-2.9,11.2c3-3.6,9.5-7.4,12.9-7.4c1.6,0,2.4,0.9,2.4,1.9c0,4.2-19.2,6.2-19.2,20.7
	c0,4.8,2.6,8.2,7,8.2c4.2,0,8-3.4,10.7-7.4c0.1,1.3,0.3,2.5,0.7,3.5l7.8-2.8C360.4,117,364.5,108.3,364.5,100.9z M326.6,102.3
	c-7.9,0.5-17.8,11.3-17.8,26.2c0,8.1,4.2,12.5,9.9,12.1c4.4-0.3,9.1-2.8,11.4-6l1.9-10c-3.6,3.7-7.8,6.9-11.2,7.1
	c-2.2,0.1-3.6-1.5-3.6-4.6c0-6.9,4-15.5,7.7-15.8c1.2-0.1,1.8,0.8,1.8,2.7c0,2.6-0.8,5.5-2.3,8.8c0,0,4.7-2,8.4-3.6
	C336,111.3,335.2,101.7,326.6,102.3z M367.2,123c3.3-14.2,7.4-29.6,6.2-37.2l8.7-3.1c0.8,2.9,0.8,7.9-0.4,12h-1.5
	c2.4-8.3,8.6-16.2,14.3-16.2c3.3,0,5,3.1,5,8.3c0,8.6-5.3,18.8-4,26l-10.9,3.9c0,0,4.6-17.6,4.6-22.6c0-2.5-0.5-3.5-1.7-3.5
	c-3.8,0-8.4,15.2-10.6,28.9L367.2,123z M408.9,59.7l-4.2,17.6c0,0-0.7,0.2-1.7,0.6c0-6.2-3.6-13.5-3.6-13.5L408.9,59.7z M417.4,58.3
	c0.6,12-6.9,28-6.9,37.3c0,6.2,3.3,9,7.4,9c3.9,0,9.4-3.2,11.9-7l1.3-12.1c-2.5,4.5-5.8,8.3-8.9,8.3c-1.3,0-2.3-0.9-2.3-3.1
	c0-5.2,5.3-23.8,9-37.3L417.4,58.3z"/>
<path class="st1" d="M411.3,72.2l22.2-8l-2.3,12.6c-5.4-0.2-14.5,1.5-21.9,4L411.3,72.2z M251.2,147.7c-1.2,5.8-4,10.4-6.1,10.4
	c-2.2,0-3-4.7-1.8-10.5c1.2-5.8,4-10.4,6.1-10.4C251.6,137.3,252.4,142,251.2,147.7z M251.2,129.8c-8.9,0-17.2,12.6-17.2,25.6
	c0,6.8,3.3,12.4,8.7,12.4c8.8,0,17.2-11.4,17.2-25.6C259.9,135.5,256.6,129.8,251.2,129.8z M203.6,146.9c1.8,8.5-1.5,14.6-1.5,22
	c0,6.1,3.4,9.4,7.4,9.4c4.1,0,8.4-3.9,9.8-9.9H217c-1.2,10.8-5.3,16.6-14.8,13.4l-3.7,10c14.7,3.9,23.4-6.4,26-20.5
	c2.3-12.7,7.6-34.6,7.6-34.6l-10,3.6c-1.1,12.3-4.5,29.1-9,29.1c-1.4,0-2.3-1.4-2.3-4.5c0-5.1,2.4-16.7,4.3-22.1L203.6,146.9z
	 M267.5,124c0.6,7.9-3.1,15.9-3.1,24.2c0,6.2,3.6,9,7.9,9c5.7,0,10.8-7.2,13.3-16.1h-2.2c-1.7,3.6-2.7,8.8-1.4,12.6l8.4-3
	c-0.8-10.4,1.3-25.4,4.7-36.6l-10.1,3.7c-1.2,15.2-5.9,29.4-9.9,29.4c-1,0-1.8-0.9-1.8-2.5c0-4.7,3.4-15.7,5-24.5L267.5,124z
	 M303,83.7c-1.7,0-2.5-1.1-2.5-2.6c0-5,6.8-6.5,10.3-8.8C310,76.3,307,83.7,303,83.7z M319.7,62.5c0-5-2.7-8.8-7-8.8
	c-4.7,0-9.7,2.3-13.7,4.4l-2.9,11.2c3-3.6,9.5-7.4,12.9-7.4c1.6,0,2.4,0.9,2.4,1.9c0,4.2-19.2,6.2-19.2,20.7c0,4.8,2.6,8.2,7,8.2
	c4.2,0,8-3.4,10.7-7.4c0.1,1.3,0.3,2.5,0.7,3.5l7.8-2.8C315.6,78.5,319.7,69.9,319.7,62.5z M266.8,91.8l-2.7,10.7c0,0,4.4,1,9.9-0.3
	c6.4-1.5,13.3-5.3,13.7-13.4c0.4-7.5-11-9.7-10.8-13.4c0.1-2,2.3-3,4.6-3c2.2,0,4.7,1.2,5.9,2.4l3.2-8.6c-3.5-1.3-7.2-1.8-11.5-0.8
	c-5.9,1.3-10.4,5.3-10.7,11.5c-0.4,7.3,10.2,9.1,10,13.1c-0.1,1.7-1.5,2.9-3.4,3.3C272.5,93.7,269.2,92.9,266.8,91.8z M356.7,59.4
	L353.9,70c0,0,4.4,1,9.9-0.3c6.4-1.5,13.3-5.3,13.7-13.4c0.4-7.5-11-9.7-10.8-13.4c0.1-2,2.3-3,4.6-3c2.2,0,4.7,1.2,5.9,2.4l3.2-8.6
	c-3.5-1.3-7.2-1.8-11.5-0.8c-5.9,1.3-10.4,5.3-10.7,11.5c-0.4,7.3,10.2,9.1,10,13.1c-0.1,1.7-1.5,2.9-3.4,3.3
	C362.3,61.3,359,60.5,356.7,59.4z M325.9,48.4c1.8,8.5-1.5,14.6-1.5,22c0,6.1,3.4,9.4,7.4,9.4c4.1,0,8.4-3.9,9.8-9.9h-2.4
	c-1.2,10.8-5.3,16.6-14.8,13.4l-3.7,10c14.7,3.9,23.4-6.4,26-20.5c2.3-12.7,7.6-34.6,7.6-34.6l-10,3.6c-1.1,12.3-4.5,29.1-9,29.1
	c-1.4,0-2.3-1.4-2.3-4.5c0-5.1,2.4-16.7,4.3-22.1L325.9,48.4z M109.9,99.1l-7.7,21.5l22.5-13.3c-3.3,10.1-9.2,26-9.2,37.2
	c0,7.5,3.8,13.1,10.9,13.1c13.9,0,24.3-27.7,27.5-40.5l-3.8,1.9c-3.9,12.7-1.4,25,7.4,25c16.2,0,24.7-36.2,30.2-72.8L174.3,76
	c-2.8,20.2-6.4,49.2-13.3,49.2c-1.9,0-3.1-1.8-3.1-6.1c0-10.1,8.3-40.2,8.3-40.2L152,84c-4.4,26-12.3,53.6-18.4,53.6
	c-1.8,0-2.9-1.9-2.9-5.9c0-11.6,10.8-43.9,10.8-43.9L109.9,99.1z"/>
<path class="st1" d="M197.5,65.9c0,0-8.9,47.7-15.2,69c5.5-2,11.1-3.9,11.1-3.9c3.3-18,8.2-30.9,12-30.9c0.9,0,1.7,0.9,1.7,3.3
	c0,6.3-4,14.3-4,24.1l10.2-3.7c-1.4-9.4,2.7-17.6,2.7-24.6c0-5.4-2.5-9.1-6.2-9.1c-5.3,0-11,3.5-15,17.7h2.3
	c2.3-12.2,7.2-34.3,7.2-34.3c35.3-8.3,75.3-36.5,120.1-39c1.2-7.5,5.1-15.9,10.2-20.9C291,14.2,238.5,56,197.5,65.9z"/>
<path class="st1" d="M237.8,98.3c-1.2,5.8-4,10.4-6.1,10.4c-2.2,0-3-4.7-1.8-10.5c1.2-5.8,4-10.4,6.1-10.4
	C238.2,87.8,239,92.5,237.8,98.3z M237.8,80.4c-8.9,0-17.2,12.6-17.2,25.6c0,6.8,3.3,12.4,8.7,12.4c8.8,0,17.2-11.4,17.2-25.6
	C246.5,86,243.2,80.4,237.8,80.4z"/>
</svg>
