<svg xmlns="http://www.w3.org/2000/svg" width="88" height="164" fill="none"><path fill="#68B845" d="M74.035 104.723c-4.913-1.34-9.52 2.088-11.915 6.345.21-4.865-1.907-10.187-6.806-11.597-5.303-1.52-9.73 1.825-11.4 7.547-2.575 9.04 3.173 18.577 9.465 29.221a2.194 2.194 0 0 0 2.923.815c10.968-5.805 20.893-10.947 23.468-19.987 1.587-5.736-.418-10.892-5.735-12.344ZM28.576 38.64c-4.879 1.519-6.858 6.874-6.551 11.733-2.495-4.196-7.178-7.523-12.07-6.073-5.298 1.573-7.18 6.763-5.45 12.464 2.787 8.972 12.837 13.885 23.945 19.42a2.197 2.197 0 0 0 2.9-.883c6.063-10.766 11.582-20.415 8.809-29.386-1.798-5.673-6.314-8.93-11.583-7.274Z"/><circle cx="63.583" cy="5.97" r="5.97" fill="#003021"/><circle cx="81.493" cy="157.612" r="5.97" fill="#003021"/><ellipse cx="6.866" cy="118.209" fill="#003021" rx="6.567" ry="5.97"/></svg>