<svg xmlns="http://www.w3.org/2000/svg" width="116" height="74" fill="none"><path fill="#0B0B0B" d="M63.395 4.333c.036-.28.078-.512.094-.745.062-.916-.269-1.691-.898-2.34A4.217 4.217 0 0 0 60.885.166c-1.046-.35-1.967-.101-2.77.605-.32.282-.614.61-.85.965-.428.639-.532 1.385-.536 2.135 0 .254-.09.385-.292.486-.434.214-.865.434-1.3.645A31.11 31.11 0 0 0 51.7 6.966c-1.051.686-2.092 1.387-3.134 2.085-.989.663-1.974 1.328-2.96 1.994-.878.593-1.769 1.169-2.626 1.79-.57.413-1.089.898-1.637 1.343-.812.66-1.622 1.322-2.447 1.964-.815.636-1.616 1.286-2.367 1.998-1.108 1.052-2.217 2.105-3.335 3.146a50.49 50.49 0 0 1-1.706 1.506.713.713 0 0 1-.42.16c-.93.004-1.858-.018-2.787-.02-1.19-.004-2.38.007-3.571.003-.929-.003-1.858-.02-2.786-.026-.93-.007-1.858-.008-2.787-.012l-3.65-.014c-.916-.003-1.83-.004-2.746-.008-.785-.003-1.57-.01-2.355-.012-.942-.003-1.883 0-2.824-.004-1.19-.004-2.382-.014-3.571-.018-.236-.001-.474-.01-.706.02a.927.927 0 0 0-.428.171c-.225.176-.465.359-.624.59-.342.496-.831.824-1.285 1.19-.338.272-.556.579-.544 1.025.013.496.017.992.026 1.487.015.744.026 1.487.047 2.23.015.56.019 1.123.071 1.68.093.966.03 1.93.005 2.895a82.644 82.644 0 0 0-.002 3.013c.009.691.046 1.381.071 2.072.03.808.067 1.616.092 2.424.022.742.03 1.486.043 2.23.018 1.03.037 2.06.05 3.09.008.691.003 1.383.009 2.074.008 1.018.03 2.035.028 3.053-.004 1.11-.032 2.218-.045 3.328C.787 56.416.78 57.42.77 58.425l-.023 2.662C.741 62.09.74 63.096.73 64.1c-.01.966-.028 1.932-.039 2.897-.018 1.487-.039 2.974-.046 4.46-.003.551.374.925.938.94.929.029 1.857.037 2.786.061.758.02 1.516.05 2.274.074.942.03 1.883.064 2.825.085 1.634.038 3.269.057 4.903.103 1.765.05 3.528.123 5.292.182 1.177.039 2.354.073 3.53.102 1.766.042 3.531.07 5.296.12.927.026 1.854.104 2.781.132.915.027 1.83.034 2.745.028.81-.007 1.621-.039 2.432-.069.94-.034 1.88-.09 2.82-.118.968-.028 1.936-.035 2.903-.05a524.44 524.44 0 0 1 3.1-.035c.705-.005 1.412.004 2.118-.002 1.007-.009 2.014-.026 3.02-.04.707-.01 1.413-.02 2.12-.032.993-.016 1.986-.036 2.98-.047.981-.011 1.962-.014 2.943-.017 1.4-.004 2.799-.006 4.198-.005.747 0 1.493.013 2.238.011 1.19-.003 2.38-.013 3.57-.019 1.165-.006 2.329-.006 3.494-.016.98-.008 1.96-.03 2.941-.041.72-.008 1.44-.003 2.159-.008.993-.009 1.988-.031 2.982-.029.706.002 1.412.043 2.12.055.744.012 1.49.015 2.236.015.732 0 1.465-.013 2.197-.013.81.002 1.622-.001 2.433.02.902.024 1.803.073 2.706.109 1.176.048 2.353.09 3.53.141.938.041 1.877.103 2.817.136 1.567.057 3.135.101 4.703.143.72.02 1.439.034 2.159.028.758-.007 1.516-.036 2.274-.061.51-.017 1.02-.042 1.529-.069.196-.01.39-.046.587-.05.47-.01.94-.005 1.41-.008.379-.003.759.008 1.137-.017 1.089-.072 1.998-.572 2.825-1.24a.82.82 0 0 0 .313-.649c.012-1.278.034-2.556.048-3.833.01-.927.015-1.853.021-2.78.007-.965.014-1.93.019-2.896.008-1.187.016-2.375.021-3.562.005-.94.005-1.879.009-2.818.004-.757.013-1.514.017-2.27.006-.94.007-1.88.012-2.818.004-.77.012-1.54.016-2.31.005-.926.007-1.852.012-2.779.005-.782.013-1.565.017-2.348.004-.926.004-1.853.009-2.78.004-.77.013-1.539.016-2.31.004-.938.001-1.878.005-2.817.004-.744.015-1.488.018-2.232.004-1.2 0-2.4.005-3.6.004-.914.016-1.827.023-2.741.004-.483.018-.966.002-1.448a1.379 1.379 0 0 0-.269-.805 4.233 4.233 0 0 1-.312-.452c-.176-.305-.46-.438-.783-.446-.863-.02-1.727-.012-2.59-.013-.733-.001-1.466 0-2.198-.003-.981-.003-1.962-.009-2.943-.014-.772-.004-1.543-.012-2.315-.014-.942-.004-1.884-.003-2.826-.007-.771-.003-1.544-.012-2.315-.012-1.19-.002-2.381.002-3.571.002-.236 0-.472-.012-.707-.005-.206.007-.34-.105-.474-.235-.376-.363-.739-.742-1.14-1.076a31.377 31.377 0 0 0-1.646-1.267 81.237 81.237 0 0 0-2.438-1.717 135.739 135.739 0 0 0-2.96-1.918c-.85-.54-1.71-1.062-2.567-1.589-1.158-.712-2.307-1.44-3.48-2.129-1.68-.987-3.374-1.948-5.066-2.914-1.419-.81-2.828-1.638-4.266-2.411-1.497-.805-3.025-1.55-4.536-2.325-.825-.42-1.646-.85-2.482-1.282ZM3.696 69.697v-1.523l.012-3.523.018-2.78c.007-.977.015-1.956.021-2.935.006-.978.01-1.957.014-2.935.003-.73.002-1.461.006-2.192.005-.965.012-1.931.019-2.897.006-.913.016-1.826.019-2.74.005-1.187.002-2.373.006-3.56.002-.758.01-1.515.014-2.272.004-.926.004-1.853.008-2.78.003-.782.01-1.565.017-2.347.006-.979.012-1.958.02-2.936.006-.9.017-1.801.02-2.702.005-1.2.003-2.4.005-3.6v-1.644c0-.589.016-1.175.358-1.726l109.275.413-.236 45.224c-.222.01-.389.025-.556.024-.301 0-.602-.016-.903-.016-1.19 0-2.38.007-3.57.004-1.191-.002-2.381-.014-3.572-.018-.941-.004-1.882 0-2.824-.003-.785-.002-1.57-.007-2.355-.012l-2.943-.018c-.89-.005-1.78-.014-2.67-.016-1.19-.002-2.38.006-3.57.004-1.19-.003-2.38-.011-3.57-.017-.981-.004-1.963-.006-2.944-.012-.915-.006-1.832-.019-2.747-.021-1.19-.003-2.381.003-3.571.003-.76-.001-1.518-.009-2.276-.013-.981-.004-1.962-.006-2.944-.012-.902-.005-1.805-.018-2.707-.02-1.19-.002-2.381.006-3.571.005-.771 0-1.544-.01-2.316-.013l-2.943-.014c-.903-.006-1.806-.018-2.709-.02-1.19-.002-2.38.006-3.57.005-.759 0-1.517-.01-2.276-.014-.994-.006-1.988-.01-2.983-.014-.732-.002-1.465.001-2.197 0l-2.787-.012-2.943-.01-2.786-.007c-.772-.003-1.543-.008-2.314-.01-.942-.003-1.884-.002-2.826-.008-.942-.006-1.884-.024-2.826-.027-1.19-.004-2.38.005-3.571.004-.771 0-1.543-.01-2.316-.013-.98-.005-1.962-.007-2.943-.013-.902-.005-1.805-.018-2.707-.02-1.204-.003-2.407.004-3.61.002-.746 0-1.492-.01-2.237-.013-.942-.003-1.884 0-2.826-.003-.759-.003-1.518-.017-2.276-.02-1.138-.004-2.277.007-3.415-.01-.307-.005-.633.018-.926-.177ZM62.56 5.887c.258.127.492.24.723.36.883.456 1.762.919 2.648 1.37 1.036.528 2.092 1.02 3.113 1.574 1.425.773 2.827 1.587 4.235 2.388 1.84 1.047 3.685 2.086 5.514 3.153 1.174.685 2.323 1.411 3.482 2.124 1.013.623 2.029 1.243 3.033 1.882.96.611 1.92 1.223 2.853 1.872 1.127.784 2.226 1.608 3.336 2.414.034.025.06.06.14.14-.199.007-.325.016-.453.015-.732-.006-1.465-.02-2.198-.021-1.202-.003-2.406.003-3.609.003-.759-.002-1.517-.011-2.276-.015-.98-.004-1.961-.005-2.943-.01-.903-.006-1.805-.02-2.707-.021-1.19-.003-2.38.005-3.57.004-.772 0-1.544-.01-2.316-.013-.929-.003-1.858-.003-2.786-.006l-3.65-.015c-.967-.004-1.934-.013-2.903-.017-1.15-.005-2.302-.006-3.453-.009-.942-.003-1.883-.004-2.826-.009-.758-.003-1.516-.012-2.275-.014-.941-.004-1.884-.001-2.825-.004-1.203-.004-2.407-.011-3.61-.017L44.292 23c-.902-.006-1.806-.018-2.708-.02-1.164-.002-2.328.005-3.492.004a421.265 421.265 0 0 1-3.1-.015c-.304-.002-.609-.03-.933-.046.031-.05.045-.088.07-.112 1.055-.996 2.107-1.996 3.17-2.983.594-.551 1.181-1.114 1.82-1.611 1.3-1.013 2.604-2.019 3.848-3.1a21.127 21.127 0 0 1 2.338-1.782c.57-.37 1.141-.74 1.706-1.118.815-.545 1.622-1.103 2.438-1.646.926-.615 1.858-1.222 2.79-1.827.659-.426 1.313-.859 1.986-1.261.538-.321 1.098-.609 1.655-.898.438-.228.887-.435 1.358-.665.653.946 1.596 1.163 2.655 1.169 1.084.007 1.94-.445 2.666-1.202Zm-.032-2.13c.032.27-.322.719-.738.788-.62.101-1.038-.358-1.08-.869-.042-.501-.174-.927-.55-1.289-.271-.262-.287-.683-.117-.98.166-.287.55-.454.907-.415.336.035.596.21.797.451.507.614.727 1.338.78 2.314Zm-2.467.106c-.02.5-.379.894-.811.865-.546-.037-.98-.44-.98-1.152.002-.41.435-.778.847-.76.52.024.964.515.944 1.047Z"/><path fill="#fff" d="M3.696 69.697c.293.195.62.172.925.177 1.137.018 2.276.006 3.414.01.759.003 1.518.018 2.277.021.942.004 1.883 0 2.825.002.746.002 1.491.013 2.238.015 1.203 0 2.406-.006 3.61-.003.902.002 1.805.014 2.708.02.98.006 1.962.007 2.943.012.773.004 1.545.013 2.316.013 1.19.001 2.379-.008 3.57-.004.942.003 1.885.021 2.827.027.942.006 1.882.005 2.824.008.772.002 1.544.008 2.315.01.929.004 1.858.005 2.787.008l2.943.01c.929.002 1.857.008 2.785.01.733.002 1.465 0 2.198.002.994.003 1.989.008 2.983.013.759.004 1.517.014 2.276.014 1.19.001 2.38-.006 3.57-.004.903.001 1.806.014 2.709.019.98.006 1.962.01 2.943.015.772.004 1.544.012 2.316.013 1.19.001 2.38-.007 3.57-.005.903.002 1.806.014 2.71.019.98.005 1.96.008 2.942.014.758.003 1.518.01 2.277.01 1.19.001 2.38-.005 3.57 0 .916.001 1.832.014 2.748.02.981.005 1.963.007 2.943.011 1.19.005 2.38.015 3.57.017 1.19.002 2.38-.005 3.57-.003.89.001 1.78.01 2.67.016l2.943.018c.785.004 1.57.01 2.355.012.941.002 1.883-.001 2.824.002 1.19.005 2.381.017 3.572.02 1.189.001 2.38-.005 3.57-.005.301 0 .602.014.903.016.166 0 .334-.014.555-.025l.236-45.223-109.275-.413c-.342.551-.357 1.137-.357 1.726v1.644c-.001 1.2 0 2.4-.005 3.6-.003.9-.015 1.802-.021 2.702l-.02 2.936c-.006.782-.012 1.565-.016 2.348-.005.926-.005 1.853-.009 2.779-.003.757-.012 1.514-.014 2.27-.003 1.188 0 2.375-.006 3.562-.003.913-.012 1.826-.019 2.74-.006.966-.013 1.93-.018 2.897-.004.73-.003 1.461-.007 2.191-.003.979-.008 1.957-.013 2.936-.005.979-.015 1.957-.021 2.936-.007.926-.014 1.852-.018 2.779-.006 1.174-.008 2.348-.011 3.522v1.523Zm100.479-40.245c-.19-.01-.371-.03-.55-.026-.38.007-.758.033-1.137.038-.72.011-1.439-.002-2.158.02-1.127.035-2.248-.048-3.37-.139a76.988 76.988 0 0 0-3.447-.22c-1.11-.041-2.224-.011-3.336-.04a1.243 1.243 0 0 1-.652-.223c-.272-.193-.375-.51-.3-.838.072-.327.274-.583.624-.629.373-.048.754-.06 1.132-.058.98.005 1.962.014 2.942.042.745.021 1.487.066 2.23.118.704.051 1.404.154 2.109.185.9.04 1.804.046 2.706.035 1.411-.017 2.821-.059 4.232-.098.444-.012.796.258.843.7.02.178-.011.362-.021.543-.015.31-.076.628-.038.933.074.594.36 1.12.685 1.61.245.371.554.7.973.892.464.212.927.422 1.396.621.435.185.821.409.945.913.017.073.073.138.119.202.17.245.232.517.236.814.011.913.036 1.826.05 2.74.011.834.02 1.669.02 2.503-.001.73-.019 1.46-.022 2.19-.004.77-.001 1.54.003 2.31.003.717.021 1.434.018 2.152-.002.613-.001 1.228-.041 1.84-.046.693-.867.973-1.318.619-.265-.21-.407-.468-.406-.807.005-.73.01-1.462.005-2.193-.007-1.148-.032-2.296-.031-3.443.001-1.253.035-2.506.03-3.758-.006-1.37-.044-2.74-.056-4.11-.002-.192-.081-.29-.24-.355-.266-.108-.53-.221-.799-.321-1.484-.554-2.421-1.636-2.998-3.072a4.841 4.841 0 0 1-.378-1.69ZM8.251 32.856c-.02.38-.043.729-.055 1.079-.026.743-.067 1.486-.064 2.228.002.783.046 1.564.073 2.345.027.769.072 1.537.08 2.306.004.362-.027.73-.101 1.084-.076.361-.478.595-.881.581-.31-.01-.646-.289-.724-.623a2.897 2.897 0 0 1-.063-.543c-.05-1.446-.112-2.893-.139-4.34-.017-.937.013-1.876.029-2.814.01-.599.035-1.197.046-1.794.005-.222-.037-.446-.017-.666.05-.557.557-.874 1.149-.736.176.042.352.11.53.123.724.052 1.405-.141 2.05-.444.422-.198.753-.538.95-.957.267-.562.35-1.166.28-1.793-.075-.679.4-1.088.964-1.071 1.006.03 2.014.072 3.015.172 1.042.105 2.08.2 3.13.144 1.227-.066 2.456-.101 3.684-.166.85-.045 1.7-.04 2.54.108.177.03.349.103.517.171.207.086.277.26.282.474.005.216-.12.342-.294.424a1.43 1.43 0 0 1-.405.14c-1.127.155-2.252.318-3.382.44a35.14 35.14 0 0 1-2.385.162c-.706.029-1.414.049-2.118.01-.86-.047-1.717-.165-2.577-.238-.385-.033-.774-.03-1.166-.044-.07.348-.13.654-.19.96-.226 1.121-.897 1.93-1.843 2.514-.71.438-1.517.628-2.339.742-.178.024-.362.015-.576.022Zm5.26 33.265c.562-.013 1.102-.07 1.635-.03 1.2.09 2.395.229 3.592.346.95.094 1.899.192 2.849.277.6.054 1.201.08 1.801.129.547.045.93.473.873.957-.056.48-.465.81-1.004.78a57.967 57.967 0 0 1-2.07-.146c-1.147-.103-2.291-.221-3.436-.335-1-.1-1.994-.289-3.006-.25-.679.025-1.36.002-2.023.204-.179.055-.4.075-.576.023-.549-.16-.762-.694-.538-1.226.063-.15.104-.321.104-.483 0-.233-.035-.468-.075-.698-.251-1.426-1.436-2.47-2.824-2.475-.313-.001-.626.035-.94.048-.525.02-.88-.264-.954-.78-.027-.193-.021-.39-.019-.586.006-.522.033-1.043.024-1.564-.017-.94-.069-1.877-.08-2.816-.013-1.004-.015-2.01.138-3.005.08-.514.187-1.026.464-1.485.122-.202.306-.25.503-.232.196.02.282.185.31.36.038.245.061.493.079.74.056.794.105 1.59.16 2.384.05.728.122 1.456.153 2.185.032.756.026 1.513.037 2.27.004.23.01.46.015.688 2.493.09 4.475 1.721 4.808 4.72Zm95.223-6.044c.005-.093.015-.184.014-.274-.013-1.239-.04-2.478-.036-3.716.001-.73.035-1.461.086-2.19.038-.546.112-1.09.196-1.63.052-.337.271-.57.462-.561.225.011.379.278.375.648-.004.3-.012.6-.008.9.014.979.031 1.956.051 2.934.024 1.16.031 2.321.087 3.48.017.37.01.746.127 1.12.145.468-.122.811-.613.908-.089.019-.181.025-.271.032-.21.017-.42.018-.627.045-.812.105-1.4.513-1.758 1.262-.232.483-.316.994-.358 1.514-.035.449-.077.89.291 1.281.255.272.189.685-.035.983-.177.234-.606.376-.93.27-.736-.237-1.491-.243-2.252-.232-.745.01-1.491-.006-2.237-.004-.968.003-1.937-.027-2.902.03-1.45.087-2.9.163-4.353.147-.484-.005-.969.011-1.45.05-.446.034-.81-.183-.93-.607-.126-.441.062-.872.51-1 .345-.099.718-.12 1.08-.13.954-.026 1.91-.01 2.864-.04 1.372-.044 2.744-.129 4.117-.165 1.216-.033 2.433-.026 3.649-.035.333-.002.667.004.959.006.06-.656.065-1.26.181-1.843.29-1.453 1.104-2.488 2.567-2.93.359-.108.734-.163 1.144-.253Zm-62.302-30.78-.003.053c-.196-.01-.392-.015-.588-.031-.473-.038-.872-.422-.855-.863.018-.458.332-.823.895-.865a10.26 10.26 0 0 1 1.253-.003c1.881.091 3.761.202 5.643.285.953.042 1.909.049 2.863.051 1.007.002 2.013-.024 3.02-.031.915-.007 1.83-.003 2.746-.008.98-.004 1.96-.022 2.94-.019.954.004 1.909.03 2.863.041.68.008 1.36-.002 2.04.01a2.47 2.47 0 0 1 1.097.269c.26.133.432.347.452.645.016.236-.14.405-.326.5-.242.121-.505.234-.77.273-.41.06-.832.076-1.25.073-1.568-.011-3.137-.052-4.705-.055-1.608-.004-3.216.024-4.823.034-1.399.008-2.798.003-4.196.016-1.581.015-3.157-.092-4.734-.188-1.187-.074-2.375-.126-3.562-.188Zm-16.904-.172V29.1c-.3-.015-.601-.024-.9-.048-.586-.047-.96-.472-.899-1.01.052-.45.466-.76.995-.745.626.019 1.252.053 1.878.051 1.228-.003 2.456-.032 3.683-.04.836-.005 1.673.001 2.509.015.314.005.578.152.782.39a.717.717 0 0 1-.114 1.066c-.224.173-.476.27-.762.272-.875.006-1.751.011-2.627.019-.718.006-1.437.012-2.156.02-.796.01-1.592.024-2.389.035Zm59.34 36.154c.126.017.248.014.357.051.775.264.793.92.407 1.344a.949.949 0 0 1-.61.323c-.634.072-1.27.158-1.907.197a69.89 69.89 0 0 1-3.09.122 1.283 1.283 0 0 1-.732-.214.796.796 0 0 1 .243-1.421c.38-.112.795-.122 1.196-.147 1.094-.068 2.19-.117 3.285-.179.287-.015.573-.05.851-.076Zm-7.705-36.722c.022-.418.263-.729.654-.825.19-.047.385-.095.579-.1.913-.024 1.828-.034 2.741-.046.522-.008 1.044.004 1.566-.017.342-.014.633.096.772.347a.812.812 0 0 1-.1.91c-.222.256-.5.424-.838.46-.298.031-.599.038-.898.048-1.16.034-2.322.066-3.484.091a1.424 1.424 0 0 1-.425-.064c-.332-.096-.586-.466-.567-.804Zm-53.237 40.17a.572.572 0 0 0-.002.037c-.248-.013-.496-.015-.743-.041-.31-.033-.625-.063-.928-.138-.28-.068-.41-.252-.405-.464.007-.225.21-.465.463-.52.23-.048.463-.094.698-.105.887-.042 1.776-.055 2.663-.107.65-.037 1.3-.117 1.95-.175.362-.032.725-.108 1.085.037.405.163.578.637.348.999-.207.324-.536.465-.894.496-.442.04-.888.039-1.333.034-.967-.01-1.935-.034-2.902-.053Zm45.133-1.386-.007.033c-.369-.072-.746-.12-1.107-.224-.378-.109-.577-.423-.567-.797.007-.31.238-.593.599-.683.237-.059.488-.097.733-.096.964.003 1.93.012 2.894.05.307.012.615.096.913.184.322.094.48.342.501.674.023.353-.196.543-.469.702-.345.2-.73.198-1.106.199-.794.003-1.589-.026-2.384-.042Zm-37.85 1.344c-.13-.04-.388-.088-.618-.195-.31-.142-.407-.448-.401-.754a.735.735 0 0 1 .416-.667c.212-.106.43-.161.678-.157.967.016 1.935.004 2.903.013.364.005.74-.01 1.069.185.239.142.462.312.472.626.008.31-.097.578-.394.71a2.49 2.49 0 0 1-.7.218c-.336.04-.68.026-1.02.027-.757.001-1.516-.004-2.405-.006Zm32.43-1.442v-.04c-.286-.014-.575-.01-.858-.049-.358-.05-.73-.05-1.062-.236-.303-.17-.473-.434-.46-.76.011-.317.207-.54.516-.676.38-.167.768-.11 1.156-.091.585.027 1.17.06 1.754.09.183.01.368.01.547.039.616.1.915.64.615 1.15-.18.306-.44.553-.841.556-.456.004-.912.011-1.367.017Zm7.616-37.508-.163-.008c-.474-.028-.844-.334-.922-.76-.068-.368.19-.743.638-.908.12-.044.252-.066.38-.07.6-.016 1.199-.033 1.799-.026.349.005.707-.03 1.043.123.303.137.527.347.573.683.049.356-.133.668-.479.816-.188.08-.402.133-.606.138-.73.018-1.46.01-2.263.012Zm-34.933-.729c.01 0-.055.014-.119.007-.49-.043-.949-.15-1.296-.545-.158-.179-.171-.344-.046-.527.204-.298.463-.522.833-.597.789-.16 1.587-.112 2.377-.059.583.039.987.624.78 1.147-.131.33-.502.59-.927.588-.51-.002-1.018-.008-1.602-.014Zm20.96 38.32c-.483-.024-.898-.17-1.216-.548-.132-.158-.151-.317-.085-.509.094-.272.31-.415.543-.533.453-.23.936-.208 1.417-.13.48.078.75.394.749.854-.001.406-.307.75-.748.815-.218.034-.44.035-.66.052Zm-19.086 1.3c-.337-.054-.573-.137-.675-.398-.102-.26-.077-.505.14-.717.268-.262.751-.301 1.08-.072.396.274.425.712.038.962-.19.122-.43.168-.584.225Zm37.207-1.944c.019-.34.314-.622.641-.61.38.015.654.297.63.65-.022.34-.311.626-.629.62-.329-.005-.66-.345-.642-.66ZM62.527 3.757c-.054-.976-.274-1.7-.781-2.314-.201-.242-.46-.416-.797-.451-.356-.039-.741.128-.907.415-.17.297-.154.718.117.98.376.362.508.788.55 1.29.042.51.46.97 1.08.868.416-.07.77-.517.738-.788ZM60.06 3.863c.02-.532-.423-1.023-.944-1.046-.412-.019-.845.348-.846.76-.002.712.433 1.114.979 1.15.432.03.792-.363.811-.864Z"/><path fill="#0B0B0B" d="M104.175 29.452c.018.6.161 1.152.378 1.69.577 1.436 1.514 2.518 2.998 3.072.269.1.533.213.799.321.159.065.238.163.24.356.012 1.37.05 2.74.056 4.109.005 1.252-.03 2.504-.03 3.757-.001 1.148.024 2.297.031 3.444.004.732-.002 1.462-.005 2.193-.002.34.14.597.405.805.452.355 1.273.076 1.319-.618.04-.61.039-1.226.041-1.839.003-.718-.015-1.435-.018-2.152-.004-.77-.007-1.54-.003-2.31.003-.73.021-1.46.022-2.19 0-.834-.009-1.67-.021-2.505-.013-.913-.038-1.825-.049-2.738-.003-.297-.066-.57-.237-.815-.044-.064-.1-.128-.118-.2-.124-.505-.511-.73-.945-.915a52.358 52.358 0 0 1-1.396-.621c-.419-.192-.729-.52-.973-.89-.325-.491-.612-1.018-.685-1.612-.038-.305.022-.622.038-.934.009-.18.041-.364.021-.541-.048-.442-.399-.712-.843-.701-1.411.039-2.822.08-4.232.099a47.88 47.88 0 0 1-2.706-.035c-.705-.03-1.405-.134-2.109-.185a52.524 52.524 0 0 0-2.23-.118c-.98-.028-1.962-.037-2.942-.042a8.557 8.557 0 0 0-1.132.058c-.35.046-.552.302-.625.629-.074.328.03.645.301.838.18.129.431.217.652.223 1.112.029 2.225-.001 3.336.04 1.15.042 2.3.126 3.447.22 1.122.091 2.243.174 3.37.14.719-.023 1.438-.01 2.158-.02.379-.006.757-.032 1.137-.039.181-.003.36.017.55.026ZM8.25 32.856c.215-.007.399.002.577-.022.822-.114 1.629-.304 2.339-.742.946-.585 1.617-1.393 1.843-2.515l.19-.959c.392.013.78.011 1.165.044.86.073 1.717.19 2.578.238.704.039 1.412.019 2.118-.01a35.14 35.14 0 0 0 2.385-.161c1.13-.123 2.256-.286 3.382-.44.14-.02.277-.08.405-.141.175-.082.3-.208.294-.424-.005-.213-.075-.388-.282-.474-.168-.068-.34-.14-.516-.171-.842-.147-1.69-.153-2.543-.108-1.227.064-2.455.1-3.682.166-1.05.056-2.088-.039-3.13-.144-1.001-.1-2.01-.142-3.017-.172-.563-.017-1.037.392-.962 1.07a3.271 3.271 0 0 1-.28 1.794 1.983 1.983 0 0 1-.95.957c-.645.303-1.326.496-2.05.444-.178-.012-.354-.081-.53-.123-.593-.138-1.1.179-1.15.736-.02.22.022.444.018.665-.01.599-.037 1.196-.046 1.795-.016.938-.047 1.877-.03 2.814.028 1.447.09 2.894.14 4.34.007.181.023.366.063.543.078.334.413.612.722.623.404.014.806-.22.883-.58.074-.354.105-.723.101-1.085-.008-.769-.053-1.537-.08-2.306-.027-.782-.071-1.562-.073-2.345-.003-.742.038-1.485.064-2.228.012-.35.035-.7.055-1.079ZM13.511 66.12c-.333-2.998-2.315-4.629-4.808-4.719-.005-.228-.011-.457-.015-.688-.01-.757-.005-1.514-.037-2.27-.031-.73-.103-1.456-.153-2.185-.055-.795-.104-1.59-.16-2.384a8.782 8.782 0 0 0-.08-.74c-.027-.175-.113-.34-.309-.36-.197-.019-.38.03-.503.232-.277.459-.385.971-.464 1.485-.153.995-.151 2.001-.138 3.005.011.939.063 1.877.08 2.816.009.521-.018 1.042-.024 1.564-.002.196-.008.393.02.586.073.516.428.8.954.78.313-.012.626-.05.939-.048 1.388.005 2.573 1.049 2.824 2.475.04.23.075.466.075.698 0 .162-.04.333-.104.483-.224.532-.01 1.066.538 1.226.176.052.397.032.576-.022.663-.203 1.344-.18 2.023-.205 1.013-.039 2.005.15 3.006.25 1.145.114 2.29.232 3.435.335.689.062 1.38.11 2.07.147.54.028.949-.302 1.005-.781.057-.484-.325-.912-.873-.957-.6-.05-1.202-.075-1.801-.13-.95-.084-1.9-.182-2.85-.276-1.196-.117-2.392-.256-3.59-.346-.534-.04-1.074.017-1.636.03ZM108.734 60.077c-.41.09-.785.145-1.145.254-1.462.442-2.276 1.476-2.567 2.93-.115.582-.12 1.187-.18 1.842-.292-.002-.626-.008-.959-.006-1.216.008-2.434.002-3.65.035-1.373.037-2.744.122-4.116.164-.954.03-1.91.015-2.864.041-.362.01-.735.031-1.08.13-.449.13-.636.558-.51 1 .12.424.484.642.93.607a16.39 16.39 0 0 1 1.449-.05c1.454.016 2.902-.06 4.354-.146.965-.058 1.934-.028 2.902-.03.746-.003 1.492.014 2.237.003.761-.01 1.516-.005 2.252.233.324.105.753-.037.929-.27.225-.299.29-.712.035-.983-.367-.391-.325-.833-.29-1.282.042-.52.126-1.031.358-1.514.358-.749.946-1.157 1.758-1.262.207-.027.417-.028.626-.044.091-.007.182-.014.272-.032.49-.097.758-.441.612-.908-.117-.375-.109-.75-.127-1.12-.055-1.16-.063-2.322-.086-3.481-.02-.978-.037-1.955-.052-2.933-.004-.3.004-.6.008-.9.004-.37-.149-.638-.374-.65-.191-.009-.41.225-.462.562a19.934 19.934 0 0 0-.197 1.63 33.32 33.32 0 0 0-.085 2.19c-.004 1.239.023 2.477.035 3.717.002.09-.008.18-.013.273ZM46.432 29.297c1.187.06 2.375.113 3.562.187 1.578.096 3.153.203 4.734.188 1.398-.013 2.797-.009 4.196-.017 1.607-.01 3.215-.037 4.823-.034 1.569.005 3.137.044 4.705.055.417.003.84-.012 1.25-.072.265-.04.528-.152.77-.274.186-.094.342-.263.326-.499-.02-.298-.192-.512-.452-.645a2.482 2.482 0 0 0-1.097-.27c-.68-.012-1.36-.001-2.04-.009-.954-.01-1.909-.038-2.864-.042-.98-.003-1.96.015-2.94.02-.915.005-1.83 0-2.746.006-1.006.008-2.013.034-3.019.032-.955-.002-1.91-.01-2.863-.051-1.882-.082-3.761-.193-5.643-.284a10.26 10.26 0 0 0-1.253.003c-.563.042-.877.407-.895.865-.017.44.382.825.855.863.196.016.392.02.588.031l.003-.053ZM29.528 29.125c.797-.011 1.593-.024 2.39-.034a456.13 456.13 0 0 1 2.155-.021c.876-.008 1.752-.014 2.627-.02.286-.002.538-.098.762-.27a.717.717 0 0 0 .114-1.067c-.204-.238-.468-.385-.782-.39-.836-.014-1.673-.02-2.509-.015-1.227.008-2.455.037-3.683.04-.626.003-1.252-.032-1.878-.05-.529-.015-.943.293-.995.744-.06.538.313.963.898 1.01.3.024.6.033.901.048v.025ZM88.868 65.28c-.278.025-.564.06-.85.075-1.096.062-2.192.111-3.286.18-.4.024-.816.034-1.196.146a.796.796 0 0 0-.243 1.42c.194.143.486.219.732.215a69.89 69.89 0 0 0 3.09-.122c.638-.039 1.273-.125 1.908-.197a.949.949 0 0 0 .609-.323c.386-.424.368-1.08-.407-1.344-.11-.037-.231-.034-.357-.05ZM81.163 28.557c-.02.339.235.71.567.804.137.04.283.068.425.064a488.71 488.71 0 0 0 3.485-.093c.3-.008.6-.015.897-.046.339-.036.616-.204.839-.46a.814.814 0 0 0 .099-.912c-.138-.25-.43-.36-.772-.346-.52.021-1.044.01-1.566.017-.913.012-1.828.023-2.741.047a2.763 2.763 0 0 0-.579.1c-.391.096-.632.407-.654.825ZM27.926 68.727c.967.02 1.934.043 2.902.054.444.004.891.006 1.332-.034.359-.03.688-.172.894-.496.23-.362.057-.836-.347-.999-.36-.145-.722-.071-1.085-.038-.65.058-1.3.14-1.95.177-.887.05-1.777.064-2.664.106-.233.01-.468.057-.698.105-.253.055-.455.295-.462.52-.006.211.124.396.405.465.302.073.616.103.928.135.246.027.495.03.743.043 0-.013 0-.025.002-.038ZM73.059 67.341c.795.016 1.59.045 2.384.042.376-.001.76.001 1.106-.2.273-.158.492-.348.47-.7-.021-.333-.18-.58-.502-.675-.297-.088-.606-.172-.913-.184a80.942 80.942 0 0 0-2.894-.05 3.044 3.044 0 0 0-.733.096c-.361.09-.592.373-.6.683-.009.374.19.688.568.797.36.104.738.152 1.107.224l.007-.033ZM35.21 68.685c.888.002 1.647.007 2.404.006.34 0 .684.013 1.02-.028a2.49 2.49 0 0 0 .7-.217c.297-.132.402-.4.394-.71-.01-.314-.233-.484-.472-.626-.33-.195-.705-.18-1.07-.185-.967-.01-1.935.003-2.902-.013a1.424 1.424 0 0 0-.678.157.735.735 0 0 0-.416.667c-.006.305.092.612.4.754.231.107.49.156.62.195ZM67.639 67.243c.455-.006.91-.013 1.367-.017.401-.003.66-.25.841-.556.3-.51 0-1.05-.615-1.15-.18-.03-.364-.029-.547-.038-.584-.032-1.169-.064-1.754-.091-.388-.018-.775-.076-1.156.091-.31.135-.505.36-.517.675-.012.327.158.591.461.761.332.186.704.185 1.062.236.283.04.572.035.858.05v.04ZM75.255 29.735c.803-.002 1.533.006 2.263-.012.204-.005.418-.057.606-.138.346-.148.528-.46.48-.816-.047-.336-.271-.546-.574-.683-.336-.153-.694-.118-1.043-.123-.6-.007-1.2.01-1.8.026-.127.004-.26.026-.379.07-.448.165-.706.54-.639.907.079.427.449.733.923.76l.163.009ZM40.322 29.006c.584.006 1.093.012 1.602.014.425.002.796-.258.927-.588.207-.523-.197-1.108-.78-1.147-.79-.053-1.588-.1-2.377.06-.37.074-.63.298-.833.596-.125.183-.112.348.046.527.347.396.807.502 1.296.545.064.006.13-.007.118-.007ZM61.281 67.327c.22-.016.443-.018.661-.052.44-.066.747-.41.748-.815.001-.46-.268-.776-.749-.854-.481-.078-.964-.1-1.417.13-.233.118-.449.261-.543.533-.066.192-.047.351.085.509.318.377.733.524 1.215.549ZM42.196 68.626c.154-.057.393-.103.583-.225.387-.25.358-.688-.037-.962-.33-.23-.813-.19-1.08.072-.218.212-.243.457-.14.717.101.261.337.344.674.398ZM79.403 66.682c-.018.315.313.655.642.66.318.006.607-.28.63-.62.023-.353-.25-.635-.631-.65-.327-.012-.622.27-.641.61Z"/></svg>
