<svg xmlns="http://www.w3.org/2000/svg" width="338" height="82" fill="none"><path fill="#003021" d="M35.724 58.76C20.85 55.044 8.484 44.043.333 27.046l2.982-2.004c9.18 19.152 23.959 30.238 41.616 31.221 22.856 1.27 47.09-14.105 68.246-43.3l1.594-2.2 1.154 2.325c12.147 24.42 27.164 37.388 43.429 37.484 18.591.118 38.855-16.356 58.59-47.631l1.622-2.57 1.226 2.634c11.062 23.76 30.331 39.87 54.274 45.454 21.8 5.047 44.633.21 61.086-12.959l1.814 3.084c-17.243 13.79-41.082 18.882-63.78 13.621-.459-.104-.925-.22-1.381-.334-23.358-5.835-42.323-21.481-53.77-44.336-19.961 30.8-40.648 46.984-59.92 46.869-16.932-.113-32.447-12.881-44.973-36.975-21.541 28.83-46.173 43.965-69.59 42.663a47.72 47.72 0 0 1-8.828-1.332Z"/><path fill="#68B845" d="M228.173 34.254c-1.307.115-3.029.957-4.581 2.466a8.797 8.797 0 0 0-2.396 4.177c-.369 1.438-.24 2.678.244 3.24.474.571 1.569.78 2.817.489 1.235-.274 2.678-1.12 3.802-2.446 1.424-1.67 2.247-3.545 2.462-5.076-.777-.96-1.616-1.859-2.348-2.85ZM242.268 47.702c-1.273.502-2.762 1.833-3.926 3.73-1.884 3.021-1.605 6.907-.392 7.652 1.195.783 4.404-.56 6.053-3.802 1.028-1.985 1.436-4.028 1.291-5.541-1.005-.682-2.051-1.31-3.026-2.039ZM259.289 56.87c-1.19.802-2.412 2.447-3.192 4.56-1.285 3.386-.268 6.97 1.035 7.469 1.322.46 4.257-1.653 5.301-5.122.661-2.163.699-4.255.263-5.647l-1.718-.59c-.573-.209-1.13-.444-1.689-.67ZM277.931 61.86c-1.05 1.065-1.98 2.923-2.391 5.127-.703 3.597.938 6.777 2.317 6.97 1.38.227 3.954-2.536 4.385-6.125.288-2.235-.029-4.254-.715-5.504-1.202-.117-2.395-.307-3.596-.467ZM297.278 62.534c-.846 1.222-1.443 3.24-1.461 5.477-.056 3.586 2.137 6.419 3.551 6.212 1.415-.175 3.486-3.312 3.257-6.915-.126-2.22-.808-4.082-1.703-5.168-1.217.127-2.428.31-3.644.394ZM316.412 58.464c-.576 1.409-.753 3.499-.318 5.644.664 3.465 3.409 5.509 4.801 5.016 1.383-.571 2.764-4.193 1.759-7.527-.6-2.079-1.679-3.696-2.775-4.465l-1.717.713-1.75.62ZM124.256 44.53c-1.316.19-3.023 1.121-4.534 2.651-2.472 2.466-3.001 6.225-2.076 7.34.231.273.605.453 1.083.518.49.058 1.074-.001 1.697-.18 1.243-.347 2.622-1.199 3.736-2.559 1.395-1.7 2.234-3.602 2.413-5.066-.819-.83-1.535-1.807-2.319-2.703ZM138.017 56.85c-1.229.663-2.626 2.072-3.692 4.026-.86 1.574-1.221 3.316-1.147 4.703.059 1.406.517 2.523 1.119 2.878.302.172.718.222 1.213.109.497-.124 1.057-.383 1.611-.773 1.115-.767 2.211-2.056 2.908-3.725.865-2.08 1.147-4.143.925-5.568l-.756-.372-.723-.428-1.458-.85ZM154.613 62.786c-.947 1.067-1.839 2.957-2.244 5.174-.324 1.783-.112 3.475.412 4.737.518 1.25 1.31 2.15 2.013 2.174.7.035 1.691-.645 2.5-1.79.817-1.143 1.441-2.744 1.558-4.558.149-2.237-.263-4.248-.931-5.46-1.115-.053-2.225-.093-3.308-.277ZM172.341 61.135c-.567 1.335-.794 3.402-.463 5.587.272 1.749 1.038 3.202 1.942 4.139.908.96 1.921 1.31 2.603 1.081.676-.24 1.402-1.245 1.809-2.61a9.182 9.182 0 0 0 .014-4.835c-.575-2.106-1.593-3.707-2.632-4.516l-3.273 1.154ZM189.178 52.44c-.188 1.462.171 3.46 1.118 5.345.759 1.516 1.912 2.58 3.042 3.131 1.144.577 2.207.54 2.792.105.581-.459.996-1.637 1.021-3.043.031-1.394-.369-3.078-1.256-4.496-1.116-1.767-2.529-2.906-3.786-3.328-.973.76-1.943 1.54-2.931 2.286ZM203.835 38.542c.135 1.478.94 3.296 2.283 4.828 2.154 2.468 5.452 2.635 6.434 1.468 1.003-1.14.51-4.917-1.827-7.14-1.448-1.407-3.111-2.146-4.411-2.169-.784 1.044-1.657 2-2.479 3.013ZM15.76 59.172c-1.244.498-2.746 1.805-3.964 3.656-1.988 2.953-1.851 6.738-.73 7.589 1.16.775 4.345-.585 6.001-3.782 1.046-1.981 1.526-4.017 1.444-5.482l-1.4-.931c-.464-.343-.906-.701-1.351-1.05ZM31.49 67.381c-1.083.937-2.184 2.656-2.87 4.802-.555 1.737-.57 3.48-.247 4.8.32 1.33.958 2.287 1.612 2.472.65.195 1.672-.272 2.624-1.317.944-1.015 1.797-2.526 2.183-4.294.477-2.21.383-4.26-.094-5.564-1.096-.242-2.142-.61-3.208-.899ZM49.053 69.56c-.81 1.188-1.437 3.176-1.53 5.416-.187 3.586 1.854 6.543 3.234 6.36 1.376-.131 3.41-3.234 3.217-6.828-.1-2.213-.723-4.126-1.54-5.225-1.13.084-2.256.256-3.38.276ZM66.965 65.864c-.514 1.424-.658 3.49-.22 5.625.691 3.504 3.33 5.489 4.646 4.998.644-.26 1.316-1.234 1.666-2.634.35-1.4.392-3.136-.086-4.807-.6-2.08-1.645-3.688-2.705-4.448l-3.301 1.266ZM84.038 57.195c-.242 1.491.05 3.537.91 5.466 1.388 3.149 4.386 4.404 5.575 3.602.586-.403 1.042-1.518 1.124-2.931.076-1.426-.213-3.104-1.016-4.598-.99-1.864-2.332-3.137-3.54-3.6l-3.053 2.06ZM99.616 44.692c-.016 1.483.592 3.381 1.784 5.07 1.893 2.725 5.153 3.421 6.156 2.357 1.024-1.038.965-4.76-1.1-7.324-1.279-1.603-2.832-2.594-4.121-2.809-.914.893-1.791 1.828-2.72 2.706Z"/></svg>