<?xml version="1.0" encoding="utf-8"?>
<!-- Generator: Adobe Illustrator 20.1.0, SVG Export Plug-In . SVG Version: 6.00 Build 0)  -->
<svg version="1.1" id="Layer_1" xmlns="http://www.w3.org/2000/svg" xmlns:xlink="http://www.w3.org/1999/xlink" x="0px" y="0px"
	 viewBox="0 0 150 150" style="enable-background:new 0 0 150 150;" xml:space="preserve">
<style type="text/css">
	.st0{fill:#FFFFFF;}
</style>
<g>
	<g>
		<path class="st0" d="M75.1,150c-1.3,0-2.5,0-3.8-0.1c-20-1-38.4-9.7-51.9-24.6C6,110.5-0.9,91.3,0.1,71.3C2.1,30,37.4-2,78.7,0.1
			c20,1,38.4,9.7,51.9,24.6c13.4,14.8,20.3,34,19.3,54.1l0,0c-1,20-9.7,38.4-24.6,51.9C111.4,143.2,93.7,150,75.1,150z M74.9,7.9
			c-16.7,0-32.5,6.1-45,17.4c-13.3,12-21.1,28.5-22,46.5c-0.9,17.9,5.3,35.1,17.3,48.4c12,13.3,28.5,21.1,46.5,22
			c17.9,0.9,35.1-5.3,48.4-17.3s21.1-28.5,22-46.4l0,0c0.9-17.9-5.3-35.1-17.3-48.4c-12-13.3-28.5-21.1-46.4-22
			C77.2,7.9,76.1,7.9,74.9,7.9z"/>
	</g>
	<path class="st0" d="M100.1,106.6c-1.1,0-2.1-0.4-2.9-1.3L57.9,61.9c-0.2-0.2-0.4-0.4-0.6-0.6L47,49.9c-1.4-1.6-1.3-4.1,0.3-5.5
		c1.6-1.5,4.1-1.3,5.5,0.3l50.2,55.4c1.5,1.6,1.3,4.1-0.3,5.5C102,106.3,101,106.6,100.1,106.6z"/>
	<path class="st0" d="M47.3,104c-1.1,0-2.1-0.4-2.9-1.3c-1.5-1.6-1.3-4.1,0.3-5.5l43.4-39.3c0.2-0.2,0.4-0.4,0.6-0.6L100.1,47
		c1.6-1.4,4.1-1.3,5.5,0.3c1.4,1.6,1.3,4.1-0.3,5.5L50,103C49.2,103.7,48.3,104,47.3,104z"/>
</g>
</svg>
