<svg width="116" height="112" viewBox="0 0 116 112" fill="none" xmlns="http://www.w3.org/2000/svg">
<path fill-rule="evenodd" clip-rule="evenodd" d="M95.8001 45.0764C93.7991 44.5004 91.8711 46.6364 91.8711 46.6364C91.8711 46.6364 91.3731 43.8024 89.3721 43.2254C87.3521 42.6444 85.7261 43.8034 85.2141 45.5804C84.4771 48.1414 85.5911 50.2924 89.3621 55.3524C95.2461 53.0714 97.3321 51.8424 98.0701 49.2814C98.5811 47.5044 97.8211 45.6574 95.8001 45.0764Z" fill="#3E3E3E"/>
<path fill-rule="evenodd" clip-rule="evenodd" d="M109.709 111.414L114.106 110.434C114.331 110.384 114.468 110.166 114.425 109.94C114.134 108.442 114.081 106.873 114.301 105.279C114.522 103.685 115 102.189 115.687 100.826C115.791 100.621 115.717 100.374 115.515 100.265L111.549 98.1257C111.339 98.0127 111.072 98.0917 110.964 98.3037C109.987 100.21 109.308 102.306 108.998 104.544C108.688 106.782 108.772 108.984 109.193 111.083C109.24 111.317 109.476 111.466 109.709 111.414Z" fill="#3E3E3E"/>
<path fill-rule="evenodd" clip-rule="evenodd" d="M9.54023 0.0343388C7.47523 0.303339 6.55923 3.03134 6.55923 3.03134C6.55923 3.03134 4.97223 0.630339 2.90723 0.900339C0.823225 1.17334 -0.205774 2.88434 0.0342257 4.71834C0.379226 7.36034 2.25823 8.88934 7.73423 12.0253C12.2212 7.58634 13.6442 5.62734 13.2982 2.98434C13.0582 1.15034 11.6242 -0.238661 9.54023 0.0343388Z" fill="#3E3E3E"/>
<path fill-rule="evenodd" clip-rule="evenodd" d="M64.4251 85.8471L60.4541 83.7181C60.2521 83.6091 60.0051 83.6841 59.8911 83.8841C59.1331 85.2081 58.1491 86.4321 56.9411 87.4951C55.7331 88.5591 54.3941 89.3791 52.9851 89.9631C52.7721 90.0521 52.6671 90.2861 52.7491 90.5011L54.3571 94.7101C54.4421 94.9331 54.6961 95.0471 54.9171 94.9571C56.9001 94.1511 58.7831 93.0071 60.4791 91.5141C62.1751 90.0211 63.5491 88.2981 64.6001 86.4331C64.7171 86.2251 64.6351 85.9591 64.4251 85.8471Z" fill="#3E3E3E"/>
<path fill-rule="evenodd" clip-rule="evenodd" d="M58.3512 19.2237L54.0102 18.0157C53.7892 17.9537 53.5642 18.0807 53.4962 18.3007C53.0472 19.7597 52.3552 21.1687 51.4092 22.4707C50.4642 23.7727 49.3372 24.8667 48.0892 25.7447C47.9012 25.8777 47.8502 26.1297 47.9772 26.3227L50.4672 30.0757C50.5992 30.2757 50.8712 30.3307 51.0672 30.1957C52.8262 28.9747 54.4132 27.4457 55.7412 25.6177C57.0692 23.7897 58.0322 21.8077 58.6492 19.7577C58.7182 19.5297 58.5812 19.2867 58.3512 19.2237Z" fill="#3E3E3E"/>
<path fill-rule="evenodd" clip-rule="evenodd" d="M33.854 51.9467C31.804 52.3127 31.017 55.0807 31.017 55.0807C31.017 55.0807 29.32 52.7567 27.27 53.1237C25.2 53.4937 24.253 55.2517 24.579 57.0727C25.048 59.6957 26.996 61.1337 32.614 64.0097C36.887 59.3657 38.216 57.3397 37.747 54.7167C37.422 52.8967 35.924 51.5757 33.854 51.9467Z" fill="#3E3E3E"/>
<path fill-rule="evenodd" clip-rule="evenodd" d="M7.75561 100.449L11.9676 102.047C12.183 102.129 12.4173 102.022 12.5056 101.81C13.0858 100.399 13.9039 99.0587 14.9638 97.8479C16.0245 96.6377 17.246 95.6507 18.5691 94.8896C18.7686 94.7755 18.8426 94.5285 18.7337 94.3264L16.5961 90.3596C16.4828 90.1498 16.2163 90.0691 16.0096 90.1868C14.1458 91.2421 12.4265 92.62 10.9375 94.3193C9.44848 96.0185 8.3084 97.9043 7.50646 99.8892C7.41712 100.111 7.53238 100.365 7.75561 100.449Z" fill="#3E3E3E"/>
</svg>
