<svg xmlns="http://www.w3.org/2000/svg" fill="none" viewBox="0 0 1188 360"><path fill="#7FC561" fill-rule="evenodd" d="M1140.4 240.471c-2.69-.776-5.29 2.101-5.29 2.101s-.67-3.817-3.37-4.594c-2.72-.782-4.91.779-5.6 3.172-.99 3.45.51 6.347 5.59 13.162 7.93-3.072 10.74-4.728 11.73-8.177.69-2.393-.34-4.881-3.06-5.664ZM1179.34 286.821l5.92-1.32a.56.56 0 0 0 .43-.666 19.094 19.094 0 0 1-.16-6.278c.29-2.147.94-4.162 1.86-5.997a.565.565 0 0 0-.23-.756l-5.34-2.881a.583.583 0 0 0-.79.24 26.254 26.254 0 0 0-2.65 8.404 26.45 26.45 0 0 0 .27 8.808c.06.315.38.516.69.446ZM1156.49 342.871c-2.78.362-4.02 4.037-4.02 4.037s-2.13-3.234-4.92-2.871c-2.8.368-4.19 2.673-3.87 5.143.47 3.558 3 5.618 10.38 9.842 6.04-5.979 7.96-8.618 7.49-12.178-.32-2.47-2.25-4.341-5.06-3.973ZM1118.35 319.73l-5.35-2.867a.564.564 0 0 0-.76.223 19.241 19.241 0 0 1-3.97 4.864 19.137 19.137 0 0 1-5.33 3.324.563.563 0 0 0-.32.725l2.17 5.669c.11.301.45.454.75.333a26.267 26.267 0 0 0 7.49-4.638 26.083 26.083 0 0 0 5.55-6.843.578.578 0 0 0-.23-.79ZM1110.17 162.648l-5.85-1.627a.56.56 0 0 0-.69.384 19.33 19.33 0 0 1-2.81 5.617 19.28 19.28 0 0 1-4.48 4.409.57.57 0 0 0-.15.779l3.36 5.055a.57.57 0 0 0 .8.162 26.343 26.343 0 0 0 6.3-6.167 26.246 26.246 0 0 0 3.92-7.893.579.579 0 0 0-.4-.719ZM1077.17 206.724c-2.76.493-3.82 4.221-3.82 4.221s-2.29-3.13-5.05-2.636c-2.79.498-4.06 2.866-3.62 5.319.63 3.533 3.25 5.47 10.82 9.343 5.76-6.255 7.55-8.983 6.91-12.516-.43-2.452-2.45-4.231-5.24-3.731ZM1042.02 272.053l5.67 2.152c.29.11.61-.034.73-.32a19.046 19.046 0 0 1 3.31-5.336 19.17 19.17 0 0 1 4.85-3.985.558.558 0 0 0 .22-.758l-2.87-5.343c-.16-.283-.52-.392-.79-.233a26.23 26.23 0 0 0-6.84 5.566c-2 2.289-3.54 4.829-4.62 7.502-.12.298.04.641.34.755ZM670.999 200.136c-3.362-.968-6.601 2.621-6.601 2.621s-.837-4.762-4.199-5.731c-3.394-.976-6.126.971-6.986 3.957-1.239 4.303.633 7.917 6.969 16.419 9.887-3.833 13.392-5.898 14.632-10.201.858-2.985-.419-6.089-3.815-7.065ZM719.573 257.955l7.387-1.647a.704.704 0 0 0 .536-.83 23.862 23.862 0 0 1-.208-7.831 23.869 23.869 0 0 1 2.329-7.482.703.703 0 0 0-.289-.943l-6.664-3.594a.722.722 0 0 0-.983.299 32.819 32.819 0 0 0-3.303 10.485c-.521 3.76-.38 7.46.328 10.987a.725.725 0 0 0 .867.556ZM691.066 327.874c-3.47.452-5.009 5.036-5.009 5.036s-2.666-4.034-6.136-3.581c-3.501.459-5.23 3.334-4.827 6.415.58 4.44 3.737 7.009 12.938 12.278 7.539-7.459 9.93-10.75 9.348-15.191-.403-3.082-2.812-5.415-6.314-4.957ZM643.486 299.008l-6.672-3.577a.702.702 0 0 0-.946.279 23.878 23.878 0 0 1-4.957 6.067 23.835 23.835 0 0 1-6.647 4.147.704.704 0 0 0-.396.904l2.702 7.072a.723.723 0 0 0 .941.415 32.868 32.868 0 0 0 9.345-5.785 32.837 32.837 0 0 0 6.924-8.537.722.722 0 0 0-.294-.985ZM633.281 103.056l-7.294-2.03a.706.706 0 0 0-.864.479 23.819 23.819 0 0 1-3.506 7.007 23.83 23.83 0 0 1-5.579 5.501.706.706 0 0 0-.188.971l4.184 6.306a.722.722 0 0 0 1.008.201 32.795 32.795 0 0 0 7.853-7.692 32.767 32.767 0 0 0 4.886-9.846.72.72 0 0 0-.5-.897ZM592.12 158.038c-3.444.615-4.766 5.265-4.766 5.265s-2.852-3.904-6.296-3.288c-3.478.622-5.069 3.576-4.522 6.635.788 4.408 4.061 6.824 13.501 11.656 7.179-7.803 9.412-11.207 8.624-15.614-.546-3.058-3.063-5.278-6.541-4.654ZM548.27 239.532l7.077 2.685a.705.705 0 0 0 .904-.398 23.856 23.856 0 0 1 4.13-6.658 23.879 23.879 0 0 1 6.057-4.97.702.702 0 0 0 .277-.946l-3.592-6.665a.721.721 0 0 0-.985-.291 32.776 32.776 0 0 0-8.522 6.944 32.829 32.829 0 0 0-5.765 9.358.724.724 0 0 0 .419.941ZM123.999 99.136c-3.362-.968-6.601 2.621-6.601 2.621s-.837-4.761-4.199-5.731c-3.394-.976-6.126.971-6.986 3.957-1.239 4.303.633 7.917 6.969 16.419 9.887-3.833 13.392-5.898 14.632-10.201.858-2.985-.419-6.089-3.815-7.065ZM172.573 156.955l7.387-1.647a.704.704 0 0 0 .536-.83 23.862 23.862 0 0 1-.208-7.831 23.869 23.869 0 0 1 2.329-7.482.703.703 0 0 0-.289-.943l-6.664-3.594a.722.722 0 0 0-.983.299 32.819 32.819 0 0 0-3.303 10.485c-.521 3.76-.38 7.46.328 10.987a.725.725 0 0 0 .867.556ZM144.066 226.874c-3.47.452-5.009 5.036-5.009 5.036s-2.666-4.034-6.136-3.581c-3.501.459-5.23 3.334-4.827 6.415.58 4.44 3.737 7.009 12.938 12.278 7.539-7.459 9.93-10.75 9.348-15.191-.403-3.082-2.812-5.415-6.314-4.957ZM96.486 198.008l-6.672-3.577a.702.702 0 0 0-.946.279 23.874 23.874 0 0 1-4.957 6.067 23.853 23.853 0 0 1-6.647 4.147.703.703 0 0 0-.396.904l2.702 7.072c.143.374.57.566.94.415a32.852 32.852 0 0 0 9.346-5.785 32.844 32.844 0 0 0 6.924-8.537.722.722 0 0 0-.294-.985ZM86.28 2.056 78.988.026a.704.704 0 0 0-.864.48 23.818 23.818 0 0 1-3.506 7.006 23.818 23.818 0 0 1-5.579 5.5.706.706 0 0 0-.188.972l4.184 6.306a.722.722 0 0 0 1.008.201 32.836 32.836 0 0 0 7.853-7.692 32.812 32.812 0 0 0 4.886-9.846.72.72 0 0 0-.5-.897ZM45.12 57.038c-3.444.615-4.766 5.266-4.766 5.266s-2.852-3.905-6.296-3.289c-3.478.622-5.07 3.576-4.522 6.635.788 4.408 4.061 6.824 13.5 11.656 7.18-7.803 9.413-11.207 8.625-15.614-.546-3.058-3.063-5.278-6.54-4.654ZM1.27 138.532l7.077 2.685a.705.705 0 0 0 .904-.398 23.88 23.88 0 0 1 4.13-6.658 23.886 23.886 0 0 1 6.058-4.97.702.702 0 0 0 .276-.946l-3.591-6.665a.722.722 0 0 0-.986-.291 32.782 32.782 0 0 0-8.522 6.944 32.84 32.84 0 0 0-5.765 9.358.724.724 0 0 0 .419.941Z" clip-rule="evenodd"/></svg>