<svg width="156" height="124" viewBox="0 0 156 124" fill="none" xmlns="http://www.w3.org/2000/svg">
<path fill-rule="evenodd" clip-rule="evenodd" d="M30.5296 43.0228L26.4836 41.0428C26.2766 40.9418 26.0326 41.0258 25.9266 41.2298C25.2176 42.5808 24.2796 43.8408 23.1116 44.9478C21.9436 46.0548 20.6376 46.9238 19.2496 47.5608C19.0406 47.6558 18.9436 47.8958 19.0336 48.1068L20.7966 52.2528C20.8896 52.4728 21.1476 52.5778 21.3646 52.4798C23.3176 51.6008 25.1566 50.3868 26.7956 48.8328C28.4356 47.2788 29.7446 45.5058 30.7266 43.6028C30.8356 43.3908 30.7446 43.1278 30.5296 43.0228Z" fill="#3E3E3E"/>
<path fill-rule="evenodd" clip-rule="evenodd" d="M0.333111 11.3407L4.71811 12.3727C4.94211 12.4257 5.16211 12.2897 5.22011 12.0677C5.61111 10.5917 6.24511 9.15471 7.13711 7.81671C8.03011 6.47771 9.11211 5.33871 10.3231 4.41071C10.5061 4.27171 10.5471 4.01671 10.4121 3.82971L7.77211 0.178706C7.63211 -0.0142942 7.35811 -0.0592942 7.16811 0.0847058C5.46011 1.37571 3.93511 2.96671 2.68211 4.84671C1.42911 6.72671 0.547111 8.74571 0.0131108 10.8197C-0.0458892 11.0507 0.100111 11.2867 0.333111 11.3407Z" fill="#3E3E3E"/>
<path fill-rule="evenodd" clip-rule="evenodd" d="M151.231 107.143C149.166 107.412 148.25 110.14 148.25 110.14C148.25 110.14 146.663 107.739 144.598 108.009C142.514 108.282 141.485 109.993 141.725 111.827C142.07 114.469 143.949 115.998 149.425 119.134C153.912 114.695 155.335 112.736 154.989 110.093C154.749 108.259 153.315 106.87 151.231 107.143Z" fill="#3E3E3E"/>
<path fill-rule="evenodd" clip-rule="evenodd" d="M122.913 89.9631L118.942 87.8341C118.74 87.7251 118.493 87.8001 118.379 88.0001C117.621 89.3241 116.637 90.5481 115.429 91.6111C114.221 92.6751 112.882 93.4951 111.473 94.0791C111.26 94.1681 111.155 94.4021 111.237 94.6171L112.845 98.8261C112.93 99.0491 113.184 99.1631 113.405 99.0731C115.388 98.2671 117.271 97.1231 118.967 95.6301C120.663 94.1371 122.037 92.4141 123.088 90.5491C123.205 90.3411 123.123 90.0751 122.913 89.9631Z" fill="#3E3E3E"/>
<path fill-rule="evenodd" clip-rule="evenodd" d="M92.3418 6.06268C90.2918 6.42868 89.5048 9.19668 89.5048 9.19668C89.5048 9.19668 87.8078 6.87268 85.7578 7.23968C83.6878 7.60968 82.7408 9.36768 83.0668 11.1887C83.5358 13.8117 85.4838 15.2497 91.1018 18.1257C95.3748 13.4817 96.7038 11.4557 96.2348 8.83268C95.9098 7.01268 94.4118 5.69168 92.3418 6.06268Z" fill="#3E3E3E"/>
<path fill-rule="evenodd" clip-rule="evenodd" d="M65.8813 97.1919L62.9187 93.7969C62.7682 93.6236 62.5104 93.606 62.3327 93.7524C61.1557 94.7245 59.8032 95.5213 58.2973 96.0891C56.7922 96.6574 55.2494 96.9519 53.7242 96.9995C53.4941 97.0073 53.313 97.1898 53.313 97.4208L53.3305 101.925C53.3308 102.164 53.5278 102.36 53.7657 102.355C55.9063 102.301 58.0725 101.896 60.1866 101.099C62.3008 100.302 64.1946 99.1753 65.8368 97.8018C66.0197 97.6493 66.0388 97.371 65.8813 97.1919Z" fill="#3E3E3E"/>
<path fill-rule="evenodd" clip-rule="evenodd" d="M66.2434 54.5652L70.4554 56.1632C70.6708 56.2451 70.9051 56.1382 70.9934 55.9258C71.5736 54.5144 72.3917 53.1745 73.4515 51.9638C74.5123 50.7536 75.7338 49.7665 77.0569 49.0054C77.2564 48.8913 77.3304 48.6443 77.2215 48.4422L75.0839 44.4755C74.9706 44.2657 74.7041 44.1849 74.4973 44.3027C72.6336 45.358 70.9143 46.7358 69.4253 48.4351C67.9363 50.1344 66.7962 52.0201 65.9943 54.0051C65.9049 54.2264 66.0202 54.4806 66.2434 54.5652Z" fill="#3E3E3E"/>
<path fill-rule="evenodd" clip-rule="evenodd" d="M27.4312 111.065C25.5174 110.244 23.3386 112.124 23.3386 112.124C23.3386 112.124 23.1982 109.25 21.2839 108.43C19.3512 107.601 17.5938 108.549 16.8653 110.25C15.8155 112.699 16.6525 114.971 19.7652 120.461C25.8874 118.93 28.1112 117.968 29.161 115.519C29.8898 113.82 29.3644 111.893 27.4312 111.065Z" fill="#3E3E3E"/>
</svg>
