<svg width="109" height="148" viewBox="0 0 109 148" fill="none" xmlns="http://www.w3.org/2000/svg">
<path fill-rule="evenodd" clip-rule="evenodd" d="M73.8002 59.0022C71.7992 58.4262 69.8712 60.5622 69.8712 60.5622C69.8712 60.5622 69.3732 57.7282 67.3722 57.1512C65.3522 56.5702 63.7262 57.7292 63.2142 59.5062C62.4772 62.0672 63.5912 64.2182 67.3622 69.2782C73.2462 66.9972 75.3322 65.7682 76.0702 63.2072C76.5812 61.4302 75.8212 59.5832 73.8002 59.0022Z" fill="#3E3E3E"/>
<path fill-rule="evenodd" clip-rule="evenodd" d="M102.709 93.4137L107.106 92.4337C107.331 92.3837 107.468 92.1657 107.425 91.9397C107.134 90.4417 107.081 88.8727 107.301 87.2787C107.522 85.6847 108 84.1887 108.687 82.8257C108.791 82.6207 108.717 82.3737 108.515 82.2647L104.549 80.1257C104.339 80.0127 104.072 80.0917 103.964 80.3037C102.987 82.2097 102.308 84.3057 101.998 86.5437C101.688 88.7817 101.772 90.9837 102.193 93.0827C102.24 93.3167 102.476 93.4657 102.709 93.4137Z" fill="#3E3E3E"/>
<path fill-rule="evenodd" clip-rule="evenodd" d="M85.7429 135.027C83.6779 135.296 82.7619 138.024 82.7619 138.024C82.7619 138.024 81.1749 135.623 79.1099 135.893C77.0259 136.166 75.9969 137.877 76.2369 139.711C76.5819 142.353 78.4609 143.882 83.9369 147.018C88.4239 142.579 89.8469 140.62 89.5009 137.977C89.2609 136.143 87.8269 134.754 85.7429 135.027Z" fill="#3E3E3E"/>
<path fill-rule="evenodd" clip-rule="evenodd" d="M57.4251 117.847L53.4541 115.718C53.2521 115.609 53.0051 115.684 52.8911 115.884C52.1331 117.208 51.1491 118.432 49.9411 119.495C48.7331 120.559 47.3941 121.379 45.9851 121.963C45.7721 122.052 45.6671 122.286 45.7491 122.501L47.3571 126.71C47.4421 126.933 47.6961 127.047 47.9171 126.957C49.9001 126.151 51.7831 125.007 53.4791 123.514C55.1751 122.021 56.5491 120.298 57.6001 118.433C57.7171 118.225 57.6351 117.959 57.4251 117.847Z" fill="#3E3E3E"/>
<path fill-rule="evenodd" clip-rule="evenodd" d="M51.3512 1.22371L47.0102 0.0157065C46.7892 -0.0462935 46.5642 0.0807065 46.4962 0.300707C46.0472 1.75971 45.3552 3.16871 44.4092 4.47071C43.4642 5.77271 42.3372 6.86671 41.0892 7.74471C40.9012 7.87771 40.8502 8.12971 40.9772 8.32271L43.4672 12.0757C43.5992 12.2757 43.8712 12.3307 44.0672 12.1957C45.8262 10.9747 47.4132 9.44571 48.7412 7.61771C50.0692 5.78971 51.0322 3.80771 51.6492 1.75771C51.7182 1.52971 51.5812 1.28671 51.3512 1.22371Z" fill="#3E3E3E"/>
<path fill-rule="evenodd" clip-rule="evenodd" d="M26.8541 33.9467C24.8041 34.3127 24.0171 37.0807 24.0171 37.0807C24.0171 37.0807 22.3201 34.7567 20.2701 35.1237C18.2001 35.4937 17.2531 37.2517 17.5791 39.0727C18.0481 41.6957 19.9961 43.1337 25.6141 46.0097C29.8871 41.3657 31.2161 39.3397 30.7471 36.7167C30.4221 34.8967 28.9241 33.5757 26.8541 33.9467Z" fill="#3E3E3E"/>
<path fill-rule="evenodd" clip-rule="evenodd" d="M0.755675 82.4494L4.96763 84.0473C5.18307 84.1292 5.41734 84.0224 5.50563 83.81C6.08586 82.3986 6.90393 81.0587 7.96381 79.8479C9.02453 78.6377 10.2461 77.6507 11.5691 76.8896C11.7687 76.7755 11.8426 76.5285 11.7338 76.3264L9.59616 72.3596C9.48283 72.1498 9.21636 72.0691 9.00961 72.1868C7.14584 73.2421 5.42659 74.62 3.93757 76.3193C2.44854 78.0185 1.30846 79.9043 0.506524 81.8892C0.417177 82.1105 0.532443 82.3647 0.755675 82.4494Z" fill="#3E3E3E"/>
</svg>
