<svg xmlns="http://www.w3.org/2000/svg" width="31" height="26" fill="none" xmlns:v="https://vecta.io/nano"><path fill-rule="evenodd" d="M10.18 22.666c-.075-.122-.165-.125-.252-.116l-.709.091-.386.054c-.424.021-.848.017-1.268.093l-.768.146c-.096.018-.193.043-.289.043l-2.219.005a1 1 0 0 1-.471-.11c-.095-.048-.203-.075-.307-.104-.135-.039-.263-.014-.368.077-.111.096-.238.146-.377.182a1.05 1.05 0 0 0-.272.109c-.219.131-.456.133-.696.115a.21.21 0 0 1-.224-.229l.003-.717c.007-.142.058-.276.16-.385a2.55 2.55 0 0 0 .147-.175.7.7 0 0 1 .566-.275l.294-.007 2.579.005c.263.001.519-.021.768-.119a1.95 1.95 0 0 1 .443-.102.96.96 0 0 0 .421-.161l.925-.604.528-.317c.338-.196.575-.49.815-.784.02-.025.034-.056.048-.085l.279-.623a1.95 1.95 0 0 1 .209-.404.49.49 0 0 0 .081-.242.31.31 0 0 0-.064-.209c-.254-.269-.525-.519-.876-.664-.08-.033-.16-.069-.236-.111a.81.81 0 0 0-.724-.042c-.25.101-.519.172-.721.369-.015.015-.034.03-.053.038l-.818.313c-.134.046-.267.083-.382.172-.067.052-.152.082-.229.12l-.318.157c-.077.038-.15.092-.231.116a.77.77 0 0 0-.317.159c-.016.015-.033.032-.053.037-.343.1-.642.319-1.005.366l-.545.098a2.53 2.53 0 0 1-.615.059c-.24-.008-.479-.008-.718.003a.65.65 0 0 1-.428-.124c-.421-.305-.692-.7-.644-1.238a2.58 2.58 0 0 1 .195-.752c.073-.174.219-.321.342-.471.103-.127.213-.248.332-.359.346-.324.594-.718.831-1.121.091-.155.105-.33.105-.506v-1.207l.004-.294a.96.96 0 0 1 .13-.465c.138-.233.211-.5.383-.717.284-.357.567-.714.914-1.012l.374-.313c.296-.218.604-.415.919-.606s.659-.276.988-.408c.308-.123.644-.076.968-.029.161.023.319.067.478.103.297.066.596.118.902.137a1.92 1.92 0 0 1 .478.092c.26.085.521.157.796.165a.45.45 0 0 1 .363.185c.213.275.423.547.478.911.041.268.116.529.116.804a2.89 2.89 0 0 1-.107.837c-.04.134-.049.278-.074.416-.011.065-.006.144-.043.188-.134.161-.194.365-.314.529-.139.191-.271.394-.457.547-.167.137-.316.299-.513.395-.251.123-.318.111-.521-.079l-1.024-.956c-.211-.187-.434-.359-.618-.575a8.39 8.39 0 0 1-.511-.67c-.148-.216-.222-.436-.268-.686-.043-.234-.117-.463-.189-.692-.059-.191-.086-.212-.278-.344-.134.032-.191.134-.209.258-.044.303-.065.613.007.908.051.206.158.408.279.585.176.26.378.503.586.739.172.195.366.371.556.55.35.328.658.692.934 1.084.056.079.096.169.138.258l.193.414c.107.213.315.284.515.158.384-.243.778-.476 1.102-.799.184-.184.348-.388.516-.586.077-.09.155-.181.216-.282.128-.212.276-.419.358-.648.077-.214.133-.432.24-.636.053-.1.061-.231.064-.35l.013-1.076c.001-.094-.026-.199.09-.273.031.016.071.031.103.057l.424.353c.076.059.166.102.252.146.067.035.148.05.206.095.211.164.453.201.708.198l.457.002c.253 0 .483-.068.721-.167.574-.241 1.035-.631 1.492-1.035l1.145-1.017.772-.699.071-.068 1.452-1.1.808-.543.672-.392.627-.402c.11-.077.222-.131.354-.152.117-.019.232-.059.349-.077.353-.053.697-.172 1.059-.157a3.57 3.57 0 0 1 .484.054l1.088.21c.054.01.112.011.159.034.319.163.678.227.991.404.289.163.574.181.848-.047.165-.138.37-.226.509-.402.195-.246.419-.471.509-.786a.12.12 0 0 1 .013-.03c.322-.508.235-1.065.191-1.616a.61.61 0 0 0-.064-.218c-.162-.321-.332-.641-.57-.908-.187-.209-.425-.371-.687-.485-.11-.048-.228-.076-.332-.133-.188-.102-.386-.143-.596-.142h-.881c-.254 0-.494.07-.733.143l-.598.16c-.038.009-.082-.003-.147-.006.023-.067.028-.123.057-.16.25-.318.552-.58.875-.822.185-.139.374-.26.606-.3.031-.005.062-.022.088-.04.235-.162.508-.171.778-.209.427-.059.846.004 1.267.039.154.013.3.045.427.144.034.027.072.053.112.066.395.121.703.388 1.009.641.327.27.617.59.823.961.146.263.322.519.392.821.011.042.02.088.045.123.217.313.218.68.238 1.035.023.434.028.869-.024 1.304-.023.199-.076.381-.178.552-.083.139-.143.294-.236.427-.194.279-.435.512-.725.696-.165.104-.311.226-.502.294-.16.057-.299.172-.444.268-.109.072-.138.21-.064.351.091.172.186.346.304.5.094.124.171.25.215.398.009.031.02.063.037.09.208.335.191.706.177 1.077 0 .011 0 .022-.003.032-.122.404-.211.819-.422 1.19-.021.038-.057.071-.067.111-.077.306-.293.527-.464.776l-.373.572-.747 1.104c-.042.063-.069.136-.104.203s-.058.146-.108.198c-.102.106-.14.242-.209.362-.146.257-.259.522-.319.811-.201.296-.212.631-.209.972v.163c-.048.489.159.889.443 1.258l.573.709c.179.244.348.496.39.813.019.149.07.296.127.435s.097.267.102.41l.028 1.109a.79.79 0 0 1-.151.489c-.076.104-.127.227-.196.338a7.41 7.41 0 0 1-1.137 1.382c-.118.114-.246.211-.408.209-.49-.006-.948.058-1.438.064-.348.006-.741-.005-1.087.02-.116.009-.227-.001-.341.035-.212.067-.294-.023-.32-.248-.018-.152.01-.27.147-.368.121-.089.216-.213.372-.254.04-.01.075-.044.112-.066.018-.013.032-.032.051-.041.411-.19.801-.442 1.282-.412.065.004.13.003.196 0 .139-.006.238-.072.329-.181.199-.237.332-.511.463-.784.118-.243.104-.509.051-.768-.032-.161-.147-.233-.312-.221s-.318.076-.453.17l-.463.356c-.106.093-.22.133-.356.132-.195-.002-.392 0-.587 0-.653 0-1.231-.216-1.958-.002a2.15 2.15 0 0 1-.291-.02c-.068-.01-.099-.095-.063-.154.012-.019.023-.038.037-.053l.514-.543c.078-.086.165-.134.282-.14.461-.022.895-.172 1.335-.292.121-.032.213-.104.304-.183.377-.326.401-.377.405-.865 0-.032-.004-.066.001-.098.054-.422-.113-.772-.386-1.067-.16-.174-.364-.308-.556-.45l-1.023-.749c-.128-.107-.236-.215-.315-.366-.064-.122-.159-.235-.259-.331-.142-.136-.279-.127-.39.028-.377.532-.85.99-1.183 1.556-.144.244-.348.443-.55.64l-1.126 1.037c-.301.232-.623.43-.954.613-.028.016-.06.033-.091.035-.283.02-.481.207-.667.379-.195.183-.368.398-.446.669l-.154.463c-.036.125-.064.252-.085.38l-.055.453a.6.6 0 0 1-.085.243c-.119.166-.165.352-.197.547-.033.209-.118.393-.238.566-.078.114-.171.187-.306.227a1.97 1.97 0 0 0-.39.159c-.119.064-.244.089-.374.106l-1.129.158c-.396.095-.797.093-1.195.142a2.51 2.51 0 0 0-.536.132 1.6 1.6 0 0 1-.506.113c-.286.008-.56.064-.827.17a1.64 1.64 0 0 1-.54.112 1.58 1.58 0 0 0-.601.138 1.48 1.48 0 0 1-.569.13c-.493.008-.97.112-1.45.21l-.385.061-1.01.05c-.179.003-.346.037-.502.121-.204.109-.355-.035-.358-.22l-.001-.555c.001-.089.025-.181.098-.233.176-.123.309-.309.533-.364.061-.015.127-.043.174-.083.137-.118.295-.182.467-.222.042-.009.087-.024.12-.049.19-.149.416-.171.643-.204.193-.029.386-.069.572-.128a3.05 3.05 0 0 1 .703-.138c.251-.017.493-.073.733-.148.176-.056.359-.084.538-.129.125-.033.256-.059.37-.116.139-.068.278-.128.43-.143.223-.02.357-.139.43-.343l.074-.182z" fill="#000"/></svg>
