<svg width="155" height="521" viewBox="0 0 155 521" fill="none" xmlns="http://www.w3.org/2000/svg">
<path d="M72.1142 3.857C42.4701 13.9734 23.4923 37.2499 15.5014 67.2259C11.6335 81.7354 9.87478 97.7903 13.8048 112.461C19.7814 134.771 31.4102 148.472 51.0312 160.419C61.8538 167.009 72.9403 168.614 85.4458 167.591C94.3028 166.867 107.827 165.442 110.838 155.245C114.482 142.902 100.238 145.44 94.6034 150.9C90.4743 154.901 86.6312 161.178 84.4129 166.427C81.245 173.922 81.4413 183.34 81.3006 191.186C81.024 206.612 82.0314 221.907 83.3955 237.259C86.5936 273.254 91.9216 309.039 94.8073 345.054C97.7061 381.232 98.4469 417.409 93.5358 453.454C90.6024 474.984 84.1608 495.985 80.5182 517.427" stroke="black" stroke-width="2" stroke-linecap="round" stroke-linejoin="round" stroke-dasharray="4 8"/>
</svg>
