<svg width="118" height="34" fill="none" xmlns="http://www.w3.org/2000/svg">
  <path d="M69 23C62 21 56 19 53 14 52 12 51 4 53 4 57 4 59 7 62 9 64 10 64 11 64 8 64 6 65 5 67 3 69 2 76-1 77 3 78 6 77 9 75 12 74 14 72 16 71 18 70 19 67 22 66 22 60 24 54 23 48 22 46 21 43 20 41 19 40 17 38 16 37 15 35 14 33 13 31 12 29 10 25 10 22 9 16 8 2 6 1 13M84 33C81 30 81 30 77 28 76 27 73 26 72 25 69 21 78 17 81 20 82 22 82 24 83 23 84 20 86 19 88 18 90 17 95 16 95 19 95 21 96 24 94 27 93 28 91 29 90 30 89 31 86 32 84 33ZM84 33C86 32 88 31 89 31 91 31 94 31 96 32 98 32 100 33 102 33 108 31 117 28 117 21" stroke="white" stroke-width="1.5" stroke-linecap="round" stroke-dasharray="4 4"/>
</svg>
