<svg xmlns="http://www.w3.org/2000/svg" width="27" height="25" fill="none" xmlns:v="https://vecta.io/nano"><path d="M22.227 4.821c.22-.088 1.782 1.056 1.782 1.056 1.253.967 2.331 1.033 2.331 1.033.571-.44 0-.88 0-.88-2.177-2.111-2.331-3.628-2.331-3.628C24.25.512 22.096.336 22.096.336c-3.679-.752-5.022 1.57-5.47 2.811-.281.645-.23.897-.23.897l-.005.041h.002c-.222 2.563 1.041 5.176 1.041 5.176-1.934-.352-4.814.814-4.814.814l.593-.044c-.088.219-3.21 1.517-3.21 1.517-.395.396-2.265.968-2.265.968l.331.044-1.385.703c.66-.219.33.242.33.242l-3.386.703h.747c-1.253.396-2.352.198-2.352.198l-.791-.397.132.639-.418-.441.198.638-.549-.131.395.285-.395.198.418.044c.682-.287 3.496 2.264 3.496 2.264l2.506 2.572c1.033.924 1.341.243 4.309 1.277 1.267.441 2.092.461 2.623.339l.147.28c-.037.535.407 1.252.578 1.511a.32.32 0 0 0-.043.155c0 .212.22.385.492.385.012 0 .023 0 .036-.002.235.169 1.11.725 2.443.742.423.056.865.066 1.303 0 0 0-.513-.583 1.339-.641 0 0 .384-.156-.071-.2 0 0-1.824-.157-.954-.598 0 0-.115-.255-3.148-.113 0 0-.27.014-.27-.257 0 0 .043-.456-.528-.996 0 0-.261-.409-.36-.869l.408-.135c.113.334.314.657.412.805-.022.041-.036.085-.036.133 0 .179.187.327.418.327.01 0 .02-.001.03-.002.201.144.944.616 2.076.631.358.047.734.055 1.106-.001 0 0-.435-.496 1.139-.545 0 0 .327-.133-.061-.17 0 0-1.549-.132-.81-.507 0 0-.097-.218-2.675-.098 0 0-.23.012-.23-.217 0 0 .027-.318-.325-.718 3.973-1.413 5.538-2.449 5.538-2.449 3.671-2.177 2.99-5.519 2.99-5.519-.46-3.474-3.143-5.365-3.143-5.365-.967-.835-1.231-1.583-1.231-1.583-.352-1.759 1.715-.857 1.715-.857z" fill="#62ac44"/></svg>