<svg xmlns="http://www.w3.org/2000/svg" viewBox="0 0 24 24"><g fill="none" fill-rule="evenodd"><path d="M0 0h24v24H0z"/><path d="M20.293 3H15.5a.5.5 0 110-1h6a.5.5 0 01.5.5v6a.5.5 0 11-1 0V3.707l-9.646 9.647a.5.5 0 01-.708-.708L20.293 3zM19 11.628a.5.5 0 111 0v3.744c0 1.701-.153 2.494-.593 3.318a4.133 4.133 0 01-1.717 1.717c-.824.44-1.617.593-3.318.593H8.628c-1.701 0-2.494-.153-3.317-.593a4.133 4.133 0 01-1.718-1.717C3.153 17.866 3 17.073 3 15.372V9.628c0-1.701.153-2.494.593-3.317a4.133 4.133 0 011.718-1.718C6.133 4.153 6.927 4 8.628 4h3.744a.5.5 0 110 1H8.628c-1.55 0-2.187.123-2.846.475a3.134 3.134 0 00-1.307 1.307C4.123 7.441 4 8.078 4 9.628v5.744c0 1.55.123 2.187.475 2.846a3.134 3.134 0 001.307 1.307c.659.352 1.296.475 2.846.475h5.744c1.55 0 2.187-.123 2.846-.475a3.134 3.134 0 001.307-1.307c.352-.659.475-1.296.475-2.846v-3.744z" fill="#fff" fill-rule="nonzero"/></g></svg>