<svg xmlns="http://www.w3.org/2000/svg" width="37" height="25" fill="none" xmlns:v="https://vecta.io/nano"><path d="M.963 18.812l.12-.321c.881 2.123 2.964 3.605 5.368 3.605 3.205 0 5.809-2.604 5.809-5.808v.04c.12-1.202.441-2.403 1.042-3.485l.561-1.082c1.763-3.325 6.289-5.328 9.614-3.565l3.405 1.763c1.082.561 2.524.2 2.604-1.282V5.512c0-.761.2-1.522.601-2.163a1.22 1.22 0 0 1 .2-.28l.08-.12c.04-.04.08-.12.12-.16l.881-1.122L36.295.385l.561.2-.24 1.803-.24.2.04-.04v.721l-1.682 1.763v.481 3.806 2.524.04.16.12.12.12.12.12.12.12.12.12c0 .04 0 .08-.04.16v.08c0 .08-.04.12-.04.2-.24.921-.681 1.763-1.282 2.524l-.12 4.647 1.282.481.441.881h-2.364v.28l1.682.601.561 1.082h-3.445l-.721-2.283-.641.521.16-1.562-.761.601.16-1.562-.721.521.24-1.843c-1.001.16-2.043.08-3.044-.28l-2.844-1.122c-.521-.16-1.122.04-1.442.521l-.561.881c.441.601.641 1.282.601 2.003l.881.481h.481c.401 0 .761.24.921.561l.28.561h-3.125l1.402.721h.881c.4 0 .801.24.961.641l.28.641h-4.807-2.003-3.645l-1.122-2.804c-1.001 1.362-2.804 2.684-5.728 3.004l.12-.361a8.91 8.91 0 0 1-3.806-.08l.28-.28c-1.522-.441-2.564-1.522-2.564-1.522l.32-.12C.402 20.254.963 18.812.963 18.812z" fill="#62ac44"/></svg>