<svg xmlns="http://www.w3.org/2000/svg" width="31" height="29" fill="none"><path fill="#62AC44" d="M29.5 13.55h-2c-.85 0-1.5.63-1.5 1.452 0 .823.65 1.452 1.5 1.452h2c.85 0 1.5-.63 1.5-1.452s-.65-1.452-1.5-1.452ZM28.05 22.213l-1.5-1.452c-.3-.29-.65-.435-1.05-.435s-.75.145-1.05.435c-.3.29-.45.63-.45 1.016 0 .387.15.726.45 1.017l1.5 1.451c.55.533 1.55.533 2.1 0 .3-.29.45-.629.45-1.016s-.15-.774-.45-1.016ZM20.75 11.808 11.5 6.436V1.452C11.5.678 10.85 0 10 0 7 0 4.2 1.113 2.1 3.146L.45 4.743C.15 5.08 0 5.42 0 5.807s.15.726.45 1.017c.55.532 1.55.532 2.1 0L4.2 5.226c1-.967 2.25-1.693 3.65-2.032l.65-.145v4.21c0 .484.3.968.75 1.258l9.05 5.275-.8 3.098c-.4 1.451-1.75 2.468-3.3 2.468H10c-.4 0-.8.145-1.05.435l-7 6.775c-.3.29-.45.63-.45 1.016 0 .388.15.775.45 1.017.55.532 1.55.532 2.1 0l6.55-6.34h3.55c2.95 0 5.5-1.936 6.2-4.694l1.1-4.162c.15-.63-.1-1.258-.7-1.597ZM28.05 5.759c-.3-.29-.65-.436-1.05-.436s-.75.146-1.05.436l-1.5 1.452c-.6.58-.6 1.5 0 2.032.55.532 1.55.532 2.1 0l1.5-1.452c.6-.532.6-1.5 0-2.032Z"/></svg>