<svg xmlns="http://www.w3.org/2000/svg" width="20" height="36" fill="none" xmlns:v="https://vecta.io/nano"><path fill-rule="evenodd" d="M13.003 31.866c-.908-.184-1.818-.379-2.711.065-.21.104-.397.254-.595.382-.062.04-.125.111-.186.111-.418-.001-.377.324-.388.572-.014.303-.083.596-.114.896-.046.458-.417.718-.71 1.017-.272.278-.595.337-.957.189-.128-.053-.261.023-.386.001-.417-.075-.822-.178-1.062-.584-.1-.17-.102-.356-.041-.52.131-.353.303-.68.664-.874.502-.272.771-.718.927-1.261.177-.613.063-1.212-.014-1.816-.023-.177-.129-.284-.321-.252-.316.053-.559-.147-.835-.23-.065-.019-.094-.08-.118-.146-.147-.405-.049-.64.281-.925.279-.241.555-.418.936-.364.081.011.118-.039.13-.113s.037-.144.038-.217c.012-1.027.042-2.054-.098-3.075-.023-.167-.135-.254-.252-.342-.45-.336-.879-.695-1.232-1.137-.059-.075-.122-.154-.215-.194-.015.01-.038.019-.038.027-.009.714-.142 1.424-.079 2.143.026.302-.058.599-.074.9-.025.474.006.947.054 1.417.055.535.03 1.057-.152 1.568-.151.424-.184.875-.295 1.308a7.55 7.55 0 0 1-.28.834c-.193.496-.666.588-1.097.723l-.895.238a.75.75 0 0 1-.618-.04c-.022-.012-.045-.038-.064-.034-.321.057-.411-.18-.542-.395-.126-.207-.127-.395.025-.561.363-.395.768-.719 1.328-.81.32-.052.422-.359.549-.609.237-.468.206-.964.105-1.456a5.25 5.25 0 0 1-.096-1.337c.066-1.251-.079-2.477-.35-3.697-.134-.601-.21-1.217-.305-1.826-.084-.539-.098-1.077-.05-1.605.041-.447-.092-.856-.116-1.284-.006-.114-.032-.234-.004-.341.104-.403.069-.812.043-1.215-.041-.613.183-1.131.507-1.623l.329-.454c.253-.287.167-.645.125-.962-.056-.415-.084-.827-.058-1.242.015-.238-.088-.291-.314-.312-.52-.047-1.053-.072-1.512-.372-.151-.099-.34-.058-.496-.182-.385-.307-.465-.726-.506-1.171-.027-.295.006-.586.076-.872.031-.125.015-.24-.016-.36a.91.91 0 0 1 .45-1.084c.398-.243.551-.822.303-1.229-.24-.392-.192-1.418.233-1.696.348-.228.43-.509.294-.941-.285-.906-.342-1.853-.318-2.801.006-.242.086-.463.192-.675.072-.144.169-.155.291-.046s.186.25.229.397c.109.367.288.708.401 1.074.058.187.186.366.305.523.246.325.406.685.551 1.057.053.137.138.232.292.203.438-.083.879-.046 1.318-.046.237.001.371-.086.398-.325.078-.687.331-1.32.561-1.964.094-.263.146-.549.231-.82.05-.158.114-.314.318-.322.213-.008.295.14.354.311.33.957.509 1.947.664 2.943.068.436.106.867.004 1.307-.056.238-.192.431-.293.642-.172.358-.247.738-.328 1.119-.021.097.025.172.06.256.313.763.513 1.563.608 2.375.084.713.27 1.384.54 2.036.196.474.527.851.943 1.156.682.5 1.165 1.152 1.423 1.958.099.308.269.578.424.852.511.91 1.015 1.822 1.386 2.8a18.87 18.87 0 0 1 .656 2.072c.244.966.655 1.854 1.187 2.692l1.181 1.767a.49.49 0 0 0 .227.211c.807.394 1.181 1.062 1.208 1.94.004.128.048.21.148.286.396.304.858.501 1.259.797.258.19.48.42.672.669.446.574.293 1.174-.047 1.728-.152.247-.323.522-.666.567-.587.574-1.365.626-2.108.779-.146.03-.286-.004-.444.043-.36.107-.548.428-.862.578-.037.017-.066.076-.076.121-.069.302-.27.533-.409.798-.237.452-.63.563-1.08.64-.373.063-.674-.138-1.004-.219-.223-.055-.615-.848-.512-1.018.227-.377.323-.876.842-1.015.03-.008.065-.016.069-.075zm-3.771-.06c.724-.825 1.625-1.149 2.719-1.067l-.338-.491c-.164-.282-.431-.404-.725-.443-.378-.05-.761-.081-1.146-.071-.22.006-.295.102-.27.303a1.65 1.65 0 0 1-.03.603c-.092.384-.143.778-.211 1.167z" fill="#67b145"/></svg>