<svg xmlns="http://www.w3.org/2000/svg" width="29" height="31" fill="none" xmlns:v="https://vecta.io/nano"><path d="M26.252.637c-.122.056-.442.34-.798.706-.676.701-1.001.94-1.438 1.052-.701.178-1.28.051-2.535-.574-.727-.361-.909-.437-1.118-.437-.229-.005-.264.01-.366.163-.147.213-.198.61-.152 1.199.041.645.173 1.184.589 2.449.406 1.24.513 1.676.523 2.154s-.097.792-.34 1.041c-.279.274-.523.351-1.783.559-1.941.325-3.195.696-4.389 1.29-2.367 1.184-4.15 3.292-5.263 6.228-.284.752-.493 1.448-.945 3.165-.589 2.24-.64 2.352-1.544 3.297-1.174 1.229-2.063 1.803-4.12 2.657-1.057.437-1.514.691-1.849 1.016-.452.437-.625.859-.691 1.651-.076.96.462 1.742 1.605 2.332.239.122.579.264.762.31.472.122.864.051.864-.158 0-.041-.239-.325-.528-.635-.737-.777-.914-1.189-.721-1.697.157-.401.853-.95 1.682-1.321l3.251-1.3c1.316-.483 1.89-.462 2.565.107l.244.203 4.968-.01 4.974-.015-.015-.381c-.046-.991-.305-1.189-1.651-1.265l-.721-.066c-.046-.041.152-.508.483-1.158.589-1.153 1.397-2.25 1.859-2.52.208-.122.264-.132.645-.112.478.025.747.137.991.417.203.234.259.427.34 1.204.051.472.107.742.224 1.036.579 1.499 2.306 3.155 3.272 3.129.33-.005.478-.107.66-.462.162-.32.183-.681.056-.93-.046-.091-.31-.396-.579-.681-1.204-1.25-1.575-2.24-1.575-4.211 0-2.002.391-3.47 1.25-4.679.122-.173.533-.65.914-1.067 1.214-1.326 1.453-1.839 1.453-3.114-.005-.737-.056-1.128-.269-1.92-.361-1.367-.239-2.027.523-2.88.518-.584.564-.787.381-1.758l-.386-2.459c-.137-1.168-.239-1.428-.599-1.58-.224-.097-.457-.086-.701.025z" fill="#62ac44"/></svg>