<svg xmlns="http://www.w3.org/2000/svg" width="29" height="25" fill="none" xmlns:v="https://vecta.io/nano"><path d="M25.804 16.632c-.947-.774.171-2.837-2.924-6.19S12.046 6.314 9.81 6.142 7.373 5.34 6.858 4.308c-.477-.954-1.079-2.543-2.733-2.64.306-.253.71-.424 1.186-.574.745-.234 2.292-.913.458-1.085C4.435-.116 3.557 1.091 3.177 1.76c-1.431.352-1.389 1.51-1.622 1.975 0 0-1.118.688-.947 1.461 0 0 .978-.481 1.788-.316.142.717 1.365 1.433 2.507 1.215.608-.117 1.396 1.376 1.689 3.593s1.077 2.894 1.752 3.411c0 0 .699 3.493 4.301 5.414l.281 5.268c-.358-.082-.736-.13-1.178-.086-1.237.124-1.406 1.046-.622.912.577-.098.912-.067 1.344.035.21.049.258.162.743.177l1.358-.003.077-.001c-.122-.112-.187-.261-.193-.405-.004-.071.01-.143.03-.215a7.46 7.46 0 0 1-.819-.209l.451-4.849c.809.271 1.725.467 2.766.553l.219 4.091c-.358-.082-.735-.13-1.177-.086-1.237.124-1.408 1.046-.623.912a2.98 2.98 0 0 1 1.346.035c.21.05.257.162.742.177l1.357-.003c1.658 0 1.085-.507.336-.567-.463-.037-.857-.149-1.241-.264l.395-4.249c1.329-.01 2.827-.178 4.528-.566 0 0 1.49.385 3.21-.561l1.806.429c1.032.26-1.032-1.632-1.977-2.406zM3.307 3.53c-.286 0-.516-.231-.516-.516s.231-.516.516-.516.516.231.516.516-.231.516-.516.516z" fill="#62ac44"/></svg>