<svg width="25" height="34" fill="none" xmlns="http://www.w3.org/2000/svg"><path fill-rule="evenodd" clip-rule="evenodd" d="M13.708.124c1.074.206 2.065.702 3.015 1.404 0-.62.124-1.156.413-1.528.867.33 1.57.785 2.024 1.61 1.652.414 2.767 2.107 3.262 5.122 1.116 1.652 1.28 3.593.95 5.741 1.115 2.602 1.198 5.245.413 7.847 1.942 2.479 1.322 5.865-.867 7.145.041 2.52-3.221 2.85-6.32 2.602-9.003 7.724-22.674 3.346-13.629-7.145 1.363-1.073 1.57-.702 1.115.537-2.602 5.122-2.106 7.641.992 8.013 2.726-.165 5.121-.826 6.567-2.685-2.148-5.452-1.28-10.945 2.643-16.52-.29-1.694-.29-2.85.33-3.552-2.189-1.157-2.23-3.222 0-6.154-.454-.702-.743-1.528-.908-2.437Z" fill="#62AC44"/></svg>