<svg xmlns="http://www.w3.org/2000/svg" width="36" height="34" fill="none" xmlns:v="https://vecta.io/nano"><path fill-rule="evenodd" d="M28.87 3.848c1.989.308 6.075 1.904 6.459 2.441.456.638.089 2.829-2.188 2.219 0 0-1.428 1.473-3.267 1.109v5.469c0 .945-.395 2.52-1.457 4.046-.567 2.782-2.186 6.019-2.186 6.019v6.735s2.134.682 1.502 1.047-2.82.373-3.533-.038c-.539-.311-.545-6.999-.516-10.237a12.42 12.42 0 0 1-2.061.53v6.216s2.134.682 1.502 1.047-2.82.373-3.533-.038c-.391-.226-.502-3.811-.521-6.998-1.57.058-2.943.043-4.137-.038v5.344c0 .608 1.276.517 1.428 1.185s-3.48.248-3.48-.554v-4.509c0-.607-.116-1.189-.232-1.741-.236-.043-.462-.09-.678-.14-.541.881-2.66 1.78-2.66 3.055v5.743c0 .607 1.276.516 1.428 1.185s-3.48.248-3.48-.554v-4.509c0-.974-.298-1.883-.418-2.704-.178-1.219.137-.87.662-1.642.388-.572.788-1.613.901-2.536a3.48 3.48 0 0 1-.485-.899c-.082-.225-.157-.471-.223-.732-.309 2.663-2.698 3.534-4.782 3.534-2.233 0-2.871-2.416-2.871-2.416h3.403c1.671 0 2.37-1.063 2.37-2.978s.699-4.427 5.719-4.427h9.808c2.577 0 4.065-6.162 4.065-6.162s-.355.101-1.241-.304c0 0-.052-1.557 2.14-2.384-.521-1.177-1.718-2.125-3.036-1.839-2.366.513-2.156 3.679-2.156 3.679s-1.722-3.267 1.241-4.912c2.78-1.545 5.404-.257 6.512 2.69zm1.686 1.551c-.318 0-.576.258-.576.576s.258.576.576.576.576-.258.576-.576-.258-.576-.576-.576z" fill="#62ac44"/></svg>