<svg width="354" height="113" viewBox="0 0 354 113" fill="none" xmlns="http://www.w3.org/2000/svg">
<path fill-rule="evenodd" clip-rule="evenodd" d="M354 0.313599L339.313 1.68178C324.373 3.04996 295 5.78633 265.373 13.9954C236 22.2045 206.373 22.9771 177 20.2407C147.373 17.6998 118 11.2591 88.3734 5.78633C59 0.313599 29.3734 8.5227 14.6867 12.6272L0 16.7318V98.3134C0 106.425 6.57544 113 14.6867 113C29.3734 113 59 113 88.3734 113C118 113 147.373 113 177 113C206.373 113 236 113 265.373 113C295 113 324.373 113 339.313 113C347.425 113 354 106.425 354 98.3133V0.313599Z" fill="#67B145"/>
</svg>
