<svg width="355" height="114" viewBox="0 0 355 114" fill="none" xmlns="http://www.w3.org/2000/svg">
<path fill-rule="evenodd" clip-rule="evenodd" d="M0.432129 0.754028L15.1188 2.12221C30.0587 3.49039 59.4321 6.22676 89.0587 14.4359C118.432 22.645 148.059 23.4175 177.432 20.6811C207.059 18.1402 236.432 11.6995 266.059 6.22676C295.432 0.754028 325.059 8.96313 339.745 13.0677L354.432 17.1722V98.7538C354.432 106.865 347.857 113.44 339.745 113.44C325.059 113.44 295.432 113.44 266.059 113.44C236.432 113.44 207.059 113.44 177.432 113.44C148.059 113.44 118.432 113.44 89.0587 113.44C59.4321 113.44 30.0587 113.44 15.1188 113.44C7.00758 113.44 0.432129 106.865 0.432129 98.7538V0.754028Z" fill="#67B145"/>
</svg>
