<svg width="151" height="140" fill="none" xmlns="http://www.w3.org/2000/svg"><path d="M136.456 118.952c14.451 2.097 17.831 8.194 9.696 12.674-8.098 4.472-27.713 7.326-45.395 8.126-17.72.8-33.508-.471-52.268-1.911-18.723-1.449-40.418-3.066-46.287-6.266-5.87-3.2 4.049-7.966 18.203-10.046 14.116-2.08 32.393-1.465 54.273-2.114 21.88-.648 47.365-2.551 61.778-.463z" fill="#63AC44"/><path d="M77.22 38.773c-1.613 1.614-1.411 4.236.202 5.85 3.63 3.63 7.26 5.848 10.69 7.461 4.235-3.428 9.478-4.638 11.898-4.437V46.64c-4.235-.202-10.285-1.815-16.94-8.067-1.614-1.412-4.236-1.412-5.85.201zM136.514 110.974c-1.21-3.227-4.639-4.84-7.866-3.832l-4.84 1.815 5.042-14.924v-.403c.403-.202.605-.403.605-.807l3.429-43.36c0-1.009-.404-2.219-1.412-2.824-9.681-6.252-19.159-6.655-28.033 0-.605.403-1.009 1.008-1.009 1.613 1.815 1.009 3.832 1.21 4.841 1.21 2.016.202 3.63 2.017 3.226 4.236-.201.806-.605 1.412-.806 1.815.403.202.605.403.806.605.807.807 1.614 1.008 2.017 2.218 2.42-2.621 2.824-4.638 2.824-4.638.605-3.429 3.63-5.647 7.058-5.042 3.429.605 5.647 3.63 5.042 7.059-.201 1.613-2.823 13.915-22.789 22.587l1.21 14.521c0 .404.202.605.605.807l-8.067 23.395c-.807 2.218-.202 4.638 1.411 6.252 1.816 1.613 4.236 2.218 6.253 1.411l1.613-.605c-1.815-2.218-2.42-5.042-1.412-7.865l7.462-22.588h2.219l-7.664 23.395c-.807 2.218-.202 4.638 1.613 6.252 1.614 1.613 4.034 2.218 6.252 1.411l16.74-5.848c3.025-1.21 4.638-4.639 3.63-7.866zM65.725 43.009c2.219-.404 3.832-2.42 3.429-4.639-.403-2.218-2.42-3.832-4.639-3.428-6.05 1.008-12.907-.404-18.756-3.63.404 1.21 0 1.613-.201 9.075 6.252 2.42 13.31 3.63 20.167 2.622zM27.205 93.227c-3.227-.404-6.252-1.21-9.277-2.622l.201 32.47c0 3.428 2.824 6.05 6.05 6.05 1.614 0 3.228-.605 4.236-1.815-.807-1.21-1.21-2.622-1.21-4.235V93.227zM30.835 93.428h-1.613l.201 29.647c0 3.63 3.026 6.05 6.05 6.05 3.43 0 6.051-2.823 6.051-6.05l-.202-31.462c-3.428 1.21-6.857 1.815-10.487 1.815zM32.65 24.454c5.792 0 10.487-4.695 10.487-10.487S38.442 3.48 32.65 3.48 22.163 8.175 22.163 13.967s4.695 10.487 10.487 10.487zM24.381 41.597c-1.412-3.025 0-6.655 3.227-8.067 3.025-1.412 6.655 0 8.067 3.227 1.815 3.832 4.236 7.663 7.664 11.092l.605-15.327c0-1.009-.403-2.017-1.412-2.622-6.857-4.236-13.714-4.437-20.772-.605-1.009.403-1.614 1.21-1.614 2.218l-.807 19.563-6.857 33.68c10.89 8.067 23.798 8.672 35.092 1.21l-2.823-20.974c-9.68-6.858-16.538-14.723-20.37-23.395z" fill="#fff"/><path d="M117.557 40.387c5.346 0 9.68-4.334 9.68-9.68 0-5.347-4.334-9.681-9.68-9.681-5.347 0-9.681 4.334-9.681 9.68 0 5.347 4.334 9.681 9.681 9.681zM58.263 66.403c1.21-2.017.403-4.437-1.412-5.647-11.495-6.857-19.36-14.722-23.193-23.394-1.008-2.017-3.227-3.026-5.445-2.017-2.017 1.008-3.025 3.227-2.017 5.445 4.437 10.286 13.512 19.361 26.622 27.025 1.815 1.21 4.437.605 5.445-1.412zM84.481 78.302c-.806-3.226 1.009-6.655 4.437-7.462 5.849-1.613 10.487-3.428 13.916-5.243 2.017-2.824 4.639-5.647 7.664-5.244 0 0 .403-1.815-1.21-2.017 0 0 0-2.42-4.437.404 0 0-5.647 6.252-9.277 7.26 0 0-3.429-6.857 5.243-9.075 0 0 2.824 1.008 4.437-.202 0 0 1.815-.403 2.622-2.017 0 0 .403-.605.605-1.412.202-.806-.403-1.613-1.21-1.613-1.21 0-3.63-.403-6.05-1.613 0 0-8.874-1.614-15.731 8.268 0 0-5.244 7.059-7.26 15.328-9.076 9.075-15.328 14.52-15.328 16.94 0 0-2.824-.403-2.219 8.471 0 0 1.009 7.866-6.05 9.076 0 0-.605 2.621 3.63-.202 0 0 4.034-1.412 4.034-10.89 0 0 2.218 5.848.806 10.083 0 0-2.016 5.244-5.445 7.059l.202 8.269s2.218 3.025 2.218-2.42c0 0 .807-5.042 4.034-7.664 0 0-.202 6.857 2.218 9.882 0 0 2.219 1.009.605-3.63 0 0 .404-7.866 4.437-13.512 0 0 2.219-5.244 1.009-11.093 0 0 9.882-6.252 15.932-11.294-1.815-1.008-3.227-2.621-3.832-4.437z" fill="#fff"/><path d="M125.22 55.311c.403-2.218-1.21-4.235-3.428-4.639-2.219-.403-4.236 1.21-4.639 3.429 0 .202-2.622 11.899-27.832 18.554-2.218.605-3.428 2.824-2.823 5.042.605 2.219 2.823 3.429 5.042 2.824 30.655-8.067 33.68-24.403 33.68-25.21z" fill="#fff"/><path d="M95.775 36.353c2.824-2.823-1.412-6.857-4.033-4.033-2.824-2.824-6.857 1.412-4.034 4.033l4.034 4.034 4.033-4.034zM90.935 21.833l5.647 1.411 1.412-5.647c1.008-3.832-4.639-5.243-5.647-1.411-3.832-.807-5.244 4.84-1.412 5.647zM64.717 25.06l5.647 1.411 1.411-5.647c1.009-3.832-4.638-5.243-5.647-1.412-3.63-.806-5.243 4.84-1.411 5.647zM80.65 14.976l6.655-6.857c4.437-4.437-2.219-11.093-6.656-6.656-4.436-4.437-11.092 2.219-6.655 6.656l6.656 6.857z" fill="#3E3E3E"/></svg>