<svg width="136" height="124" fill="none" xmlns="http://www.w3.org/2000/svg"><path d="M126.132 111.563c9.634 1.239 11.887 4.841 6.464 7.489-5.399 2.642-18.476 4.329-30.264 4.802-11.813.472-22.339-.279-34.845-1.13-12.482-.856-26.945-1.811-30.858-3.702-3.913-1.891 2.7-4.708 12.135-5.937 9.41-1.229 21.595-.865 36.182-1.249 14.587-.383 31.577-1.507 41.186-.273z" fill="#63AC44"/><path d="M87.579 81.662l-24.527.977h-.139l-5.156-5.026a.673.673 0 00-.976 0l-4.459 4.607a.676.676 0 000 .977l7.386 7.12c.279.279.557.837.557 1.116l.279 22.614c0 .419.279.698.697.698h8.64c.418 0 .697-.279.697-.698v-8.655l4.598 9.074c.14.279.558.558.976.558h8.64c.418 0 .557-.279.418-.698l-5.017-11.307c-.14-.419 0-.698.418-.698h10.173c.418 0 .697.279.697.698v11.168c0 .418.278.698.696.698h8.362c.418 0 .696-.28.696-.698l-.278-18.985-13.378-13.54zM124.508 76.078c-.279-.977-1.115-.977-1.533-.838-2.091.419-5.993 1.117-5.993 1.117-.139 0-.278 0-.278-.14l-3.763-5.723c-.139-.28-.697-.558-.975-.558l-7.386-.838h-1.254s-9.476 1.117-9.337 1.396l2.926 13.261c.14.42.419.698.837.559l7.385-.28c.418 0 .697-.279.837-.697l1.254-6.7c0-.28.278-.56.557-.56h-.279.558-.279c.139.14.279.28.279.56l-1.812 7.398c-.139.418-.418.698-.836.698l-8.361.418c-.418 0-.697-.279-.836-.558l-1.533-7.12-5.296 3.63 12.821 12.982 4.32-4.327c.279-.28.697-.419 1.115-.558 0 0 13.656-.42 16.722-3.49 3.066-3.35.279-8.655.14-9.632z" fill="#fff"/><path d="M15.254 24.15a.766.766 0 00-.697-.42l-.279.14a.768.768 0 00-.418.698l.14.559 1.393-.42-.14-.558zM95.522 2.652a.766.766 0 00-.697-.418l-.279.14a.768.768 0 00-.418.697l.14.419 1.393-.419-.139-.419zM21.107 26.662c1.672-.698 3.205-1.256 4.46-1.954 2.368-1.256 3.344-2.234 3.483-2.932l-13.517 3.63.697 2.792c1.811-.559 3.483-.977 4.877-1.536zM.482 29.454c.14.28.558.419.837.419.696.14 1.672.279 2.787.279 2.787 0 6.828-.558 10.87-1.675l-.698-2.792L.482 29.454z" fill="#3E3E3E"/><path d="M14.975 28.477c.14 0 .418-.14.558-.14.278-.14.557-.14.836-.279l-.836-2.652-1.394.419.836 2.652zM101.514 4.886c1.673-.698 3.205-1.257 4.46-1.955 2.369-1.256 3.344-2.233 3.483-2.931L95.801 3.63l.697 2.791c1.811-.279 3.483-.837 5.016-1.535zM80.75 7.817c.14.28.558.419.837.419.696.14 1.672.28 2.787.28 2.787 0 6.689-.56 10.73-1.676l-.697-2.792-13.656 3.77z" fill="#3E3E3E"/><path d="M95.243 6.98c.279 0 .418-.14.697-.14.279 0 .418-.14.697-.14L95.94 3.91l-1.394.418.697 2.653z" fill="#3E3E3E"/><path d="M51.486 47.182s-.14.14-.279.14c.279.418.418.977.557 1.814v.14h.14s.14.14.278.558c0-.14 0-.418-.139-.698-.14-.977-.279-1.535-.557-1.954z" fill="#fff"/><path d="M52.044 49.276s-.14 0 0 0c-.14 0-.14 0 0 0-.14 0 0 0 0 0l.278.558c-.279-.418-.279-.558-.279-.558z" fill="#fff"/><path d="M52.044 49.276s-.14 0 0 0c-.14-.14-.14-.14 0 0-.14 0 0 0 0 0s.139.14.278.558c-.279-.418-.279-.558-.279-.558zM49.117 46.205c.14.14.278.14.278.28l-.278-.28zM51.486 47.182l-.14.14.14-.14zM51.486 47.182s-.14.14-.279.14c.14 0 .279-.14.279-.14z" fill="#fff"/><path d="M49.117 46.205c.14.14.278.14.278.28l-.278-.28zM51.626 49.136c.139 0 .139.14.278.14 0-.14-.14-.14-.279-.14zM49.396 46.484c.14.14.279.14.279.28 0-.14-.14-.28-.28-.28z" fill="#fff"/><path d="M49.396 46.484c.14.14.279.14.279.28 0-.14-.14-.28-.28-.28zM51.626 49.136c.139 0 .139.14.278.14-.14-.14-.14-.14-.279-.14z" fill="#fff"/><path d="M102.211 13.261c-.418-1.675-2.648-1.814-4.32-1.675L96.776 7.26c-.278 0-.418.14-.697.14-.278 0-.418.139-.696.139l1.114 4.188c-.418.14-.836.14-.836.14l-23.969 6.42-3.483-4.466c-.419-.42-1.115-.698-1.673-.559l-6.689 1.815c-1.533-.977-3.344-1.396-5.016-.838-1.673.559-3.066 1.676-3.902 3.35l-6.132 1.536c-.557.14-1.115.698-1.254 1.257l-1.254 5.862-23.83 6.422s-.279.14-.836.279l-1.115-4.048c-.278.14-.557.14-.836.279-.14 0-.418.14-.557.14l1.115 4.327c-1.673.837-3.484 2.094-3.066 3.63.697 2.512 3.344 6.7 5.435 6.141 2.09-.558 2.23-1.814 2.23-1.814l.696-7.12s11.288-3.07 24.944-6.7l-.278-.14v.14l3.901 6.002.14.28.14.279-.419.837c-.557 1.257-1.115 2.513-1.254 3.77-.279 1.116-.279 2.233-.14 3.21-.139 0-.139 0-.278-.14h-.279c-.279 0-.418-.14-.697-.14h-.557c-.836 0-1.533.28-1.812.56-.139.278-.278.418-.139.837.279.977.836 1.954 1.672 2.791.697.698 1.533 1.396 2.509 1.955.418.279.836.418 1.254.698-.279-.559-.557-1.257-.836-2.094v-.14c-.14-.14-.279-.279-.418-.279-.558-.558-1.115-1.117-1.394-1.535-.279-.559-.418-.838-.279-.978 0 0 .14-.14.28-.14.139 0 .417 0 .557.14.139 0 .278.14.418.28.139 0 .139.14.278.14.14 0 .14.139.279.139.279 1.117.558 2.094.836 2.792.418.977.697 1.535.976 2.093.278.559.557.838.557.838l.279.28.279.278v-.279c0-.279 0-.558-.14-.837-.14-.838-.418-1.396-.557-1.815-.14-.28-.14-.419-.279-.698a34.49 34.49 0 01-.975-2.094c.139.14.278.28.418.28l.418.418c.278.28.418.559.696.838.28.558.419.837.28.977.278.419.417.977.556 1.814 0 .28.14.559.14.698.418.978 1.393 3.211 1.95 5.305.28.977.976 3.63 2.23 6.56.558 1.397 1.115 2.793 1.812 3.91.697 1.395 1.394 2.512 2.23 3.35.697.837 1.672 1.535 3.066 2.233 1.114.559 2.369.977 3.901 1.396 2.648.698 5.296.838 6.41.977h.28c.836.14 2.508.419 4.32.977 1.254.28 3.344.977 3.901 1.675 1.115 1.117 5.017 5.165 5.157 5.165l1.811-.698c-.14-.14-3.066-3.35-5.156-5.304-.557-.558-1.254-.977-2.23-1.396-.836-.419-1.811-.698-2.926-.977-.976-.28-1.951-.559-3.066-.698-.975-.14-1.811-.28-2.508-.28-1.394 0-3.902-.558-6.41-1.256a43.359 43.359 0 01-3.345-1.256 6.735 6.735 0 01-2.09-1.396 38.83 38.83 0 00-1.115-1.535c-.418-.838-.976-1.676-1.394-2.792-1.254-2.653-2.369-5.863-3.484-9.772-.557-2.094-2.09-5.584-2.09-5.584s0-.418-.14-1.116c-.139-.419-.417-.838-.696-1.396-.418-.559-.836-1.257-1.394-1.954-.418-.42-.836-.838-1.393-1.257-.14 0-.14-.14-.279-.14-.14 0-.14-.139-.279-.139s-.139-.14-.278-.14c-.14-.977-.14-2.093.14-3.49.278-1.116.696-2.372 1.393-3.629 0-.14.139-.14.139-.279l.14.14H51.624l17.42-5.026c2.23 1.257 4.598 3.071 5.434 5.305 1.533 4.327.697 4.467 1.812 7.259 1.115 2.791 1.115 0 1.115 0s.279-2.094-1.672-7.538c-.976-2.792-3.623-4.886-5.992-6.282v-7.538h-.14l-.418.14c13.378-3.63 24.248-6.561 24.248-6.561s4.04 4.188 4.877 5.723c.975 1.396 2.787 2.792 3.902.28.975-2.513.697-4.747 0-7.539z" fill="#3E3E3E"/></svg>