<svg xmlns="http://www.w3.org/2000/svg" width="30" height="15" fill="none" xmlns:v="https://vecta.io/nano"><path d="M20.937.271a13.63 13.63 0 0 0-4.022.641 7.11 7.11 0 0 1-3.693.167A14.52 14.52 0 0 0 8.515.82a9.5 9.5 0 0 0-8.29 6.764 1.18 1.18 0 0 0 .389 1.254c.597.481 1.278.845 2.009 1.075.504.158.956.447 1.31.838a7.25 7.25 0 0 0 4.956 2.374h.007a.41.41 0 0 1 .339.218.41.41 0 0 1-.012.403.96.96 0 0 0-.132.366.41.41 0 0 1-.266.328.64.64 0 0 0-.332.274c-.005.008-.008.017-.008.026s.002.018.006.027.011.015.019.02.017.008.026.008c1.009.018 1.994-.306 2.794-.92.101-.077.216-.132.34-.161s.252-.031.376-.006c3.021.598 6.114.746 9.178.438.178-.328.406-.627.675-.885.039-.037.091-.057.144-.056s.105.024.142.062.057.091.056.144-.024.105-.062.142a3.23 3.23 0 0 0-.764 1.138h.891a.49.49 0 0 0 .328-.126c.222-.2.494-.339.787-.401a6.91 6.91 0 0 0 6.043-7.014A6.91 6.91 0 0 0 23.106.419c-.718-.109-1.443-.161-2.17-.155v.008zM7.239 2.228a2.11 2.11 0 0 1 1.633.851l.934 1.255c.132.177.225.379.274.594a1.58 1.58 0 0 1 .01.654c-.042.216-.129.422-.255.602s-.289.333-.477.448c-.56.341-1.192.545-1.846.598s-1.31-.048-1.918-.294c-.046-.023-.082-.062-.1-.11s-.018-.101.002-.149.056-.086.103-.107.1-.024.148-.008a3.8 3.8 0 0 0 3.402-.276 1.18 1.18 0 0 0 .545-.781 1.18 1.18 0 0 0-.21-.929L8.55 3.32c-.258-.347-.638-.583-1.064-.66s-.864.01-1.228.243c-.045.029-.1.04-.152.028s-.099-.043-.128-.088-.04-.1-.028-.152.043-.099.088-.128a2.11 2.11 0 0 1 1.203-.335zm-3.544 2.21a.44.44 0 0 1 .317.128.44.44 0 0 1 .13.317.44.44 0 0 1-.125.319.44.44 0 0 1-.315.133.44.44 0 0 1-.315-.133.44.44 0 0 1-.125-.319.44.44 0 0 1 .433-.445z" fill="#000"/></svg>
