<svg xmlns="http://www.w3.org/2000/svg" width="31" height="31" fill="#62ac44" xmlns:v="https://vecta.io/nano"><path d="M3.752 16.272V30.75h22.96v-14.7L15.391 7.314 3.752 16.272zm17.985 2.156l.001.004c.531 2.738-1.126 6.389-6.026 8.374a.52.52 0 0 1-.029.011.88.88 0 0 1-.615 0 .48.48 0 0 1-.026-.01c-4.902-1.945-6.561-5.607-6.03-8.374.374-1.971 1.786-3.244 3.599-3.244.906 0 1.836.32 2.769.951.922-.604 1.865-.921 2.745-.921 1.801 0 3.22 1.26 3.613 3.21zm-6.661-1.279c-.844-.629-1.697-.962-2.466-.962-1.33 0-2.333.932-2.618 2.433-.452 2.358 1.038 5.508 5.383 7.245 3.137-1.283 6.009-4.013 5.384-7.242-.3-1.485-1.309-2.407-2.634-2.407-.764 0-1.613.324-2.457.936a.5.5 0 0 1-.592-.004zM.258 12.624v5.116L15.093 6.289a.49.49 0 0 1 .603 0l14.796 11.449v-5.115L15.395.938.258 12.624z"/></svg>