<svg width="28" height="28" fill="none" xmlns="http://www.w3.org/2000/svg"><path d="M14.235 8.638c-.34.31-.298.815.042 1.126a7.837 7.837 0 0 0 2.254 1.436c.893-.66 1.999-.893 2.509-.854v-.194c-.893-.039-2.169-.35-3.572-1.553a.98.98 0 0 0-1.233.039Z" fill="#68B406"/><path d="M27.375 23.851a1.371 1.371 0 0 0-1.704-.825l-1.049.391 1.093-3.213v-.086c.087-.044.13-.087.13-.174l.744-9.334c0-.217-.088-.478-.306-.608-2.098-1.346-4.151-1.433-6.074 0-.13.087-.218.217-.218.348.393.216.83.26 1.049.26.437.043.786.434.699.912-.044.173-.131.303-.175.39a.604.604 0 0 1 .175.13c.174.174.35.218.437.478.524-.564.611-.998.611-.998.131-.738.787-1.216 1.53-1.086.742.13 1.223.782 1.092 1.52-.044.347-.612 2.995-4.938 4.862l.263 3.126c0 .087.043.13.13.174l-1.747 5.036c-.175.477-.044.998.306 1.346.393.347.918.477 1.354.303l.35-.13c-.393-.477-.524-1.085-.306-1.693l1.617-4.862h.48l-1.66 5.036c-.175.477-.044.998.35 1.346.35.347.873.477 1.354.303l3.627-1.259a1.374 1.374 0 0 0 .786-1.693ZM11.576 9.437a.939.939 0 0 0 .73-1.077c-.085-.516-.515-.89-.987-.797-1.29.234-2.75-.093-3.996-.843.086.281 0 .375-.043 2.108 1.332.562 2.836.843 4.296.61ZM3.662 20.172A6.39 6.39 0 0 1 1.68 19.6l.043 7.08c0 .748.603 1.32 1.292 1.32.345 0 .69-.132.905-.396a1.65 1.65 0 0 1-.258-.923v-6.51ZM4.287 20.006H3.92l.046 6.64c0 .812.688 1.354 1.377 1.354a1.37 1.37 0 0 0 1.377-1.355L6.674 19.6c-.78.271-1.56.406-2.387.406ZM4.48 5.04a2.24 2.24 0 1 0 0-4.48 2.24 2.24 0 0 0 0 4.48ZM2.658 8.856c-.315-.655 0-1.442.721-1.747.676-.306 1.487 0 1.803.699.405.83.946 1.66 1.712 2.402l.135-3.32a.632.632 0 0 0-.315-.568c-1.532-.917-3.064-.96-4.641-.13-.226.087-.36.261-.36.48l-.181 4.237L0 18.203c2.433 1.748 5.317 1.879 7.84.263l-.63-4.543c-2.164-1.485-3.696-3.189-4.552-5.067Z" fill="#62AC44"/><path d="M22.96 8.96a2.24 2.24 0 1 0 0-4.48 2.24 2.24 0 0 0 0 4.48ZM9.963 14.678c.246-.438.082-.964-.287-1.228-2.338-1.49-3.938-3.2-4.718-5.085-.205-.439-.656-.658-1.107-.439a.909.909 0 0 0-.41 1.184c.902 2.236 2.748 4.209 5.414 5.875a.747.747 0 0 0 1.108-.307ZM15.801 16.914c-.17-.715.212-1.474.933-1.653 1.23-.357 2.205-.759 2.925-1.16.424-.626.976-1.251 1.612-1.162 0 0 .084-.402-.255-.446 0 0 0-.536-.933.089 0 0-1.187 1.384-1.95 1.608 0 0-.72-1.519 1.102-2.01 0 0 .594.223.933-.045 0 0 .382-.089.551-.446 0 0 .085-.134.128-.313.042-.178-.085-.357-.255-.357-.254 0-.763-.09-1.272-.357 0 0-1.865-.358-3.307 1.83 0 0-1.102 1.564-1.526 3.395-1.908 2.01-3.222 3.215-3.222 3.751 0 0-.594-.09-.467 1.876 0 0 .212 1.742-1.272 2.01 0 0-.127.58.764-.045 0 0 .847-.313.847-2.412 0 0 .467 1.295.17 2.233 0 0-.424 1.161-1.145 1.563l.043 1.831s.466.67.466-.536c0 0 .17-1.116.848-1.697 0 0-.042 1.519.466 2.189 0 0 .467.223.128-.804 0 0 .084-1.742.932-2.992 0 0 .467-1.162.212-2.457 0 0 2.078-1.384 3.35-2.5a1.794 1.794 0 0 1-.806-.983Z" fill="#62AC44"/><path d="M24.627 12.163c.087-.454-.261-.868-.74-.95a.874.874 0 0 0-1 .702c0 .041-.566 2.438-6.004 3.802-.479.124-.74.578-.61 1.033.131.454.61.702 1.088.578 6.613-1.653 7.266-5 7.266-5.165ZM18.27 7.959c.635-.7-.317-1.702-.907-1-.635-.702-1.542.35-.907 1l.907 1.001.907-1.001ZM17.337 4.7l1.34.34.335-1.357c.239-.92-1.1-1.26-1.34-.34-.91-.193-1.244 1.164-.335 1.358ZM11.595 5.346l1.01.254.253-1.018c.181-.69-.83-.945-1.01-.254-.65-.146-.94.872-.253 1.018ZM15.12 3.36l1.377-1.538c.918-.996-.459-2.49-1.377-1.494-.918-.995-2.295.498-1.377 1.494L15.12 3.36Z" fill="#62AC44"/></svg>