<svg width="79" height="104" viewBox="0 0 79 104" fill="none" xmlns="http://www.w3.org/2000/svg">
<path d="M27 76.7996C27.8832 77.4494 27.2876 78.5257 27.7189 79.3786C28.0681 80.0488 28.2529 80.861 28.6021 81.5921C30.4096 85.5926 33.4495 88.5372 36.777 91.3396C40.1455 94.1826 43.9454 96.2134 47.9096 98.0207C50.7235 99.3001 53.6402 100.376 56.5158 101.473C59.2887 102.529 62.1437 103.321 65.0398 103.829C68.2646 104.397 69.8051 103.585 71.5715 100.884C72.7629 99.0564 73.2968 96.9647 73.9541 94.9543C75.3303 90.7913 76.6038 86.5877 77.6102 82.3232C78.0826 80.3331 78.6578 78.3023 78.5961 76.1904C78.5756 75.1141 79.0891 74.119 78.9864 73.0021C78.7194 70.1388 78.6989 67.1739 77.6513 64.4934C76.5422 61.63 75.2071 58.8073 72.9066 56.5532C71.1402 54.8271 69.3327 53.2025 67.0527 52.1668C65.5739 51.4967 63.9512 51.1312 62.3697 51.0093C61.281 50.9281 60.1308 51.3951 59.0627 51.7607C55.8379 52.837 53.4348 54.8677 51.7505 57.8326C50.0868 60.7568 49.0187 63.7826 49.0598 67.1536C49.0598 68.0065 48.7106 67.5597 48.3409 67.3973C46.5745 66.585 44.8286 65.6915 42.939 65.1432C41.1725 64.6355 39.3855 64.2903 37.5986 64.1278C34.9489 63.9044 32.4841 64.7167 30.3891 66.3616C28.8075 67.6004 27.9038 69.3671 27.4108 71.2963C27.3492 71.5603 27.3903 71.8446 27.0206 71.8852C27 73.5098 27 75.1547 27 76.7996Z" fill="#5FA503"/>
<path d="M38.6447 0C34.6048 0.162506 31.3526 1.78757 28.8681 5.07832C27.4945 6.90651 26.1815 8.75503 25.5149 10.9895C25.4139 11.3754 25.1109 11.6598 24.6464 11.1723C22.99 9.46598 21.1316 8.06437 19.0106 6.98777C15.3747 5.15958 11.6984 4.95644 7.75946 6.09398C4.8507 6.94714 3.01251 8.69408 1.67933 11.2332C0.507753 13.4677 0.0431864 15.9459 0.00278702 18.3835C-0.0376123 20.1914 0.366323 22.0805 0.891515 23.8884C2.32569 28.7026 4.81028 32.8262 8.36542 36.3404C10.9308 38.8593 13.7588 41.0531 16.4655 43.3891C19.6369 46.1314 23.1718 48.3659 26.3633 51.0676C27.0299 51.6363 27.6763 52.2457 28.4035 52.7129C29.1711 53.2004 29.7771 53.9317 30.8477 53.9927C32.2616 54.0536 33.4332 53.7489 34.1806 52.5301C34.6856 51.6973 35.4734 51.1894 36.14 50.5597C38.6245 48.2237 40.5233 45.4001 42.3009 42.5563C44.5026 39.0421 46.462 35.3654 48.3204 31.6481C50.098 28.0729 51.6534 24.3556 52.4614 20.4351C52.8653 18.4444 53.2693 16.4537 52.7643 14.2802C52.3401 12.4114 52.1583 10.4613 51.3907 8.65344C49.6737 4.63141 46.6842 2.07196 42.5635 0.670342C41.2707 0.264076 40.0183 0 38.6447 0Z" fill="#5FA503"/>
</svg>
