<svg width="112" height="154" viewBox="0 0 112 154" fill="none" xmlns="http://www.w3.org/2000/svg">
<path d="M59.653 64.5773C59.605 63.7319 59.4579 62.8759 59.5255 62.0402C59.7511 59.3527 59.2714 56.6888 59.3668 54.0249C59.5024 50.3313 60.0348 46.6804 61.5656 43.2501C62.7748 40.5231 64.6577 38.3777 67.1262 36.7046C68.0911 36.0464 69.0398 35.3892 70.1688 35.0153C72.0073 34.4055 73.8807 34.1198 75.8201 34.4176C76.4171 34.5142 77.0404 34.4952 77.6102 34.6912C80.1878 35.5236 82.4009 36.8823 84.2578 38.9136C86.0273 40.8519 87.1737 43.1029 87.8879 45.5578C88.3559 47.1459 88.8257 48.7665 88.8551 50.4447C88.8751 51.6668 88.978 52.9005 89.0471 54.1198C89.0969 54.9977 88.6862 55.869 88.9171 56.753C88.959 56.9137 88.891 57.1622 89.0912 57.2161C89.1586 57.2449 89.2949 57.0414 89.405 56.9536C90.5236 56.1074 91.502 55.1059 92.7099 54.3851C94.0451 53.5917 95.4406 52.9907 96.9144 52.6136C97.4976 52.4663 98.0425 52.2234 98.6813 52.1872C102.367 51.9945 105.394 53.2092 107.57 56.2335C108.212 57.1268 108.601 58.1812 108.923 59.2393C109.309 60.5385 109.663 61.8558 109.56 63.2154C109.404 65.0998 109.048 66.9466 108.311 68.7173C107.546 70.5873 106.491 72.2618 105.302 73.8949C103.793 75.9702 102.076 77.8616 100.271 79.6439C98.3578 81.5464 96.2015 83.2181 93.9905 84.795C91.1802 86.8136 88.2232 88.5633 85.1769 90.1876C82.5609 91.5754 79.892 92.901 77.0682 93.8114C74.5673 94.6219 72.1503 95.7538 69.5108 96.1481C68.705 96.7157 67.7094 96.5439 66.8014 96.7584C65.797 97.0111 64.642 96.6362 63.9779 95.6464C63.5653 95.0337 63.1999 94.3857 63.253 93.5836C63.34 91.9314 62.8066 90.347 62.6161 88.7268C62.5126 87.7704 62.3099 86.8033 62.2545 85.8279C62.2121 85.0801 61.8131 84.4177 61.8189 83.6508C61.8293 82.9652 61.9189 82.2262 61.4726 81.5991C61.4197 81.5369 61.446 81.4212 61.4405 81.3237C61.4491 79.4476 60.8045 77.6412 60.8122 75.7488C60.8132 73.4491 60.1929 71.201 60.0956 68.9068C60.0715 68.1906 59.7843 67.473 59.7583 66.7242C59.7332 65.9917 59.6762 65.2773 59.653 64.5773Z" fill="#5FA503"/>
<path d="M0.809411 16.0216C0.538197 14.182 0.803919 12.0985 1.33863 10.049C1.7773 8.36606 2.48585 6.73351 3.66495 5.45186C5.25249 3.72023 7.07117 2.23813 9.63968 1.91191C10.7497 1.76689 11.7387 1.84215 12.8016 2.04454C13.8646 2.24692 14.728 2.75613 15.6256 3.2798C18.164 4.77748 19.6276 7.042 20.8408 9.5998C21.6564 11.3265 22.2271 13.1492 22.7802 14.9564C23.0244 15.7305 23.3056 16.5682 23.3039 17.422C23.2956 17.5702 23.3714 17.7301 23.5055 17.7389C23.6228 17.7486 23.7855 17.6737 23.8807 17.5863C25.1106 16.3181 26.4136 15.1608 27.8414 14.1441C29.637 12.8439 31.4474 11.5101 33.5962 10.8465C36.1064 10.0803 38.5789 10.1207 40.6903 12.0366C42.2749 13.4899 43.2245 15.2254 43.6769 17.3174C43.9017 18.3389 44.0757 19.3468 44.0676 20.3815C44.0663 23.0082 43.5585 25.5322 42.3251 27.9168C41.5564 29.3722 40.821 30.8257 39.8453 32.1615C38.5609 33.9416 37.0667 35.553 35.4486 37.0401C34.6077 37.8101 33.8546 38.6572 32.9785 39.3964C29.9363 41.9656 26.6565 44.1708 23.1419 46.0609C21.0681 47.1635 18.9757 48.2343 16.7696 49.0652C15.6421 49.4903 14.5118 49.8664 13.3139 49.6388C12.0485 49.3986 11.1222 48.6632 10.4593 47.568C9.94334 46.7108 9.6418 45.8086 9.33843 44.8737C8.2452 41.4883 6.98747 38.145 5.71401 34.8191C4.91036 32.7141 4.26934 30.5343 3.61171 28.3554C3.06045 26.5809 2.46019 24.8256 1.99119 23.03C1.79785 22.2694 1.72004 21.4858 1.44352 20.7299C0.881256 19.35 0.893909 17.8062 0.809411 16.0216Z" fill="#5FA503"/>
<path d="M49.1095 133.531C49.028 132.096 48.9551 131.101 48.9152 130.105C48.8264 127.082 48.8017 124.023 49.61 121.08C50.5015 117.854 52.2509 115.185 55.637 113.978C57.6787 113.256 59.7036 113.404 61.6301 114.44C63.5566 115.477 64.7869 117.06 65.5762 119.029C66.1922 120.565 66.8421 122.116 66.9868 123.794C67.0274 124.217 67.3267 124.249 67.6013 124.135C68.4386 123.744 69.2731 123.304 70.0912 122.865C72.8821 121.364 75.8492 120.639 79.0246 120.672C80.232 120.686 81.3645 121.129 82.3095 121.763C83.89 122.819 85.0909 124.175 85.5836 126.16C86.1406 128.404 85.7785 130.47 85.02 132.543C84.277 134.598 83.1064 136.4 81.5925 137.975C79.9074 139.74 78.0649 141.35 75.9924 142.696C74.6529 143.557 73.404 144.561 71.9719 145.248C69.2843 146.53 66.6737 148.003 63.9677 149.254C61.6004 150.354 59.2687 151.501 56.8253 152.425C55.4663 152.944 54.3193 152.829 53.116 152.013C52.3249 151.469 51.5703 150.988 51.1706 150.061C50.8673 149.374 50.6142 148.701 50.5387 147.953C50.5037 147.627 50.4843 147.285 50.4823 146.957C50.5192 144.402 49.9969 141.894 49.6402 139.394C49.3561 137.299 49.3191 135.189 49.1095 133.531Z" fill="#5FA503"/>
</svg>
