<svg width="43" height="43" viewBox="0 0 43 43" fill="none" xmlns="http://www.w3.org/2000/svg">
<path d="M28.5511 41.7924H39.6744C40.4117 41.7917 41.1187 41.4985 41.64 40.9771C42.1614 40.4558 42.4546 39.7489 42.4552 39.0115V18.795C42.4554 18.3936 42.3684 17.9969 42.2004 17.6324C42.0324 17.2678 41.7872 16.9441 41.482 16.6835L23.4066 1.18791C22.9036 0.755331 22.262 0.517679 21.5986 0.518189C20.9351 0.5187 20.2939 0.757338 19.7915 1.1907L1.71621 16.6835C1.41067 16.9439 1.16539 17.2676 0.997334 17.6322C0.829279 17.9968 0.742471 18.3935 0.742922 18.795V39.0115C0.743584 39.7489 1.03678 40.4558 1.55814 40.9771C2.0795 41.4985 2.78643 41.7917 3.52374 41.7924H14.647C15.3843 41.7917 16.0913 41.4985 16.6126 40.9771C17.134 40.4558 17.4272 39.7489 17.4279 39.0115V27.8883H25.7703V39.0115C25.771 39.7489 26.0642 40.4558 26.5855 40.9771C27.1069 41.4985 27.8138 41.7917 28.5511 41.7924ZM17.4279 25.1074C16.6905 25.1081 15.9836 25.4013 15.4622 25.9226C14.9409 26.444 14.6477 27.1509 14.647 27.8883V39.0115H3.52374V18.795L2.61942 17.7383L3.52374 18.795L21.5991 3.30078L39.6744 18.795V39.0115H28.5511V27.8883C28.5505 27.1509 28.2573 26.444 27.7359 25.9226C27.2146 25.4013 26.5076 25.1081 25.7703 25.1074H17.4279Z" fill="#404040" stroke="#404040"/>
</svg>
