<svg xmlns="http://www.w3.org/2000/svg" width="34" height="29" fill="none" xmlns:v="https://vecta.io/nano"><path d="M32.651 12.484c-1.075-3.35-3.522-2.941-3.522-2.941-.521-.455-1.431-1.001-3.013-1.453 0 0-1.363-.634-6.183.926l-.055.018s-2.641.186-3.801-.789c-.413-.347-1.527-.593-2.079-.571 0 0-5.389-4.469-7.806-5.178L5.474.623l-.266 1.403-.464-.001s-.868-.909-.744-1.207c-.181.211-.499.761.114 1.543 0 0-.676 1.028-1.289 1.104l-.072.662C2.745 4.243.67 6.126.67 6.126c.015.059-.428.919-.098 1.482l.135.246c.202.168.63.385 1.367.12 0 0 .168-.489.918-.44l1.154-.218s1.441.427 2.071-.344c0 0 2.511 3.276 2.253 4.843 0 0 .019 4.445 1.31 5.091 0 0-.114.862.329 2.359 0 0 .573 1.275.464 2.659l.217 1.115s.143 2.541-.203 3.118c0 0-.767 1.38-1.117 1.704s-.044.075-.044.075.689.682 1.955-.047c0 0-.656-1.202.093-1.423 0 0 .501-.277.26-.718 0 0-.129-2.896.025-3.335.007-.02.014-.034.022-.044l.084-.096.414-3.87c0 .001.852 1.649.87 2.259 0 0 .111 1.399.595 1.981 0 0 1.532 3.173.406 3.998 0 0-.71.649-.435.899.113.104.14.146.134.162.318.045 1.439.157 1.479-.462 0 0-.715-.598.094-1.443 0 0-.924-2.698-.694-4.017 0 0-.591-2.662-.252-3.904 1.513-.091 3.468-.276 4.637-.649 0 0 1.464-.233 2.444-.73s2.476-1.229 3.6.507c0 0 1.127 1.368 1.058 2.426-.015.239.057.492.176.753.089.73.173 1.595.131 2.007-.079.784-.284 3.467-1.884 4.434 0 0-1.064.749-.162.703s1.21.561 1.442.095-.463-.86.359-1.473c0 0 .395-.293.41-.523.011-.157.438-1.969.949-3.111.103.236.171.47.181.699.056 1.202.267 2.732.005 3.178 0 0-1.271 1.464-1.233 2.006 0 0 1.304.304 1.78.12.012-.018.023-.038.033-.059.422-.842-.758-.513.099-1.5l.239-.41s.575-3.469.338-3.678.23-.564.23-.564-1.336-3.508-.589-4.29c0 0 3.267-2.943 1.713-6.32.882.671.834 2.999.471 4.095-.47 1.419.263 3.959.263 3.959.13 1.11.399-.22.399-.22 1.082-1.335 2.163-3.497 1.089-6.847z" fill="#62ac44"/></svg>