<svg version="1.1" id="Layer_1" xmlns="http://www.w3.org/2000/svg" x="0" y="0" viewBox="0 0 50 50" xml:space="preserve"><style>.st0{fill:none;stroke:#2c2c2c;stroke-width:2;stroke-miterlimit:10}</style><path class="st0" d="M36.6 19.2c-.1-1.4-.3-2.1-.5-2.6-.3-.7-.6-1.1-1.1-1.6s-1-.8-1.6-1.1c-.5-.2-1.3-.4-2.6-.5-1.5-.1-2-.1-5.8-.1s-4.3 0-5.8.1c-1.4.1-2.1.3-2.6.5-.7.3-1.1.6-1.6 1.1s-.8 1-1.1 1.6c-.2.5-.4 1.3-.5 2.6-.1 1.5-.1 2-.1 5.8s0 4.3.1 5.8c.1 1.4.3 2.1.5 2.6.3.7.6 1.1 1.1 1.6s1 .8 1.6 1.1c.5.2 1.3.4 2.6.5 1.5.1 2 .1 5.8.1s4.3 0 5.8-.1c1.4-.1 2.1-.3 2.6-.5.7-.3 1.1-.6 1.6-1.1s.8-1 1.1-1.6c.2-.5.4-1.3.5-2.6.1-1.5.1-2 .1-5.8s-.1-4.3-.1-5.8z"/><circle cx="25.1" cy="25" r="23.3" fill="none" stroke="#2c2c2c" stroke-width="3" stroke-miterlimit="10"/><circle class="st0" cx="25.1" cy="24.8" r="6.5"/><circle cx="32.5" cy="17.4" r="1.7" fill="#2c2c2c"/></svg>