<svg width="33" height="25" viewBox="0 0 33 25" fill="none" xmlns="http://www.w3.org/2000/svg">
<path d="M8.81821 12.1941V17.3285L6.83838 14.6359L4.85855 16.5035V11.4873C4.85855 10.8736 5.07633 10.273 5.4723 9.80444L9.35277 10.6096C9.0096 11.0656 8.81821 11.6199 8.81821 12.1941Z" fill="#62AC44"/>
<path d="M17.4179 0.658203L2.02075 7.21144V7.21804C2.42332 7.04646 2.88528 6.98706 3.34724 7.08605L18.2692 10.1878L32.3392 3.75994L17.4179 0.658203ZM15.4928 3.63059L17.6218 2.72449L26.0196 4.4707L23.9903 5.3966L15.4928 3.63059Z" fill="#62AC44"/>
<path d="M18.2685 15.3986C18.2243 15.3986 18.1788 15.394 18.1339 15.3847L8.68682 13.4221C8.3298 13.3482 8.1008 12.9977 8.17537 12.6414C8.24928 12.2843 8.59707 12.0533 8.95608 12.1299L18.4019 14.0926C18.7589 14.1665 18.9885 14.5169 18.914 14.8733C18.8493 15.1848 18.5748 15.3986 18.2685 15.3986Z" fill="#62AC44"/>
<path d="M18.2686 24.5068C18.0178 24.5068 17.7782 24.3636 17.6673 24.1208C17.5162 23.7895 17.6621 23.3975 17.994 23.2463L32.0653 16.8238C32.3973 16.6733 32.7886 16.8185 32.9398 17.1504C33.0909 17.4817 32.945 17.8737 32.6131 18.0249L18.5418 24.4474C18.4527 24.487 18.3596 24.5068 18.2686 24.5068Z" fill="#62AC44"/>
<path d="M18.2686 19.9525C18.0178 19.9525 17.7782 19.8093 17.6673 19.5664C17.5162 19.2352 17.6621 18.8431 17.994 18.692L32.0653 12.2694C32.3973 12.117 32.7886 12.2642 32.9398 12.5961C33.0909 12.9274 32.945 13.3194 32.6131 13.4705L18.5418 19.8931C18.4527 19.9334 18.3596 19.9525 18.2686 19.9525Z" fill="#62AC44"/>
<path d="M18.2686 15.3988C18.0178 15.3988 17.7782 15.2556 17.6673 15.0128C17.5162 14.6815 17.6621 14.2895 17.994 14.1384L32.0653 7.71644C32.3973 7.56465 32.7886 7.71116 32.9398 8.04245C33.0909 8.37441 32.945 8.76575 32.6131 8.91688L18.5418 15.3394C18.4527 15.3797 18.3596 15.3988 18.2686 15.3988Z" fill="#62AC44"/>
<path d="M2.43724 21.2161C2.39302 21.2161 2.34749 21.2115 2.30195 21.2023C0.742503 20.8776 -0.263251 19.3452 0.0614416 17.7851C0.218508 17.0288 0.660011 16.3801 1.30544 15.9571C1.95086 15.5334 2.72233 15.3895 3.47797 15.5439C3.835 15.6185 4.064 15.9683 3.98943 16.3246C3.91485 16.6817 3.56574 16.908 3.20871 16.8368C2.79955 16.751 2.37982 16.8308 2.02873 17.0605C1.6783 17.2908 1.43808 17.6432 1.35295 18.053C1.17675 18.9004 1.72318 19.7332 2.56989 19.9095C2.92692 19.984 3.15592 20.3338 3.08134 20.6902C3.01799 21.0023 2.74345 21.2161 2.43724 21.2161Z" fill="#62AC44"/>
<path d="M18.2686 24.5065C18.2244 24.5065 18.1788 24.5019 18.134 24.4926L2.30258 21.2028C1.94555 21.1283 1.71655 20.7785 1.79112 20.4221C1.86504 20.0644 2.21283 19.8374 2.57183 19.91L18.4026 23.1998C18.7596 23.2744 18.9893 23.6242 18.9147 23.9805C18.8493 24.292 18.5748 24.5065 18.2686 24.5065Z" fill="#62AC44"/>
<path d="M2.43724 16.6626C2.39302 16.6626 2.34749 16.658 2.30195 16.6487C0.742503 16.324 -0.263251 14.7916 0.0614416 13.2315C0.385474 11.6714 1.92116 10.6657 3.47797 10.9904C3.835 11.0643 4.064 11.414 3.99009 11.7711C3.91551 12.1274 3.56376 12.3551 3.21003 12.2825C2.36134 12.107 1.52982 12.6528 1.35361 13.4995C1.17741 14.3468 1.72384 15.1797 2.57055 15.3559C2.92758 15.4305 3.15658 15.7802 3.082 16.1366C3.01799 16.4488 2.74345 16.6626 2.43724 16.6626Z" fill="#62AC44"/>
<path d="M18.2686 19.9524C18.2244 19.9524 18.1788 19.9478 18.134 19.9386L2.30258 16.6488C1.94555 16.5742 1.71655 16.2244 1.79112 15.868C1.86504 15.5104 2.21283 15.282 2.57183 15.3559L18.4026 18.6458C18.7596 18.7203 18.9893 19.0701 18.9147 19.4265C18.8493 19.7386 18.5748 19.9524 18.2686 19.9524Z" fill="#62AC44"/>
<path d="M32.3398 4.42187C32.2956 4.42187 32.2501 4.41725 32.2052 4.40802L17.2826 1.30628C16.9255 1.23237 16.6959 0.882597 16.7705 0.525567C16.8444 0.167878 17.1928 -0.0604621 17.5512 0.0141115L32.4738 3.11585C32.8308 3.18976 33.0605 3.53953 32.9859 3.89656C32.9206 4.20805 32.6461 4.42187 32.3398 4.42187Z" fill="#62AC44"/>
<path d="M18.2686 10.8451C18.0178 10.8451 17.7782 10.7012 17.6673 10.459C17.5162 10.1271 17.6621 9.73572 17.994 9.5846L32.0653 3.16203C32.3973 3.00958 32.7886 3.15675 32.9398 3.4887C33.0909 3.81999 32.945 4.21134 32.6131 4.36312L18.5418 10.7857C18.4527 10.8259 18.3596 10.8451 18.2686 10.8451Z" fill="#62AC44"/>
<path d="M18.2686 10.8444C18.2244 10.8444 18.1789 10.8404 18.134 10.8305L3.21005 7.72881C2.85302 7.65489 2.62402 7.30512 2.69859 6.9481C2.77317 6.59107 3.1203 6.36141 3.47931 6.43664L18.4026 9.53837C18.7596 9.61229 18.9893 9.96206 18.9147 10.3191C18.8494 10.6306 18.5749 10.8444 18.2686 10.8444Z" fill="#62AC44"/>
<path d="M2.43722 12.1083C2.39301 12.1083 2.34747 12.1037 2.30193 12.0945C1.5463 11.9374 0.897574 11.4952 0.47389 10.8498C0.0508663 10.2044 -0.0956412 9.43291 0.0614254 8.67727C0.385458 7.11783 1.92115 6.11405 3.47795 6.43611C3.83498 6.51002 4.06398 6.85979 3.99007 7.21616C3.9155 7.57319 3.56375 7.80021 3.21002 7.72828C2.79755 7.6438 2.38047 7.72234 2.02938 7.95266C1.67895 8.18298 1.43873 8.53539 1.35359 8.94521C1.17739 9.79324 1.72382 10.6254 2.57053 10.8016C2.92756 10.8762 3.15656 11.226 3.08199 11.583C3.01797 11.8945 2.74344 12.1083 2.43722 12.1083Z" fill="#62AC44"/>
<path d="M2.01814 7.87477C1.76142 7.87477 1.51724 7.72364 1.41099 7.47352C1.26845 7.13761 1.42419 6.75022 1.75944 6.60702L17.1579 0.0531177C17.4932 -0.0900901 17.8805 0.0663164 18.0238 0.401568C18.167 0.736819 18.0099 1.12421 17.6753 1.26741L2.27684 7.82131C2.19171 7.85761 2.10393 7.87477 2.01814 7.87477Z" fill="#62AC44"/>
</svg>
