<?xml version="1.0" encoding="utf-8"?>
<!-- Generator: Adobe Illustrator 21.1.0, SVG Export Plug-In . SVG Version: 6.00 Build 0)  -->
<svg version="1.1" id="Layer_1" xmlns="http://www.w3.org/2000/svg" xmlns:xlink="http://www.w3.org/1999/xlink" x="0px" y="0px"
	 viewBox="0 0 50 50" style="enable-background:new 0 0 50 50;" xml:space="preserve">
<style type="text/css">
	.st0{fill:none;stroke:#DCDCDC;stroke-width:3;stroke-miterlimit:10;}
	.st1{fill:#DCDCDC;}
</style>
<circle class="st0" cx="25" cy="25" r="23.2"/>
<g>
	<path class="st1" d="M26.1,22.9c1.7-2.4,3.8-2.7,6.2-1.9c1.4,0.4,2.1,1.5,2.5,2.8c0.4,1.4,0.4,2.9,0.4,4.4c0,1.8,0,3.7,0,5.5
		c0,0.7-0.2,0.9-0.9,0.9c-0.8,0-1.7,0-2.5,0c-0.7,0-0.8-0.2-0.8-0.8c0-1.9,0-3.7,0-5.6c0-0.6,0-1.2-0.2-1.8c-0.3-1.3-0.9-1.9-2-1.9
		c-1.3,0-2.1,0.5-2.3,1.8c-0.4,2-0.1,4-0.2,6c0,2.3,0,2.3-2.3,2.3c-1.9,0-1.9,0-1.9-1.8c0-3.6,0-7.1,0-10.7c0-0.7,0.2-1.1,1-1
		c0.6,0.1,1.2,0.1,1.9,0c0.9-0.1,1.3,0.2,1.1,1.1C26,22.3,26.1,22.4,26.1,22.9z"/>
	<path class="st1" d="M15.2,27.7c0-1.9,0-3.9,0-5.8c0-0.8,0.3-1,1-1c0.8,0.1,1.5,0,2.3,0c0.6,0,0.9,0.1,0.9,0.9c0,3.9,0,7.9,0,11.8
		c0,0.7-0.2,0.9-0.9,0.9c-0.8,0-1.7,0-2.5,0c-0.6,0-0.8-0.2-0.8-0.8C15.3,31.7,15.2,29.7,15.2,27.7z"/>
	<path class="st1" d="M19.7,16.6c0,1.2-1.2,2.5-2.4,2.5c-1.2,0.1-2.5-1.2-2.5-2.4c0-1.3,1.1-2.5,2.4-2.5
		C18.5,14.2,19.7,15.3,19.7,16.6z"/>
</g>
</svg>
