<svg xmlns="http://www.w3.org/2000/svg" fill="none" viewBox="0 0 364 142"><path fill="#2C2C2C" d="M282 95.5c-10-9.5-10.167-34.667-4-44.5 0 0 5.5-7.5 27.5-10s54 15 54 15l-21 55.5c-19 1.167-47.437-7.391-56.5-16ZM262.812 82.758c-1.312 1.131-2.676 2.139-4.415 2.752.009-.01.014-.02.023-.029l.043-.043.043-.042a1.74 1.74 0 0 1 .043-.043l.042-.043.043-.043.043-.042a1.74 1.74 0 0 1 .043-.043l.042-.043.043-.043a1.74 1.74 0 0 0 .043-.043l.043-.042.043-.043.042-.043a1.74 1.74 0 0 0 .043-.043l.043-.042.043-.043.042-.043a1.74 1.74 0 0 0 .043-.043l.043-.043.043-.042a1.74 1.74 0 0 1 .043-.043l.042-.043.043-.043.043-.042.043-.043.042-.043.043-.043.043-.042.043-.043.042-.043a1.74 1.74 0 0 0 .043-.043l.043-.043.043-.042.043-.043.042-.043a1.58 1.58 0 0 0 .043-.043l.043-.042a1.74 1.74 0 0 1 .043-.043l.042-.043.043-.043.043-.042a1.74 1.74 0 0 1 .043-.043l.042-.043.043-.043a1.74 1.74 0 0 0 .043-.043l.043-.042.043-.043a17.113 17.113 0 0 1 .085-.086l.043-.043.043-.042.042-.043a1.74 1.74 0 0 0 .043-.043l.043-.043.043-.042.042-.043.043-.043.043-.043.043-.042a1.74 1.74 0 0 1 .043-.043l.042-.043.043-.043.043-.042.043-.043.042-.043a1.74 1.74 0 0 0 .043-.043l.043-.043.043-.042.043-.043.042-.043a1.58 1.58 0 0 0 .043-.043l.043-.042a1.74 1.74 0 0 1 .043-.043l.042-.043.043-.043.043-.042a1.74 1.74 0 0 1 .043-.043l.043-.043.042-.043a1.74 1.74 0 0 0 .043-.043l.043-.042.043-.043a17.113 17.113 0 0 1 .085-.086l.043-.043.043-.042.042-.043a1.74 1.74 0 0 0 .043-.043l.043-.043.043-.042a1.74 1.74 0 0 1 .043-.043l.042-.043.043-.043.043-.042a1.74 1.74 0 0 1 .043-.043l.042-.043.043-.043.043-.042.043-.043.042-.043a1.74 1.74 0 0 0 .086-.086l.043-.042a1.58 1.58 0 0 1 .043-.043l.042-.043a1.58 1.58 0 0 0 .043-.043l.043-.042a1.74 1.74 0 0 1 .043-.043l.042-.043.043-.043.043-.042a1.74 1.74 0 0 1 .043-.043l.042-.043.043-.043a1.74 1.74 0 0 0 .043-.043l.043-.042.043-.043.042-.043a1.74 1.74 0 0 0 .043-.043l.043-.043.043-.042.042-.043a1.74 1.74 0 0 0 .043-.043l.043-.043.043-.042a17.113 17.113 0 0 0 .085-.086l.043-.043.043-.042a1.74 1.74 0 0 1 .043-.043l.042-.043.043-.043.043-.042a1.74 1.74 0 0 1 .043-.043l.042-.043a1.74 1.74 0 0 0 .043-.043l.043-.043c.266-.247.409-.613.49-1.15 1.226-8.416.275-22.046-11.653-21.77-3.745.085-7.053 1.54-9.624 4.2a1.58 1.58 0 0 1-.043.043l-.042.043-.043.043-.043.043-.043.043a1.74 1.74 0 0 1-.043.042.421.421 0 0 0-.042.048 1.58 1.58 0 0 0-.043.043l-.043.042a1.74 1.74 0 0 1-.043.043l-.042.043-.043.043-.043.042-.043.043-.043.043-.042.043a1.74 1.74 0 0 0-.043.043c-.014.014-.029.028-.043.047a1.74 1.74 0 0 1-.043.043l-.042.043-.043.042-.043.043a17.113 17.113 0 0 0-.085.086l-.043.042-.043.043-.043.043-.043.043c-.014.014-.028.028-.042.047l-.043.043-.043.043a1.74 1.74 0 0 1-.043.043l-.042.043-.043.042-.043.043-.043.043-.043.042-.042.043a.352.352 0 0 0-.043.048l-.043.043a1.74 1.74 0 0 1-.043.042l-.042.043-.043.043-.043.043-.043.043-.042.042-.043.043-.043.043c-.014.014-.029.028-.043.047-.014.015-.028.029-.043.048l-.042.043a1.74 1.74 0 0 0-.043.042l-.043.043-.043.043-.042.043a1.58 1.58 0 0 0-.043.042l-.043.043a1.74 1.74 0 0 1-.043.043l-.042.043a.346.346 0 0 0-.043.047 1.74 1.74 0 0 0-.043.043l-.043.043a1.58 1.58 0 0 1-.043.043l-.042.042-.043.043-.043.043a1.74 1.74 0 0 1-.043.043l-.042.042-.043.043-.043.043a1.58 1.58 0 0 1-.086.09l-.042.043-.043.043-.043.043a1.74 1.74 0 0 1-.043.042l-.042.043-.043.043-.043.043a1.74 1.74 0 0 1-.043.043l-.042.042a.346.346 0 0 0-.043.048l-.043.043-.043.042a1.74 1.74 0 0 1-.043.043l-.042.043-.043.043-.043.042a1.74 1.74 0 0 1-.043.043l-.042.043-.043.043c-.014.014-.029.028-.043.047a1.58 1.58 0 0 1-.043.043l-.042.043a1.58 1.58 0 0 0-.043.043l-.043.042-.043.043a1.74 1.74 0 0 1-.043.043l-.042.043-.043.042-.043.043-.043.043a.421.421 0 0 0-.042.047l-.043.043-.043.043-.043.043a1.74 1.74 0 0 1-.043.043l-.042.042-.043.043-.043.043-.043.043-.042.042a.347.347 0 0 0-.043.048l-.043.043a17.113 17.113 0 0 0-.085.086c-.015.013-.029.028-.043.042l-.043.043-.043.043-.043.042-.042.043a1.74 1.74 0 0 0-.043.043l-.043.043a.55.55 0 0 0-.043.047l-.042.043-.043.043-.043.043a1.74 1.74 0 0 1-.043.042l-.043.043a17.113 17.113 0 0 1-.085.086l-.043.042-.043.043a.432.432 0 0 0-.042.048l-.043.042-.043.043a1.74 1.74 0 0 1-.043.043l-.042.043-.043.043-.043.042-.043.043-.043.043-.042.043a1.74 1.74 0 0 0-.043.042l-.043.043-.043.043-.042.043a1.58 1.58 0 0 0-.043.043l-.043.042a1.74 1.74 0 0 1-.043.043l-.042.043-.043.042-.043.043-.043.043-.043.043c-.133.138-.261.28-.389.423.109-1.835.204-3.403.275-4.567.105-1.74-.736-2.381-1.948-2.476-2.053-.157-5.636-.528-7.005-.685-.865-.1-1.611.072-2.053.623l-.043.043-.043.042-.042.043a1.74 1.74 0 0 0-.043.043l-.043.043-.043.043a17.113 17.113 0 0 0-.085.086c-.015.013-.029.028-.043.042l-.043.043a1.74 1.74 0 0 1-.043.042l-.042.043-.043.043-.043.043a1.74 1.74 0 0 1-.043.043l-.043.042a17.113 17.113 0 0 1-.085.086l-.043.043-.043.042-.042.043-.043.043-.043.043a1.58 1.58 0 0 1-.043.043l-.042.042-.043.043-.043.043a1.74 1.74 0 0 1-.086.085l-.042.043-.043.043-.043.043-.043.043-.042.042a1.74 1.74 0 0 0-.043.043l-.043.043-.043.042-.042.043a1.74 1.74 0 0 0-.086.086l-.043.043a1.74 1.74 0 0 1-.043.042l-.042.043-.043.043-.043.043a1.74 1.74 0 0 1-.043.042l-.042.043-.043.043-.043.043a1.74 1.74 0 0 1-.043.043l-.043.042a17.113 17.113 0 0 1-.085.086l-.043.043-.043.042-.042.043a1.74 1.74 0 0 0-.043.043l-.043.043-.043.043-.042.042-.043.043-.043.043-.043.043a1.74 1.74 0 0 1-.043.042l-.042.043-.043.043-.043.043-.043.043-.042.042a1.74 1.74 0 0 0-.043.043l-.043.043-.043.042-.042.043a1.74 1.74 0 0 0-.043.043l-.043.043-.043.043a1.74 1.74 0 0 1-.043.042l-.042.043-.043.043-.043.043a1.74 1.74 0 0 1-.043.043l-.042.042-.043.043-.043.043a1.74 1.74 0 0 1-.043.043l-.043.042a17.113 17.113 0 0 1-.085.086l-.043.043-.043.042-.042.043a1.74 1.74 0 0 0-.043.043l-.043.043a1.58 1.58 0 0 1-.043.042l-.042.043-.043.043-.043.043-.043.043a1.74 1.74 0 0 1-.043.042l-.042.043-.043.043-.043.043-.043.043-.042.042-.043.043-.043.043-.043.043-.042.042a1.74 1.74 0 0 0-.086.086l-.043.043a1.74 1.74 0 0 1-.043.042l-.042.043a1.58 1.58 0 0 0-.043.043l-.043.043a17.113 17.113 0 0 0-.085.086c-.015.013-.029.028-.043.042l-.043.043a1.74 1.74 0 0 1-.043.043l-.043.042-.042.043a1.74 1.74 0 0 0-.043.043l-.043.043-.043.042a17.113 17.113 0 0 1-.085.086l-.043.043-.043.042-.042.043a1.74 1.74 0 0 0-.043.043l-.043.043-.014.014c.29-1.673.58-3.308.846-4.824.366-2.067-.053-2.899-1.474-3.055-1.421-.157-8.744-.842-9.904-.95-.594-.053-1.078.09-1.406.436l-.043.043-.043.043a1.74 1.74 0 0 1-.043.043l-.042.042-.043.043-.043.043a1.74 1.74 0 0 1-.043.043l-.042.043-.043.042-.043.043-.043.043-.043.043-.042.042a1.74 1.74 0 0 0-.043.043l-.043.043a1.58 1.58 0 0 1-.043.043l-.042.042-.043.043-.043.043a1.74 1.74 0 0 1-.043.043l-.042.043-.043.042-.043.043-.043.043-.043.043-.042.042a1.74 1.74 0 0 0-.043.043l-.043.043-.043.043-.042.043a1.74 1.74 0 0 0-.043.042l-.043.043-.043.043a1.74 1.74 0 0 1-.043.043l-.042.042-.043.043-.043.043a1.74 1.74 0 0 1-.043.043l-.042.043-.043.042-.043.043a1.74 1.74 0 0 1-.043.043l-.042.043-.043.042-.043.043-.043.043-.043.043-.042.042a1.74 1.74 0 0 0-.043.043l-.043.043-.043.043-.042.042-.043.043-.043.043a1.74 1.74 0 0 1-.043.043l-.042.043-.043.042-.043.043-.043.043-.043.043-.042.042a1.74 1.74 0 0 0-.043.043l-.043.043-.043.043a17.113 17.113 0 0 1-.085.085l-.043.043-.043.043a1.74 1.74 0 0 1-.043.043l-.042.042-.043.043-.043.043a1.74 1.74 0 0 1-.043.043l-.042.043-.043.042-.043.043a1.74 1.74 0 0 1-.043.043l-.042.043-.043.042-.043.043-.043.043-.043.043-.042.042a1.74 1.74 0 0 0-.043.043l-.043.043a1.58 1.58 0 0 1-.043.043l-.042.042-.043.043-.043.043a1.74 1.74 0 0 1-.043.043l-.042.043a1.58 1.58 0 0 0-.043.042l-.043.043-.043.043-.043.043-.042.042-.043.043-.043.043-.043.043-.042.043a1.74 1.74 0 0 0-.043.042l-.043.043-.043.043a1.74 1.74 0 0 1-.043.043l-.042.042-.043.043-.043.043a1.74 1.74 0 0 1-.043.043l-.042.043-.043.042-.043.043a17.113 17.113 0 0 0-.085.086l-.043.042-.043.043-.043.043-.043.043a17.113 17.113 0 0 1-.085.085l-.043.043-.043.043-.042.042a1.74 1.74 0 0 0-.043.043l-.043.043a1.74 1.74 0 0 1-.086.086l-.042.042-.043.043-.043.043a1.74 1.74 0 0 1-.043.043l-.042.042-.043.043-.043.043-.043.043-.042.043a1.74 1.74 0 0 0-.043.042l-.043.043-.043.043a1.58 1.58 0 0 1-.043.043l-.042.042a1.58 1.58 0 0 0-.043.043l-.043.043a1.74 1.74 0 0 1-.043.043l-.042.043-.043.042-.043.043a1.74 1.74 0 0 1-.043.043l-.042.043-.043.042-.043.043-.043.043-.043.043-.042.042a1.74 1.74 0 0 0-.043.043l-.043.043c-.337.328-.513.86-.48 1.606a97.54 97.54 0 0 1 .09 3.06c-2.352-1.672-5.208-2.585-8.269-2.2-3.07.385-5.579 1.673-7.475 3.774l-.043.043-.043.042a1.74 1.74 0 0 1-.043.043l-.042.043-.043.043-.043.043a.55.55 0 0 0-.043.047l-.042.043a1.58 1.58 0 0 0-.043.043l-.043.042a1.74 1.74 0 0 1-.043.043l-.043.043-.042.043a1.74 1.74 0 0 0-.043.042l-.043.043-.043.043-.042.043a.352.352 0 0 0-.043.047l-.043.043a1.74 1.74 0 0 1-.043.043l-.042.043-.043.042-.043.043-.043.043-.043.043-.042.042a1.74 1.74 0 0 0-.043.043l-.043.043a.55.55 0 0 0-.043.047l-.042.043-.043.043-.043.043a1.74 1.74 0 0 1-.043.043l-.043.042a17.113 17.113 0 0 1-.085.086l-.043.043-.043.042c-.014.015-.028.029-.042.048l-.043.043-.043.043a1.74 1.74 0 0 1-.043.042l-.042.043-.043.043-.043.043-.043.042-.043.043-.042.043a.352.352 0 0 0-.043.047c-.014.015-.029.029-.043.048a1.58 1.58 0 0 1-.043.043l-.042.042a1.58 1.58 0 0 0-.043.043l-.043.043a1.74 1.74 0 0 1-.043.043l-.042.043-.043.042-.043.043-.043.043a.55.55 0 0 0-.043.047l-.042.043a1.58 1.58 0 0 0-.043.043l-.043.043a1.74 1.74 0 0 1-.043.042l-.042.043-.043.043-.043.043a17.113 17.113 0 0 0-.085.086l-.043.042a.347.347 0 0 0-.043.048l-.043.042a1.74 1.74 0 0 1-.043.043l-.042.043-.043.043-.043.042a1.74 1.74 0 0 1-.043.043l-.042.043-.043.043-.043.043a1.74 1.74 0 0 1-.043.042.55.55 0 0 0-.043.048l-.042.043-.043.042-.043.043a1.74 1.74 0 0 1-.043.043l-.042.043-.043.043-.043.042a1.74 1.74 0 0 1-.043.043l-.042.043a.353.353 0 0 0-.043.047l-.043.043-.043.043a1.74 1.74 0 0 1-.043.043l-.042.042-.043.043-.043.043-.043.043-.042.043a1.74 1.74 0 0 0-.043.042l-.043.043a1.74 1.74 0 0 1-.086.09l-.042.043-.043.043-.043.043-.043.043-.042.042a1.74 1.74 0 0 0-.043.043l-.043.043-.043.043a.432.432 0 0 0-.042.047l-.043.043-.043.043-.043.042-.043.043-.042.043a1.74 1.74 0 0 0-.043.043l-.043.043-.043.042-.042.043a1.74 1.74 0 0 0-.043.043c-.014.014-.029.028-.043.047a1.74 1.74 0 0 1-.043.043l-.042.043-.043.043a1.74 1.74 0 0 0-.043.042l-.043.043-.043.043-.042.043a1.74 1.74 0 0 0-.043.042l-.043.043a.55.55 0 0 0-.043.048l-.042.043-.043.042-.043.043-.043.043-.042.043a1.74 1.74 0 0 0-.086.085l-.043.043a1.58 1.58 0 0 1-.043.043l-.042.042-.043.043-.043.043a1.58 1.58 0 0 1-.043.043l-.042.043-.043.042-.043.043-.043.043a1.74 1.74 0 0 1-.043.043l-.042.042a1.74 1.74 0 0 0-.043.043l-.043.043c-.347.38-.665.784-.969 1.217-.314-.271-.628-.533-.941-.79.004-.004.009-.014.014-.018a1.74 1.74 0 0 1 .043-.043l.042-.043.043-.043a1.74 1.74 0 0 0 .043-.042l.043-.043.043-.043.042-.043a1.74 1.74 0 0 0 .043-.043l.043-.042.043-.043.042-.043a1.74 1.74 0 0 0 .043-.043l.043-.042.043-.043a17.113 17.113 0 0 0 .085-.086l.043-.042.043-.043a1.74 1.74 0 0 1 .043-.043l.042-.043.043-.043.043-.042.043-.043.042-.043a1.74 1.74 0 0 0 .043-.043l.043-.042.043-.043.043-.043.042-.043.043-.043.043-.042a1.74 1.74 0 0 1 .043-.043l.042-.043.043-.043.043-.042a1.74 1.74 0 0 1 .043-.043l.043-.043.042-.043.043-.042.043-.043.043-.043a17.113 17.113 0 0 1 .085-.085l.043-.043.043-.043.042-.043a1.74 1.74 0 0 0 .043-.043l.043-.042.043-.043a1.74 1.74 0 0 1 .043-.043l.042-.043.043-.042.043-.043a17.113 17.113 0 0 0 .085-.086l.043-.042.043-.043.043-.043.042-.043.043-.043a1.74 1.74 0 0 0 .043-.042l.043-.043.043-.043.042-.043a1.74 1.74 0 0 0 .043-.043l.043-.042.043-.043.042-.043.043-.043.043-.042a1.74 1.74 0 0 1 .043-.043l.042-.043.043-.043.043-.042.043-.043.043-.043.042-.043a1.74 1.74 0 0 0 .043-.043l.043-.042.043-.043a17.113 17.113 0 0 1 .085-.086l.043-.042.043-.043a1.74 1.74 0 0 1 .043-.043l.042-.043.043-.042.043-.043a17.113 17.113 0 0 0 .085-.086l.043-.042.043-.043a1.74 1.74 0 0 1 .043-.043l.042-.043.043-.043.043-.042c.214-.214.356-.58.361-1.141.038-3.911.038-8.06.038-9.087 0-1.026-.637-1.782-1.502-2.371-2.214-1.502-5.774-3.18-10.507-2.885-3.17.2-5.898 1.464-7.746 3.484a1.74 1.74 0 0 0-.086.085l-.043.043a1.74 1.74 0 0 1-.043.043l-.042.043-.043.042c-.014.015-.029.029-.043.048l-.043.043-.042.042a1.74 1.74 0 0 0-.043.043l-.043.043-.043.043a1.74 1.74 0 0 1-.043.043l-.042.042-.043.043-.043.043a1.74 1.74 0 0 1-.043.043.421.421 0 0 0-.042.047 1.74 1.74 0 0 0-.043.043l-.043.043-.043.042-.042.043a1.58 1.58 0 0 0-.043.043l-.043.043-.043.043a1.74 1.74 0 0 1-.043.042l-.042.043-.043.043c-.014.014-.029.028-.043.047l-.043.043-.042.043a1.58 1.58 0 0 0-.043.043l-.043.042c-.014.015-.028.03-.043.043a1.74 1.74 0 0 1-.043.043l-.042.043-.043.043-.043.042c-.014.015-.028.029-.043.048l-.042.043-.043.043-.043.042a1.74 1.74 0 0 1-.043.043l-.042.043-.043.042-.043.043a1.74 1.74 0 0 1-.043.043l-.043.043a.421.421 0 0 0-.042.047.346.346 0 0 0-.043.048l-.043.043-.043.043-.042.042a1.74 1.74 0 0 0-.043.043l-.043.043-.043.042-.042.043a1.74 1.74 0 0 0-.043.043l-.043.043c-.014.014-.029.028-.043.047l-.043.043-.042.043a1.74 1.74 0 0 0-.043.043l-.043.043-.043.042-.042.043a1.74 1.74 0 0 0-.043.043l-.043.043-.043.042-.042.043a.346.346 0 0 0-.043.048 1.74 1.74 0 0 0-.043.042l-.043.043-.043.043-.042.043a1.74 1.74 0 0 0-.043.043l-.043.042-.043.043-.042.043a1.58 1.58 0 0 0-.043.043l-.043.042c-.014.015-.029.029-.043.048l-.043.043-.042.042a1.74 1.74 0 0 0-.043.043l-.043.043a1.58 1.58 0 0 1-.043.043l-.042.043-.043.042-.043.043a1.74 1.74 0 0 1-.043.043c-.014.014-.028.028-.042.047a1.74 1.74 0 0 0-.043.043l-.043.043-.043.043-.043.042-.042.043a1.58 1.58 0 0 0-.043.043l-.043.043a1.74 1.74 0 0 1-.043.042l-.042.043-.043.043c-.014.014-.029.029-.043.048l-.043.042-.043.043-.042.043-.043.043-.043.042a1.74 1.74 0 0 1-.043.043l-.042.043-.043.043-.043.042c-.014.015-.028.029-.043.048l-.042.043a1.74 1.74 0 0 0-.043.043l-.043.042-.043.043a17.113 17.113 0 0 0-.085.086l-.043.042-.043.043a1.74 1.74 0 0 1-.043.043l-.042.043a.353.353 0 0 0-.043.047l-.043.043-.043.043-.042.043-.043.042-.043.043-.043.043a1.74 1.74 0 0 1-.043.043l-.042.042-.043.043c-.014.014-.029.029-.043.048a1.58 1.58 0 0 1-.043.043l-.042.042a1.58 1.58 0 0 0-.043.043l-.043.043a1.74 1.74 0 0 1-.086.085l-.042.043-.043.043-.043.043-.043.043-.042.042a1.74 1.74 0 0 0-.043.043l-.01.01c-1.368-1.992-3.431-3.441-6.434-3.888-5.142-.76-9.225.841-12.319 4.078l-.042.042-.043.043-.043.043a1.74 1.74 0 0 1-.043.043l-.042.043-.043.042-.043.043-.043.043-.043.043a17.113 17.113 0 0 1-.085.085l-.043.043-.043.043-.042.042a1.74 1.74 0 0 0-.043.043l-.043.043a1.58 1.58 0 0 1-.043.043l-.042.042-.043.043-.043.043-.043.043a1.74 1.74 0 0 1-.043.043l-.042.042-.043.043-.043.043-.043.043-.042.042a1.74 1.74 0 0 0-.043.043l-.043.043-.043.043a1.58 1.58 0 0 1-.043.042l-.042.043a1.58 1.58 0 0 0-.043.043l-.043.043a1.74 1.74 0 0 1-.043.043l-.042.042-.043.043-.043.043a1.74 1.74 0 0 1-.043.043l-.042.043-.043.042a1.74 1.74 0 0 0-.043.043l-.043.043-.043.043-.042.042a1.74 1.74 0 0 0-.043.043l-.043.043-.043.043-.042.042a1.74 1.74 0 0 0-.043.043l-.043.043-.043.043-.042.042a1.58 1.58 0 0 0-.043.043l-.043.043-.043.043a1.74 1.74 0 0 1-.043.043l-.042.042-.043.043-.043.043-.043.043-.042.042-.043.043-.043.043a.786.786 0 0 1-.029.029c.447-9.225-5.066-18.188-16.923-19.57-6.32-.737-17.593-1.108-18.857-1.108-.794 0-1.379.166-1.72.637l-.043.042-.043.043-.043.043-.043.043a121543999773.321 121543999773.321 0 0 0-.085.085l-.043.043-.043.043-.043.043-.042.042a241905596269.109 241905596269.109 0 0 0-.129.129l-.042.042-.043.043-.043.043-.043.043-.042.042-.043.043-.043.043-.043.043-.043.043-.042.042-.043.043-.043.043-.043.043-.043.043-.042.042-.043.043-.043.043-.043.043-.042.042a121543999773.321 121543999773.321 0 0 1-.171.171l-.043.043-.043.043-.043.043a121543999773.321 121543999773.321 0 0 0-.085.085l-.043.043-.043.043-.043.043-.042.042-.043.043a121543999773.321 121543999773.321 0 0 1-.086.086l-.042.042-.043.043-.043.043-.043.043-.042.042-.043.043-.043.043a17.25 17.25 0 0 1-.043.043l-.043.043-.042.042-.043.043-.043.043-.043.043-.043.043-.042.042a17.25 17.25 0 0 1-.086.086l-.043.043-.042.042-.043.043a121543999773.321 121543999773.321 0 0 1-.128.128l-.043.043-.043.043-.043.043-.043.042-.042.043-.043.043-.043.043-.043.043-.042.042-.043.043a121514742608.553 121514742608.553 0 0 1-.086.086l-.043.042a17.25 17.25 0 0 1-.042.043l-.043.043-.043.043-.042.042-.043.043-.043.043-.043.043a241905596269.109 241905596269.109 0 0 0-.085.085l-.043.043-.043.043-.043.043-.043.043-.042.042-.043.043a121543999773.321 121543999773.321 0 0 0-.086.086l-.042.042-.043.043-.043.043-.043.043-.042.042-.043.043-.043.043-.043.043-.043.042-.042.043-.043.043-.043.043-.043.043-.042.042-.043.043a121514742608.553 121514742608.553 0 0 1-.086.086l-.043.042-.042.043-.043.043-.043.043-.042.042-.043.043-.043.043-.043.043a241905596269.109 241905596269.109 0 0 0-.128.128l-.043.043-.043.043-.043.043-.042.042-.043.043-.043.043a121543999773.321 121543999773.321 0 0 0-.085.085l-.043.043-.043.043-.043.043-.042.042-.043.043-.043.043-.043.043a17.25 17.25 0 0 1-.085.085l-.043.043-.043.043-.043.043-.042.042a120952798134.494 120952798134.494 0 0 1-.129.129l-.043.042-.042.043c-.228.285-.361.69-.376 1.25a76.683 76.683 0 0 0-.038 1.844h-.46s.67-6.202.788-7.347c.119-1.145-.157-1.62-1.264-1.62s-9.124.118-10.313.118c-.603 0-.979.133-1.202.418a17.25 17.25 0 0 0-.043.043l-.043.043-.042.043-.043.042-.043.043-.043.043-.042.043-.043.042a17.25 17.25 0 0 0-.043.043l-.043.043-.043.043-.042.042-.043.043-.043.043-.042.043a17.25 17.25 0 0 0-.086.085l-.043.043-.043.043-.042.043-.043.042-.043.043-.043.043-.043.043-.042.043-.043.042-.043.043-.043.043-.042.043-.043.042-.043.043-.043.043-.042.043a17.25 17.25 0 0 0-.086.085l-.043.043-.043.043-.042.043-.043.042-.043.043a17.25 17.25 0 0 0-.043.043l-.042.043-.043.042-.043.043-.043.043-.043.043a17.25 17.25 0 0 0-.042.043l-.043.042-.043.043-.043.043-.042.043-.043.042-.043.043-.043.043-.042.043-.043.042-.043.043-.043.043-.043.043-.042.043a17.25 17.25 0 0 0-.043.042l-.043.043-.043.043-.042.043-.043.042-.043.043-.043.043-.042.043a17.25 17.25 0 0 0-.086.085l-.043.043-.043.043-.042.043-.043.042-.043.043a17.25 17.25 0 0 0-.043.043l-.042.043-.043.042-.043.043-.043.043a121543999773.321 121543999773.321 0 0 1-.085.086l-.043.042-.043.043-.043.043-.042.043-.043.042-.043.043-.043.043-.042.043-.043.042-.043.043-.043.043-.043.043-.042.043a17.25 17.25 0 0 0-.043.042l-.043.043-.043.043-.042.043-.043.042-.043.043-.043.043-.042.043a17.25 17.25 0 0 0-.086.085l-.043.043-.043.043-.042.043-.043.042a17.25 17.25 0 0 0-.128.129l-.043.042-.043.043-.043.043a121543999773.321 121543999773.321 0 0 1-.085.086l-.043.042-.043.043-.043.043-.042.043-.043.042-.043.043-.043.043-.042.043-.043.042-.043.043a17.25 17.25 0 0 0-.043.043l-.043.043-.042.043a17.25 17.25 0 0 0-.043.042l-.043.043-.043.043-.042.043-.043.042a121514742608.553 121514742608.553 0 0 1-.086.086l-.042.043a17.25 17.25 0 0 0-.043.043l-.043.042-.043.043a17.25 17.25 0 0 0-.043.043l-.042.043-.043.042-.043.043-.043.043-.042.043-.043.042-.043.043a17.25 17.25 0 0 0-.085.086l-.043.043-.043.042-.043.043-.043.043c-.242.27-.323.694-.304 1.288.01.29.043.765.081 1.32-.01.01-.019.025-.028.034-.015.015-.029.034-.043.043-.015.014-.029.033-.043.043-.014.014-.028.033-.043.042-.014.015-.028.034-.042.043-.015.015-.029.034-.043.043-.015.014-.029.033-.043.043-.014.014-.029.033-.043.043-.014.014-.028.033-.043.042-.014.015-.028.034-.042.043-.015.014-.029.033-.043.043-.014.014-.029.033-.043.043-.014.014-.028.033-.043.042-.014.015-.028.034-.043.043-.014.014-.028.033-.042.043-.014.014-.029.033-.043.043-.014.014-.029.033-.043.043-.014.014-.028.033-.043.042-.014.015-.028.034-.042.043-.015.014-.029.033-.043.043-.014.014-.029.033-.043.043-.014.014-.028.033-.043.042-.014.015-.028.034-.042.043-.015.014-.029.034-.043.043-.014.014-.029.033-.043.043-.014.014-.028.033-.043.043-.014.014-.028.033-.043.042-.014.014-.028.034-.042.043-.014.014-.029.033-.043.043-.014.014-.029.033-.043.043-.014.014-.028.033-.043.042-.014.015-.028.034-.042.043-.015.014-.029.033-.043.043-.014.014-.029.033-.043.043-.014.014-.028.033-.043.042-.014.015-.028.034-.042.043-.015.015-.029.034-.043.043-.015.014-.029.033-.043.043-.014.014-.028.033-.043.042-.014.015-.028.034-.042.043-.015.015-.03.034-.043.043-.015.014-.029.033-.043.043-.014.014-.029.033-.043.043-.014.014-.028.033-.043.042-.014.015-.028.034-.042.043-.015.014-.029.033-.043.043-.014.014-.029.033-.043.043-.014.014-.028.033-.043.042-.014.015-.028.034-.043.043-.014.014-.028.033-.042.043-.014.014-.029.033-.043.043-.014.014-.029.033-.043.043-.014.014-.028.033-.043.042-.014.015-.028.034-.042.043-.015.014-.029.033-.043.043-.014.014-.029.033-.043.043-.014.014-.028.033-.043.042-.014.015-.028.034-.042.043-.015.014-.029.033-.043.043-.014.014-.029.033-.043.043-.014.014-.028.033-.043.042-.014.015-.028.034-.043.043-.014.014-.028.034-.042.043-.014.014-.029.033-.043.043-.014.014-.029.033-.043.043-.014.014-.028.033-.043.042-.014.015-.028.034-.042.043-.015.014-.029.033-.043.043-.014.014-.029.033-.043.043-.014.014-.028.033-.043.043-.014.014-.028.033-.043.042-.014.014-.028.033-.042.043-.015.014-.029.033-.043.043-.014.014-.028.033-.043.043-.014.014-.028.033-.042.042-.015.015-.03.034-.043.043-.015.014-.029.033-.043.043-.014.014-.029.033-.043.043-.014.014-.028.033-.043.042-.014.015-.028.034-.042.043-.015.014-.024.029-.038.043-1.91-3.008-4.933-4.952-9.41-4.89-3.621.047-6.9 1.335-9.434 3.987l-.042.043a17.25 17.25 0 0 0-.043.043l-.043.042-.043.043-.043.043-.042.043-.043.042-.043.043a17.25 17.25 0 0 0-.043.043l-.042.043-.043.042-.043.043-.043.043a121543999773.321 121543999773.321 0 0 0-.085.086l-.043.042-.043.043-.043.043-.042.043-.043.042-.043.043a17.25 17.25 0 0 0-.043.043l-.042.043-.043.042-.043.043-.043.043-.043.043-.042.043-.043.042a17.25 17.25 0 0 0-.043.043l-.043.043-.042.043-.043.042-.043.043-.043.043-.042.043a17.25 17.25 0 0 0-.043.043l-.043.042-.043.043-.043.043-.042.043-.043.042-.043.043a17.25 17.25 0 0 0-.043.043l-.042.043-.043.042-.043.043-.043.043a121543999773.321 121543999773.321 0 0 0-.085.086l-.043.042-.043.043-.043.043-.042.043-.043.042c-.005.005-.01.015-.02.02a55.654 55.654 0 0 0-.227-1.816c-1.421-9.8-6.32-15.645-16.543-15.279-10.223.366-16.225 1.16-20.07 1.264-.746.02-1.23.243-1.506.594l-.043.043-.043.043-.043.043-.042.042-.043.043-.043.043-.043.043-.042.042-.043.043-.043.043-.043.043-.042.043-.043.042-.043.043-.043.043-.043.043-.042.042-.043.043-.043.043-.043.043-.042.042-.043.043-.043.043-.043.043-.042.042-.043.043-.043.043-.043.043-.043.043-.042.042-.043.043-.043.043-.043.043-.042.043-.043.042-.043.043-.043.043-.043.043-.042.042-.043.043-.043.043-.043.043-.042.042-.043.043-.043.043-.043.043-.042.043-.043.042-.043.043-.043.043-.043.043-.042.042-.043.043-.043.043-.043.043-.042.042-.043.043-.043.043-.043.043-.042.042-.043.043-.043.043-.043.043-.043.043-.042.042-.043.043-.043.043-.043.043-.042.043-.043.042-.043.043-.043.043-.043.043-.042.042-.043.043-.043.043-.043.043-.042.042-.043.043-.043.043-.043.043-.042.043-.043.042-.043.043-.043.043-.043.043-.042.042-.043.043-.043.043-.043.043-.042.042-.043.043-.043.043-.043.043-.042.042-.043.043-.043.043-.043.043-.043.043-.042.042-.043.043-.043.043-.043.043-.042.043-.043.042-.043.043-.043.043-.043.043-.042.042-.043.043-.043.043-.043.043-.042.042-.043.043-.043.043-.043.043-.042.042-.043.043-.043.043-.043.043-.043.043-.042.042-.043.043-.043.043-.043.043-.042.042-.043.043-.043.043-.043.043-.042.043-.043.042-.043.043-.043.043-.043.043-.042.042-.043.043-.043.043-.043.043-.042.043-.043.042-.043.043-.043.043-.043.043-.042.042-.043.043-.043.043-.043.043-.042.042-.043.043-.043.043-.043.043-.042.042-.043.043-.043.043-.043.043c-.304.342-.394.817-.323 1.35.513 4.02 1.502 10.536 1.635 11.771.133 1.236.817 1.502 2.03 1.473l2.266-.052s1.925 37.268 1.977 38.428c.052 1.16.58 1.844 2.267 1.844 1.687 0 8.217-.475 9.376-.528.604-.028 1.131-.19 1.497-.522.015-.015.029-.034.043-.043.014-.014.029-.033.043-.043.014-.014.029-.033.043-.043.014-.014.028-.033.043-.042.014-.015.028-.034.042-.043.014-.014.029-.033.043-.043.014-.014.029-.033.043-.043.014-.014.028-.033.043-.042.014-.015.028-.034.042-.043.015-.015.029-.034.043-.043.014-.014.029-.033.043-.043.014-.014.028-.033.043-.043.014-.014.028-.033.042-.042.015-.015.029-.034.043-.043.014-.014.029-.033.043-.043.014-.014.028-.033.043-.043.014-.014.028-.033.043-.042.014-.015.028-.034.042-.043.015-.014.029-.033.043-.043.014-.014.029-.033.043-.043.014-.014.028-.033.043-.043.014-.014.028-.033.042-.042.015-.015.029-.034.043-.043.014-.014.029-.033.043-.043.014-.014.028-.033.043-.043.014-.014.028-.033.043-.042.014-.015.028-.034.042-.043.015-.014.029-.033.043-.043.014-.014.029-.033.043-.043.014-.014.028-.033.043-.042.014-.015.028-.034.042-.043.015-.014.029-.033.043-.043.014-.014.029-.033.043-.043.014-.014.028-.033.043-.043.014-.014.028-.033.042-.042.015-.015.029-.034.043-.043.014-.014.029-.033.043-.043.014-.014.029-.033.043-.043.014-.014.028-.033.043-.042.014-.015.028-.034.042-.043.015-.014.029-.033.043-.043.014-.014.029-.033.043-.043.014-.014.028-.033.043-.042.014-.015.028-.034.042-.043.015-.015.029-.034.043-.043.014-.014.029-.033.043-.043.014-.014.028-.033.043-.043.014-.014.028-.033.043-.042.014-.015.028-.034.042-.043.014-.014.029-.033.043-.043.014-.014.028-.033.043-.043.014-.014.028-.033.043-.042.014-.015.028-.034.042-.043.015-.014.029-.033.043-.043.014-.014.029-.033.043-.043.014-.014.028-.033.043-.043.014-.014.028-.033.042-.042.015-.015.029-.034.043-.043.014-.014.029-.033.043-.043.014-.014.028-.033.043-.043.014-.014.028-.033.042-.042.015-.015.029-.034.043-.043.015-.014.029-.033.043-.043.014-.014.029-.033.043-.043.014-.014.028-.033.043-.042.014-.015.028-.034.042-.043.015-.014.029-.033.043-.043.014-.014.029-.033.043-.043.014-.014.028-.033.043-.043.014-.014.028-.033.042-.042.015-.015.029-.034.043-.043.014-.014.029-.033.043-.043.014-.014.029-.033.043-.043.014-.014.028-.033.043-.042.014-.015.028-.034.042-.043.015-.014.029-.033.043-.043.014-.014.029-.033.043-.043.014-.014.028-.033.043-.042.014-.015.028-.034.042-.043.015-.015.029-.034.043-.043.014-.014.029-.033.043-.043.014-.014.028-.033.043-.043.014-.014.028-.033.043-.042.014-.015.028-.034.042-.043.014-.014.029-.033.043-.043.014-.014.028-.033.043-.043.014-.014.028-.033.043-.042.014-.015.028-.034.042-.043.015-.014.029-.033.043-.043.014-.014.029-.033.043-.043.014-.014.028-.033.043-.043.014-.014.028-.033.042-.042.015-.015.029-.034.043-.043.014-.014.029-.033.043-.043.014-.014.029-.033.043-.043.014-.014.028-.033.042-.042.015-.015.029-.034.043-.043.015-.014.029-.033.043-.043.014-.014.028-.033.043-.043.014-.014.028-.033.043-.042.014-.015.028-.034.042-.043.015-.014.029-.033.043-.043.014-.014.029-.033.043-.043.014-.014.028-.033.043-.043.014-.014.028-.033.042-.042.015-.015.029-.034.043-.043.014-.014.029-.033.043-.043.014-.014.029-.033.043-.043.014-.014.028-.033.043-.042.014-.015.028-.034.042-.043.015-.014.029-.033.043-.043.014-.014.029-.033.043-.043.014-.014.028-.033.043-.042.014-.015.028-.034.042-.043.015-.015.029-.034.043-.043.014-.014.029-.033.043-.043.014-.014.028-.033.043-.043.014-.014.028-.033.043-.042.014-.015.028-.034.042-.043.014-.014.029-.033.043-.043.014-.014.029-.033.043-.043.014-.014.028-.033.043-.042.014-.015.028-.034.042-.043.015-.014.029-.033.043-.043.014-.014.029-.033.043-.043.014-.014.028-.033.043-.043.014-.014.028-.033.042-.042.015-.015.029-.034.043-.043.014-.014.029-.033.043-.043.014-.014.029-.033.043-.043.014-.014.028-.033.042-.042.015-.015.029-.034.043-.043.015-.014.029-.033.043-.043.014-.014.028-.033.043-.043.014-.014.028-.033.043-.042.014-.015.028-.034.042-.043.015-.015.029-.034.043-.043.014-.014.029-.033.043-.043.014-.014.028-.033.043-.043.014-.014.028-.033.042-.042.015-.015.029-.034.043-.043.014-.014.029-.033.043-.043.014-.014.029-.033.043-.043.014-.014.028-.033.043-.042.014-.015.028-.034.042-.043.015-.014.029-.033.043-.043.014-.014.029-.033.043-.043.014-.014.028-.033.043-.043.014-.014.028-.033.042-.042.015-.015.029-.034.043-.043.014-.014.029-.033.043-.043.014-.014.028-.033.043-.043.014-.014.028-.033.043-.042.014-.015.028-.034.042-.043.014-.014.029-.033.043-.043.361-.309.575-.784.546-1.468-.023-.656-.209-3.289-.39-5.855 2.434-.851 4.744-2.234 6.63-4.34.015-.013.029-.028.043-.042l.043-.043.043-.043.042-.042.043-.043.043-.043.043-.043.043-.043.042-.042.043-.043.043-.043.043-.043.043-.042.042-.043.043-.043.043-.043.043-.042.042-.043.043-.043.043-.043c.014-.014.028-.028.043-.047l.042-.043.043-.043.043-.043.043-.042.042-.043.043-.043.043-.043.043-.042.043-.043c.014-.014.028-.029.042-.048l.043-.043.043-.042.043-.043.042-.043.043-.043.043-.042.043-.043c.01-.01.019-.02.028-.033.903 12.332 7.138 17.403 16.192 17.018 3.688-.157 8.497-2.718 10.327-3.792.242-.143.442-.295.603-.461l.043-.043.043-.043a1.74 1.74 0 0 0 .085-.086l.043-.042.043-.043.043-.043.042-.043.043-.042a1.74 1.74 0 0 1 .043-.043l.043-.043.042-.043a17.113 17.113 0 0 0 .086-.085l.043-.043.042-.043a1.74 1.74 0 0 0 .043-.043l.043-.042.043-.043.043-.043a1.74 1.74 0 0 0 .042-.043l.043-.042.043-.043.043-.043a1.74 1.74 0 0 0 .042-.043l.043-.042.043-.043a1.74 1.74 0 0 1 .043-.043l.043-.043.042-.043.043-.042a1.74 1.74 0 0 1 .043-.043l.043-.043.042-.043.043-.042.043-.043.043-.043a1.74 1.74 0 0 0 .085-.086l.043-.042.043-.043.043-.043.042-.043.043-.042.043-.043.043-.043.042-.043a17.113 17.113 0 0 0 .129-.128l.043-.043a1.74 1.74 0 0 0 .042-.043l.043-.042.043-.043.043-.043a1.74 1.74 0 0 0 .042-.043l.043-.042.043-.043.043-.043a1.74 1.74 0 0 0 .042-.043l.043-.042.043-.043a1.74 1.74 0 0 1 .043-.043l.043-.043.042-.043.043-.042a1.74 1.74 0 0 1 .043-.043l.043-.043.042-.043.043-.042a1.74 1.74 0 0 1 .043-.043l.043-.043.042-.043a17.113 17.113 0 0 1 .086-.085l.043-.043.043-.043a1.74 1.74 0 0 0 .042-.043l.043-.042.043-.043.043-.043.043-.043.042-.042a1.74 1.74 0 0 1 .086-.086l.043-.043a.54.54 0 0 0 .023-.024c.514 5.841 3.959 8.973 8.74 9.011 5.294.038 9.11-3.198 10.431-4.187.133-.1.248-.204.352-.309l.043-.043.043-.042.043-.043.042-.043a1.74 1.74 0 0 0 .043-.043l.043-.042.042-.043.043-.043a1.74 1.74 0 0 0 .043-.043l.043-.042.043-.043a1.74 1.74 0 0 1 .042-.043l.043-.043.043-.043.043-.042a1.74 1.74 0 0 1 .043-.043l.042-.043.043-.043.043-.042a1.74 1.74 0 0 1 .043-.043l.042-.043a1.58 1.58 0 0 0 .086-.086l.043-.042.042-.043.043-.043a1.74 1.74 0 0 0 .043-.043l.043-.042.042-.043.043-.043.043-.043.043-.042a1.74 1.74 0 0 1 .043-.043l.042-.043.043-.043.043-.043.043-.042.043-.043.042-.043.043-.043.043-.042.042-.043.043-.043a1.74 1.74 0 0 0 .043-.043l.043-.042.043-.043.042-.043.043-.043.043-.043.043-.042a1.74 1.74 0 0 1 .043-.043l.042-.043.043-.043.043-.042a1.74 1.74 0 0 1 .043-.043l.042-.043.043-.043a1.74 1.74 0 0 0 .043-.043l.043-.042.042-.043.043-.043a1.74 1.74 0 0 0 .043-.043l.043-.042.042-.043.043-.043a1.74 1.74 0 0 0 .043-.043l.043-.042.043-.043a1.74 1.74 0 0 1 .042-.043l.043-.043.043-.043.043-.042a1.74 1.74 0 0 1 .043-.043l.042-.043.043-.043.043-.042.043-.043.042-.043a1.74 1.74 0 0 0 .043-.043l.043-.042.043-.043.042-.043.043-.043.043-.043.043-.042a1.74 1.74 0 0 1 .043-.043l.042-.043.043-.043a17.113 17.113 0 0 0 .086-.085l.042-.043.043-.043a1.74 1.74 0 0 0 .043-.043l.043-.042.042-.043.043-.043a1.74 1.74 0 0 0 .043-.043l.043-.042.042-.043.043-.043a1.74 1.74 0 0 0 .043-.043l.043-.042.043-.043a1.74 1.74 0 0 1 .042-.043l.043-.043.043-.043.043-.042a1.74 1.74 0 0 1 .043-.043l.042-.043.043-.043.01-.009c-.604 5.803-1.07 10.379-1.103 10.869-.052.788.423 1.264 1.42 1.316.999.052 9.007.841 10.114.893.703.034 1.264-.104 1.587-.494a.872.872 0 0 0 .043-.043l.043-.042a.872.872 0 0 1 .043-.043l.042-.043a.872.872 0 0 0 .043-.043l.043-.042a.872.872 0 0 1 .043-.043l.042-.043a.872.872 0 0 0 .043-.043.872.872 0 0 0 .043-.043l.043-.042a.872.872 0 0 1 .043-.043l.042-.043a.872.872 0 0 0 .043-.043l.043-.042a.872.872 0 0 1 .043-.043l.042-.043a.872.872 0 0 0 .043-.043l.043-.042.043-.043.043-.043.042-.043a.872.872 0 0 0 .043-.043l.043-.042a.872.872 0 0 1 .043-.043l.042-.043a.872.872 0 0 0 .043-.043l.043-.042a.872.872 0 0 1 .043-.043l.042-.043a.872.872 0 0 0 .043-.043l.043-.042.043-.043a.872.872 0 0 1 .043-.043l.042-.043a.872.872 0 0 0 .043-.043l.043-.042a.872.872 0 0 1 .043-.043l.042-.043a.872.872 0 0 0 .043-.043l.043-.042a.872.872 0 0 1 .043-.043l.043-.043.042-.043a.872.872 0 0 0 .043-.043l.043-.042a.872.872 0 0 1 .043-.043l.042-.043a.872.872 0 0 0 .043-.043l.043-.042a.872.872 0 0 1 .043-.043l.042-.043a.872.872 0 0 0 .043-.043l.043-.042.043-.043.043-.043.042-.043a.872.872 0 0 0 .043-.043l.043-.042a.872.872 0 0 1 .043-.043l.042-.043a.872.872 0 0 0 .043-.043l.043-.042a.872.872 0 0 1 .043-.043l.042-.043a.872.872 0 0 0 .043-.043l.043-.042.043-.043a.872.872 0 0 1 .043-.043l.042-.043a.872.872 0 0 0 .043-.043l.043-.042a.872.872 0 0 1 .043-.043l.042-.043a.872.872 0 0 0 .043-.043l.043-.042a.872.872 0 0 1 .043-.043l.043-.043.042-.043a.872.872 0 0 0 .043-.043l.043-.042a.872.872 0 0 1 .043-.043l.042-.043a.872.872 0 0 0 .043-.043l.043-.042a.872.872 0 0 1 .043-.043l.042-.043a.872.872 0 0 0 .043-.043l.043-.042.043-.043a.872.872 0 0 1 .043-.043l.042-.043a.872.872 0 0 0 .043-.043l.043-.042a.872.872 0 0 1 .043-.043l.042-.043a.872.872 0 0 0 .043-.043l.043-.042a.872.872 0 0 1 .043-.043l.042-.043a.872.872 0 0 0 .043-.043.872.872 0 0 0 .043-.043l.043-.042a.872.872 0 0 1 .043-.043l.042-.043a.872.872 0 0 0 .043-.043l.043-.042a.872.872 0 0 1 .043-.043l.042-.043a.872.872 0 0 0 .043-.043l.043-.042c0-.005.005-.005.009-.005.138 2.314.248 4.058.286 4.429.104 1.055.579 1.806 1.525 1.896 3.37.319 8.431.685 9.852.789.736.052 1.183-.052 1.43-.328a.872.872 0 0 0 .043-.043l.043-.042a.872.872 0 0 1 .043-.043l.042-.043a.872.872 0 0 0 .043-.043l.043-.042a.872.872 0 0 1 .043-.043l.042-.043a.872.872 0 0 0 .043-.043.872.872 0 0 0 .043-.043l.043-.042a.872.872 0 0 1 .043-.043l.042-.043a.872.872 0 0 0 .043-.043l.043-.042a.872.872 0 0 1 .043-.043l.042-.043a.872.872 0 0 0 .043-.043l.043-.042a.872.872 0 0 1 .043-.043l.043-.043.042-.043a.872.872 0 0 0 .043-.043l.043-.042a.872.872 0 0 1 .043-.043l.042-.043a.872.872 0 0 0 .043-.043l.043-.042a.872.872 0 0 1 .043-.043l.042-.043a.872.872 0 0 0 .043-.043l.043-.042.043-.043.043-.043.042-.043a.872.872 0 0 0 .043-.043l.043-.042a.872.872 0 0 1 .043-.043l.042-.043a.872.872 0 0 0 .043-.043l.043-.042a.872.872 0 0 1 .043-.043l.042-.043a.872.872 0 0 0 .043-.043.872.872 0 0 0 .043-.043l.043-.042a.872.872 0 0 1 .043-.043l.042-.043a.872.872 0 0 0 .043-.043l.043-.042a.872.872 0 0 1 .043-.043l.042-.043a.872.872 0 0 0 .043-.043l.043-.042.043-.043.043-.043.042-.043a.872.872 0 0 0 .043-.043l.043-.042a.872.872 0 0 1 .043-.043l.042-.043a.872.872 0 0 0 .043-.043l.043-.042a.872.872 0 0 1 .043-.043l.042-.043a.872.872 0 0 0 .043-.043l.043-.042.043-.043a.872.872 0 0 1 .043-.043l.042-.043a.872.872 0 0 0 .043-.043l.043-.042a.872.872 0 0 1 .043-.043l.042-.043a.872.872 0 0 0 .043-.043l.043-.042a.872.872 0 0 1 .043-.043l.043-.043.042-.043a.872.872 0 0 0 .043-.043l.043-.042a.872.872 0 0 1 .043-.043l.042-.043a.872.872 0 0 0 .043-.043l.043-.042a.872.872 0 0 1 .043-.043l.042-.043a.872.872 0 0 0 .043-.043l.043-.042.043-.043.043-.043.042-.043a.872.872 0 0 0 .043-.043l.043-.042a.872.872 0 0 1 .043-.043l.042-.043a.872.872 0 0 0 .043-.043l.043-.042a.872.872 0 0 1 .043-.043l.042-.043a.872.872 0 0 0 .043-.043l.043-.042.043-.043a.872.872 0 0 1 .043-.043l.042-.043a.872.872 0 0 0 .043-.043l.043-.042a.872.872 0 0 1 .043-.043l.042-.043a.872.872 0 0 0 .043-.043l.043-.042a.872.872 0 0 1 .043-.043l.043-.043.042-.043a.872.872 0 0 0 .043-.043l.043-.042a.872.872 0 0 1 .043-.043l.042-.043a.872.872 0 0 0 .043-.043l.043-.042a.872.872 0 0 1 .043-.043l.042-.043a.872.872 0 0 0 .043-.043l.043-.042.043-.043.043-.043.042-.043a.872.872 0 0 0 .043-.043l.043-.042a.872.872 0 0 1 .043-.043l.042-.043a.872.872 0 0 0 .043-.043l.043-.042a.872.872 0 0 1 .043-.043l.042-.043a.872.872 0 0 0 .043-.043l.043-.042.043-.043a.872.872 0 0 1 .043-.043l.042-.043a.872.872 0 0 0 .043-.043l.043-.042a.872.872 0 0 1 .043-.043l.042-.043a.872.872 0 0 0 .043-.043l.043-.042a.872.872 0 0 1 .043-.043l.043-.043.042-.043a.872.872 0 0 0 .043-.043l.043-.042a.872.872 0 0 1 .043-.043l.042-.043a.872.872 0 0 0 .043-.043l.043-.042c.014-.015.028-.029.038-.043 1.901 1.749 4.272 2.889 6.962 3.379 5.48 1.003 10.641-1.526 11.853-2.372.461-.323.841-.636 1.145-.974l.043-.043.043-.042.042-.043.043-.043.043-.043.043-.043.042-.042.043-.043.043-.043.043-.043.042-.042.043-.043.043-.043.043-.043.043-.042.042-.043.043-.043.043-.043.043-.043.042-.042.043-.043.043-.043.043-.043.043-.042.042-.043.043-.043.043-.043.043-.042.042-.043.043-.043.043-.043.043-.043.042-.042.043-.043.043-.043.043-.043.043-.042.042-.043.043-.043.043-.043.043-.043.042-.042.043-.043.043-.043.043-.043.042-.042.043-.043.043-.043.043-.043.043-.042.042-.043.043-.043.043-.043.043-.043.042-.042.043-.043.043-.043.043-.043.043-.042.042-.043.043-.043.043-.043.043-.042.042-.043.043-.043.043-.043.043-.043.042-.042.043-.043.043-.043.043-.043.043-.042.042-.043.043-.043.043-.043.043-.043.042-.042.043-.043.043-.043.043-.043.042-.042.043-.043.043-.043.043-.043.043-.042.042-.043.043-.043.043-.043.043-.043.042-.042.043-.043.043-.043.043-.043.043-.042.042-.043.043-.043.043-.043.043-.042.042-.043.043-.043.043-.043.043-.043.042-.042.043-.043.043-.043.043-.043.043-.042.042-.043.043-.043.043-.043.043-.043.042-.042.043-.043.043-.043.043-.043.042-.042.043-.043.043-.043.043-.043.043-.042.042-.043.043-.043.043-.043.043-.043.042-.042.043-.043.043-.043.043-.043.043-.042.042-.043.043-.043.043-.043.043-.042.042-.043.043-.043.043-.043.043-.043.042-.042.043-.043.043-.043.043-.043.014-.014c.228.884.741 1.554 1.53 2.053 2.158 1.369 6.639 4.002 11.957 2.847 2.011-.437 3.907-1.507 5.413-3.113l.043-.043.043-.043.043-.042.042-.043.043-.043.043-.043.043-.042.042-.043.043-.043a.872.872 0 0 0 .043-.043l.043-.043.043-.042.042-.043.043-.043.043-.043.043-.042.042-.043.043-.043.043-.043.043-.042a.872.872 0 0 1 .043-.043l.042-.043.043-.043.043-.043.043-.042.042-.043.043-.043.043-.043.043-.042.042-.043.043-.043.043-.043.043-.042a.872.872 0 0 1 .043-.043l.042-.043.043-.043.043-.043.043-.042.042-.043.043-.043.043-.043.043-.042.042-.043.043-.043a.872.872 0 0 0 .043-.043l.043-.043.043-.042.042-.043.043-.043.043-.043.043-.042.042-.043.043-.043.043-.043.043-.042a.872.872 0 0 1 .043-.043l.042-.043.043-.043.043-.043.043-.042.042-.043.043-.043.043-.043.043-.042.042-.043.043-.043a.872.872 0 0 0 .043-.043l.043-.042a.872.872 0 0 1 .043-.043l.042-.043c.005-.005.01-.01.015-.01 1.986 10.123 6.853 14.5 15.483 13.854 3.673-.276 6.52-1.816 7.466-2.609a2.27 2.27 0 0 0 .242-.238l.043-.043.043-.043.043-.042.042-.043.043-.043.043-.043.043-.042.042-.043.043-.043.043-.043.043-.042a.872.872 0 0 1 .043-.043l.042-.043.043-.043.043-.043.043-.042.042-.043.043-.043.043-.043.043-.042.042-.043.043-.043.043-.043.043-.043.043-.042.042-.043.043-.043.043-.043.043-.042.042-.043.043-.043.043-.043.043-.042a.872.872 0 0 1 .043-.043l.042-.043.043-.043.043-.043.043-.042.042-.043.043-.043.043-.043.043-.042.042-.043.043-.043.043-.043.043-.042a.872.872 0 0 1 .043-.043l.042-.043.043-.043.043-.043.043-.042.042-.043.043-.043.043-.043.043-.042.042-.043.043-.043a.872.872 0 0 0 .043-.043l.043-.043.043-.042.042-.043.043-.043.043-.043.043-.042.042-.043.043-.043.043-.043.043-.042a.872.872 0 0 1 .043-.043l.042-.043.043-.043.043-.043.043-.042.042-.043.043-.043.043-.043.043-.042.042-.043.043-.043.043-.043.043-.042a.872.872 0 0 1 .043-.043l.042-.043.043-.043.043-.043.043-.042.042-.043.043-.043.043-.043.043-.042.042-.043.043-.043a.872.872 0 0 0 .043-.043l.043-.043.043-.042.042-.043.043-.043.043-.043.043-.042.042-.043.043-.043.043-.043.043-.042a.872.872 0 0 1 .043-.043l.042-.043.043-.043.043-.043.043-.042.042-.043.043-.043.043-.043.043-.042.042-.043.043-.043.043-.043.043-.042a.872.872 0 0 1 .043-.043l.042-.043.043-.043.043-.043.043-.042.042-.043.043-.043.043-.043.043-.042.042-.043.043-.043a.872.872 0 0 0 .043-.043l.043-.043.043-.042.042-.043.043-.043.043-.043.043-.042.042-.043.043-.043.043-.043.043-.042a.872.872 0 0 1 .043-.043l.042-.043.043-.043.043-.043a1.724 1.724 0 0 1 .057-.057c1.24.623 2.732 1.022 4.524 1.117 2.989.162 5.29-1.183 7.043-3.084l.043-.043.043-.043.043-.042.042-.043.043-.043.043-.043.043-.042.042-.043.043-.043.043-.043.043-.043.042-.042.043-.043.043-.043.043-.043.043-.042.042-.043.043-.043.043-.043.043-.043a.397.397 0 0 0 .042-.047l.043-.043.043-.043.043-.042.042-.043.043-.043a.872.872 0 0 0 .043-.043l.043-.042a.872.872 0 0 1 .043-.043l.042-.043a.33.33 0 0 0 .043-.047l.043-.043a.872.872 0 0 1 .043-.043l.042-.043a.872.872 0 0 0 .043-.043l.043-.042a.872.872 0 0 1 .043-.043l.043-.043.042-.043.043-.042.043-.043a.533.533 0 0 0 .043-.048l.042-.043.043-.042.043-.043.043-.043.042-.043.043-.042.043-.043.043-.043.043-.043c.014-.014.028-.028.042-.047l.043-.043.043-.043.043-.043.042-.042.043-.043.043-.043.043-.043.042-.042.043-.043.043-.043c.014-.014.029-.028.043-.047a.872.872 0 0 1 .043-.043c.228 2.181.427 4.115.47 4.534.105 1.055.632 1.791 1.792 1.896 1.159.104 4.69.318 5.954.37.495.019.851-.104 1.103-.37l.043-.043.043-.043.042-.043.043-.042.043-.043.043-.043.042-.043.043-.042.043-.043.043-.043.043-.043.042-.042.043-.043.043-.043.043-.043.042-.043.043-.042.043-.043.043-.043.042-.043.043-.042.043-.043.043-.043.043-.043.042-.043.043-.042.043-.043.043-.043.042-.043.043-.042.043-.043.043-.043.042-.043.043-.042.043-.043.043-.043.043-.043.042-.043.043-.042.043-.043.043-.043.042-.043.043-.042.043-.043.043-.043.043-.043.042-.042.043-.043.043-.043.043-.043.042-.043.043-.042.043-.043.043-.043.042-.043.043-.042.043-.043.043-.043.043-.043.042-.043.043-.042.043-.043.043-.043.042-.043.043-.042.043-.043.043-.043.042-.043.043-.042.043-.043.043-.043.043-.043.042-.043.043-.042.043-.043.043-.043.042-.043.043-.042.043-.043.043-.043.043-.043.042-.042.043-.043.043-.043.043-.043.042-.043.043-.042.043-.043.043-.043.042-.043.043-.042.043-.043.043-.043.043-.043.042-.043.043-.042.043-.043.043-.043.042-.043.043-.042.043-.043.043-.043.043-.043.042-.042.043-.043.043-.043.043-.043.042-.043.043-.042.043-.043.043-.043.042-.043.043-.042.043-.043.043-.043.043-.043.042-.042.043-.043.043-.043.043-.043.042-.043.043-.042.043-.043.043-.043.042-.043.043-.042.043-.043.043-.043.043-.043.042-.043.043-.042.043-.043.043-.043.042-.043.043-.042.043-.043.043-.043.042-.043.043-.042.043-.043.043-.043.043-.043.042-.043.043-.042.043-.043.043-.043.042-.043.043-.042.043-.043.043-.043.043-.043.042-.042.043-.043.043-.043.043-.043c.114-.109.204-.252.28-.413 2.78 3.659 6.691 5.137 11.002 4.757 4.938-.433 8.454-2.728 10.431-4.7.133-.133.257-.266.366-.395l.043-.042.043-.043a.872.872 0 0 1 .043-.043l.042-.043a.872.872 0 0 0 .043-.043l.043-.042a.872.872 0 0 1 .043-.043l.042-.043a.872.872 0 0 0 .043-.043l.043-.042a.872.872 0 0 1 .043-.043l.043-.043.042-.043.043-.042.043-.043a.872.872 0 0 1 .043-.043l.042-.043a1.74 1.74 0 0 0 .043-.043l.043-.042.043-.043.042-.043a1.74 1.74 0 0 0 .043-.043l.043-.042.043-.043a1.74 1.74 0 0 1 .043-.043l.042-.043.043-.043.043-.042a1.74 1.74 0 0 1 .043-.043l.042-.043.043-.043.043-.042.043-.043.042-.043a1.74 1.74 0 0 0 .043-.043l.043-.043.043-.042a1.58 1.58 0 0 1 .043-.043l.042-.043a1.58 1.58 0 0 0 .043-.043l.043-.042a1.74 1.74 0 0 1 .043-.043l.042-.043.043-.043.043-.042a1.74 1.74 0 0 1 .043-.043l.043-.043.042-.043a1.74 1.74 0 0 0 .043-.043l.043-.042.043-.043.042-.043a1.74 1.74 0 0 0 .043-.043l.043-.042.043-.043.042-.043a1.74 1.74 0 0 0 .043-.043l.043-.042.043-.043a17.113 17.113 0 0 0 .085-.086l.043-.042.043-.043a1.74 1.74 0 0 1 .043-.043l.042-.043.043-.043.043-.042a1.74 1.74 0 0 1 .043-.043l.042-.043a1.74 1.74 0 0 0 .086-.086l.043-.042.043-.043.042-.043a1.58 1.58 0 0 0 .043-.043l.043-.042a1.74 1.74 0 0 1 .043-.043l.042-.043.043-.043.043-.042a17.113 17.113 0 0 0 .085-.086l.043-.043.043-.043.043-.042.043-.043a17.113 17.113 0 0 1 .085-.086l.043-.042.043-.043.042-.043a1.74 1.74 0 0 0 .043-.043l.043-.042.043-.043a1.74 1.74 0 0 1 .043-.043l.042-.043.043-.043.043-.042a17.113 17.113 0 0 0 .085-.086l.043-.043.043-.042a1.74 1.74 0 0 1 .043-.043l.043-.043.042-.043a1.74 1.74 0 0 0 .043-.043l.043-.042a1.58 1.58 0 0 1 .043-.043l.042-.043a1.74 1.74 0 0 0 .043-.043l.043-.042a1.74 1.74 0 0 1 .043-.043l.042-.043.043-.043.043-.042a1.74 1.74 0 0 1 .043-.043l.043-.043.042-.043.043-.043.043-.042.043-.043.042-.043a1.74 1.74 0 0 0 .043-.043l.043-.042.043-.043.042-.043a1.74 1.74 0 0 0 .043-.043l.043-.042.043-.043a1.74 1.74 0 0 1 .043-.043l.042-.043.043-.043.043-.042a17.113 17.113 0 0 0 .085-.086l.043-.043.043-.042a1.74 1.74 0 0 1 .043-.043l.042-.043.043-.043a1.74 1.74 0 0 0 .043-.043l.043-.042.043-.043.042-.043a1.74 1.74 0 0 0 .043-.043l.043-.042a1.58 1.58 0 0 1 .043-.043l.042-.043.043-.043.043-.042.043-.043a1.74 1.74 0 0 1 .043-.043l.042-.043.043-.043.043-.042c.812-.927 1.159-1.854 1.174-3.047.038-3.198.047-5.213 0-6.834-.323-1.924-1.307-2.31-2.3-1.449ZM28.428 78.3c.08 1.146.057 2.158-.043 3.075-.204.052-.404.105-.613.152a.618.618 0 0 1-.755-.537l-.808-7.88c1.207.97 2.038 2.62 2.22 5.19Zm34.935 13.183a.414.414 0 0 1 .043-.047l.043-.043.042-.043.043-.042.043-.043.043-.043.042-.043.043-.043.043-.042.043-.043.043-.043.042-.043.043-.042.043-.043.043-.043.042-.043.043-.043.043-.042.043-.043.042-.043.043-.043.043-.042.043-.043.043-.043.042-.043.043-.042.043-.043.043-.043.042-.043.043-.043.043-.042.043-.043.042-.043.043-.043.043-.042.043-.043.042-.043c.015-.014.03-.028.043-.043l.043-.042.043-.043.043-.043.042-.043.043-.043.043-.042.043-.043.043-.043.042-.043.043-.042.043-.043.043-.043.042-.043.043-.043.043-.042.043-.043.042-.043.043-.043.043-.042.043-.043.043-.043.042-.043.043-.042.043-.043.043-.043.042-.043.043-.043.043-.042.043-.043.043-.043.042-.043.043-.042.043-.043.042-.043c.015-.014.03-.028.043-.043l.043-.042.043-.043.043-.043.042-.043.043-.043.043-.042.043-.043.043-.043.042-.043.043-.042.043-.043.043-.043.042-.043.043-.043.043-.042.043-.043.042-.043.043-.043.043-.042.043-.043.043-.043.042-.043.043-.042.043-.043.043-.043.042-.043.043-.043.043-.042.043-.043.043-.043.042-.043.043-.042.043-.043.042-.043c.015-.014.03-.028.043-.043l.043-.042.043-.043.043-.043.042-.043.043-.043.043-.042.043-.043.043-.043.042-.043.043-.042.043-.043.043-.043.042-.043.043-.043.043-.042.043-.043.042-.043.043-.043.043-.042.043-.043.043-.043.042-.043.043-.042.043-.043.043-.043.042-.043.043-.043.043-.042.043-.043.043-.043.042-.043.043-.042.043-.043.043-.043.042-.043.043-.042.043-.043.043-.043.042-.043.043-.043.043-.042.043-.043.043-.043.042-.043.043-.042.043-.043.043-.043a.74.74 0 0 0 .076-.095 198.66 198.66 0 0 0-.718 4.752c-.019.015-.038.02-.057.034-1.502.56-3.531 1.53-5.931 1.943Zm131.185.248c.214-.038.433-.176.618-.414a1.74 1.74 0 0 1 .043-.043l.042-.043.043-.042.043-.043.043-.043.043-.043.042-.042.043-.043.043-.043.043-.043.042-.042a1.74 1.74 0 0 0 .043-.043l.043-.043.043-.043.042-.043a1.74 1.74 0 0 0 .043-.042l.043-.043.043-.043a17.113 17.113 0 0 0 .085-.086l.043-.042.043-.043a1.74 1.74 0 0 1 .043-.043l.042-.042.043-.043.043-.043.043-.043.043-.043a17.113 17.113 0 0 1 .085-.085l.043-.043.043-.043.042-.042a1.74 1.74 0 0 0 .043-.043l.043-.043a1.58 1.58 0 0 1 .043-.043l.042-.043.043-.042.043-.043.043-.043a1.74 1.74 0 0 1 .043-.043l.042-.042.043-.043.043-.043.043-.043.042-.042a1.74 1.74 0 0 0 .043-.043l.043-.043.043-.043.042-.043a1.74 1.74 0 0 0 .086-.085l.043-.043a1.74 1.74 0 0 1 .043-.043l.042-.042.043-.043.043-.043a17.113 17.113 0 0 0 .085-.086l.043-.042.043-.043.043-.043.043-.043a17.113 17.113 0 0 1 .085-.085l.043-.043.043-.043.042-.042a1.74 1.74 0 0 0 .043-.043l.043-.043.043-.043.042-.043a1.58 1.58 0 0 0 .043-.042l.043-.043.043-.043a1.74 1.74 0 0 1 .043-.043l.042-.042.043-.043.043-.043.043-.043.042-.042a1.74 1.74 0 0 0 .043-.043l.043-.043.043-.043a1.58 1.58 0 0 1 .043-.043l.042-.042.043-.043.043-.043a1.74 1.74 0 0 1 .043-.043l.042-.042.043-.043.043-.043a17.113 17.113 0 0 0 .085-.086l.043-.042.043-.043.043-.043.043-.043.042-.042a1.74 1.74 0 0 0 .043-.043l.043-.043.043-.043.042-.042a1.74 1.74 0 0 0 .043-.043l.043-.043.043-.043.042-.043.043-.042.043-.043.043-.043a17.113 17.113 0 0 0 .085-.086l.043-.042.043-.043a1.74 1.74 0 0 1 .043-.043l.042-.042.043-.043.043-.043.043-.043.043-.043.042-.042a1.74 1.74 0 0 0 .043-.043l.043-.043a1.74 1.74 0 0 1 .043-.043l.042-.042.043-.043.043-.043a17.113 17.113 0 0 0 .085-.086.243.243 0 0 0 .038-.042c-.413 3.336-.803 6.244-.855 9.058-2.053.19-4.253-.095-5.318-3.084ZM114 76.913c-.257 0-.518 0-.78-.01a.842.842 0 0 1-.817-.898l.085-1.226A4.01 4.01 0 0 1 114 76.913Zm40.519 13.905c-.015.014-.029.033-.043.043-.014.014-.029.033-.043.043-.014.014-.028.033-.043.042-.014.015-.028.034-.042.043-.015.014-.029.033-.043.043-.014.014-.029.033-.043.043-.014.014-.028.033-.043.043-.014.014-.028.033-.043.042-.014.014-.028.034-.042.043-.015.014-.029.033-.043.043-.014.014-.029.033-.043.043-.014.014-.028.033-.043.042-.014.015-.028.034-.042.043-.015.014-.029.033-.043.043-.014.014-.029.033-.043.043-.014.014-.028.033-.043.042-.014.015-.028.034-.042.043-.21.166-.347.447-.333.865.009.219.028.666.057 1.26-.732.256-1.521.475-2.338.632.009-.015.024-.024.033-.038l.043-.043a1.74 1.74 0 0 1 .043-.043l.042-.043.043-.043.043-.042a1.74 1.74 0 0 1 .043-.043l.042-.043.043-.043.043-.042a1.74 1.74 0 0 1 .043-.043l.043-.043.042-.043a1.74 1.74 0 0 0 .043-.043l.043-.042.043-.043.042-.043a1.58 1.58 0 0 0 .043-.043l.043-.042.043-.043.042-.043.043-.043.043-.042.043-.043a1.74 1.74 0 0 1 .043-.043l.042-.043.043-.043.043-.042.043-.043.042-.043a1.74 1.74 0 0 0 .043-.043l.043-.042.043-.043a17.113 17.113 0 0 1 .085-.086l.043-.043.043-.042a1.74 1.74 0 0 1 .043-.043l.042-.043.043-.043.043-.042a1.74 1.74 0 0 1 .043-.043l.042-.043.043-.043.043-.042a1.74 1.74 0 0 1 .043-.043l.043-.043.042-.043a1.74 1.74 0 0 0 .043-.043l.043-.042.043-.043.042-.043a1.74 1.74 0 0 0 .043-.043l.043-.042a1.58 1.58 0 0 1 .043-.043l.042-.043a1.58 1.58 0 0 0 .043-.043l.043-.042.043-.043a1.74 1.74 0 0 1 .043-.043l.042-.043.043-.043.043-.042.043-.043.042-.043a1.74 1.74 0 0 0 .043-.043l.043-.042.043-.043.042-.043a1.74 1.74 0 0 0 .043-.043l.043-.043.043-.042a1.74 1.74 0 0 1 .043-.043l.042-.043.043-.043.043-.042a17.113 17.113 0 0 0 .085-.086l.043-.043.043-.042a1.74 1.74 0 0 1 .043-.043l.043-.043.042-.043a1.74 1.74 0 0 0 .043-.043l.043-.042.043-.043.042-.043a1.74 1.74 0 0 0 .043-.043l.043-.042.043-.043.042-.043.043-.043.043-.042.043-.043a1.74 1.74 0 0 1 .043-.043l.042-.043.043-.043.043-.042.043-.043.042-.043a1.74 1.74 0 0 0 .043-.043l.043-.042.043-.043a17.113 17.113 0 0 1 .085-.086l.043-.043.043-.042a1.74 1.74 0 0 1 .043-.043l.042-.043a1.58 1.58 0 0 0 .043-.043l.043-.042a1.74 1.74 0 0 1 .043-.043l.042-.043.043-.043.043-.042a1.74 1.74 0 0 1 .043-.043l.043-.043.042-.043a1.74 1.74 0 0 0 .043-.043l.043-.042c.152-.171.275-.376.371-.618.27-.69.527-1.483.76-2.348.276.31.556.613.836.903-.004.005-.004.01-.009.014-.014.015-.029.034-.043.043-.014.014-.028.033-.043.043-.014.014-.028.033-.042.043-.015.014-.029.033-.043.042-.015.015-.029.034-.043.043-.014.015-.029.034-.043.043-.014.014-.028.033-.043.043-.014.014-.028.033-.042.043-.015.014-.029.033-.043.042-.014.015-.029.034-.043.043-.014.014-.028.033-.043.043-.014.014-.028.033-.042.043-.015.014-.029.033-.043.043-.014.014-.029.033-.043.042-.014.014-.028.033-.043.043-.014.014-.028.033-.043.043-.014.014-.028.033-.042.043-.015.014-.029.033-.043.042-.014.015-.029.034-.043.043-.014.014-.028.033-.043.043-.014.014-.028.033-.042.043-.015.014-.029.033-.043.042-.014.015-.029.034-.043.043-.014.015-.028.034-.043.043-.014.014-.028.033-.042.043-.015.014-.029.033-.043.043-.015.014-.029.033-.043.042-.014.014-.029.034-.043.043-.014.014-.028.033-.043.043-.014.014-.028.033-.042.043-.015.014-.029.033-.043.042-.014.015-.029.034-.043.043-.014.014-.028.033-.043.043-.014.014-.028.033-.042.043-.015.014-.029.033-.043.043-.014.014-.029.033-.043.042-.014.014-.028.033-.043.043-.014.014-.028.033-.043.043-.014.014-.028.033-.042.042-.015.015-.029.034-.043.043-.014.015-.029.034-.043.043-.014.014-.028.033-.043.043-.014.014-.028.033-.042.043-.015.014-.029.033-.043.042-.014.015-.029.034-.043.043-.014.014-.028.033-.043.043-.014.014-.028.033-.042.043-.015.014-.029.033-.043.043-.014.014-.029.033-.043.042-.014.014-.029.033-.043.043-.014.014-.028.033-.043.043-.014.014-.028.033-.042.043-.015.014-.029.033-.043.042-.014.015-.029.034-.043.043-.014.014-.028.033-.043.043-.014.014-.028.033-.042.043-.015.014-.029.033-.043.042-.014.015-.029.034-.043.043-.014.015-.028.034-.043.043-.014.014-.028.033-.042.043-.015.014-.029.033-.043.043-.015.014-.029.033-.043.042-.014.014-.029.034-.043.043-.014.014-.028.033-.043.043-.014.014-.028.033-.042.043-.015.014-.029.033-.043.042-.014.015-.029.034-.043.043-.014.014-.028.033-.043.043-.014.014-.028.033-.042.043-.015.014-.029.033-.043.043-.014.014-.029.033-.043.042-.014.014-.028.033-.043.043-.014.014-.028.033-.043.043-.014.014-.028.033-.042.043-.015.014-.029.033-.043.042-.014.015-.029.034-.043.043-.014.014-.028.033-.043.043-.014.014-.028.033-.042.043-.015.014-.029.033-.043.042-.014.015-.029.034-.043.043-.014.014-.028.033-.043.043-.014.014-.028.033-.042.043-.015.014-.029.033-.043.043-.014.014-.029.033-.043.042-.014.014-.029.033-.043.043-.014.014-.028.033-.043.043-.033-.02-.047 0-.061.014Zm-64.262-.394c-1.659-.157-2.647-1.027-2.61-3.199.015-.675.067-2 .134-3.507.527.005.965-.128 1.307-.485l.043-.043.042-.042.043-.043.043-.043.043-.043.042-.042.043-.043.043-.043.043-.043.042-.043.043-.042.043-.043.043-.043.042-.043.043-.042.043-.043.043-.043.043-.043.042-.042.043-.043.043-.043.043-.043.042-.043.043-.042.043-.043.043-.043.043-.043.042-.042.043-.043.043-.043.043-.043.042-.042.043-.043.043-.043.043-.043.043-.043.042-.042.043-.043.043-.043.043-.043.042-.042.043-.043.043-.043.043-.043.042-.043.043-.042.043-.043.043-.043.042-.043.043-.042.043-.043.043-.043.043-.043.042-.042.043-.043.043-.043.043-.043.043-.043.042-.042.043-.043.043-.043.043-.043.042-.042.043-.043.043-.043.043-.043.042-.042.043-.043.043-.043.043-.043.043-.043.042-.042.043-.043.043-.043.043-.043.042-.042.043-.043.043-.043.043-.043.042-.043.043-.042.043-.043.043-.043.042-.043.043-.042.043-.043.043-.043.043-.043.042-.042.043-.043.043-.043.043-.043.043-.043.042-.042.043-.043.043-.043.043-.043.042-.042.043-.043.043-.043.043-.043.042-.042.043-.043.043-.043.043-.043.043-.043.042-.042.043-.043.043-.043.043-.043.042-.042.043-.043.043-.043.043-.043.042-.043.043-.042.043-.043.043-.043.042-.043.043-.042.043-.043.043-.043.043-.043.042-.042.043-.043.043-.043.043-.043.043-.043.042-.042.043-.043.043-.043.043-.043.042-.042.043-.043.043-.043.043-.043.042-.042.043-.043.043-.043c.005-.005.014-.014.019-.024-.242 2.305-.75 7.138-1.317 12.556-1.064.214-2.143.727-3.478.604Z"/><path fill="#FDFDFD" d="M46.44 66.9c-1.421-9.8-6.321-15.646-16.543-15.28-10.223.366-16.225 1.16-20.07 1.265-1.473.038-1.925.87-1.791 1.896.513 4.02 1.501 10.536 1.634 11.771.133 1.236.818 1.502 2.03 1.474 1.212-.029 2.267-.052 2.267-.052s1.924 37.268 1.976 38.427c.053 1.16.58 1.844 2.267 1.844 1.688 0 8.217-.475 9.377-.527 1.16-.053 2.053-.58 2-1.949-.052-1.368-.788-11.377-.788-11.377 1.368-.157 3.56-.623 4.581-.841 8.055-1.735 15.702-8.469 13.06-26.652ZM27.768 81.526a.618.618 0 0 1-.756-.537l-1.53-14.922a.617.617 0 0 1 .437-.656c4.158-1.183 8.535-.418 8.977 5.888.461 6.606-2.22 9.148-7.129 10.227Z"/><path fill="#FDFDFD" d="M71.57 97.481c-.104-1.42-.594-5.655-.808-7.238-.175-1.269-.955-1.52-1.668-1.036-1.654 1.131-4.476 2.395-7.756 2.476-3.279.08-5.65-1.226-5.926-5.513 0 0 12.11-1.107 13.235-1.207 1.127-.1 1.469-.598 1.602-1.677 1.245-10.014-1.188-21.196-11.848-21.053-8.796.118-15.583 7.49-14.537 24.18.789 12.641 7.067 17.831 16.225 17.436 3.687-.157 8.497-2.718 10.326-3.792.89-.523 1.26-1.155 1.155-2.576Zm-16.4-19.646c-.11-2.434 1.117-4.24 2.965-4.349 1.863-.114 3.199 1.53 3.146 4.035a.498.498 0 0 1-.465.494l-5.119.3a.498.498 0 0 1-.527-.48ZM73.704 61.933c-1.188-.038-1.977.357-1.896 1.816.08 1.459.622 7.984.551 9.918-.038 1.107.2 1.74 1.302 1.896 1.108.157 2.923.357 2.923.357s-1.896 10.707-2.053 17.816c-.157 7.11 3.517 10.945 8.811 10.983 5.294.038 9.11-3.198 10.431-4.187.951-.712 1.075-1.544 1.227-2.609.55-3.911.831-6.045.988-7.627.157-1.583-.903-1.697-1.815-1.146-.989.594-2.253 1.421-3.912 1.264-1.658-.156-2.647-1.026-2.609-3.198.034-1.725.338-7.727.461-10.132a.983.983 0 0 1 1.07-.927c2.038.176 3.53.371 4.557.509 1.184.157 2.015-.119 2.41-1.62.394-1.503 1.45-9.643 1.582-10.746.157-1.345-.237-1.777-1.62-1.858-1.383-.08-6.321-.08-6.321-.08s.67-6.203.789-7.348c.119-1.146-.157-1.62-1.264-1.62-1.108 0-9.125.118-10.313.118-1.183 0-1.502.513-1.464 1.659.038 1.145.395 5.137.433 5.77.038.631 0 1.144-.713 1.106-.713-.033-2.371-.07-3.555-.114Z"/><path fill="#FDFDFD" d="M117.664 52.78c-6.321-.736-17.594-1.107-18.858-1.107-1.264 0-2.005.423-2.053 1.844-.157 4.743.105 10.64.105 13.592 0 .95.157 1.42 1.16 1.42h3.478s-3.802 36.185-3.897 37.611c-.052.789.423 1.264 1.421 1.316.998.053 9.006.842 10.113.894 1.108.052 1.863-.314 1.896-1.421.157-5.584.371-15.436.58-17.912 0 0 1.949.157 2.951.157.262 4.952.951 17.066 1.055 18.121.105 1.055.58 1.806 1.526 1.896 3.369.319 8.431.684 9.852.789 1.421.105 1.796-.375 1.635-1.583-1.369-10.165-3.109-20.701-3.109-20.701 4.743-1.421 8.526-6.425 9.063-15.065.571-9.315-4.937-18.449-16.918-19.85Zm-4.444 24.123a.842.842 0 0 1-.817-.898l.58-8.53a.847.847 0 0 1 .746-.785c3.189-.365 7.185.794 6.938 5.01-.247 4.23-3.303 5.336-7.447 5.203Z"/><path fill="#FDFDFD" d="M155.54 92.819c-4.424 2.476-14.433 3.635-14.224-4.796 0 0 12.224 1.421 13.169 1.526.951.104 1.702-.309 2.053-1.212 2.476-6.32 4.059-21.333-6.952-22.968-10.727-1.592-16.857 7.11-19.019 19.437-2.158 12.328 3.136 19.742 11.272 21.229 5.48 1.003 10.641-1.525 11.853-2.371 1.212-.846 1.844-1.635 2.105-2.952.261-1.316 1.003-5.74 1.212-6.952.214-1.208-.656-1.398-1.469-.941Zm-8.801-16.962c1.782.238 2.718 2.343 2.248 4.572a.51.51 0 0 1-.566.404l-5.256-.713a.508.508 0 0 1-.428-.603c.452-2.148 1.844-3.95 4.002-3.66Z"/><path fill="#FDFDFD" d="M160.597 95.823c.138 1.154.694 1.986 1.635 2.58 2.157 1.369 6.639 4.002 11.957 2.847 5.322-1.16 9.875-6.74 8.431-15.013-1.094-6.245-8.997-8.535-9.705-12.209-.252-1.312.485-2.148 1.697-2.172 1.977-.038 4.343 1.74 5.094 2.528.751.79 2.077.908 2.096-.831.038-3.912.038-8.06.038-9.087 0-1.026-.637-1.782-1.502-2.371-2.214-1.502-5.774-3.18-10.507-2.885-6.321.394-10.878 5.023-10.232 11.458.789 7.903 9.719 12.09 9.875 15.25.057 1.184-.75 1.844-2.053 1.897-2.015.08-4.229-1.464-5.926-3.123-.542-.532-1.582-.356-1.54.751.043 1.108.376 8.193.642 10.38Z"/><path fill="#FDFDFD" d="M181.797 89.949c1.303 13.71 6.25 19.632 16.201 18.886 3.674-.276 6.521-1.816 7.466-2.609.67-.556.879-1.426.67-2.648-.67-3.992-1.501-8.14-1.658-9.718-.119-1.188-.96-1.426-1.74-.79-1.302 1.066-8.05 4.763-8.773-4.305-.632-7.979 4.463-7.033 6.359-4.343.39.55 1.074.38 1.464-.357 1.659-3.122 3.597-6.359 3.873-7.11.276-.75.471-1.577-.081-2.49-2.528-4.187-7.143-7.247-12.327-6.596-8.488 1.06-12.694 9.001-11.454 22.08Z"/><path fill="#FDFDFD" d="M207.902 59.999c.632 13.853-1.877 21.443-1.739 28.709.105 5.584 2.3 11.539 10.009 11.957 9.243.499 11.971-13.445 11.971-13.445l-3.018.329s1.107 10.64 1.212 11.695c.104 1.055.632 1.792 1.792 1.896 1.159.105 4.69.319 5.954.371 1.264.052 1.664-.836 1.583-2.633-.475-10.06.713-28.942 1.107-35.453.105-1.74-.736-2.38-1.948-2.476-2.053-.157-5.637-.527-7.005-.684-1.369-.157-2.453.366-2.476 2-.105 7.058-2.167 22.532-5.846 22.232-.969-.08-1.559-.888-1.421-2.685.338-4.486 1.896-13.235 3.056-19.808.366-2.067-.052-2.899-1.473-3.055-1.421-.157-8.745-.842-9.904-.95-1.16-.11-1.92.527-1.854 2ZM262.811 82.758c-2.015 1.74-4.139 3.184-7.584 3.36-3.874.2-6.164-1.858-6.359-5.213 0 0 12.879-1.027 14.024-1.145 1.145-.12 1.545-.519 1.697-1.583 1.226-8.417.275-22.046-11.653-21.77-9.167.213-15.726 8.61-15.213 22.877.514 14.262 7.167 19.946 15.17 19.243 4.938-.433 8.455-2.728 10.432-4.7 1.05-1.05 1.482-2.053 1.501-3.398.038-3.199.048-5.214 0-6.834-.038-1.312-1.021-1.697-2.015-.837Zm-14.219-10.764c.1-2.447 1.516-3.978 3.327-4.01 1.815-.039 3.065 1.63 3.008 3.83a.641.641 0 0 1-.613.617l-5.047.224a.646.646 0 0 1-.675-.66Z"/><path fill="#2C2C2C" d="M24.483 63.772c3.779-1.659 8.774-1.23 10.817 2.072a3.14 3.14 0 0 0 .228-.128c-.622-3.93-6.178-5.456-11.173-2.234l.128.29ZM27.468 92.258c8.094-.338 13.507-3.683 15.864-8.935-.124-.137-.152-.166-.2-.218-3.607 4.358-8.754 7.88-15.654 8.873l-.01.28ZM18.082 105.722l.043.318 9.31-.38-.028-.342c-3.299-.651-6.027-1.155-9.325.404ZM11.752 65.887l4.23-.081.047-.295c-1.183-1.126-3.08-.807-4.306.157l.029.219ZM54.281 73.186c1.659-2.171 5.138-3.041 7.785-.237l.133-.1c-1.958-3.712-6.54-3.845-8.098.219l.18.118ZM142.78 74.94c2.025-1.834 5.632-2.22 7.728 1.022l.223-.143c-1.464-4.091-6.254-5.018-8.165-1.078l.214.2ZM247.751 68.14c2.034-2.576 5.579-3.289 8.15-.357l.167-.123c-2.205-4.13-6.972-3.769-8.46.36l.143.12ZM54.947 84.06l13.168-1.174.029-.251c-4.477-1.108-10.522.08-13.207 1.183l.01.242ZM47.257 93.346c2.32 7.376 11.011 12.062 22.203 4.795l-.028-.394c-6.35 3.531-17.385 5.228-21.89-4.463l-.285.062ZM248.117 78.709l14.381-1.065.057-.218c-2.529-1.089-9.919-.79-14.419 1.026l-.019.257ZM74.512 73.553l4.187.48.02-.295s-1.127-1.668-4.207-.442v.257ZM94.068 74.598s-4.367-.318-6.282-.475l-.058-.338c2.31-1.026 4.72-.75 6.383.594l-.043.219ZM76.755 95.504c.37 7.295 7.324 10.037 16.016 3.136l.052-.37c-6.44 3.65-13.616 5.622-15.802-2.833l-.266.067ZM97.067 66.32l6.691.156.034-.295c-2.633-1.235-4.667-1.183-6.716-.175l-.01.313ZM111.771 64.898c4.168-.689 7.737-.736 10.555 3.636l.271-.119c-2.105-5.427-6.71-6.33-10.845-3.773l.019.256ZM109.694 86.669c2.448.276 4.9.475 6.953.394l-.019-.318c-2.105-1.136-4.691-1.44-6.934-.356v.28ZM99.856 105.355l9.006.832v-.394c-2.785-1.326-6.244-2.072-8.968-.87l-.038.432ZM117.716 106.796l.019.318 8.673.713.019-.338c-1.601-1.183-6.411-1.877-8.711-.693ZM123.129 86.232c3.536-.85 6.848-2.99 8.469-7.295l-.338-.08c-2.823 3.516-4.966 5.194-8.212 7.057l.081.318ZM141.146 85.837l13.473 1.583.057-.285c-4.682-1.73-7.842-2.2-13.521-1.65l-.009.352ZM133.161 96.188c2.329 7.704 12.779 11.14 20.388 4.8l.1-.394c-6.264 3.597-15.945 3.455-20.269-4.506l-.219.1ZM162.731 95.532l-.015.461s12.485 10.194 18.097-4.187l-.275-.142c-4.006 7.052-9.405 8.478-17.807 3.868ZM170.843 72.75c.604-3.347 4.32-4.216 8.825-1.213v-.328c-3.607-3.621-10.327-3.806-9.167 1.697l.342-.157ZM185.946 99.467c2.885 7.704 10.826 9.481 18.216 5.019l-.057-.319c-8.027 3.584-14.927.737-17.817-4.8l-.342.1ZM192.623 83.133c1.146-2.59 4.506-3.973 8.041-1.482l.2-.295c-3.222-3.455-7.604-2.904-8.516 1.697l.275.08ZM224.44 92.79c-3.844 8.692-15.25 7.167-15.987-2.053l.238-.08c2.291 8.9 11.719 7.955 15.483 1.976l.266.157ZM228.471 99.035l5.085.318-.029-.342c-1.791-1.33-3.369-.893-5.085-.185l.029.209ZM241.012 87.078c2.267 10.217 13.036 13.145 21.704 4.32l-.081-.305c-7.627 6.245-16.909 6.307-21.281-4.12l-.342.105Z"/><path fill="#FDFDFD" d="M318.263 62.898c-9.325-5.584-20.754-8.692-30.345-9.324-3.716-.247-6.106 1.825-6.786 5.09-1.64 7.87-1.483 15.982 0 23.876.76 4.034 2.41 7.18 5.998 9.438 7.955 5.004 21.495 9.747 31.08 10.907 3.916.475 6.107-1.958 6.896-5.195 1.853-7.603 1.326-15.24 0-23.876-.732-4.752-2.98-8.606-6.843-10.916Z"/><path fill="#FDFDFD" d="M363.885 66.59c-.347-7.684-3.626-11.98-11.31-14.832-4.382-1.625-11.549-4.163-19.419-6.463a10.145 10.145 0 0 0-3.407-4.957l11.14-15.27 6.767 8.617a4.109 4.109 0 0 0 3.217 6.668 4.11 4.11 0 0 0 4.111-4.111 4.11 4.11 0 0 0-5.831-3.73l-6.886-8.769a1.77 1.77 0 0 0-1.412-.67c-.556.01-1.059.27-1.387.722l-11.321 15.517a11.134 11.134 0 0 0-2.3-.898 11.298 11.298 0 0 0-4.058-.352l-5.024-29.954A4.214 4.214 0 0 0 315.15 0a4.215 4.215 0 0 0-4.216 4.215 4.21 4.21 0 0 0 3.954 4.201l5.028 29.988h-.004a10.225 10.225 0 0 0-4.549 2.628c-4.552-.78-8.82-1.188-12.384-.993-9.106.485-17.898 4.857-22.327 7.418l.005.01c-2.362 1.255-4.054 3.398-4.881 6.325-2.709 9.581-1.644 25.373-.337 33.077 1.093 6.463 4.4 9.362 10.103 12.38l-5.926 27.996s.475.908 1.659.238l7.485-26.708c3.611 1.573 8.986 3.616 14.946 5.579-.276 1.963-1.345 9.543-1.431 10.108.081.551.979.756 1.602.414l2.58-9.643c7.086 2.229 14.69 4.225 20.959 5.123.399 3.265 3.426 27.882 3.512 28.543.446.442 1.325.404 1.777-.005l-1.568-28.129c.442.028.874.047 1.288.047 1.539 0 2.899-.194 4.101-.598v.004c3.022-.998 6.525-2.58 9.719-4.177l3.279 20.549c.456.357 1.335.214 1.62-.099l-1.654-22.132a116.483 116.483 0 0 0 4.805-2.709c3.365-2.015 6.948-4.976 8.036-11.62 1.393-8.426 1.925-17.222 1.554-25.44Zm-38.527-26.347c2.124.575 4.32 1.991 5.513 4.396.327.651.579 1.378.736 2.182.138.703.2 1.463.176 2.285a2.406 2.406 0 0 1-2.2 2.32c-4.011.356-11.069-.609-14.039-4.715-.542-.746-.613-1.74-.181-2.528.219-.4.457-.765.718-1.102a7.782 7.782 0 0 1 1.663-1.621c2.272-1.625 5.2-1.873 7.614-1.217Zm-22.27 1.687c3.165-.166 6.915.153 10.931.799a6.26 6.26 0 0 0-.324.542 4.226 4.226 0 0 0-.513 2.02c0 .893.281 1.786.822 2.537 2.847 3.93 8.816 5.575 13.849 5.575a22.2 22.2 0 0 0 1.896-.081 4.31 4.31 0 0 0 3.935-4.159 11.345 11.345 0 0 0-.076-1.758c7.418 2.21 14.129 4.591 18.301 6.136 2.001.74 3.65 1.577 5.005 2.552.665.58.846 1.634-.195 2.19-2.086 1.117-10.959 4.691-13.012 5.347-2.053.66-3.427.052-5.109-1.25l-.005.005c-1.516-1.222-3.403-2.286-5.783-3.317-10.228-4.41-32.74-11.601-44.74-12.822-.275-.029-.541-.043-.807-.058 5.536-2.49 11.087-4.006 15.825-4.258Zm27.74 68.905c-13.872-1.145-37.81-9.818-44.202-13.168-5.518-2.895-8.317-5.295-9.305-11.116-1.374-8.099-2.191-23.458.294-32.245 1.279-4.515 4.928-6.706 10.261-6.16 10.731 1.094 32.943 7.828 44.183 12.675 6.021 2.6 8.492 5.28 9.775 10.622 2.685 11.154 1.744 24.375.214 30.196-1.273 4.853-2.927 7.519-5.726 8.636-.129.042-.257.09-.385.133l.004.009c-1.402.471-3.074.585-5.113.418Z"/><path fill="#FDFDFD" d="M333.066 80.216a5.07 5.07 0 0 0 1.317.175c.945 0 1.853-.275 2.632-.812 1.169-.808 1.906-2.096 2.063-3.626.314-2.975-1.735-6.007-4.567-6.754-1.412-.37-2.814-.142-3.949.642-1.169.808-1.906 2.096-2.063 3.626-.309 2.975 1.739 6.002 4.567 6.749Zm-2.675-6.554c.099-.97.546-1.773 1.254-2.257a2.729 2.729 0 0 1 1.559-.476c.271 0 .546.038.827.11 1.963.518 3.379 2.632 3.16 4.714-.1.97-.546 1.773-1.254 2.257-.671.466-1.521.594-2.386.366-1.963-.513-3.379-2.632-3.16-4.714ZM337.804 93.403c1.169-.808 1.906-2.095 2.063-3.626.314-2.98-1.735-6.007-4.567-6.753-1.412-.37-2.814-.142-3.949.642-1.169.808-1.906 2.096-2.063 3.626-.314 2.975 1.735 6.007 4.567 6.753a5.07 5.07 0 0 0 1.317.176 4.634 4.634 0 0 0 2.632-.818Zm-6.62-5.912c.1-.969.547-1.772 1.255-2.257a2.728 2.728 0 0 1 1.559-.475c.271 0 .546.038.827.11 1.962.517 3.379 2.632 3.16 4.713-.1.97-.547 1.773-1.255 2.258-.67.466-1.52.594-2.385.366-1.963-.518-3.384-2.633-3.161-4.715ZM338.127 100.751c.148-1.098-.608-2.234-1.696-2.538-1.084-.304-2.087.342-2.239 1.44-.147 1.098.609 2.234 1.697 2.538 1.088.304 2.086-.342 2.238-1.44ZM330.514 96.616c-1.083-.304-2.086.342-2.238 1.44-.147 1.098.608 2.234 1.697 2.538 1.083.304 2.086-.342 2.238-1.44.147-1.098-.608-2.234-1.697-2.538Z"/><path fill="#2C2C2C" d="m285.547 60.313.081 7.485 4.543 1.302.081 17.579 6.596 2.647-1.064-18.25 5.094 2.173-.156-7.785-15.175-5.151ZM302.618 66.096l3.835 26.433 5.489 2.053 9.286-22.122-6.202-2.058-5.531 15.53 1.221.315-1.421-17.86-6.677-2.29ZM313.173 99.743c6.406 1.483 9.153.243 10.108-5.052l-.276-.138c-2.114 3.693-6.244 5.342-9.899 4.838l.067.352ZM282.905 59.628c.489-3.455 3.512-4.605 6.843-4.072l.1.294c-2.918.523-4.995 1.635-6.62 3.878l-.323-.1Z"/></svg>