<svg width="57" height="57" viewBox="0 0 57 57" fill="none" xmlns="http://www.w3.org/2000/svg">
  <path d="M53.9863 28.5c0 6.8127-2.6529 13.2133-7.4695 18.0169-4.8165 4.8166-11.2171 7.4695-18.0169 7.4695-6.8127 0-13.2133-2.6529-18.017-7.4695C5.6664 41.7004 3.0134 35.2998 3.0134 28.5c0-6.8127 2.653-13.2133 7.4695-18.017 4.8166-4.8165 11.2172-7.4695 18.017-7.4695 6.8127 0 13.2133 2.653 18.0169 7.4695 4.8166 4.8037 7.4695 11.2043 7.4695 18.017z" fill="#5FA403" stroke="#5FA403" stroke-width="1.8403"/>
  <path d="M28.5 0C12.7625 0 0 12.7625 0 28.5S12.7625 57 28.5 57 57 44.2375 57 28.5 44.2375 0 28.5 0zm0 53.9864c-6.8127 0-13.2133-2.6529-18.0169-7.4695C5.6665 41.7004 3.0136 35.2998 3.0136 28.5c0-6.8127 2.653-13.2133 7.4695-18.0169C15.2996 5.6665 21.7002 3.0136 28.5 3.0136c6.8127 0 13.2133 2.653 18.0169 7.4695 4.8166 4.8165 7.4695 11.2171 7.4695 18.0169 0 6.8127-2.6529 13.2133-7.4695 18.0169-4.8036 4.8166-11.2042 7.4695-18.0169 7.4695z" fill="#fff"/>
  <path d="M38.8673 38.9573c1.0947 3.5287-.4765 4.6233-7.5081 6.04l-.1288.0257c-7.096 1.0818-8.9377.5924-9.118-3.1037-.103-1.906-1.9832-4.4946-3.2711-6.4907-.2962-.4765-.5795-.9144-.7856-1.3007-.103-.1932-.1931-.3864-.2833-.5667h-.0129c-.6053-1.2878-.8886-2.4855-.9401-3.6317 1.8802-3.8378 3.9923-11.655 2.7302-13.3807 2.0348-1.3136 7.74-3.606 10.1611-3.6317-.5924.2833-.953.6696-.9015 1.1976.219 2.6916 2.859 6.1044 4.1855 8.4097 1.6871 2.9363-1.5454 3.1294-.953 6.5293.5924 3.3871 4.1469 3.3098 7.6756 2.6916-.528 2.3182-1.4167 5.3832-.85 7.212z" fill="#fff"/>
  <path fill-rule="evenodd" clip-rule="evenodd" d="M16.8321 29.9166c-.4378.9015-.8628 1.5712-1.2234 1.906-.2576-.4894-.4765-1.1333-.9273-1.4553-.2189.7599-.4507 1.5068-.6825 2.2667-2.0992-2.4727-8.6543-6.4779-6.143-10.8179 1.1204-1.9447 3.1423-3.2325 4.9839-4.3658 2.4469-1.5068 3.6832-1.9576 6.2847-1.2492a.817.817 0 01.4379.3219c1.262 1.7386-.8629 9.5558-2.7303 13.3936zM41.9582 26.3363c-.5152-.309-.7084-1.5711-.9917-2.0605-.1159 1.906-.1288 3.8507.1288 5.7438-.322-.1417-.6568-.2833-.9788-.425-.0128.2061-.3992 2.1249-.3992 2.1249-3.5287.6182-7.0703.6955-7.6756-2.6916-.6052-3.3999 2.6273-3.593.9531-6.5293-1.3136-2.3181-3.9666-5.7309-4.1855-8.4097-.0516-.528.309-.9272.9014-1.1976 1.8159-.8758 5.3704-.6697 7.6112-.4122 2.2409.2576 6.9286.9917 8.2809 3.7605.9014 1.8288-2.6916 10.702-3.6446 10.0967zM19.7427 32.0415c1.1204 2.0605 4.2627 1.481 4.8036-.8757-1.3393-2.5113-4.5847-1.4682-4.8036.8757zm3.3484-.7985c-.2576.0129-.4765-.1932-.4894-.4507-.0129-.2705.1932-.4894.4507-.5023.2576-.0129.4894.1932.5023.4508 0 .2704-.2061.4893-.4636.5022zM27.6113 41.2368c1.3523 3.812 5.8983 2.9105 5.8855-.9402-.0129-3.0006-6.8642-1.8545-5.8855.9402zm5.0741-1.4682c-.0129.2576-.2318.4637-.5022.4508-.2576-.0129-.4637-.2447-.4508-.5023.0129-.2576.2318-.4636.5023-.4507.2704.0257.4636.2447.4507.5022z" fill="#003021"/>
  <path d="M35.9695 45.1389c.0644.3348-1.3265 2.2279-4.1468 2.7173h-.0387c-2.8075.5023-4.765-.8113-4.8294-1.1333-.0386-.1932.0773-.3735.2705-.3992.2962-.0515 1.9832.4894 4.3142.0773 2.331-.4122 3.7219-1.4939 4.0181-1.5455.2189-.0386.3864.0902.4121.2834z" fill="#fff"/>
</svg>
