<svg xmlns="http://www.w3.org/2000/svg" width="34" height="27" fill="#62ac44" xmlns:v="https://vecta.io/nano"><path d="M13.012 11.202L7.274 9.315C6.439 11.468 2.03 23.117 3.549 25.12c1.675 2.209 7.693-.38 9.445 0s1.536-.836 1.536-.836l-1.518-13.083zm4.413-6.543c-.46-.628-3.074-.495-3.074-.495s-.663-1.423-1.091-1.687c-.499-.307-1.895-.252-1.895-.252s.13-2.061-.499-2.215c-1.2-.293-2.797 6.108-3.299 8.263 1.351.548 3.882 1.525 5.31 1.763l-.014-.121s.05-1.041.744-1.289c.467-.167 2.777-.641 3.422-1.289.476-.48.796-2.132.396-2.678zm2.13 10.285c1.032-.311 2.638-.881 3.963-1.729-.052-.69.171-1.459.265-1.928.148-.744-.05-1.168-.447-2.232-.072-.191-.395-2.314-1.041-2.38-.637-.065-1.488 2.082-1.488 2.082s-1.835 0-2.055.818c-.264.983-1.278 1.518-1.318 1.661-.152.553.116 2.057.998 2.286.538.14.928.84 1.121 1.421zm4.413-.677a1.24 1.24 0 0 1-.212-.26c-.713.387-2.856 1.522-4.045 1.847.486 2.289.208 8.068.223 8.316.02.367-.219.595-.042.888.271.448.803.49 1.431.376s5.305 1.181 8.235-.044c3.595-2.165-2.402-9.873-5.59-11.123z"/><path d="M3.396 24.397c-2.497-1.92-2.52-6.34-3.158-5.005-.597 1.248-.013 4.261 1.102 5.584 1.025 1.215 3.138 1.157 3.222.395m26.086-2.445c.981.618 2.764-2.013 1.286-2.901-.931-.558-1.034-.728-1.296-1.161-.632-1.039.196-3.944 1.79-4.318 1.185-.277 1.262.811.611 1.166-1.546.919-1.675 2.461-.623 3.213.595.425 1.014.728 1.273 1.676.366 1.337-.732 3.463-2.842 4.131 0 0-1.174.264-1.39-.217"/></svg>