<svg xmlns="http://www.w3.org/2000/svg" width="30" height="29" fill="none" xmlns:v="https://vecta.io/nano"><path d="M14.57 10.237c-.004-.118.04-.233.121-.319s.193-.137.311-.141c.009 0 .018.002.027.003s.018-.003.027-.003c.118.004.23.054.311.141s.124.201.121.319v.929c.004.118-.04.233-.121.319s-.193.137-.311.141c-.009 0-.018-.002-.027-.003s-.018.003-.027.003c-.118-.004-.23-.054-.311-.141s-.124-.201-.121-.319v-.929zm-4.31-4.995c-.025.055-.06.105-.104.146s-.096.073-.152.095-.117.031-.177.029-.12-.017-.174-.042l-.824-.346c-.114-.044-.206-.131-.257-.242s-.054-.238-.011-.353a.46.46 0 0 1 .239-.258.46.46 0 0 1 .351-.012l.884.371c.111.052.197.145.239.26s.038.242-.013.353zm2.302 1.555c-.038.047-.084.086-.137.116s-.111.047-.171.054-.121.001-.179-.016-.112-.046-.159-.084l-.713-.528c-.101-.069-.171-.175-.195-.295s.001-.244.069-.346c.033-.05.076-.094.126-.127s.106-.057.165-.069.12-.012.179 0 .115.035.165.069l.778.576c.095.077.155.189.168.311s-.023.243-.099.339h0zm1.777 2.142c-.05.034-.106.057-.165.069s-.12.012-.179.001-.115-.035-.166-.069-.093-.077-.127-.127c-.163-.245-.34-.481-.528-.707-.078-.094-.116-.215-.105-.337s.069-.235.162-.314c.046-.039.1-.068.157-.086s.118-.025.178-.019.119.023.172.051.101.066.139.113c.209.251.404.513.586.785.068.102.093.226.069.346s-.093.226-.194.295h0zm1.177 18.512a.46.46 0 0 1-.459.462c-.01 0-.019-.002-.029-.003s-.019.003-.029.003a.46.46 0 0 1-.459-.462v-.462a.46.46 0 0 1 .459-.462c.01 0 .019.002.029.003s.019-.003.029-.003a.46.46 0 0 1 .459.462v.462zm0-2.328a.46.46 0 0 1-.459.462c-.01 0-.019-.002-.029-.003s-.019.003-.029.003a.46.46 0 0 1-.459-.462v-.933a.46.46 0 0 1 .459-.462c.01 0 .019.002.029.003s.019-.003.029-.003a.46.46 0 0 1 .459.462v.933zm0-2.799a.46.46 0 0 1-.459.462c-.01 0-.019-.002-.029-.003s-.019.003-.029.003a.46.46 0 0 1-.459-.462v-.933a.46.46 0 0 1 .459-.462c.01 0 .019.002.029.003s.019-.003.029-.003a.46.46 0 0 1 .459.462v.933zm0-2.799a.46.46 0 0 1-.459.462c-.01 0-.019-.002-.029-.003s-.019.003-.029.003a.46.46 0 0 1-.459-.462v-.933a.46.46 0 0 1 .459-.462c.01 0 .019.002.029.003s.019-.003.029-.003a.46.46 0 0 1 .459.462v.933zm0-2.799a.46.46 0 0 1-.459.462c-.01 0-.019-.002-.029-.003s-.019.003-.029.003a.46.46 0 0 1-.459-.462v-.933a.46.46 0 0 1 .459-.462c.01 0 .019.002.029.003s.019-.003.029-.003a.46.46 0 0 1 .459.462v.933zm0-2.799a.46.46 0 0 1-.459.462c-.01 0-.019-.002-.029-.003s-.019.003-.029.003a.46.46 0 0 1-.459-.462v-.933a.46.46 0 0 1 .459-.462c.01 0 .019.002.029.003s.019-.003.029-.003a.46.46 0 0 1 .459.462v.933zm1.367-5.819c-.188.226-.364.462-.528.707-.033.05-.076.093-.127.127s-.106.057-.166.069-.12.012-.179-.001-.115-.036-.165-.069c-.101-.069-.171-.175-.194-.295s.002-.244.069-.346a9.32 9.32 0 0 1 .586-.785c.038-.047.086-.085.139-.113s.112-.045.172-.051.121.001.178.019.111.048.157.087c.093.079.152.192.162.314s-.027.243-.105.337zm1.971-1.768l-.713.528c-.047.038-.101.067-.159.084s-.119.023-.179.016-.118-.025-.171-.054-.099-.068-.137-.116c-.076-.096-.112-.217-.099-.339s.073-.233.168-.311l.778-.576c.05-.034.106-.057.165-.069s.12-.012.179 0 .116.035.166.069.093.077.126.127c.068.102.092.226.069.346s-.094.226-.195.295zm2.376-1.215l-.824.346c-.055.025-.114.04-.174.042s-.121-.007-.177-.029-.108-.053-.152-.095-.08-.091-.104-.146c-.051-.111-.055-.238-.013-.353s.128-.208.239-.26l.884-.371a.46.46 0 0 1 .351.012.46.46 0 0 1 .239.258c.043.114.039.241-.011.353s-.142.199-.257.242zm2.596-.72l-.881.191a.46.46 0 0 1-.554-.341.46.46 0 0 1 .337-.557l.928-.201a.46.46 0 0 1 .536.37c.022.12-.004.244-.072.345a.46.46 0 0 1-.294.194h0zm2.696-.32l-.905.068-.044.002c-.118-.001-.231-.047-.317-.129s-.136-.193-.141-.312a.46.46 0 0 1 .415-.481l.941-.071a.46.46 0 0 1 .483.436.46.46 0 0 1-.116.332c-.081.091-.195.147-.317.154zm2.295-.026h-.014l-.452-.009a.46.46 0 0 1-.452-.468.47.47 0 0 1 .465-.456l.466.011a.46.46 0 0 1 .445.468.46.46 0 0 1-.459.454zM24.174.51C20.511.51 16.078 2.065 15 3.721 13.927 2.067 9.491.51 5.826.51H.322v5.566a.46.46 0 0 0 .459.461c3.312 0 6.302.986 7.623 2.509.235.241.413.531.524.849s.149.656.114.991c-.706 5.218-5.651 16.843-5.701 16.96a.46.46 0 0 0 .036.437.46.46 0 0 0 .386.208h22.246a.47.47 0 0 0 .174-.034c.113-.047.202-.137.249-.25s.047-.24.001-.353-4.796-11.756-5.474-16.964c-.083-.638.135-1.259.649-1.849 1.323-1.521 4.312-2.502 7.612-2.502a.46.46 0 0 0 .459-.461V.51h-5.504zM1.705 4.049l-.452.009H1.24a.46.46 0 0 1-.459-.454.46.46 0 0 1 .445-.468c.156-.007.312-.009.466-.011.122 0 .239.048.326.134s.137.201.14.323a.46.46 0 0 1-.452.468zm2.777.106c-.015 0-.029 0-.044-.002a27.33 27.33 0 0 0-.904-.069.46.46 0 0 1-.436-.486.46.46 0 0 1 .486-.436 24.46 24.46 0 0 1 .94.071.46.46 0 0 1 .414.482.46.46 0 0 1-.458.44zm3.183.101c-.024.1-.081.189-.162.253s-.181.098-.283.098a.45.45 0 0 1-.11-.011c-.284-.071-.58-.135-.881-.19-.12-.024-.226-.094-.294-.195s-.094-.226-.071-.346c.011-.059.033-.116.066-.167s.075-.094.125-.128.106-.058.165-.07.12-.013.179-.001a17.86 17.86 0 0 1 .929.2c.119.03.221.105.284.21s.082.23.053.349z" fill="#62ac44"/></svg>