<svg xmlns="http://www.w3.org/2000/svg" width="23" height="39" fill="none" xmlns:v="https://vecta.io/nano"><path fill-rule="evenodd" d="M17.216 3.931c0-.401.325-.726.726-.726s.726.325.726.726-.325.726-.726.726-.726-.325-.726-.726zm-5.823 2.585c-2.79 1.751-4.831 4.624-6.454 8.118-1.585 3.41-2.775 7.412-3.885 11.529l.588-.408c2.429-1.654 4.82-3.639 6.894-5.9 1.435-1.529 2.891-3.337 4.085-5.478.503-.903 1.102-1.93 1.463-2.744.184-.414.399-.573.559-.531.182.046.163.473.079.962-.154.896-.634 2.23-1.069 3.013-1.151 2.074-2.437 3.794-4.025 5.536-2.028 2.228-4.35 4.199-6.694 5.858-.723 1.824-1.182 3.165-1.519 4.503C.959 32.79.734 34.567.384 37.512c-.029.25-.043.448.152.663.246.271.666.291.936.044 2.342-2.138 4.269-4.962 5.748-8.014 1.284-2.65 2.234-5.479 2.83-8.184 1.399-.517 2.68-1.366 3.792-2.351l.3 1.643h-.848c-.365 0-.662.297-.662.662a.66.66 0 0 0 .662.661l3.836.002c.365 0 .662-.297.662-.661a.66.66 0 0 0-.662-.662l-1.643-.001-.504-2.763a17.8 17.8 0 0 0 2.429-3.336c1.488-2.643 2.152-5.479 1.501-7.488l-.078-.223.808-1.103.182-.261c.511.037 1.059-.352 1.163.31.071.298.107.647.101 1.046-.001.046.026.086.07.103s.091.005.121-.031c.938-1.088 1.086-2.847.152-4.245-.574-.86-2.166-2.157-3.321-2.36-1.225-.214-2.666.236-3.682 1.615l-3.036 3.938z" fill="#62ac44"/></svg>