<svg xmlns="http://www.w3.org/2000/svg" width="27" height="28" fill="#62ac44" xmlns:v="https://vecta.io/nano"><path d="M7.885 13.139c-.386-2.627-1.157-3.592-3.36-4.294a1.84 1.84 0 0 0-1.778.444C1.403 10.415.481 13.116.74 15.176c.197 1.543.66 2.585 1.427 3.163.503.362 1.113.547 1.732.525.238-.001.475-.02.71-.058 2.234-.34 3.688-2.886 3.275-5.667zm.47-3.175a4.92 4.92 0 0 0 2.766 1.1 2.21 2.21 0 0 0 .324-.023c1.682-.239 2.697-2.785 2.253-5.64a7.37 7.37 0 0 0-1.427-3.472C11.546 1.025 10.685.597 9.856.724 8.139.987 5.77 3.768 6.199 6.565a5.42 5.42 0 0 0 2.157 3.399zm8.692 1.192a2.02 2.02 0 0 0 .22 0c1.215 0 3.086-.806 4.244-2.226.772-.953 1.543-2.573.795-4.869-.771-2.454-1.929-3.526-3.472-3.287-1.698.262-3.295 2.866-3.8 5.131-.424 1.894-.293 3.433.363 4.336a2.22 2.22 0 0 0 1.651.914zm9.579 3.291c-.143-.945-.374-2.102-.872-2.874a2.03 2.03 0 0 0-2.187-.907c-2.06.324-4.082 2.45-3.723 4.826a9.19 9.19 0 0 0 1.385 3.588c.729 1.073 1.578 1.647 2.419 1.647a1.77 1.77 0 0 0 .282-.023c2.072-.32 3.048-3.958 2.697-6.257zm-9.324 4.591c-1.157-.845-2.431-1.802-3.472-3.422l-.131-.185-.12.189c-1.053 1.62-2.346 2.577-3.472 3.422-1.501 1.111-2.797 2.076-2.797 4.116 0 1.84 1.007 3.41 2.45 3.819s2.812-.359 3.939-2.087c.934 1.424 2.072 2.187 3.221 2.187a2.64 2.64 0 0 0 .729-.104c1.443-.409 2.45-1.979 2.45-3.819 0-2.041-1.296-3.005-2.797-4.116z"/></svg>