<svg width="468" height="255" fill="none" xmlns="http://www.w3.org/2000/svg"><path d="M424.239 11.037c45.086 24.305 55.633 94.973 30.25 146.901-25.267 51.83-86.463 84.919-141.633 94.192-55.286 9.272-104.545-5.466-163.076-22.157-58.415-16.789-126.102-35.53-144.415-72.621-18.313-37.091 12.633-92.337 56.793-116.447 44.043-24.109 101.067-16.983 169.334-24.5 68.267-7.515 147.776-29.575 192.747-5.368z" fill="#63AC44"/><path d="M393.787 187.736c14.643 1.62 18.069 6.331 9.825 9.793-8.206 3.456-28.082 5.661-46.001 6.28-17.956.618-33.954-.365-52.964-1.477-18.973-1.12-40.957-2.369-46.905-4.842-5.947-2.473 4.104-6.156 18.446-7.763 14.305-1.607 32.825-1.132 54.997-1.633 22.173-.501 47.996-1.972 62.602-.358z" fill="#509B30"/><path d="M336.738 100.774c-1.613 1.613-1.411 4.235.202 5.848 3.63 3.63 7.261 5.849 10.689 7.462 4.235-3.428 9.479-4.638 11.899-4.437v-1.008c-4.235-.202-10.286-1.815-16.941-8.067-1.613-1.412-4.235-1.412-5.849.202zm59.294 72.2c-1.21-3.227-4.639-4.84-7.866-3.832l-4.84 1.815 5.042-14.924v-.403c.403-.202.605-.403.605-.807l3.428-43.36c0-1.009-.403-2.219-1.411-2.824-9.681-6.252-19.16-6.655-28.033 0-.605.403-1.009 1.008-1.009 1.614 1.815 1.008 3.832 1.21 4.84 1.21 2.017.201 3.631 2.016 3.227 4.235-.201.807-.605 1.412-.806 1.815.403.202.605.403.806.605.807.807 1.614 1.008 2.017 2.218 2.42-2.621 2.824-4.638 2.824-4.638.605-3.429 3.63-5.647 7.058-5.042 3.429.605 5.647 3.63 5.042 7.059-.202 1.613-2.823 13.915-22.789 22.587l1.21 14.521c0 .404.201.605.605.807l-8.067 23.395c-.807 2.218-.202 4.638 1.411 6.252 1.815 1.613 4.236 2.218 6.252 1.411l1.614-.605c-1.815-2.218-2.42-5.042-1.412-7.865l7.462-22.588h2.219l-7.664 23.395c-.807 2.218-.202 4.638 1.613 6.252 1.614 1.613 4.034 2.218 6.252 1.411l16.739-5.848c3.026-1.21 4.639-4.639 3.631-7.866zm-70.789-67.965c2.218-.404 3.832-2.421 3.428-4.639-.403-2.218-2.42-3.832-4.638-3.429-6.05 1.009-12.907-.403-18.756-3.63.403 1.21 0 1.614-.202 9.076 6.252 2.42 13.311 3.63 20.168 2.622zm-38.52 50.218c-3.227-.404-6.252-1.21-9.278-2.622l.202 32.47c0 3.428 2.824 6.05 6.05 6.05 1.614 0 3.227-.605 4.236-1.815-.807-1.21-1.21-2.622-1.21-4.235v-29.848zm3.63.201h-1.614l.202 29.647c0 3.63 3.025 6.05 6.05 6.05 3.429 0 6.051-2.823 6.051-6.05l-.202-31.462c-3.428 1.21-6.857 1.815-10.487 1.815zm1.815-68.974c5.792 0 10.487-4.695 10.487-10.487S297.96 65.48 292.168 65.48s-10.488 4.695-10.488 10.487 4.696 10.487 10.488 10.487zm-8.269 17.143c-1.412-3.025 0-6.655 3.227-8.067 3.025-1.412 6.655 0 8.067 3.227 1.815 3.832 4.235 7.663 7.664 11.092l.605-15.328c0-1.008-.404-2.016-1.412-2.621-6.857-4.236-13.714-4.437-20.773-.605-1.008.403-1.613 1.21-1.613 2.218l-.807 19.563-6.857 33.68c10.891 8.067 23.798 8.672 35.092 1.21l-2.824-20.974c-9.68-6.857-16.537-14.723-20.369-23.395z" fill="#fff"/><path d="M377.074 102.387c5.346 0 9.681-4.334 9.681-9.68s-4.335-9.681-9.681-9.681c-5.346 0-9.68 4.334-9.68 9.68s4.334 9.681 9.68 9.681zm-59.293 26.016c1.21-2.016.403-4.437-1.412-5.647-11.496-6.857-19.361-14.722-23.193-23.394-1.008-2.017-3.227-3.026-5.445-2.017-2.017 1.008-3.026 3.227-2.017 5.445 4.437 10.286 13.512 19.361 26.621 27.025 1.815 1.21 4.437.605 5.446-1.412z" fill="#fff"/><path d="M343.999 140.302c-.807-3.226 1.008-6.655 4.437-7.462 5.849-1.613 10.487-3.428 13.916-5.243 2.016-2.824 4.638-5.647 7.663-5.244 0 0 .404-1.815-1.21-2.017 0 0 0-2.42-4.437.404 0 0-5.647 6.252-9.277 7.26 0 0-3.428-6.857 5.244-9.075 0 0 2.823 1.008 4.437-.202 0 0 1.815-.403 2.622-2.017 0 0 .403-.605.605-1.412.201-.806-.404-1.613-1.21-1.613-1.21 0-3.631-.403-6.051-1.613 0 0-8.874-1.614-15.731 8.268 0 0-5.243 7.059-7.26 15.328-9.075 9.075-15.327 14.521-15.327 16.941 0 0-2.824-.404-2.219 8.47 0 0 1.008 7.866-6.05 9.076 0 0-.605 2.621 3.63-.202 0 0 4.033-1.412 4.033-10.891 0 0 2.219 5.849.807 10.084 0 0-2.017 5.244-5.445 7.059l.202 8.269s2.218 3.025 2.218-2.42c0 0 .807-5.042 4.034-7.664 0 0-.202 6.857 2.218 9.882 0 0 2.218 1.009.605-3.63 0 0 .403-7.866 4.437-13.512 0 0 2.218-5.244 1.008-11.093 0 0 9.883-6.252 15.933-11.294-1.815-1.008-3.227-2.621-3.832-4.437z" fill="#3C3C3C"/><path d="M384.738 117.311c.403-2.218-1.21-4.235-3.429-4.639-2.218-.403-4.235 1.211-4.638 3.429 0 .202-2.622 11.899-27.832 18.554-2.218.605-3.428 2.824-2.823 5.042.605 2.219 2.823 3.429 5.042 2.824 30.655-8.067 33.68-24.403 33.68-25.21z" fill="#fff"/><path d="M355.293 98.353c2.823-2.823-1.412-6.857-4.034-4.033-2.823-2.824-6.857 1.412-4.033 4.033l4.033 4.034 4.034-4.034zm-4.84-14.52l5.647 1.411 1.411-5.647c1.009-3.832-4.638-5.243-5.647-1.411-3.832-.807-5.243 4.84-1.411 5.647zm-26.219 3.226l5.647 1.412 1.412-5.647c1.009-3.832-4.638-5.243-5.647-1.412-3.63-.806-5.243 4.84-1.412 5.647zm15.933-10.083l6.656-6.857c4.436-4.437-2.219-11.093-6.656-6.656-4.437-4.437-11.092 2.219-6.655 6.656l6.655 6.857z" fill="#3E3E3E"/></svg>