<svg version="1.2" xmlns="http://www.w3.org/2000/svg" width="451" height="501"><path fill-rule="evenodd" d="M450.5 275.6c0 124.2-101 225.2-225.2 225.2C101.1 500.8.1 399.8.1 275.6c0-104.7 71.8-193 168.8-218.1v-.2c0-31.2 25.3-56.5 56.5-56.5s56.5 25.4 56.5 56.5v.2c96.9 25.1 168.7 113.4 168.6 218.1zM183 54.4c13.7-2.7 27.9-4.1 42.4-4.1s28.7 1.5 42.4 4.1c-1.5-22.1-19.9-39.6-42.4-39.6S184.5 32.3 183 54.4zm253.8 221c0-97.6-66.6-180-156.7-204.1-3.8 14.7-13.3 27-26.1 34.5v.4c0 15.7-12.8 28.5-28.5 28.5S197 121.9 197 106.2s12.8-28.5 28.5-28.5c10.5 0 19.6 5.8 24.6 14.2 7.9-5.6 13.8-13.9 16.4-23.6-13.3-2.6-27.1-4-41.1-4-116.5 0-211.3 94.8-211.3 211.3 0 116.5 94.8 211.3 211.3 211.3 116.5 0 211.3-94.8 211.4-211.5zM237.4 98c-2.6-3.8-7-6.3-12-6.3s-9.4 2.5-12 6.3q5.8 1.8 12 1.8 6.3 0 12-1.8zm-12 15.7c-4.6 0-9-.5-13.4-1.6 2.3 5.2 7.4 8.8 13.4 8.8s11.2-3.6 13.4-8.8c-4.3 1.1-8.8 1.7-13.4 1.6zm-36.1 65.9c.5 4.5.5 8.4.1 13.5-.4 3.2-.6 6.3-1.5 9-.5 1.4-.9 2.7-1.4 3.7-.9 1.5-2.1 2.4-3.5 3.6l-3.9 3c-3 1.5-6 2.7-10 3.2-3.7.5-7.7.3-11.5.4-.5 5.8-.5 11.8-.5 17 0 2.7.1 4.8 0 7.7-.1 3.6.1 7 0 10.6-3 .6-5.5 1.7-8.6 1.3-2.4-.1-3.9-.6-6.3-.8-.5-2.7-.6-5.9-.5-9.5.1-3.5.1-7 0-10.4 0-3 .3-5.7-.1-8.6-.4-3.2 0-6.4 0-9.7.1-3 0-5.5 0-8.5 0-2.7.4-5.3.4-7.9 0-2.1 0-3.9-.1-5.8 0-.9.1-1.4.1-2.3 0-.6-.1-1.4-.1-2.1-.1-2.4.3-5 .1-7.5-.1-1.4-.3-2.3-.1-3.7 0-1.2.1-2.3 0-3.7 0-1.4-.4-2.3-.4-3.5 0-1.9.1-4.4 0-6.4.4-.4.6-.3 1-.6 2.7-.4 6.7.3 9.9.4 2.4 0 4.6-.4 7.1 0 1.4-.4 3.2 0 4.9 0 1.4.1 2.6-.1 3.7.3.4 0 .6.3 1 .3 1.2.1 2.3 0 3.3.4 2.4.6 4.6 1.3 7.1 2.3 1.4.5 1.8.8 3 1.8 1 1 1.7 2.2 2.6 3.2.5.6.9 1 1.3 1.7.6.9 1.2 2.2 1.7 3.6.3 1.1.8 2.5 1.2 4zm-18-1c-3.6-1.9-9.1-1.4-13.9-1 .4 7.7-.9 14.3.1 22 5 .9 10.3.8 14-1.2l1.2-1.7c.1-.1.1-.5.1-1.3.1-.4.4-.4.4-.8.4-.9.3-2.1.3-3.1.4-1.5.4-3 .5-4.4.1-2.8-1.2-5.9-2.7-8.5zm77.4 74c-.6.4-.9.2-1.2-.3l-16-.3c-4.5-.1-8.8.7-13.8.8-5.7.3-10.5.1-16 .1-.4-.4-.6-.3-1-.7-.4-5.2 0-10.2-.4-15.2-.1-2.5.1-5.1 0-7.5-.4-5-.1-9.6 0-14.8.2-.6-.1-.8.3-1.2-.4-.6 0-1.2 0-1.8 0-1.5-.3-3.1-.3-4.5-.1-1.4-.1-2.6-.1-4-.2-1.2-.3-2.9.1-3.9-.1-5 .3-11.3-.1-17 0-.2 0-.2-.1-.3v-.4h.1c.1-6.3.1-13 .1-18.7.3-.3.6-.5.6-.9 11.3-.9 22.6.1 34.1-.4 3.6-.1 7.2.3 10.8.3 1.1 0 2-.3 3 .1 0 .3.2.8.3 1.7.1.6.1 1.7.5 2.3 0 3.2.2 5.5-.4 8.5 0 1.1-.2 2.7-.6 3.9-1.4.4-2.5 0-3.7 0-2.4-.1-4.3 0-6.7 0-2.2 0-4.2-.3-6.3-.3-5 .1-10 0-15.3 0 0 .9 0 1.3.1 1.4v.3c0 1.5-.2 3-.3 4.5l-.1.1c-.2 5.3-.9 10.7.6 15.2 5 0 11.5-.5 16.1 0 1.5-.4 2.8-.1 4.3-.1.4 0 .8.1 1.2.1.9 0 2.2-.3 3.1.1.9 4.1 1.3 9.7.3 14.9-.9.1-1.8.1-2.7.1-3.2-.1-6.3-.2-9.5-.1 0 .1 0 .2-.1.1-4-.4-8 0-12.5 0-.4 6.1-.9 14.9-.3 21.6 8.3 0 17.9.8 26.1.4.7 0 1.2-.1 1.7-.4.9.4 2.2-.1 3.1.3.5-.4.9-.6 1.3-.3.7 3 1.3 7.6.3 11.1.4 1.4-.4 3.3-.6 5.2zm62.5-75.3c-.6.4-1.2-.1-1.8-.1-2.1-.4-4.6 0-7 0-1.7 0-3.4.1-5.3 0h-1.8c-.7-.1-.7-.5-1.3-.1-.6 3.5-.2 6.4-.1 9.9 0 1.9-.3 3.9-.3 5.8 0 1.4.3 3 .3 4.5 0 2.4-.3 4.7-.4 6.4.6 1.6.2 3.3.3 4.8 0 .3.3.6.3 1 .4 2.4 0 5.1 0 7.7 0 2.6-.1 5.1-.1 7.7-.1 2.2 0 4.4 0 6.8-.1 2.4 0 4.9 0 7.3 0 4.7-.5 8.7-.5 13.5-2 .2-3.8.8-5.7.8-.1 0-.3-.1-.4-.1-1.5.4-3.4-.2-5.1-.3-1.5-.2-3.1-.3-4.5-1.2.4-4.6 0-8.9 0-13.9 0-4.5.5-8.6.5-13.4 0-5.1-.1-10-.1-15.1s-.5-10.1-.1-15.1c.4-4-.1-7.2.3-11.2.1-2.4.5-3.5.1-5.9-3.2-.1-6.4 0-9.9 0-1.4 0-3-.3-4.4-.3-1.4 0-2.8 0-4-.5-1.4-4.5-.7-10.8.8-15.1 2.9-.3 6.9.3 10.4.3 9.3.1 19.7-.3 29.1.1 3.4.4 6.5.2 9.5.1.4 0 .8-.5 1.2-.4.6 0 1.4 3.7 1.4 4.3.4 1.7.5 3.5.5 5-.1 2.7-.9 4.5-1.9 6.7zm-192 160.8c0 1.2-.4 2.3-.4 3.5-.1 2.2-.5 4.3-1.4 6.2l-2.2 4c-1.4 2.5-3.9 3.6-6.3 5.5-1.4 1-2.9 1.8-4.8 2.3-1.4.4-3.5.9-5.4 1.3-1.4.2-2.3-.1-3.3.3-2-.4-4.2-.1-6.4-.5-1.1-.1-2.2 0-3.4-.4-1.9-.5-4-1.2-5.5-2.6-.6-.5-.9-1-1.9-1.4-1.2-1.6-2.2-2.8-3.6-4.2-.4-1.4-1.2-2.3-1.9-3.5-.3-.5-.5-1.2-.6-1.9-.4-.6-.7-1.1-.8-1.8-.4-1-.3-2.2-.4-3.6 0-1.4-.3-2.7-.3-4.1-.1-1.4 0-2.7 0-4.1 0-1.5.1-2.9 0-4.3-.4-2.2.3-5.9.3-8.1-.2-3.4-.8-6.9-.7-10 0-.9.1-1.4.1-2.3v-1c0-.4.3-.5.3-.9 0-.9-.1-1.4-.1-2.3 0-2.9-.1-6.7.3-9.9.2-1.9-.1-3.8.3-5.5.4-1.7.8-3.6 1.3-5.3.6-2.4 1.3-4.5 2.7-6 .4-2 2.4-2.9 4.3-3.9l4.4-2.4c1.4-.6 2.7-1.4 4.6-1.8.9-.1 1.7-.1 2.6-.1 3.2-.4 6.1 0 9.1.4 1.4.4 2.8.1 4.2.5 1.2.4 2.2 1.2 3.4 1.3.6.9 1.5 1.3 2.4 1.9.1.2.1.4.5.8s.5.1.9.5l1 1.2.9 1.2c1 1.1 1.9 2.4 2.8 3.7 2.4 5 2.7 12.2 2.3 19.4-.6.4-1.3.4-2.3.4-2 .1-3.6.5-6.1.5-1.4 0-2.3.1-4.2-.3-1.5-.4-2.4-.4-3-1 .1-3.7.7-7.7-.5-10.7-.3-.5-.2-1.1-.6-1.5-1.2-2.1-5.7-3.3-8.9-2.7-1.2.1-2.2.6-3.1 1-.9.5-1.3 1.4-2.2 1.9-2.1 3.7-.8 8.5-.8 13.5 0 7.8-.4 15-.3 22.2.2 3 .3 5.7.3 8.4 0 3-.2 5.5.4 8.5.5 2.6 1.9 3.8 4 4.8 2.2.4 4.1 1.2 6.2.3.5-.2 1.2-.8 1.8-1.2 1.1-.5 2.7-1.2 3.4-2.2.3-.5.1-1.3.6-1.8-.3-2.5 1.2-5.7.3-8.9.2-.9.3-1.3.3-1.3 2.7-1.3 6.2-1.7 10.2-1.3 1 .2 2.2.6 3.2.7.9 0 1.6-.1 2.1.4.1 1.5 0 3.1 0 5 0 1.2-.1 2-.1 3.2zm11.6-66.8c.5 0 .5-.4.6-.8 3.1-.4 6.4-.5 10.4-.5 1.7 0 3.3-.1 4.5.5.6 5.6.3 11.4.3 17.6.1 4.5.1 9.2.1 14.2 0 1.6-.4 3.6 0 5 .1.3.4.2.4.6.1.7 0 1.5 0 2.1v1.7c0 1.4.1 2.7.1 3.9-.2.5-.3.9-.3 1.4-.1 1.5 0 3.4 0 4.3 0 5.5-.7 11.5-.3 17.6l.5 5.4c.3 5.6.3 11 0 16.4-1.1.9-2.6.7-4.1.8-2.6.4-5.1.5-8.1.1-1.4-.2-2.8.1-3.7-.8-.5-8.2-.2-15.7-.1-22.9.1-6.7-.3-14.7-.4-22.4 0-7.8.1-15.6 0-21.8 0-8.2.1-15.6.1-22.4zm29.5 88.5c0-2.6 0-5.4.1-9.4.1-2.4.5-4.6.1-7.1-.1-1 0-2.2 0-3.2.1-2.7.1-5.5.1-8.5 0-5.3.4-11.3 0-18-.1-3 .4-5.8.4-8.9 0-2.4-.1-4.4 0-7.1.1-3.5.3-7.6.3-11.8 0-5.5-.3-9.5-.1-14.5.1-.4.5-.6.4-1.2 3-.4 6.4-.4 9.5-.4 7.7 0 16 .4 22.7 1.9 1.9.5 3.1.8 4.5 1.7.1.4.4-.4.8 0 3 1.9 5.3 4.8 7 7.9.4 1.7 1 2.7 1.7 3.9.4 1.4.8 2.6.9 3.7.5 2.2 0 4.8.1 7.2.1 1.2.3 2.3.1 3.5-.1 2.7-.5 5.3-1.2 7.9-.5 2.2-1.2 4.1-2.2 5.8-1.7 2.6-3.6 4.5-6.1 6.4-.9.9-1.7 1.8-2.8 2.3.9 3.1 1.7 6.4 3.1 9.1.6 2.4 1.4 4.8 2.3 7.2l2.4 7.1c1.4 3.5 2.6 7.1 3.7 10.8.6 1.7 1.7 3.1 1 4.8-2.7.9-6.8 1.2-10.6.3-1.9-.4-3.4-.9-4.9-1-1.2-3.7-2.3-7.2-3.7-11.3-.9-2.6-1.4-5.1-2.3-7.9-1.4-4.5-2.8-8.7-4.4-13.3-.4-.9-.9-1.7-1-3.1-1.2.4-3.7.4-5.3 0-.4 6.1-.6 12.6-.5 18.9 0 .5-.1 1-.1 1.5.1 3.5.3 6.8.1 10.1v3.5c-.1.9-.7 1.3-.7 2.2-2.6 1-5.7 1-9.1.6-2.3-.5-4.1-.7-6.3-1.6zm2-88.5c0-.1.4-.4 0-.4-.1.4-.6.4 0 .4zm15 36.8c5.5.1 10.7.1 13.9-2.1.9-.9.8-1.8 1.2-3.3.4-2.1.4-3.7.4-5.8-.1-2.7.4-5.9-.5-7.9-.4-.9-1.2-1.7-2.4-2.3-1.9-.9-5-.9-7.5-.8-1.4.1-3.5 0-5.1 0 0 4.8.1 11.2 0 16.5-.3 2-.5 4.2 0 5.7zm89.4 30c0 1.2-.4 2.3-.4 3.5-.1 2.2-.5 4.3-1.4 6.2l-2.2 4c-1.4 2.5-3.9 3.6-6.3 5.5-1.4 1-2.9 1.8-4.8 2.3-1.4.4-3.5.9-5.4 1.3-1.4.2-2.3-.1-3.3.3-2-.4-4.2-.1-6.4-.5-1.1-.1-2.2 0-3.4-.4-1.9-.5-4-1.2-5.5-2.6-.6-.5-.9-1-1.9-1.4-1.2-1.6-2.2-2.8-3.6-4.2-.4-1.4-1.3-2.3-1.9-3.5-.4-.5-.6-1.2-.7-1.9-.4-.6-.7-1.1-.8-1.8-.4-1-.3-2.2-.4-3.6 0-1.4-.3-2.7-.3-4.1-.1-1.4 0-2.7 0-4.1 0-1.5.1-2.9 0-4.3-.4-2.2.3-5.9.3-8.1-.2-3.4-.8-6.9-.7-10 0-.9.1-1.4.1-2.3v-1c0-.4.3-.5.3-.9 0-.9-.1-1.4-.1-2.3 0-2.9-.1-6.7.3-9.9.2-1.9-.1-3.8.3-5.5.4-1.7.8-3.6 1.3-5.3.6-2.4 1.3-4.5 2.7-6 .4-2 2.4-2.9 4.3-3.9l4.4-2.4c1.4-.6 2.7-1.4 4.6-1.8.9-.1 1.7-.1 2.6-.1 3.2-.4 6.1 0 9.1.4 1.5.4 2.9.1 4.3.5 1.2.4 2.2 1.2 3.4 1.3.6.9 1.5 1.3 2.4 1.9.1.2.1.4.5.8s.5.1.9.5l1 1.2.9 1.2c1 1.1 1.9 2.4 2.8 3.7 2.4 5 2.7 12.2 2.3 19.4-.6.4-1.3.4-2.3.4-2 .1-3.6.5-6.1.5-1.4 0-2.3.1-4.2-.3-1.5-.4-2.4-.4-3-1 .1-3.7.7-7.7-.5-10.7-.3-.5-.2-1.1-.6-1.5-1.2-2.1-5.7-3.3-8.9-2.7-1.2.1-2.2.6-3.1 1-.9.5-1.3 1.4-2.2 1.9-2.1 3.7-.8 8.5-.8 13.5 0 7.8-.4 15-.3 22.2.2 3 .3 5.7.3 8.4 0 3-.2 5.5.4 8.5.5 2.6 1.9 3.8 4 4.8 2.2.4 4.1 1.2 6.2.3.5-.2 1.2-.8 1.8-1.2 1-.5 2.7-1.2 3.3-2.2.3-.5.1-1.3.6-1.8-.3-2.5 1.2-5.7.3-8.9.2-.9.3-1.3.3-1.3 2.7-1.3 6.2-1.7 10.2-1.3 1 .2 2.2.6 3.2.7.9 0 1.6-.1 2.1.4.1 1.5 0 3.1 0 5zm55 23.1c-.6.3-1.8-.2-2.7-.3-2.2-.1-4.6-.1-7 0-1.5.1-3.1 0-4.6 0-3 .1-6.2.5-8.9.5-5.7 0-11.9-.2-17.9-.3-.2-.1 0-.4.1-.9-.2-.1-.2-.1-.3-.1-.2 0-.4 0-.5-.1-.1-5.5.7-11.6.3-17.1-.1-1.1-.4-2.7-.4-3.7q.3-1.7.3-3v-2.8l-.5-5.3c0-1.5.4-3 .4-4.9 0-3.1-.1-6.3-.1-9.5.1-3.2.1-6.5 0-9.8 0-6.7.1-13.1 0-19.4-.1-4.6.3-9.1.3-13.7.4 0 .7-.2.8-.6 1.4-.3 2.6-.5 4-.6 2.5-.1 6.2.3 8.6.3 1.1 0 1.7-.2 2.1.5.4.3 0 .9 0 1.5 0 3.6.4 8.4 0 12.5-.1 2.9 0 5.6 0 8.6.2 1.4-.1 2.6-.1 4 0 3.1.7 6.4.3 9.9-.1 1.6 0 3.4 0 5.1 0 1.9-.1 3.5 0 5l.4 3.2c0 1.1-.2 2.2-.1 3.4 0 1.4.5 2.7.5 4.1 0 .6.1 1.3.1 1.9.1 4.6-.5 11.1 0 16.1 2.2.5 4.5.1 6.7 0s4.3.1 6.2 0c4.5-.4 8.9.4 12.9.4.5 2.7.9 5 1 8 .1 2-.1 3.4-.5 4.8-.4.9-.3 1.9-1.4 2.3zm57.3-.2c-.6.3-.9.2-1.2-.3l-16-.3c-4.5-.1-8.8.7-13.8.8-5.7.4-10.5.1-16 .1-.4-.3-.6-.2-1-.6-.4-5.2 0-10.2-.4-15.2-.1-2.5.1-5.1 0-7.5-.4-5-.1-9.7 0-14.8.2-.6-.1-.8.3-1.2-.4-.6 0-1.2 0-1.8 0-1.5-.3-3.1-.3-4.5-.1-1.4-.1-2.6-.1-4-.2-1.2-.3-2.9.1-3.9-.1-5 .3-11.3-.1-17 0-.2 0-.2-.1-.3v-.4h.1c.1-6.3.1-13 .1-18.7.3-.2.6-.5.6-.9 11.3-.9 22.6.1 34.1-.4 3.6-.1 7.2.3 10.8.3 1.1 0 2-.3 3 .1 0 .3.2.8.3 1.7.1.6.1 1.7.5 2.3 0 3.2.2 5.5-.4 8.5 0 1.1-.2 2.7-.6 3.9-1.4.4-2.5 0-3.7 0-2.4-.1-4.3 0-6.7 0-2.2 0-4.2-.3-6.3-.3-5 .1-10 0-15.3 0 0 .9 0 1.3.1 1.4v.3c0 1.5-.2 3-.3 4.5l-.1.1c-.2 5.3-.9 10.7.6 15.2 5 0 11.5-.5 16.1 0 1.5-.3 2.8-.1 4.3-.1.4 0 .8.1 1.2.1.9 0 2.2-.3 3.1.1.9 4.1 1.3 9.8.3 14.9-.9.1-1.8.1-2.7.1-3.2-.1-6.3-.2-9.5-.1 0 .1 0 .2-.1.1-4-.4-8 0-12.5 0-.4 6.1-.9 14.9-.3 21.6 8.3 0 17.9.8 26.1.4.7 0 1.2-.1 1.7-.4.9.4 2.2-.1 3.1.3.5-.4.9-.6 1.3-.3.7 3 1.3 7.6.3 11.1.4 1.4-.4 3.4-.6 5.1zm-237.4 62.5c-2.1.1-4.9.1-6.6-.4 0-1.1-.1-2.3-.1-3.5 0-1.3 0-2.5.1-3.7 2.3-.5 4.5-.4 7-.1.5.8.5 2.2.4 3.4 0 1.3-.1 2.5-.3 3.7zm30.2-11.5c0 .5-.2 1.1-.2 1.7-.1 1.1-.3 2.1-.7 3.1l-1.1 2c-.8 1.3-2 1.8-3.2 2.8-.7.6-1.4.9-2.4 1.2-.7.1-1.7.4-2.7.6-.7 0-1.2-.1-1.7.1-1-.2-2.1-.1-3.2-.3-.5-.1-1.1 0-1.7-.2-1-.3-2-.6-2.8-1.3-.4-.2-.5-.5-1-.7-.6-.8-1.1-1.4-1.8-2.1-.2-.7-.7-1.1-1-1.7-.2-.3-.2-.7-.3-1-.2-.3-.3-.6-.4-.9-.2-.5-.1-1.1-.2-1.8 0-.7-.1-1.4-.1-2.1-.1-.7 0-1.4 0-2.1 0-.7.1-1.4 0-2.1-.2-1.1.1-3 .1-4.1 0-1.7-.4-3.5-.3-5 0-.5.1-.7.1-1.2v-.5c0-.2.1-.2.1-.4 0-.5-.1-.7-.1-1.2 0-1.5-.1-3.4.1-5 0-1-.1-2 .1-2.8.2-.8.3-1.8.6-2.6.4-1.2.7-2.2 1.4-3 .2-.9 1.1-1.4 2.1-1.9l2.2-1.2c.7-.3 1.3-.7 2.3-.9.5-.1.8-.1 1.3-.1 1.6-.2 3.1 0 4.6.2.7.2 1.4.1 2.1.3.6.1 1.1.5 1.7.6.3.5.7.7 1.2 1 .1.1.1.2.3.4.2.2.3.1.5.3l.5.6.4.6c.5.6.9 1.2 1.4 1.9 1.3 2.5 1.4 6.1 1.2 9.7-.4.2-.7.2-1.2.2-.9.1-1.8.3-3 .3-.7 0-1.1.1-2.1-.1-.7-.2-1.2-.2-1.5-.5 0-1.8.3-3.8-.3-5.3-.2-.3-.1-.6-.3-.8-.5-1.1-2.8-1.7-4.4-1.4-.5 0-1 .3-1.5.5-.5.3-.7.7-1.1 1-1 1.9-.4 4.3-.4 6.8 0 3.9-.2 7.5-.1 11.1 0 1.5.1 2.8.1 4.2 0 1.5-.1 2.8.2 4.3.3 1.3 1 1.9 2 2.4 1.1.2 2.1.5 3.1.1.3-.1.6-.4.9-.6.5-.3 1.4-.6 1.7-1.1.2-.3 0-.6.3-.9-.2-1.2.5-2.8.1-4.4 0-.5.1-.7.1-.7q2.1-.9 5.1-.6c.5 0 1.1.2 1.6.3.4 0 .7-.1 1 .2.1.8 0 1.5 0 2.5 0 .5.1 1.2.3 1.6zm29.7-8c0 .2-.1.3-.1.4 0 3.6.2 7.8-.6 10.8.2 1-.3 1.9-.6 2.6-.5.7-.7 1-1.2 1.7s-1 1-1.7 1.5l-.6.5c-.5.3-.8.5-1.3.7q-1.4.7-3 1.2c-1.2.3-2.3.6-3.5.6-.5-.1-1-.3-1.5-.3-.7-.1-1.1 0-1.7-.2l-1.4-.6c-.5-.3-.8-.5-1.2-.7l-1.2-.8c-.7-.6-1.3-1.3-2-1.8l-.8-1.2c-.5-.7-.9-1.5-1.2-2.5-.3-1-.5-1.9-.5-3.1 0-1.4-.5-2.6-.3-4.1 0-.5 0-.8.1-.8 0-.6.1-1.8.1-2.4 0-.3-.1-.4-.1-.6-.1-2.8.1-5.7.1-8.6V392c0-1.9.1-3.4.1-5.3.1-.6-.1-1.2.1-1.9 0-.2.2-.4.3-.6.2-.7.4-1.2.8-1.7.3-.5.6-.6 1-1 .8-.8 1.5-1.7 2.6-2.3 1.1-.6 2.4-.8 3.4-1.5 2-.3 4.2-.8 6.4-.4.8.2 1.5.8 2.3 1l.5.1c1.3.4 2.2 1.4 3.2 1.9 1.2 1.4 1.8 2.9 2.5 4.5s.7 3.7.7 5.5l.1 6.7c.1 1 0 2 0 3 .1 1.2-.1 2.3.1 3.4 0 .3.1.4.1.6zm-7.9 3.4c-.1-1.3-.1-2.3-.1-3.2-.1-.8-.1-1.4.1-2.1-.5-1.2-.3-2.9-.4-4.4-.1-1.2.1-2.8-.1-4.1-.1-1 .1-2.3 0-3.5 0-.6.1-1.2 0-1.7-.2-.8-.6-1.5-1.1-2l-.5-.2c-.2-.2-.1-.3-.3-.3-.1-.1-.3 0-.3-.1l-.2-.2q-.5-.3-1.2-.3c-1 .1-2.4.3-3.3 1-.3.2-.8.9-1 1.2-.3.8-.2 1.3-.2 2.3 0 5-.3 9.3-.1 14.2.1 1.8.3 3.7.1 5.6-.1 1.8.1 3.7 1 5 .1.2 0 .3.1.3l.8.7c2.3.6 4.4.1 5.5-1.3.1-.2.3-.1.3-.3.1-.1 0-.3.1-.3.1-.2.2-.2.2-.3l.1-.5c.1-.2.2-.4.2-.5.2-.8 0-1.5.1-2.2.2-.9.2-1.8.2-2.8zm47.7 15.8c-1 .2-2 .5-3.2.5-1.5.1-2.8-.2-4.3-.4-.5-1-.4-2-.4-3.2-.1-3.6-.1-7-.1-10.9 0-1.7-.1-4.3-.1-6.3v-4.4c-.7 1.7-1 3.6-1.7 5.3-.5 2.1-1.2 3.9-1.9 5.9l-.4 1.5c-.3 1-.6 2-.8 3.1-.3 1-.7 2.2-1 3.5-.5.2-1 .2-1.5.3-1.6.2-3 .3-4.8.1-.1-.3 0-.3.2-.5-.1-.1-.3 0-.3-.2-.8-3.6-2.1-6.3-3-9.6-.2-.8-.5-1.7-.8-2.5-.1-.2-.2-.5-.3-1-.7-2.1-1.4-4.2-2.3-6.4-.2.8-.1 1.6-.1 2.3 0 1-.2 1.7-.2 2.7 0 2.5.1 5 .3 7.8.2 4.1.5 8.6 0 12.4-.3.2-.3-.1-.5-.1-1.1.1-2.4.6-3.7.4-1.2-.2-2.5-.5-3.5-.5-.1-1.1.1-2.1.1-3.3 0-1.1-.1-2.3-.1-3.3 0-.8.1-1.7.1-2.5 0-2.1-.2-4.1-.2-6.2 0-1.5-.1-2.8.1-4.3-.2-3.9 0-7.7-.2-11.8 0-.5.1-1.2.1-1.9.1-.6 0-1.2 0-1.7 0-.1.1-.3.1-.3-.3-.3-.2-1.2-.2-1.7 0-1.2-.2-2.5-.2-3.9 0-1.3 0-2.7.1-4 .3-.2.5-.1.8-.1 1 0 2-.2 3.1-.4.7-.1 1.5 0 2.3 0 1.1-.1 2.1.3 3.2.4.5 0 .8-.1 1.2.1.2.6.5 1.4.5 1.9.3.2.3.5.3.8.2.5.4.9.3 1.4.5.7.6 1.6.8 2.4.8 3.1 1.5 6.2 2.5 9.3.8 3 1.9 6 2.4 9.2.2-.5.5-1.2.6-1.9.5-1.5.9-2.8 1.2-4.4 0-.2.2-.1.1-.3-.1.1-.1 0-.1-.1l1.5-5.3c.7-1.9 1-3.8 1.5-5.7.7-2.5 1.7-4.8 2-7.5.5 0 .6-.3 1-.3h.2c.2 0 .2-.1.3-.1.5-.1.9-.1 1.4-.1.3 0 .7-.1 1-.1 1.2-.1 2.3 0 3.4.2 1 .1 2.1.2 3 .5.1 1.4-.3 2.8-.2 4.3 0 .5.2.8 0 1.3.3 1.5.1 3 .1 4.6 0 .3.1.7.1 1-.1.1-.1.3-.1.9.2 3.3-.1 6.1.1 8.9.2 3.6-.2 6.8 0 10 0 .5.1 1 .1 1.5 0 .7-.3 1.4-.1 1.8.1.2.2.1.2.3 0 .3-.2.5-.2.8 0 1 .2 1.8.2 2.8 0 2.5.2 4.8 0 7zm-24-42.9c-.1 0-.1.2 0 .2 0-.1.1-.1.2-.1l-.1-.1zm.3.1-.1.1c.1 0 .2 0 .1-.1zm-.1.1v-.1.1zm.2 1.1c0 .1-.1 0-.1.2.1 0 .2 0 .3-.1-.1-.1-.2-.1-.2-.1zm38.1 41.9c-2.1.1-4.9.1-6.6-.4 0-1.1-.1-2.3-.1-3.5 0-1.3 0-2.5.1-3.7 2.3-.5 4.5-.4 7-.1.5.8.5 2.2.4 3.4 0 1.3-.1 2.5-.3 3.7zm33.1-1.2c.1.3.3.4.1.8-2.8.2-4.8.4-7.7.2-.1-.1-.1-.2-.3-.3-.1-1.2-.4-1.9-.6-3-.5-2-1-3.5-1.2-5.6-3.2-.2-5.5.2-8.8.2-.7 2.8-1.1 5.9-2.1 8.6-2.3.2-5.3.4-7.6.1-.3-.2-.1-.5-.1-.8.3-1.5.6-3.4.8-5.1.2-.7.3-1.4.4-2.1.3-1.5.5-3 .8-4.6l.6-2.4c0-.7.2-1.1.4-1.6.2-1.3.3-3.1.6-4.6l.5-2 .2-1.1c.2-.4.5-.8.3-1.3.1-.2.2-.1.3-.3.2-1.6.7-3.9 1-6 .1-.6.3-1.2.5-1.7 0-.7.1-1.1.3-1.7q.3-.5.3-1.2c.2-1.1.3-2.3.5-3.5l.2-.9c.2-.7.3-1.8.5-2.6.2-.7.3-1.5.7-2.1 3-.6 6.2-.4 9.5-.1.2 0 .1.3.3.2.3 2.1.8 4.1 1.2 6.1l.3 2.1.5 1.9c.5 2 .8 3.9 1.3 6 .7 3.9 1.7 7.3 2.4 11.5q.4 1.8.6 3.6c.2 1 .6 1.9.9 3 .5 2.1.8 4.2 1.3 6.2l.3 1.6.3 1.5zm-11.4-15.9c-.5-2.5-1-5.2-1.7-8-.3-1.5-1.2-3.3-1.2-4.8-.8 4.4-1.8 8.6-2.8 13 2 .1 4-.1 5.7-.2zm31 16.8q-3 .7-6 .3c-1-.1-1.6-.3-2.3-.4-.5-.2-1-.5-1.5-.7-.5-.3-1.1-.5-1.5-.8-.6-.5-.8-.9-1.5-1.4-.8-1.2-1.9-2.1-2.4-3.6-.2-.8-.4-1.5-.5-2.2-.2-1.5-.3-3.2-.3-4.8 0-.8.1-1.5.2-2.2 0-1-.5-2.4 0-3.2-.3-.1-.1-.6-.1-1.1 0-3.2-.2-5.7 0-9.6.2-3.3 0-6.8 0-10.1.1-1.6.2-3.2 0-4.7q.1-.1.1-.2c.1.1.1.1.3.1 0-.1-.1-.1-.1-.2v-.1l3-.5c1.5-.2 3.1.3 4.6.4.6.6-.1 2.1.3 2.8-.3.2.1.5-.1.7.2 1.1.1 2.4.1 3.6 0 1.3.1 2.6 0 3.9 0 2.2.1 4.8.1 7.6l-.2 7.9c-.1 2 .1 4 .1 5.7 0 1.2-.2 2.2.3 3.3.5 1.1 1.2 1.7 2.4 2 .4.1 1 .3 1.7.2.2 0 .4-.1.6-.2.2-.1.4 0 .6-.1.8-.2 2-.8 2.3-1.5.2-.3.1-.6.2-1 .2-.6.2-1.2 0-1.5.2-1.5.1-3.4 0-5.2-.1-1.6-.1-3.8-.1-5.1 0-.1.2-.4-.1-.4 0-.2.2.1.1-.2 0-2.3.1-4.7.2-7.1V389c0-1.7-.1-3.2-.1-5.1 0-.3.1-.6.1-1 0-.3-.1-.6-.1-.9l.1-3.9c.5-.2 1-.3 1.7-.4.6-.1 1.2-.2 1.7-.1 1.5-.5 3.2-.1 4.4.4.1.2 0 .4.2.5.2 3.6-.4 6.5-.2 9.9.1 1.2.1 2.3.1 3.6 0 2.5-.1 4.8-.1 7.2 0 2.1.2 4.2-.1 6.4.3 1.5-.1 3.5-.1 5.2.1.8.2 1.9.1 2.6-.1.2-.1.5-.3 1-.2.7-.3 1.8-.5 2.6-.1.2-.2.2-.2.4-.1.1 0 .2-.1.4l-.4.5c-.5.7-.7 1.2-1.4 1.7-.5.4-.8.8-1.2 1.2-.2.2-.5.2-.8.4-.2.2-.4.3-.6.4l-.8.3-.8.5zm-15.8-44.7q.1 0 .2-.1c-.1 0-.2 0-.2.1z" style="fill:#00b1b9"/></svg>