<svg width="35" height="36" fill="none" xmlns="http://www.w3.org/2000/svg"><path d="M20.615 12.47c-.455-.175-.735-.7-.595-1.155.175-.665.28-1.365.245-2.1-.14-3.605-3.045-6.51-6.65-6.685C9.625 2.355 6.3 5.54 6.3 9.495a6.94 6.94 0 0 0 1.96 4.865c.35.35.385.945.035 1.33A10.897 10.897 0 0 0 5.6 22.865c0 1.645.35 3.22 1.015 4.69.42.875 1.295 1.47 2.275 1.47.245 0 .525-.035.77-.105.28-.105.455-.35.42-.665-.035-.14-.035-.315-.07-.49-.245-2.31-.63-7 .175-9.345.245-.735.56-1.085.945-1.085.21 0 .42.105.63.315.07.035.14.105.175.175l.07.14c.245.315.455.7.665 1.12.175.35.315.7.455 1.05.07.175.21.28.385.35.07.035.14.035.21.035.105 0 .175-.035.245-.07a.617.617 0 0 0 .28-.525v-.245c-.035-1.085.035-2.345.455-2.765a.562.562 0 0 1 .385-.175c.77 0 1.575 1.68 2.1 3.115.105.245.35.385.63.35l4.305-.595c.21-.035.42.035.595.14.175.14.315.35.35.595v.21c.07 1.575.035 4.9-1.54 6.51-.735.735-1.715 1.225-2.66 1.54a.506.506 0 0 1-.245.07c-1.19.42-1.89 1.575-1.68 2.835a2.51 2.51 0 0 0 2.45 2.065c.28 0 .56-.035.805-.14 4.34-1.505 7.42-5.53 7.595-10.01a10.9 10.9 0 0 0-3.08-8.155 10.993 10.993 0 0 0-4.095-2.8Zm-9.835.525a1.99 1.99 0 0 1-1.785-1.12c-.14-.28 0-.63.28-.77s.63 0 .77.28.42.455.735.455c.455 0 .805-.35.805-.805 0-.315.28-.595.595-.595.315 0 .595.28.595.595 0 1.05-.91 1.96-1.995 1.96Zm5.565-1.225c-.105 0-.175.035-.28.035h-.07a1.99 1.99 0 0 1-1.715-1.12c-.14-.28 0-.63.28-.77s.63 0 .77.28.42.455.735.455c.455 0 .805-.35.805-.805 0-.315.28-.595.595-.595.315 0 .595.28.595.595 0 .98-.77 1.82-1.715 1.925Z" fill="#62AC44"/><path d="M13.58 22.165c-.315.035-.56.315-.525.63.035.315-.21.595-.49.595a.494.494 0 0 1-.525-.28c-.175-.28-.525-.385-.805-.21-.28.175-.385.525-.21.805.315.525.875.84 1.505.84h.175a1.778 1.778 0 0 0 1.575-1.89c-.07-.28-.385-.525-.7-.49ZM18.34 21.465c-.035-.21-.14-.385-.315-.455a1.022 1.022 0 0 0-.315-.07c-.14 0-.245.07-.35.175-.14.105-.21.28-.175.49.035.315-.21.595-.49.595a.494.494 0 0 1-.525-.28c-.175-.28-.525-.385-.805-.21-.28.175-.385.525-.21.805.315.525.875.84 1.505.84h.175a1.724 1.724 0 0 0 1.505-1.89ZM20.965 22.235l.595-.035a.876.876 0 0 0 .63-.28c.175-.175.245-.42.245-.665a.83.83 0 0 0-.595-.805c-.105-.035-.21-.07-.35-.07l-.595.035c-.21 0-.42.105-.595.245l-.035.035c-.175.175-.245.42-.245.665.035.49.42.875.91.875h.035ZM28.91 4.595a1.666 1.666 0 0 0-1.085-.91c-.07 0-.175-.035-.28-.035-.525 0-1.19.35-1.645.735-.14-.665-.63-1.365-1.225-1.54-.175-.035-.315-.07-.49-.07-.805 0-1.47.56-1.715 1.47-.035.105-.07.63 0 .945.21 1.26 1.155 2.66 1.715 3.5.07.105.105.175.175.245.105.175.315.28.525.28a.506.506 0 0 0 .245-.07c1.645-.77 2.765-1.54 3.43-2.345.21-.245.42-.735.455-.805.105-.525.07-.98-.105-1.4Z" fill="#62AC44"/></svg>