<svg id="Layer_1" data-name="Layer 1" xmlns="http://www.w3.org/2000/svg" viewBox="0 0 611.04 611.03"><defs><style>.cls-1{fill:#5fa403;stroke:#69b445;stroke-width:1.84px;}.cls-2,.cls-4{fill:#003021;}.cls-3{fill:#fff;}.cls-4{fill-rule:evenodd;}</style></defs><path class="cls-1" d="M583.54,313.48a273.24,273.24,0,0,1-466.46,193.2A273.24,273.24,0,0,1,503.51,120.26,271.49,271.49,0,0,1,583.54,313.48Z" transform="translate(-4.79 -7.97)"/><path class="cls-2" d="M310.3,8C141.58,8,4.79,144.74,4.79,313.48S141.58,619,310.3,619,615.82,482.21,615.82,313.48,479,8,310.3,8Zm0,578.75A273.26,273.26,0,0,1,117.08,120.26,273.24,273.24,0,1,1,503.51,506.68,271.41,271.41,0,0,1,310.3,586.72Z" transform="translate(-4.79 -7.97)"/><path class="cls-3" d="M421.4,425.59c11.72,37.87-5.07,49.6-80.44,64.72l-1.35.23c-76,11.57-95.8,6.3-97.74-33.3-1.08-20.43-21.24-48.18-35.1-69.57-3.23-5.06-6.15-9.78-8.4-13.92-1.12-2.08-2.11-4.11-3-6.09l-.13,0a100.43,100.43,0,0,1-10-39c20.14-41.15,42.84-125,29.28-143.5,21.82-14,83-38.61,108.92-38.9-6.35,3-10.21,7.23-9.72,12.88,2.3,28.8,30.71,65.38,44.86,90.2,18.05,31.52-16.6,33.6-10.17,70.05s44.43,35.51,82.24,28.84C424.89,373.12,415.42,406,421.4,425.59Z" transform="translate(-4.79 -7.97)"/><path class="cls-4" d="M185.18,328.68c-4.66,9.6-9.25,16.85-13.16,20.44-2.7-5.21-5.16-12.09-9.93-15.54-2.36,8.11-4.78,16.18-7.27,24.32C132.29,331.4,62,288.39,89,242c12-20.79,33.75-34.72,53.46-46.76C168.77,179,182,174.17,209.83,181.77a8.05,8.05,0,0,1,4.63,3.41C228,203.73,205.32,287.53,185.18,328.68Z" transform="translate(-4.79 -7.97)"/><path class="cls-4" d="M454.53,290.34c-5.53-3.37-7.58-16.83-10.64-22-1.18,20.46-1.36,41.31,1.41,61.64-3.49-1.52-7-3-10.46-4.53-.18,2.17-4.25,22.83-4.25,22.83-37.81,6.67-75.82,7.52-82.24-28.84s28.22-38.53,10.17-70.05c-14.15-24.82-42.56-61.4-44.86-90.2-.49-5.65,3.37-9.88,9.72-12.88,19.42-9.42,57.61-7.14,81.62-4.43s74.31,10.68,88.81,40.31C503.39,201.72,464.8,296.73,454.53,290.34Z" transform="translate(-4.79 -7.97)"/><path class="cls-4" d="M216.47,351.51c12,22.06,45.77,15.84,51.47-9.46C253.6,315.11,218.79,326.37,216.47,351.51Zm35.85-8.6a5.09,5.09,0,1,1,4.89-5.29A5.09,5.09,0,0,1,252.32,342.91Z" transform="translate(-4.79 -7.97)"/><path class="cls-4" d="M300.85,450.06C315.37,490.9,364,481.24,363.93,440,363.81,407.79,290.27,420.06,300.85,450.06Zm54.34-15.7a5.08,5.08,0,0,1-5.35,4.79,5.15,5.15,0,0,1-4.79-5.4,5.06,5.06,0,0,1,5.33-4.79A5.12,5.12,0,0,1,355.19,434.36Z" transform="translate(-4.79 -7.97)"/><path class="cls-3" d="M390.45,491.86c.62,3.55-14.29,23.84-44.45,29.16l-.37.06c-30.17,5.32-51.12-8.65-51.74-12.2a3.61,3.61,0,0,1,3-4.31c3.24-.57,21.23,5.22,46.2.81s39.9-16,43.13-16.56A3.62,3.62,0,0,1,390.45,491.86Z" transform="translate(-4.79 -7.97)"/></svg>