<svg xmlns="http://www.w3.org/2000/svg" width="34" height="29" fill="none" xmlns:v="https://vecta.io/nano"><path d="M27.197.776c-1.114.542-1.447 1.834-1.447 3.017 0 .411.193.735.416.976.684.666 1.682.998 2.543 1.053a14.18 14.18 0 0 1-.701 1.371c.396.264.773.654 1.052.998.488-.791.929-1.723 1.271-2.699A10.66 10.66 0 0 0 31.307 5c.791-.452 1.505-.971 1.94-1.393.308-.243.341-.762.067-1.042s-.793-.259-1.043.044c-.234.227-.842.65-1.447 1.02.123-1.467-.397-2.753-1.962-3.083-.598-.12-1.132.009-1.666.23zM28.6 1.917c.256.05.498.196.745.538.215.811.124 1.262-.066 1.843-.557.184-1.187.055-1.666-.187-.192-.079-.323-.227-.46-.362.012-.843.374-1.574.658-1.711.291-.149.505-.136.789-.121zm-8.033 3.499c-4.389-.045-9.142 2.14-13.48 6.132C5.351 8.355 2.575 9.063.84 7.644c-.347 3.903 1.045 5.675 3.474 5.32 0 2.129-1.038 4.263-3.814 4.618l.69 2.479c3.123 1.064 7.639 2.135 10.762 2.49 0 1.064.347 3.904 0 6.033h2.082c.694-1.774 1.041-3.905 1.041-6.033h4.165l5.206-1.064c0 2.484 1.041 4.969 1.041 7.098h2.422c.347-2.839 1.73-8.511 1.742-9.226.307-3.061 1.381-8.515-1.742-11.354-2.212-1.73-4.71-2.562-7.343-2.589zM6.287 16.299c.484 0 .877.393.877.878s-.393.878-.877.878-.877-.393-.877-.878.393-.878.877-.878zm17.283 6.066l-3.781.779v5.09h2.104c.657-1.645 1.308-3.607 1.677-5.869zm-16.034.121c.294 2.056-.022 4.392-.022 5.748h2.104c.658-1.647.699-3.306.701-5.244a55.32 55.32 0 0 1-2.784-.505h0z" fill="#62ac44"/></svg>