<svg width="41" height="41" viewBox="0 0 41 41" fill="none" xmlns="http://www.w3.org/2000/svg">
<path d="M20.5991 40.9752C31.8372 40.9752 40.8277 31.9847 40.8277 20.7466C40.8277 9.50854 31.8372 0.518066 20.5991 0.518066C9.36102 0.518066 0.370544 9.50854 0.370544 20.7466C0.370544 31.9847 9.36102 40.9752 20.5991 40.9752ZM6.50042 11.3475L31.0199 34.028C28.1593 36.2757 24.4814 37.5016 20.5991 37.5016C11.4043 37.5016 3.84414 30.1458 3.84414 20.7466C3.84414 17.273 4.86578 14.0038 6.50042 11.3475ZM34.6978 30.1458L10.3827 7.46525C13.2433 5.21763 16.7169 3.99166 20.5991 3.99166C29.9983 3.99166 37.3541 11.5518 37.3541 20.7466C37.3541 24.2202 36.3325 27.4895 34.6978 30.1458Z" fill="#404040"/>
</svg>
