<svg width="22" height="22" viewBox="0 0 38 38" fill="none" xmlns="http://www.w3.org/2000/svg">
<path d="M19.0335 0C29.4885 0 38 8.51146 38 19.0335C38 29.4885 29.4885 38 19.0335 38C8.51146 38 0 29.4885 0 19.0335C0 8.51146 8.51146 0 19.0335 0ZM19.0335 9.3157C22.9877 9.3157 26.2046 12.5326 26.2046 16.4868C26.2046 19.1675 24.7302 21.5132 22.5855 22.7196C26.4727 23.9929 29.4885 27.2769 30.3598 31.2981C33.7108 28.2822 35.7884 23.8589 35.7884 19.0335C35.7884 9.78483 28.2822 2.27866 19.0335 2.27866C9.78483 2.27866 2.27866 9.78483 2.27866 19.0335C2.27866 23.8589 4.35626 28.2822 7.64021 31.2981C8.51146 27.2769 11.5273 23.9929 15.4145 22.7196C13.2698 21.5132 11.7954 19.1675 11.7954 16.4868C11.7954 12.5326 15.0794 9.3157 19.0335 9.3157ZM28.3492 32.9065V32.8395C27.8801 28.0811 23.7919 24.4621 19.0335 24.4621C14.2081 24.4621 10.1869 28.0811 9.71781 32.8395V32.9065C12.3316 34.716 15.5485 35.7884 19.0335 35.7884C22.4515 35.7884 25.6684 34.716 28.3492 32.9065ZM19.0335 11.5944C16.2857 11.5944 14.0741 13.806 14.0741 16.4868C14.0741 19.2346 16.2857 21.4462 19.0335 21.4462C21.7143 21.4462 23.9259 19.2346 23.9259 16.4868C23.9259 13.806 21.7143 11.5944 19.0335 11.5944Z" fill="#252525"/>
</svg>
