<svg width="23" height="22" viewBox="0 0 23 22" fill="none" xmlns="http://www.w3.org/2000/svg">
<path d="M3.03701 0.840492C5.81723 0.594047 8.72159 0.470825 11.7501 0.470825C14.7754 0.470825 17.6769 0.593793 20.4545 0.839729C21.5204 0.934108 22.3662 1.77098 22.4648 2.8288C22.7105 5.46526 22.8334 7.98 22.8334 10.373C22.8334 12.6371 22.7234 14.7918 22.5035 16.8371C22.391 17.8833 21.5482 18.7041 20.4923 18.7957C17.5782 19.0485 14.6641 19.1749 11.7501 19.1749C9.91927 19.1749 8.08847 19.125 6.25767 19.0252C5.56863 18.9877 4.46278 19.7163 2.94013 21.2112C2.5049 21.6385 1.80316 21.6346 1.37275 21.2026C1.18413 21.0132 1.07108 20.7624 1.05457 20.4966C0.796022 16.3341 0.666748 12.9522 0.666748 10.3509C0.666748 7.84224 0.786985 5.3332 1.02746 2.82385C1.1286 1.76852 1.97335 0.934777 3.03701 0.840492ZM11.8762 3.43229C10.1561 3.43229 8.73741 4.23029 7.88622 5.25882C7.74435 5.43615 7.76208 5.61348 7.90395 5.79082L8.75515 6.83708C8.91475 7.03215 9.10981 7.01442 9.30488 6.83708C9.97875 6.25188 10.7235 5.77308 11.7166 5.77308C12.5323 5.77308 13.4013 6.23415 13.4013 7.10308C13.4013 7.90108 12.9047 8.55721 10.7945 9.21335C10.6349 9.26655 10.5462 9.35521 10.5639 9.51481L10.7235 12.0152C10.7413 12.1748 10.8299 12.2812 10.9895 12.2812H12.3905C12.5501 12.2812 12.6387 12.1748 12.6565 12.0152L12.7806 10.4724C14.9618 9.39068 15.8485 8.45081 15.8485 6.78388C15.8485 4.78002 13.951 3.43229 11.8762 3.43229ZM11.6989 13.6467C10.9718 13.6467 10.4043 14.2141 10.4043 14.9235C10.4043 15.6505 10.9718 16.218 11.6989 16.218C12.4082 16.218 12.9757 15.6505 12.9757 14.9235C12.9757 14.2141 12.4082 13.6467 11.6989 13.6467Z" fill="#62AC44"/>
</svg>
