<svg xmlns="http://www.w3.org/2000/svg" width="28" height="35" fill="none" xmlns:v="https://vecta.io/nano"><path d="M8.172 8.103S11.517-.91 13.101.075s1.783 3.465.549 5.943c-1.143 2.297-2.614 3.962-2.614 3.962.998.821 1.22 3.122.375 4.976 0 0 4.753-.973 9.388 1.878s6.666 7.041 6.666 10.562-1.056 7.605-4.835 7.605H12.206c-.234 0-.426-.19-.397-.421.188-1.461 1.393-2.268 3.637-2.268-1.265-.291-2.72-2.122-2.908-3.225-1.685 1.797-2.563 4.49-2.85 5.506-.063.225-.296.409-.53.409H5.872c-.389 0-.728-.323-.622-.697.401-1.41 2.124-.47 2.124-5.874 0-2.934-5.328-5.011-3.051-11.876 0 0-4.424-.14-4.13-2.911s5.199-6.102 7.98-5.539z" fill="#000"/></svg>
