<svg width="57" height="37" viewBox="0 0 57 37" fill="none" xmlns="http://www.w3.org/2000/svg">
<path d="M56.4649 17.7819C56.6009 27.163 49.0552 35.0486 39.6741 35.3885C37.1588 35.4565 34.7796 34.9806 32.6042 34.0969C31.5166 33.621 31.0407 32.3294 31.5845 31.2417V31.1738C32.0604 30.29 33.1481 29.8822 34.0318 30.29C36.0712 31.1738 38.3825 31.5137 40.8297 31.1738C46.8799 30.358 51.6384 25.3955 52.2502 19.3454C53.066 11.0519 46.1321 4.05008 37.7706 4.86583C31.7885 5.40966 26.758 10.2362 26.0103 16.3543C25.8063 18.0538 25.8743 19.6853 26.2822 21.1808C26.4861 21.9286 26.2142 22.6764 25.6704 23.1522C24.5147 24.1719 22.6793 23.6281 22.3394 22.1325C21.7955 19.8892 21.6596 17.442 22.1354 14.9267C23.495 7.51702 29.6131 1.73879 37.0909 0.85506C47.4237 -0.368564 56.329 7.65298 56.4649 17.7819ZM20.164 35.9323C27.6418 35.0486 33.7599 29.2703 35.1195 21.8606C35.5953 19.3454 35.4594 16.8981 34.9155 14.5869C34.5756 13.0913 32.7402 12.4795 31.5845 13.5672C31.0407 14.043 30.8368 14.7908 30.9727 15.5386C31.3806 17.1021 31.4486 18.7336 31.2447 20.4331C30.4289 26.4832 25.4664 31.3097 19.3483 31.9215C10.9869 32.6693 4.05299 25.7354 4.86874 17.442C5.48055 11.3918 10.2391 6.42935 16.2892 5.6136C18.7365 5.27371 21.0478 5.68158 23.0872 6.49733C24.0389 6.9052 25.0585 6.49733 25.5344 5.6136V5.54562C26.0782 4.45796 25.6704 3.16635 24.5147 2.6905C21.9995 1.67081 19.1444 1.19496 16.1533 1.53485C7.99578 2.3506 1.46978 9.08054 0.789987 17.306C-0.0937422 28.1827 9.15142 37.2239 20.164 35.9323Z" fill="#404040"/>
</svg>
