<svg width="469" height="273" fill="none" xmlns="http://www.w3.org/2000/svg"><path d="M25.132 207.367c-37.655-34.722-30.356-105.799 7.107-149.814C69.564 13.603 137.053-3.284 192.8 1.408c55.859 4.72 177.935-5.892 230.502 24.787 52.43 30.744 35.352 102.78 43.899 143.253 8.547 40.473-35.128 86.324-83.885 98.735-48.644 12.439-102.123-8.599-170.122-18.239-68-9.641-150.496-7.979-188.062-42.577z" fill="#63AC44"/><path d="M428.089 191.931c14.643 1.62 18.069 6.331 9.825 9.793-8.207 3.455-28.083 5.661-46.001 6.279-17.956.619-33.955-.364-52.965-1.477-18.972-1.119-40.956-2.368-46.904-4.841-5.947-2.473 4.103-6.156 18.446-7.763 14.304-1.607 32.825-1.132 54.997-1.633 22.172-.502 47.996-1.972 62.602-.358z" fill="#509B30"/><path d="M388.312 166.337l-21.968.875h-.125l-4.618-4.501a.603.603 0 00-.874 0l-3.994 4.126a.606.606 0 000 .875l6.616 6.377c.249.25.499.75.499 1l.249 20.255c0 .375.25.625.625.625h7.738c.375 0 .624-.25.624-.625v-7.752l4.119 8.127c.125.25.499.5.874.5h7.738c.375 0 .5-.25.375-.625l-4.493-10.128c-.125-.375 0-.625.374-.625h9.112c.374 0 .624.25.624.625v10.003c0 .375.249.625.624.625h7.489c.374 0 .624-.25.624-.625l-.25-17.004-11.982-12.128zm33.076-5.001c-.25-.875-.999-.875-1.373-.75-1.872.375-5.367 1-5.367 1-.125 0-.25 0-.25-.125l-3.37-5.126c-.125-.251-.624-.501-.874-.501l-6.615-.75h-1.123s-8.488 1-8.363 1.251l2.621 11.877c.125.375.375.625.749.5l6.616-.25c.374 0 .624-.25.748-.625l1.124-6.001c0-.25.249-.5.499-.5h-.25.5-.25c.125.125.25.25.25.5l-1.623 6.626c-.125.375-.374.626-.749.626l-7.489.375c-.374 0-.624-.25-.749-.5l-1.373-6.377-4.743 3.251 11.483 11.627 3.87-3.875c.249-.25.624-.376.998-.501 0 0 12.232-.375 14.978-3.125 2.746-3.001.25-7.752.125-8.627z" fill="#fff"/><path d="M323.532 114.825a.685.685 0 00-.624-.375l-.249.125a.687.687 0 00-.375.625l.125.5 1.248-.375-.125-.5zm71.894-19.255a.686.686 0 00-.624-.375l-.25.125a.688.688 0 00-.374.625l.125.376 1.248-.376-.125-.375zm-66.651 21.505c1.497-.625 2.87-1.125 3.994-1.75 2.122-1.125 2.995-2.001 3.12-2.626l-12.107 3.251.624 2.501c1.623-.5 3.12-.876 4.369-1.376zm-18.473 2.501c.125.25.499.375.749.375.624.125 1.497.25 2.496.25 2.496 0 6.116-.5 9.736-1.5l-.624-2.501-12.357 3.376z" fill="#62AC44"/><path d="M323.283 118.701c.124 0 .374-.125.499-.125.249-.125.499-.125.749-.25l-.749-2.376-1.248.375.749 2.376zm77.51-21.13c1.498-.625 2.871-1.125 3.994-1.75 2.122-1.126 2.996-2.001 3.121-2.626l-12.232 3.25.624 2.501c1.622-.25 3.12-.75 4.493-1.375zm-18.597 2.625c.125.25.499.376.749.376.624.125 1.497.25 2.496.25 2.496 0 5.991-.501 9.611-1.5l-.624-2.501-12.232 3.375z" fill="#62AC44"/><path d="M395.177 99.446c.249 0 .374-.125.624-.125.249 0 .374-.125.624-.125l-.624-2.5-1.249.375.625 2.375z" fill="#62AC44"/><path d="M355.984 135.455s-.125.125-.249.125c.249.375.374.875.499 1.625v.125h.125s.125.125.249.5c0-.125 0-.375-.124-.625-.125-.875-.25-1.375-.5-1.75z" fill="#fff"/><path d="M356.484 137.33s-.125 0 0 0c-.125 0-.125 0 0 0-.125 0 0 0 0 0l.249.5c-.249-.375-.249-.5-.249-.5z" fill="#fff"/><path d="M356.484 137.33s-.125 0 0 0c-.125-.125-.125-.125 0 0-.125 0 0 0 0 0s.125.125.249.5c-.249-.375-.249-.5-.249-.5zm-2.622-2.751c.125.125.25.125.25.251l-.25-.251zm2.122.876l-.124.125.124-.125zm0 0s-.125.125-.249.125c.124 0 .249-.125.249-.125z" fill="#fff"/><path d="M353.862 134.579c.125.125.25.125.25.251l-.25-.251zm2.247 2.626c.125 0 .125.125.25.125 0-.125-.125-.125-.25-.125zm-1.997-2.376c.125.126.25.126.25.251 0-.125-.125-.251-.25-.251z" fill="#fff"/><path d="M354.112 134.829c.125.126.25.126.25.251 0-.125-.125-.251-.25-.251zm1.997 2.376c.125 0 .125.125.25.125-.125-.125-.125-.125-.25-.125z" fill="#fff"/><path d="M401.417 105.073c-.374-1.501-2.371-1.626-3.869-1.501l-.998-3.876c-.25 0-.375.125-.625.125-.249 0-.374.125-.624.125l.999 3.751c-.375.125-.749.125-.749.125l-21.468 5.752-3.121-4.001c-.374-.375-.998-.625-1.498-.5l-5.991 1.625c-1.373-.875-2.995-1.25-4.493-.75-1.498.5-2.746 1.5-3.495 3l-5.492 1.376c-.499.125-.998.625-1.123 1.125l-1.123 5.251-21.344 5.752s-.25.125-.749.25l-.998-3.626c-.25.125-.5.125-.749.25-.125 0-.375.125-.5.125l.999 3.876c-1.498.75-3.12 1.875-2.746 3.251.624 2.25 2.996 6.001 4.868 5.501 1.872-.5 1.997-1.625 1.997-1.625l.624-6.377s10.11-2.751 22.342-6.001l-.25-.125v.125l3.495 5.376.125.25.125.25-.375.75c-.499 1.125-.998 2.251-1.123 3.376-.25 1-.25 2-.125 2.876-.125 0-.125 0-.249-.125h-.25c-.25 0-.374-.125-.624-.125h-.499c-.749 0-1.373.25-1.623.5-.125.25-.25.375-.125.75.25.875.749 1.75 1.498 2.5a10.726 10.726 0 002.247 1.751c.374.25.749.375 1.123.625-.25-.5-.499-1.125-.749-1.875v-.125c-.125-.126-.249-.251-.374-.251-.5-.5-.999-1-1.248-1.375-.25-.5-.375-.75-.25-.875 0 0 .125-.125.25-.125.124 0 .374 0 .499.125.125 0 .249.125.374.25.125 0 .125.125.25.125s.125.125.25.125c.249 1 .499 1.876.748 2.501.375.875.624 1.375.874 1.875s.499.75.499.75l.25.25.25.25v-.25c0-.25 0-.5-.125-.75-.125-.75-.375-1.25-.499-1.625-.125-.25-.125-.375-.25-.625-.25-.5-.499-1.001-.874-1.876.125.125.25.25.375.25l.374.375c.25.25.375.5.624.751.25.5.375.75.25.875.249.375.374.875.499 1.625 0 .25.125.5.125.625.374.875 1.248 2.876 1.747 4.751.25.876.874 3.251 1.997 5.877.5 1.25.999 2.5 1.623 3.501.624 1.25 1.248 2.25 1.997 3 .624.75 1.498 1.376 2.746 2.001.999.5 2.122.875 3.495 1.25 2.371.625 4.743.75 5.741.875h.25c.749.125 2.247.375 3.869.875 1.124.25 2.996.876 3.495 1.501.999 1 4.494 4.626 4.618 4.626l1.623-.625c-.125-.125-2.746-3.001-4.618-4.751-.5-.501-1.124-.876-1.997-1.251-.749-.375-1.623-.625-2.621-.875-.874-.25-1.748-.5-2.746-.625-.874-.125-1.623-.25-2.247-.25-1.248 0-3.495-.5-5.742-1.125a38.846 38.846 0 01-2.995-1.126 6.02 6.02 0 01-1.872-1.25c-.25-.375-.625-.875-.999-1.375-.374-.75-.874-1.501-1.248-2.501-1.123-2.375-2.122-5.251-3.121-8.752-.499-1.875-1.872-5.001-1.872-5.001s0-.375-.125-1c-.124-.375-.374-.75-.624-1.251-.374-.5-.749-1.125-1.248-1.75-.374-.375-.749-.75-1.248-1.125-.125 0-.125-.125-.25-.125-.124 0-.124-.125-.249-.125s-.125-.125-.25-.125c-.125-.876-.125-1.876.125-3.126.25-1 .624-2.126 1.248-3.251 0-.125.125-.125.125-.25l.125.125h.374l15.602-4.501c1.997 1.125 4.119 2.751 4.868 4.751 1.373 3.876.624 4.001 1.623 6.502.998 2.5.998 0 .998 0s.25-1.876-1.498-6.752c-.873-2.5-3.245-4.376-5.367-5.626v-6.752h-.125l-.374.125c11.982-3.25 21.718-5.876 21.718-5.876s3.62 3.751 4.369 5.126c.873 1.25 2.496 2.501 3.494.25.874-2.25.624-4.251 0-6.751z" fill="#383838"/></svg>