<svg width="41" height="41" viewBox="0 0 41 41" fill="none" xmlns="http://www.w3.org/2000/svg">
<path d="M36.364 36.7524C36.0812 36.7524 35.7939 36.7524 35.5111 36.7524C34.7391 36.7524 33.967 36.7524 33.1949 36.7524C32.0593 36.7524 30.9236 36.7524 29.788 36.7524C28.3965 36.7524 27.0049 36.7524 25.6134 36.7524C24.0918 36.7524 22.5701 36.7524 21.0484 36.7524C19.5222 36.7524 17.996 36.7524 16.4699 36.7524C15.0425 36.7524 13.615 36.7524 12.1921 36.7524C10.9936 36.7524 9.79511 36.7524 8.59213 36.7524C7.73927 36.7524 6.88641 36.7524 6.03355 36.7524C5.64752 36.7524 5.257 36.7524 4.87096 36.7524C4.75426 36.7524 4.64204 36.7479 4.52533 36.7344C4.70488 36.7569 4.88443 36.7838 5.06398 36.8062C4.84403 36.7748 4.63306 36.7165 4.42658 36.6312C4.58817 36.6985 4.74977 36.7658 4.90687 36.8332C4.72732 36.7524 4.55675 36.6536 4.39965 36.5324C4.53431 36.6357 4.67346 36.7434 4.80812 36.8466C4.63755 36.712 4.48493 36.5638 4.35027 36.3888C4.45351 36.5234 4.56124 36.6626 4.66448 36.7973C4.54777 36.6401 4.44902 36.4696 4.36374 36.29C4.43107 36.4516 4.4984 36.6132 4.56573 36.7703C4.48044 36.5638 4.42209 36.3529 4.39067 36.1329C4.41311 36.3125 4.44004 36.492 4.46249 36.6716C4.42209 36.3125 4.44453 35.9399 4.44453 35.5808C4.44453 34.8267 4.44453 34.0726 4.44453 33.3185C4.44453 32.1828 4.44453 31.0472 4.44453 29.916C4.44453 28.5245 4.44453 27.133 4.44453 25.7415C4.44453 24.2153 4.44453 22.6891 4.44453 21.1585C4.44453 19.6233 4.44453 18.0882 4.44453 16.553C4.44453 15.1166 4.44453 13.6802 4.44453 12.2438C4.44453 11.0364 4.44453 9.8244 4.44453 8.61693C4.44453 7.75958 4.44453 6.90223 4.44453 6.04488C4.44453 5.64988 4.44453 5.25935 4.44453 4.86435C4.44453 4.74764 4.44902 4.63542 4.46249 4.51871C4.44004 4.69826 4.41311 4.87781 4.39067 5.05736C4.42209 4.83741 4.48044 4.62644 4.56573 4.41996C4.4984 4.58155 4.43107 4.74315 4.36374 4.90026C4.44453 4.72071 4.54329 4.55013 4.66448 4.39303C4.56124 4.52769 4.45351 4.66684 4.35027 4.8015C4.48493 4.63093 4.63306 4.47831 4.80812 4.34365C4.67346 4.44689 4.53431 4.55462 4.39965 4.65786C4.55675 4.54116 4.72732 4.4424 4.90687 4.35712C4.74528 4.42445 4.58368 4.49178 4.42658 4.55911C4.63306 4.47382 4.84403 4.41547 5.06398 4.38405C4.88443 4.40649 4.70488 4.43343 4.52533 4.45587C4.88443 4.41547 5.257 4.43791 5.6161 4.43791C6.3702 4.43791 7.12431 4.43791 7.87842 4.43791C9.01407 4.43791 10.1497 4.43791 11.2809 4.43791C12.6724 4.43791 14.0639 4.43791 15.4554 4.43791C16.9816 4.43791 18.5078 4.43791 20.0384 4.43791C21.5736 4.43791 23.1087 4.43791 24.6439 4.43791C26.0803 4.43791 27.5167 4.43791 28.9531 4.43791C30.1605 4.43791 31.3725 4.43791 32.58 4.43791C33.4373 4.43791 34.2947 4.43791 35.152 4.43791C35.547 4.43791 35.9375 4.43791 36.3326 4.43791C36.4493 4.43791 36.5615 4.4424 36.6782 4.45587C36.4986 4.43343 36.3191 4.40649 36.1395 4.38405C36.3595 4.41547 36.5705 4.47382 36.7769 4.55911C36.6153 4.49178 36.4538 4.42445 36.2966 4.35712C36.4762 4.43791 36.6468 4.53667 36.8039 4.65786C36.6692 4.55462 36.5301 4.44689 36.3954 4.34365C36.566 4.47831 36.7186 4.62644 36.8532 4.8015C36.75 4.66684 36.6423 4.52769 36.539 4.39303C36.6557 4.55013 36.7545 4.72071 36.8398 4.90026C36.7724 4.73866 36.7051 4.57707 36.6378 4.41996C36.7231 4.62644 36.7814 4.83741 36.8129 5.05736C36.7904 4.87781 36.7635 4.69826 36.741 4.51871C36.7814 4.87781 36.759 5.25038 36.759 5.60948C36.759 6.36358 36.759 7.11769 36.759 7.8718C36.759 9.00745 36.759 10.1431 36.759 11.2743C36.759 12.6658 36.759 14.0573 36.759 15.4488C36.759 16.975 36.759 18.5011 36.759 20.0318C36.759 21.567 36.759 23.1021 36.759 24.6373C36.759 26.0737 36.759 27.51 36.759 28.9464C36.759 30.1539 36.759 31.3659 36.759 32.5733C36.759 33.4307 36.759 34.288 36.759 35.1454C36.759 35.5404 36.759 35.9309 36.759 36.3259C36.759 36.4426 36.7545 36.5549 36.741 36.6716C36.7635 36.492 36.7904 36.3125 36.8129 36.1329C36.7814 36.3529 36.7231 36.5638 36.6378 36.7703C36.7051 36.6087 36.7724 36.4471 36.8398 36.29C36.759 36.4696 36.6602 36.6401 36.539 36.7973C36.6423 36.6626 36.75 36.5234 36.8532 36.3888C36.7186 36.5593 36.5705 36.712 36.3954 36.8466C36.5301 36.7434 36.6692 36.6357 36.8039 36.5324C36.6468 36.6491 36.4762 36.7479 36.2966 36.8332C36.4582 36.7658 36.6198 36.6985 36.7769 36.6312C36.5705 36.7165 36.3595 36.7748 36.1395 36.8062C36.3191 36.7838 36.4986 36.7569 36.6782 36.7344C36.5705 36.7434 36.4672 36.7479 36.364 36.7524C35.8433 36.7613 35.3046 36.9723 34.9366 37.3449C34.5864 37.695 34.3216 38.2696 34.344 38.7723C34.3665 39.293 34.5371 39.8361 34.9366 40.1997C35.3271 40.5588 35.8208 40.7967 36.364 40.7922C37.2168 40.7833 38.1191 40.5454 38.8193 40.0381C39.3221 39.6745 39.6587 39.3379 40.0223 38.8396C40.2782 38.494 40.4487 38.0855 40.5879 37.6815C40.7495 37.2192 40.7899 36.7165 40.7899 36.2272C40.7899 35.693 40.7899 35.1544 40.7899 34.6202C40.7899 33.5968 40.7899 32.5778 40.7899 31.5544C40.7899 30.1898 40.7899 28.8208 40.7899 27.4562C40.7899 25.8806 40.7899 24.3006 40.7899 22.725C40.7899 21.0956 40.7899 19.4617 40.7899 17.8323C40.7899 16.2792 40.7899 14.7306 40.7899 13.1775C40.7899 11.8399 40.7899 10.5067 40.7899 9.16905C40.7899 8.20397 40.7899 7.23889 40.7899 6.27381C40.7899 5.81147 40.7899 5.35362 40.7899 4.89128C40.7854 3.89029 40.4757 2.94316 39.8607 2.15314C39.0123 1.05789 37.7375 0.416002 36.346 0.407024C35.951 0.402536 35.5515 0.407024 35.1565 0.407024C34.2408 0.407024 33.3251 0.407024 32.4049 0.407024C31.1077 0.407024 29.8149 0.407024 28.5177 0.407024C26.978 0.407024 25.4339 0.407024 23.8943 0.407024C22.2648 0.407024 20.6354 0.407024 19.006 0.407024C17.4215 0.407024 15.837 0.407024 14.2524 0.407024C12.8519 0.407024 11.447 0.407024 10.0465 0.407024C8.97816 0.407024 7.91433 0.407024 6.84601 0.407024C6.24901 0.407024 5.65649 0.407024 5.05949 0.407024C4.94278 0.407024 4.82159 0.402535 4.70488 0.411513C4.27845 0.433957 3.82958 0.49231 3.42559 0.640439C2.82859 0.864876 2.41113 1.11176 1.91737 1.51125C1.27548 2.03644 0.804164 2.83095 0.575239 3.62994C0.386712 4.27632 0.409155 4.93168 0.409155 5.59152C0.409155 6.39501 0.409155 7.19849 0.409155 8.00198C0.409155 9.2274 0.409155 10.4483 0.409155 11.6738C0.409155 13.164 0.409155 14.6543 0.409155 16.1446C0.409155 17.765 0.409155 19.3854 0.409155 21.0014C0.409155 22.6083 0.409155 24.2153 0.409155 25.8268C0.409155 27.2856 0.409155 28.7489 0.409155 30.2078C0.409155 31.3659 0.409155 32.524 0.409155 33.6821C0.409155 34.4048 0.409155 35.1274 0.409155 35.8501C0.409155 36.0027 0.409155 36.1554 0.409155 36.3125C0.413644 37.4526 0.826608 38.4536 1.5493 39.3154C2.34829 40.2671 3.63207 40.7788 4.8575 40.7877C4.98767 40.7877 5.11785 40.7877 5.24802 40.7877C5.93031 40.7877 6.6126 40.7877 7.29489 40.7877C8.43054 40.7877 9.56619 40.7877 10.7018 40.7877C12.1382 40.7877 13.5746 40.7877 15.011 40.7877C16.6135 40.7877 18.2115 40.7877 19.814 40.7877C21.4389 40.7877 23.0593 40.7877 24.6843 40.7877C26.197 40.7877 27.7052 40.7877 29.2179 40.7877C30.4613 40.7877 31.7047 40.7877 32.948 40.7877C33.7874 40.7877 34.6313 40.7877 35.4707 40.7877C35.767 40.7877 36.0677 40.7877 36.364 40.7877C36.8802 40.7877 37.4278 40.5633 37.7914 40.1952C38.1415 39.8451 38.4064 39.2705 38.3839 38.7678C38.3615 38.2471 38.1909 37.704 37.7914 37.3404C37.3964 36.9813 36.9116 36.7524 36.364 36.7524Z" fill="#404040"/>
<path d="M8.02654 15.6642C8.87042 16.5081 9.70982 17.3475 10.5537 18.1914C11.8869 19.5246 13.2245 20.8622 14.5577 22.1954C14.8629 22.5006 15.1726 22.8103 15.4779 23.1156C16.2499 23.8876 17.5606 23.8876 18.3327 23.1156C19.7287 21.7196 21.1202 20.328 22.5162 18.932C22.7137 18.7345 22.9157 18.5325 23.1132 18.335C22.1616 18.335 21.21 18.335 20.2584 18.335C21.394 19.4707 22.5297 20.6063 23.6653 21.742C25.4698 23.5465 27.2788 25.3554 29.0832 27.1599C29.4917 27.5684 29.9047 27.9813 30.3131 28.3898C30.6812 28.7579 31.2244 28.9823 31.7406 28.9823C32.2343 28.9823 32.8268 28.7624 33.168 28.3898C33.5226 28.0038 33.7829 27.5011 33.7605 26.9624C33.7381 26.4282 33.554 25.921 33.168 25.535C32.0323 24.3993 30.8967 23.2637 29.761 22.128C27.9566 20.3236 26.1476 18.5146 24.3431 16.7101C23.9346 16.3016 23.5217 15.8887 23.1132 15.4802C22.3411 14.7081 21.0304 14.7081 20.2584 15.4802C18.8624 16.8762 17.4709 18.2677 16.0749 19.6637C15.8773 19.8612 15.6754 20.0632 15.4779 20.2607C16.4295 20.2607 17.3811 20.2607 18.3327 20.2607C17.4888 19.4168 16.6494 18.5774 15.8055 17.7336C14.4724 16.4004 13.1347 15.0628 11.8016 13.7296C11.4963 13.4244 11.1866 13.1146 10.8814 12.8094C10.5133 12.4413 9.97017 12.2169 9.45396 12.2169C8.9602 12.2169 8.36768 12.4368 8.02654 12.8094C7.67193 13.1954 7.41158 13.6982 7.43403 14.2368C7.46096 14.771 7.64051 15.2737 8.02654 15.6642Z" fill="#404040"/>
<path d="M25.5506 28.9824C27.3551 28.9824 29.1641 28.9824 30.9685 28.9824C31.2289 28.9824 31.4847 28.9824 31.7451 28.9824C32.8358 28.9824 33.765 28.0577 33.765 26.9624C33.765 25.158 33.765 23.349 33.765 21.5445C33.765 21.2842 33.765 21.0283 33.765 20.768C33.765 20.2518 33.5406 19.7041 33.1725 19.3405C32.8224 18.9904 32.2478 18.7256 31.7451 18.748C31.2244 18.7705 30.6813 18.941 30.3177 19.3405C29.9541 19.7356 29.7251 20.2203 29.7251 20.768C29.7251 22.5724 29.7251 24.3814 29.7251 26.1859C29.7251 26.4462 29.7251 26.7021 29.7251 26.9624C30.3985 26.2891 31.0718 25.6158 31.7451 24.9425C29.9406 24.9425 28.1316 24.9425 26.3272 24.9425C26.0668 24.9425 25.811 24.9425 25.5506 24.9425C25.0344 24.9425 24.4868 25.1669 24.1232 25.535C23.7731 25.8851 23.5082 26.4597 23.5307 26.9624C23.5531 27.4831 23.7237 28.0263 24.1232 28.3898C24.5137 28.7534 25.003 28.9824 25.5506 28.9824Z" fill="#404040"/>
</svg>
