<svg width="165" height="80" viewBox="0 0 165 80" fill="none" xmlns="http://www.w3.org/2000/svg">
  <path d="M83.9999 5c-11.8775-1.5837-29.0067-6.6894-40.3888.0555-3.8938 2.3075-7.7288 7.2354-2.9445 10.7223 4.9886 3.6357 13.33 4.238 19.1667 2.6666 4.2734-1.1505 2.2499-3.518-.4445-4.9444-13.3752-7.081-35.098-4.5891-46.9444 4.0555C5.712 22.4684-.7819 29.5533 1.8333 38.5 6.429 54.2227 27.8132 57.5098 41.7222 57.9444 78.732 59.101 117.08 53.0326 153.555 61.5c6.873 1.5955 15.509 7.7123 6.778 12.5-6.615 3.6276-14.9 3.4082-22.166 2.5-3.26-.4075-4.67-2.5-7.723-2.5C124.79 74 119 72.007 119 79" stroke="#000" stroke-width="2" stroke-linecap="round" stroke-linejoin="round" stroke-dasharray="4 8"/>
</svg>
