<svg xmlns="http://www.w3.org/2000/svg" width="33" height="12" fill="none" xmlns:v="https://vecta.io/nano"><path d="M31.774 8.117h-.172c-.275-1.89-1.925-3.677-4.158-4.811-.034-.309-.069-.584-.172-.893C26.756.934 25.45.006 24.351.384c-.653.206-1.1.825-1.237 1.581l-1.306-.069c-4.88 0-8.832 2.887-8.832 6.426v2.474.103H1.326a.54.54 0 0 0-.55.55.54.54 0 0 0 .55.55h12.853.619 12.578c2.852 0 3.883-2.062 4.193-2.921h.206c.241 0 .447-.206.447-.447.034-.309-.172-.515-.447-.515zm-2.68 0c-.241 0-.447-.206-.447-.447s.206-.447.447-.447.447.206.447.447-.206.447-.447.447z" fill="#62ac44"/></svg>