<svg version="1" xmlns="http://www.w3.org/2000/svg" width="556" height="556" viewBox="0 0 417.000000 417.000000"><path d="M185 5.1c-45.5 5.3-88.2 26-121 58.9-39 38.9-60 89.6-60 144.5C4 263.4 25 314.1 64 353c38.9 39 89.6 60 144.5 60 54.9 0 105.6-21 144.5-60 39-38.9 60-89.6 60-144.5 0-54.9-21-105.6-60-144.5-33.3-33.4-75.6-53.7-122.5-59-10.6-1.2-34.8-1.1-45.5.1zm28 94.5c-2.8 3.2-3.1 4.1-2.5 7.8 1.8 10.6 7.5 22.5 21.9 45.5 13.2 21.2 13.8 24.3 7.1 35.3-8.2 13.3-8.7 23.8-1.6 35 5.7 9 19.1 12.8 37.9 10.8 5.6-.6 11-1.4 11.9-1.7 1.3-.5 1.5-.1.9 2.3-6.3 24.4-7.9 39.9-5.2 50 5.6 21.6-2.3 29.9-36.8 38.4-19.5 4.8-37.7 7.4-53.6 7.4-11.9.1-12.8 0-18.5-2.9-7.8-3.9-9.9-7.6-11.9-21.4-1.9-12.7-4.7-18.8-18.2-39.6-10.8-16.6-15.6-26-17.9-35-2.2-8.6-1.9-11 2.4-21 11.7-27.1 20.8-67.6 18.1-80.7-.6-2.9-1.2-6-1.3-6.8-.6-4.1 45.9-22.7 64.8-25.9 2.8-.5 5.2-.9 5.4-1 .1 0-1.1 1.5-2.9 3.5zm49 228.5c0 3-7.4 10.3-13.7 13.7-8.4 4.4-15.6 6.2-24.9 6.2-13.4 0-27.6-5.7-25.8-10.3.6-1.6 1.4-1.7 7.3-1 9.8 1.2 22.9.7 30.2-1.1 3.5-.9 10.5-3.6 15.4-6 9.3-4.5 11.5-4.7 11.5-1.5z"/><path d="M156.5 218.4c-4 1.8-8 6.3-10 11-1.6 3.7-1.6 4 .3 6.5 1 1.4 3.4 3.7 5.3 4.9 2.9 2 4.4 2.3 10.1 2 5.7-.3 7.3-.8 10.5-3.4 2.1-1.7 4.7-4.7 5.8-6.7 2.5-4.5 1.5-7.8-3.8-12-3-2.5-4.9-3.1-9.5-3.4-3.4-.2-6.9.2-8.7 1.1zm15.3 6.3c-.3 3.1-3.4 4.4-4.4 1.9-.9-2.4.3-4.6 2.6-4.6 1.7 0 2.1.5 1.8 2.7zM215.4 281.8c-6.8 2.4-10.1 4.6-12.4 8.5-2.6 4.3-2.5 7.3.6 13.5 6.7 13.4 21.1 17.9 31.6 9.8 8.1-6.1 12.1-19.6 7.8-26.4-4.2-6.8-16.6-9.2-27.6-5.4zm21.4 5.1c2 1.2 1 4.6-1.4 4.9-2.5.4-4-2.4-2.3-4.4 1.3-1.6 1.9-1.7 3.7-.5z"/></svg>