<svg width="51" height="49" viewBox="0 0 51 49" fill="none" xmlns="http://www.w3.org/2000/svg">
<path d="M0.0118408 36.7385L11.8241 48.5508L18.0381 40.2654L35.9524 38.0261C37.2947 37.8594 38.5195 37.1767 39.3673 36.1227L49.3881 23.6387C50.1287 22.7071 50.4733 21.5216 50.3476 20.3381C50.222 19.1547 49.6361 18.068 48.7163 17.3127H48.6604C47.865 16.6754 46.8803 16.3209 45.8612 16.305C46.3843 14.1398 46.4415 11.8882 46.0292 9.69914C44.9095 4.15691 40.9348 0.574049 35.8404 0.574049C33.1559 0.661269 30.5525 1.51609 28.3388 3.03726C26.101 1.47284 23.4545 0.59715 20.7252 0.518066C15.5749 0.518066 11.6002 4.10093 10.5365 9.64316C9.75274 13.6179 10.7044 17.9285 12.9997 21.7913L12.4399 22.2951L0.0118408 36.7385ZM13.8394 10.3149C14.5672 6.34021 17.2544 3.877 20.7252 3.877C22.7966 3.877 25.0359 4.77271 27.2752 6.45218L28.2828 7.17994L29.2905 6.45218C31.5298 4.82869 33.8251 3.93298 35.8404 3.93298C39.3113 3.93298 41.9425 6.34021 42.7262 10.259C43.243 13.3607 42.6693 16.5456 41.1028 19.2721L34.5528 27.1656L26.6594 29.069L25.8196 28.1733L31.1379 25.99C32.1509 25.5265 32.9578 24.7065 33.4048 23.6862C33.8518 22.6659 33.9077 21.5167 33.5616 20.4579C33.2156 19.3991 32.492 18.5047 31.5287 17.9452C30.5654 17.3858 29.43 17.2005 28.3388 17.4247L16.1347 20.5037C14.0634 17.2567 13.2236 13.5619 13.8394 10.3149ZM15.0151 24.5904C15.2826 24.3011 15.6357 24.1049 16.0227 24.0306L29.2345 20.6716C29.4974 20.656 29.7579 20.7291 29.9743 20.8792C30.1907 21.0294 30.3504 21.2478 30.4279 21.4995C30.5053 21.7512 30.496 22.0216 30.4014 22.2674C30.3069 22.5132 30.1325 22.7201 29.9063 22.855L20.1654 26.8297L25.5397 32.7638L36.4562 30.1326L36.7921 29.6848L43.9019 21.1755L44.8536 20.0558C44.9564 19.9307 45.0829 19.8271 45.2258 19.7509C45.3687 19.6748 45.5253 19.6275 45.6865 19.6119C45.8476 19.5963 46.0103 19.6127 46.1652 19.66C46.3201 19.7074 46.4641 19.7848 46.589 19.8879H46.645C46.7666 19.9806 46.868 20.0972 46.9429 20.2306C47.0177 20.3639 47.0644 20.5112 47.0802 20.6633C47.0959 20.8154 47.0803 20.9692 47.0344 21.115C46.9884 21.2609 46.913 21.3958 46.8129 21.5114L36.7921 33.9954C36.4859 34.3726 36.0434 34.6139 35.5605 34.6672L16.2467 37.1304L11.4882 43.4004L4.60238 36.5706L15.0151 24.5904Z" fill="#404040"/>
</svg>
