<svg viewBox="0 0 148 73" xmlns="http://www.w3.org/2000/svg">
  <g fill-rule="nonzero" fill="none">
    <g fill="#E6E6E6">
      <path d="M128.8365 11.5132c.0217-.002.0434-.0085.065-.0106.1342-.0252 3.3018-.6486 4.5627-4.171.1444-.4025-.0667-.8456-.4705-.9895-.4062-.1476-.8489.0644-.9945.4713-.7376 2.058-2.3052 2.818-3.02 3.061-.8238-.7502-3.035-2.5429-5.7583-2.896-.6607-.0823-1.494-.0672-2.4619-.0472-2.2483.0395-5.328.0982-6.3298-1.3466-.5863-.842-.4942-2.2476.2728-4.1724.1571-.3958-.0364-.8447-.436-1.005-.3912-.1573-.8498.0364-1.0101.4367-.9835 2.4666-1.0182 4.3065-.1052 5.6241 1.4773 2.1217 4.892 2.0617 7.637 2.0087.8676-.0142 1.6895-.0277 2.2365.0416 2.8525.3645 5.1496 2.7328 5.172 2.7585.1662.1716.4039.26.6403.2364z"/>
      <path d="M117.782 8.4319a.7811.7811 0 00.6374-.4676c.1678-.3926-.0122-.8472-.4046-1.016-.256-.1105-2.4484-1.173-1.3258-3.7972a.7747.7747 0 00-.4116-1.0193c-.3894-.1614-.8492.0163-1.0186.4093-1.4052 3.2885.785 5.2515 2.1395 5.8288a.7517.7517 0 00.3838.062zM124.971 8.977c.3359-.0335.6239-.2862.6873-.6328.0765-.4195-.2005-.8202-.6202-.9022-.2802-.0522-1.064-.3025-1.336-.8117-.156-.2923-.1347-.6625.065-1.1346.1669-.3967-.0189-.8505-.4149-1.0152-.3902-.1692-.8496.0168-1.0186.4134-.4852 1.149-.2671 1.9835.0033 2.4764.6746 1.2455 2.2402 1.5618 2.416 1.5965a.82.82 0 00.2181.0102z"/>
    </g>
    <path d="M138.9566 12.4917c.261 1.1252-1.0964 1.9337-1.0964 1.9337l-.8406-.868.4-1.3254s1.2768-.8647 1.537.2597z" fill="#A3541F"/>
    <path d="M106.9833 48.8823l.2962 2.5518s1.5512-.5235 1.4821-1.6227c0 0 3.0207-2.2671 3.7624-6.3563 0 0-.0973-1.3833 1.4617-1.4155 1.3148-.0082 6.1343-.3233 9.3792-3.6374 2.4746.4912 4.6853.3942 6.6187-.0029.4439-.0852.1919-1.371.5903-1.493.4357-.1659 1.5268.8725 1.9624.7066 4.5835-1.8493 7.1284-5.1753 7.1284-5.1753.7695-.9368 5.1374-2.478 5.1374-2.478-.2565 1.5416-1.4011 4.8924-2.0078 5.4032-.5658.5072-1.4249 1.371-1.4249 1.371-.4561 1.6023.8096 2.7467.8096 2.7467.0123-.698 1.7387-2.7544 1.7387-2.7544 2.068-1.9263 3.4163-6.5267 3.7787-7.833.3584-1.3466-1.2575-1.4725-1.2575-1.4725-1.8156-.0653-4.0586.5267-5.6909 1.0575-.0016-.3775-1.6593-.8031-1.7096-1.1937-.0646-.4986 1.4625-.9622 1.3234-1.4306-.72-2.6736-2.4823-5.0794-3.96-5.8748-1.9616-1.1159-2.828-4.4304-2.828-4.4304 1.6077.4545 4.2864-1.1232 4.2864-1.1232-.4843-.7302-.3497-2.2595-.427-2.211-.0733.0893-2.5974.7502-4.2333-.3983-1.6323-1.1077-4.5957-1.1403-4.5957-1.1403s-.9688.1782-1.0625.8843c0 0-1.4935-.958-2.9757-.5646 0 0-.0695 1.7685 2.1735 2.4062 0 0 .549 2.1986 2.4255 2.8726 0 0 .4062 4.4662.8579 5.6913.1182.3572.2647.998.4234 1.7609l.0282.2837c.1587.7628.2438 1.6145.1992 2.3977l.0082.081c-.0572 1.0711-.2937 1.9957-.8717 2.381-.191.1423-.3866.2434-.6636.353-.3543.1583-.4807 1.359-.9241 1.4441-.4034.0812-1.1684-.9903-1.616-.9454-1.6322.1215-3.456-.0253-4.5633-.4065-2.088-.7346-5.9875-.2646-6.753 1.1228 0 0-1.7705-1.2581-1.937-2.9211 0 0-1.0186 2.5595 1.1754 4.3484 0 0-1.6409 2.4988.3694 5.7407 0 0-2.7765 2.2428-3.668 2.3724-.8504.1256-1.4248.9613-1.2865 1.9308.1342.9292.0032 4.9576-1.8491 6.166 0 0-1.1762.1578-1.1111.8072z" fill="#D37433"/>
    <path d="M126.6066 29.7216c.2397 1.164 1.5291 6.649 3.377 8.6777.9241-.2148 1.7587-.5027 2.5527-.7864-1.8437-1.9883-3.1536-7.2663-3.3897-8.39-.6717.2716-1.5631.4012-2.54.4987z" fill="#68B735"/>
    <path d="M131.4985 13.561c.31-.031.553-.293.5518-.6066-.0004-.3351-.2745-.6058-.6132-.6066l-.8403.0024c-.3649.0237-.6132.2773-.6116.6091 0 .3355.2741.6058.6129.6067l.8402-.002c.0205-.0021.0414-.0009.0602-.003z" fill="#A3541F"/>
    <path d="M116.3977 35.9735a.5913.5913 0 00.1141-.0232c.4149-.1056.6677-.5267.5621-.9405-.3739-1.467.2246-2.2269.2516-2.2574.2663-.3266.2254-.8146-.0986-1.0865-.3285-.2716-.805-.2402-1.0787.0754-.0487.0526-1.1651 1.3519-.5818 3.6509.0958.3742.4537.6189.8313.5813z" fill="#C66A2C"/>
    <g fill="#E6E6E6">
      <path d="M70.2524 45.7128c.0143 0 .0282-.004.044-.004 6.601-.3592 15.2527-1.9256 19.0169-4.2188a.7514.7514 0 00.2511-1.0468c-.225-.3556-.6988-.4688-1.0673-.2424-3.5074 2.1368-12.0396 3.6488-18.2883 3.9924-.426.0236-.7526.3828-.7306.8008.024.4024.3661.7188.7742.7188z"/>
      <path d="M68.5344 45.736c.5737 0 1.153-.0076 1.7421-.0272.428-.0116.7644-.3632.7506-.7812-.0139-.41-.3584-.7384-.7747-.7384-.0077 0-.0159 0-.0236.004-6.1753.16-11.6258-.6876-14.5978-2.34-7.1408-4.0388-15.2408-.664-15.5833-.5156-.3917.164-.5711.6132-.402.9964.1733.3864.6312.5468 1.0193.3984.0758-.0392 7.7396-3.2148 14.1975.4412 2.9684 1.6484 7.8872 2.5624 13.672 2.5624z"/>
    </g>
    <g transform="matrix(-1 0 0 1 22 27)">
      <path d="M.5894 2.4584S4.6038-.038 6.9454.4092c2.3416.4472 3.6804.3616 4.4712 2.1544.7904 1.7932 5.2796 4.7604 5.2796 4.7604l-.54.9556S11.9546 6.4704 7.7114 10.58c0 0-1.6976-4.2692-7.122-8.1216z" fill="#F43735"/>
      <circle fill="#E6E6E6" cx="18.022" cy="8.6153" r="1.9647"/>
    </g>
    <g fill="#E6E6E6">
      <path d="M45.4545 69.1344a.766.766 0 00.3867-.1052c.3693-.2072.494-.676.282-1.0352l-3.1838-5.414c-.2125-.3712-.6882-.4924-1.0554-.2776-.369.2072-.494.676-.2816 1.0352l3.1838 5.414c.1426.2464.4026.3828.6683.3828zM27.231 70.4744c.0117 0 .0255-.004.0397-.004.4242-.0196.7536-.3788.7317-.7968l-.3014-5.8516c-.0236-.418-.3173-.7148-.8113-.7188-.4245.0196-.7536.3792-.732.7972l.3018 5.8512c.0215.4064.3627.7228.7714.7228zM8.6182 72.072c.258 0 .5119-.1288.6569-.3632l3.854-6.1564c.2243-.3552.111-.824-.2518-1.0468-.3591-.2108-.8393-.1092-1.0611.25L7.9617 70.912c-.2239.3556-.111.824.2519 1.0468a.7963.7963 0 00.4046.1132z"/>
      <path d="M1.001 72.654c.0199 0 .0398-.0036.0597-.0036l51.7095-3.9376c.0577.082 3.0071-.004 4.7686-1.918.984-1.0664 1.3947-2.4884 1.2163-4.2228-.1808-1.7576-.875-3.1016-2.0633-4-2.0528-1.5468-4.8043-1.1328-4.927-1.1092-.4189.0664-.7045.4568-.637.8712.0674.41.4363.7184.8848.6288.022.004 2.2295-.3284 3.7472.8204.8329.6328 1.3228 1.6248 1.4597 2.9452.1312 1.2852-.1446 2.3084-.8251 3.0468-1.2793 1.3868-3.6497 1.418-3.6798 1.418L.9416 71.1344c-.4244.0316-.7438.3988-.71.8164.0316.3988.3688.7032.7694.7032z"/>
    </g>
    <path d="M37 41.1452s2.799-.5483 4.2238.4859c1.4236 1.0338.6022 4.2654-.192 4.1884-.7942-.0778-2.2187-.1813-3.7795.1805" fill="#F9D9C0"/>
    <path d="M38.7837 56.5314s1-2.0476-1.3002-3.5314l-12.0974 3c-.0467.307-2.211 2.6766 4.2356 2.9817 3.7054.1752 6.6428-.966 6.6428-.966l2.5192-1.4843z" fill="#F2F2F2"/>
    <path d="M16 45.7851s2.0604 1.94 4.4035 5.2948C22.7871 54.4346 23.9501 57 23.9501 57L36 53.6736c-.0812-.768-.3256-1.3407-.568-1.9874-.1616-.4042-1.4544-.0404-1.6564-.4042-.202-.3233.7272-1.3742.5252-1.6571-.404-.6063-.8484-1.1318-1.2524-1.536-1.0503-1.1317-2.3253-1.816-2.3253-1.816l1.9213.1589h1.4948l.0998-5.477c-.7272.1616-2.8065-.1816-4.0589-.5453-.0404 0-.1616-.283-.202-.283-.6464-.2425-1.01-.6062-1.01-.6062-3.6359-1.6168-6.3426 1.0508-6.3426 1.0508-1.5352 1.0105-2.1412.0809-2.9088-.1616-.9292-.3638-1.8583-.2021-1.8583-.2021C16.2828 41.339 16 45.785 16 45.785z" fill="#F43735"/>
    <path d="M23.3857 33s1.5837.061 2.1338 2.4047c0 0 1.2463.7662 1.4805 1.7243 0 0-4.069 2.4864-7-.9428 0 0 1.487-2.6414 3.3857-3.1862z" fill="#F9D9C0"/>
    <path d="M20.1634 35s2.2582 3.0815 6.6207 1.3243c0 0 2.5865.4002 3.2159 3.673 0 0-3.1553-1.738-5.6458-.2345-2.4908 1.5036-5.5225 2.0432-7.3542-.7508 0 0 1.0815-3.5304 3.1634-4.012z" fill="#F2F2F2"/>
    <path d="M20.878 29.5254s1.6741-.934 2.8474-.3113c1.1737.6227 1.3707 1.4632 1.2392 2.1172-.1314.6537-1.8383.5856-2.7151 1.5847-.8773.9995-4.2433 3.425-4.8797 5.8955 0 0-3.4854 1.0242-3.3668-1.7025 0 0 1.0414-4.7813 6.875-7.5836z" fill="#F2F2F2"/>
    <path d="M1 44.562s10.8267-4.9857 17.0581 2.8577c6.2318 7.8438 6.1794 10.5203 11.957 10.9926 5.7775.4726 9.5793-.3016 11.171-4.2444 0 0 1.0067-5.5274 6.8139-3.8165 0 0-1.5109 4.1887-2.132 8.4604-.6213 4.2716-1.2285 5.3993-5.3895 6.069-4.1609.6694-23.1496 1.952-23.1496 1.952s-9.4305 1.641-10.9251-5.358L1 44.562z" fill="#E22929"/>
    <g fill="#E6E6E6">
      <path d="M87.809 28.9968c.0215 0 .0434-.0036.0653-.0036.1346-.0123 3.3207-.3189 4.9129-3.699.182-.3861.0178-.848-.3662-1.031-.3865-.1872-.8436-.02-1.0281.37-.9304 1.975-2.5526 2.5763-3.281 2.7475-.7389-.8284-2.7427-2.831-5.3943-3.4519-.6436-.1476-1.4673-.2153-2.424-.2907-2.2216-.183-5.2653-.4301-6.1109-1.9667-.4952-.8961-.2652-2.2855.6814-4.1246.1938-.3784.0474-.8443-.331-1.0433-.3702-.1953-.8415-.0477-1.0394.3343-1.2138 2.3569-1.43 4.1846-.6594 5.5858 1.2474 2.2578 4.6217 2.5363 7.3348 2.7552.8574.0717 1.6693.1394 2.2018.263 2.7785.645 4.8103 3.2289 4.8302 3.2566.1464.1871.3719.2984.6079.2984z"/>
      <path d="M77.2086 24.8363c.2713 0 .5345-.1472.6752-.402.204-.3742.0714-.8439-.2989-1.051-.2417-.1353-2.299-1.4094-.9327-3.9098.206-.3783.0693-.848-.305-1.055-.3683-.199-.8395-.0677-1.0455.3065-1.711 3.1335.2555 5.3033 1.5346 6.0118a.7405.7405 0 00.3723.0995zM84.2462 26.0908c.335 0 .6436-.223.741-.5614a.7798.7798 0 00-.5232-.9597c-.271-.0795-1.0196-.406-1.2374-.9397-.1249-.3066-.0673-.6727.176-1.1228.204-.378.0653-.848-.3086-1.051-.3687-.2068-.84-.0677-1.046.3106-.592 1.095-.459 1.9467-.2412 2.4645.5426 1.3058 2.0553 1.7755 2.2257 1.8273.0713.02.1427.0322.2137.0322z"/>
    </g>
    <path d="M97.6952 30.973c.146 1.1451-1.2726 1.8154-1.2726 1.8154l-.7434-.9471.5256-1.2793s1.3448-.7343 1.4904.411z" fill="#A3541F"/>
    <path d="M96.1436 44.194h.0121c.2653-.0041 26.684-.5973 37.2248-18.7323.2137-.3706.0908-.8443-.2774-1.0592-.3586-.2148-.8395-.0954-1.0537.2789-10.0991 17.3746-35.66 17.9556-35.9176 17.9597-.4258.0081-.7645.3583-.7584.7884.006.422.3504.7645.7702.7645z" fill="#E6E6E6"/>
    <path d="M62.5587 64.0176l.0405 2.5685s1.5817-.367 1.6223-1.4677c0 0 3.2039-1.957 4.3394-5.9523 0 0 .0406-1.3862 1.5817-1.2639 1.2978.1223 6.0833.2854 9.6116-2.6908 2.3928.7339 4.5828.8562 6.5295.6523.4461-.0407.3244-1.3453.73-1.4269.4461-.1223 1.4194 1.0193 1.8655.897 4.7045-1.3862 7.5434-4.4439 7.5434-4.4439.8516-.8562 5.3128-1.957 5.3128-1.957-.4056 1.5085-1.8656 4.7293-2.5145 5.1778-.6083.4484-1.5411 1.223-1.5411 1.223-.6083 1.5493.5272 2.8131.5272 2.8131.0811-.693 1.9872-2.5684 1.9872-2.5684 2.2306-1.7123 4.015-6.1562 4.5017-7.42.4867-1.3047-1.095-1.59-1.095-1.59-1.7844-.2447-4.0555.1223-5.7183.4892.0357-.3763-1.5574-.9634-1.5687-1.3576-.0146-.5023 1.5379-.8126 1.447-1.2924-.4461-2.7315-1.9467-5.3-3.3255-6.2377-1.825-1.3046-2.3523-4.6885-2.3523-4.6885 1.5411.6116 4.3395-.693 4.3395-.693-.4056-.7747-.1217-2.2831-.2028-2.2423-.0811.0815-2.6361.4892-4.1367-.8154-1.5005-1.2639-4.4205-1.59-4.4205-1.59s-.9734.0815-1.1356.7746c0 0-1.3789-1.1008-2.8794-.8562 0 0-.2434 1.7531 1.906 2.6093 0 0 .3245 2.2423 2.109 3.0984 0 0-.0406 4.4846.2839 5.7485.081.367.1622 1.0192.2433 1.7938v.2854c.0811.7746.0811 1.6308-.0406 2.4054v.0815c-.1622 1.06-.4866 1.957-1.095 2.2831-.2027.1223-.4055.2039-.6894.2854-.365.1223-.6083 1.3046-1.0544 1.3454-.4056.0408-1.0545-1.1008-1.5006-1.1008-1.6222-.0408-3.4067-.367-4.4611-.8561-1.9872-.9377-5.8806-.8562-6.7728.4484 0 0-1.6222-1.4269-1.6222-3.0984 0 0-1.2572 2.4461.73 4.4438 0 0-1.8656 2.3239-.2028 5.7485 0 0-2.9605 1.9569-3.8528 1.9977-.8516.0407-1.5005.8153-1.46 1.7938.0406.9377-.4866 4.933-2.4333 5.9523 0 0-1.1761.0408-1.1761.693z" fill="#D37433"/>
    <path d="M83.8098 46.8945c.1217 1.1823.8517 6.7677 2.4739 8.9692.9328-.1223 1.7844-.3261 2.5955-.53-1.6222-2.1607-2.3927-7.5423-2.5144-8.6838-.6894.2038-1.5817.2446-2.555.2446zM88.1492 43.9999v.0815c1.7845 1.957 7.1378 3.3023 7.7056 3.5062h.0406l1.9872-.53c.081-.8562.0405-1.7939-.1217-2.65-.6083-.1223-6.8133-1.1415-9.5711-3.0985v.2854L88.1492 44z" fill="#68B735"/>
    <path d="M90.2322 31.2982c.3094 0 .5747-.2368.6043-.5487.0328-.334-.2105-.6299-.5447-.6645l-.8294-.0812c-.3621-.0122-.6322.2153-.6635.546-.0328.3338.211.6302.5451.6645l.829.081c.0202 0 .0405.003.0592.003z" fill="#A3541F"/>
    <path d="M73.1214 52.1048a.593.593 0 00.1148-.0118c.4197-.0636.7109-.4578.6476-.8798-.2238-1.497.4413-2.1938.4713-2.222.2948-.2984.303-.788.0097-1.0905-.2968-.303-.7701-.3188-1.071-.0318-.0536.0477-1.2836 1.23-.9349 3.575.0572.3825.3861.661.7625.661z" fill="#C66A2C"/>
    <g fill="#E83838">
      <path d="M14.8654 64.9196a.7604.7604 0 00.7576-.7068c.0316-.418-.2832-.7812-.7008-.8124-5.0392-.3752-5.6916-2.8948-5.7168-3.004-.096-.3984-.4924-.6524-.9044-.5704a.7511.7511 0 00-.582.8868c.0292.1524.826 3.7344 7.0896 4.2032.0196 0 .0392.0036.0568.0036zM7.8226 58.9744c.0644 0 .1308-.0116.1952-.0272.406-.1096.6464-.5236.5388-.9296l-.3652-1.3672c-.1112-.4064-.5272-.6328-.9296-.5392a.7603.7603 0 00-.5392.9296l.3656 1.3672c.0916.34.3984.5664.7344.5664z"/>
    </g>
    <path d="M32.24 50.84l.64 2.24s2.2-.44 3.12-1.04c-.32-.76-.72-1.44-1.12-2.04-.68.24-2.32.88-2.64.84z" fill="#F2F2F2"/>
    <path d="M27.3136 45.3543c1.637 1.2 4.0063 1.88 5.6864 2.24-1.12-1.12-2.1109-1.68-2.1109-1.68l1.6801.04c-1.4216-.4-3.1017-.92-4.2648-1.8-.3446-.24-.8616-.2-1.12.12-.3016.36-.2154.84.1292 1.08z" fill="#E02B2B"/>
    <path d="M34.6516 40.43s1.126-.9674 2.8276 0c0 0 .9944 2.7039.2352 5.9473 0 0-1.868 1.1361-3.0196.3392 0 0 .376-4.2096-.0432-6.2865z" fill="#F2F2F2"/>
    <path d="M131.2208 26.4457l.008.074c1.9279 1.6135 7.2738 2.3468 7.8468 2.4803l.0393-.0037L141 28.334c-.004-.7842-.1342-1.6317-.3749-2.3936-.6048-.0558-6.7488-.4158-9.6251-1.9404l.0274.2588.1934 2.187z" fill="#68B735"/>
  </g>
</svg>
