<svg xmlns="http://www.w3.org/2000/svg" width="37" height="22" fill="none" xmlns:v="https://vecta.io/nano"><path d="M32.027 12.543a2.85 2.85 0 0 0 .437.377 2.35 2.35 0 0 1 .754 1.133c.134.444.134.917-.001 1.361a4.83 4.83 0 0 0-.305 1.507 3.98 3.98 0 0 1-.128.67c-.032.144-.088.281-.166.407-.405.689-1.018 1.231-1.751 1.548-1.115.455-2.29.747-3.488.866l-1.386.132c-.363.045-.73.045-1.092 0-.313 0-.426-.215-.305-.512.277-.694.802-1.261 1.473-1.589l1.213-.633a1.2 1.2 0 0 0 .117-.068c.06-.041.139-.098.102-.173s-.128 0-.188 0c-.331.103-.674.161-1.021.173-.41.055-.806.182-1.171.377-.696.322-1.443.52-2.207.584-.681.063-1.354.189-2.011.377-.517.163-1.064.21-1.601.136-.476-.039-.918-.265-1.228-.629a2.34 2.34 0 0 1-.546-1.085 1.08 1.08 0 0 1 .264-.964 5.05 5.05 0 0 1 1.07-.889l1.507-.896a3.84 3.84 0 0 0 1.194-1.281 3.58 3.58 0 0 0 .493-1.299l-.211.267a2.22 2.22 0 0 1-1.721.923.82.82 0 0 1-.166 0c-.113 0-.132-.079-.087-.173.019-.041.042-.08.068-.117a7.48 7.48 0 0 1 .972-1.179c.115-.118.222-.244.32-.377.195-.254.435-.47.708-.636l1.375-.844a6.53 6.53 0 0 1 1.352-.588 10.17 10.17 0 0 1 1.789-.493 1.77 1.77 0 0 1 .546 0l2.52.331a2.83 2.83 0 0 0 1.006-.049.62.62 0 0 0 .295-.123c.086-.066.153-.154.194-.254a.18.18 0 0 0-.038-.192c-.024-.029-.057-.048-.094-.054s-.074.001-.106.02c-.531.264-1.081.124-1.612.049l-2.362-.271a5.56 5.56 0 0 0-.9.038 7 7 0 0 0-1.834.414c-.518.203-1.011.462-1.473.772-.653.387-1.248.865-1.767 1.42a10.74 10.74 0 0 0-1.152 1.439c-.162.258-.398.461-.676.585s-.587.161-.887.108c-.592-.038-1.173-.173-1.721-.399-.497-.192-.901-.566-1.13-1.047-.375-.823-.898-1.57-1.544-2.203-.319-.286-.674-.53-1.055-.727a4.52 4.52 0 0 0-1.45-.463c-.535-.094-1.062-.252-1.589-.399a1.26 1.26 0 0 1-.667-.452c-.235-.254-.438-.536-.603-.84-.012-.03-.03-.057-.055-.078s-.053-.036-.085-.043c-.136-.026-.215.053-.166.181a3.3 3.3 0 0 0 .147.324c.137.241.253.493.347.753a.79.79 0 0 0 .418.497c.35.179.724.306 1.111.377a8.2 8.2 0 0 1 2 .546 7.31 7.31 0 0 1 1.616.96c.373.312.678.696.896 1.13.154.332.221.697.196 1.062l-.053 1.284a2.02 2.02 0 0 0 .23 1.043 2.99 2.99 0 0 0 1.668 1.461c.212.061.427.109.644.143 0 .136-.128.203-.166.313-.197.456-.24.963-.124 1.446 0 .034.023.072.03.105.079.271.075.283-.215.335l-.81.132-2.177.196c-.122.017-.247-.002-.36-.054s-.207-.135-.273-.24c-.465-.661-1.109-1.175-1.857-1.48a14.98 14.98 0 0 0-2.637-.976c-1.265-.339-2.435-.964-3.42-1.827l-.068-.045h-.041c-.053.113-.098.211.023.331.753.812 1.646 1.482 2.637 1.977.925.453 1.877.848 2.851 1.183a5.24 5.24 0 0 1 1.966 1.1c.202.183.441.32.702.401s.535.105.805.07c.246-.031.494-.049.742-.053l2.023-.094c.308-.041.621.014.896.158.464.249.974.398 1.499.438s1.052-.031 1.548-.208a18.81 18.81 0 0 1 2.343-.539l1.273-.181c.092-.034.194-.034.286 0 .011.021.014.046.01.07s-.016.046-.033.062l-.712.93a1.77 1.77 0 0 1-.806.55c-.77.255-1.56.447-2.361.573-1.507.237-3.013.136-4.52.151-.81 0-1.62-.049-2.429-.06-.957-.036-1.903-.21-2.81-.516a21.7 21.7 0 0 1-3.258-1.48l-.753-.377c-.568-.251-1.119-.538-1.65-.859-.604-.321-1.187-.681-1.744-1.077-.329-.245-.612-.546-.836-.889l-.531-.829a4.94 4.94 0 0 1-.629-1.68l-.124-.731a2.01 2.01 0 0 0-.245-.689c-.336-.626-.443-1.349-.301-2.045a7.88 7.88 0 0 1 .678-2.128.79.79 0 0 1 .049-.098l1.458-2.151a6.78 6.78 0 0 1 1.962-1.68c.84-.512 1.729-.938 2.603-1.394a27.12 27.12 0 0 1 2.964-1.307c1.17-.469 2.395-.784 3.646-.938a23.7 23.7 0 0 1 3.469-.113 17.76 17.76 0 0 1 2.636.26 18.99 18.99 0 0 1 2.042.501l1.759.516c.377.098.708.241 1.058.377l3.232 1.269 2.362.874a20.69 20.69 0 0 1 1.966.753c.612.285 1.199.62 1.755 1.002.552.45 1.003 1.011 1.326 1.646.291.508.489 1.064.584 1.642.152.661.268 1.33.347 2.004a7.29 7.29 0 0 1-.098 2.26 6.96 6.96 0 0 1-.508 1.439 5.73 5.73 0 0 1-.475.949 6.63 6.63 0 0 1-1.183 1.378c-.049.057-.11.102-.18.129s-.145.038-.22.029-.146-.035-.207-.078-.112-.1-.146-.167a1.68 1.68 0 0 1-.27-.614c-.048-.221-.051-.449-.009-.671.065-.434.048-.876-.049-1.303-.115-.482-.388-.912-.776-1.22a2.89 2.89 0 0 0-.761-.516zm-12.094 5.586c-.361-.135-.68-.364-.924-.663s-.403-.658-.462-1.039a3.62 3.62 0 0 1-.313.35.72.72 0 0 0-.162.851 1.26 1.26 0 0 0 1.269.753c.053-.001.106-.016.151-.045.133-.096.282-.166.441-.207zm4.117-4.964l-.279-.098a.8.8 0 0 1-.554-.753 1.36 1.36 0 0 1 .023-.245c0-.053 0-.12-.034-.151-.029-.014-.062-.017-.094-.01s-.059.026-.079.051c-.027.025-.051.053-.072.083-.125.197-.175.432-.138.662s.155.439.334.588c.037.027.079.046.124.057a4.27 4.27 0 0 0 .429.075c.207.008.241-.023.339-.26zm1.228 1.435c-.129.138-.202.319-.203.508-.005.055.004.11.026.161s.055.095.098.13c.178.156.378.283.595.377a1.13 1.13 0 0 0 1.04-.068c.143-.087.12-.09 0-.192-.063-.049-.138-.081-.217-.093s-.16-.003-.235.025a.73.73 0 0 1-.271 0c-.531-.117-.817-.211-.832-.847zm-5.326-.78a14.52 14.52 0 0 1-2.177.151c-.154-.001-.306-.032-.448-.09l-.595-.275c-.157-.086-.333-.131-.512-.131s-.355.045-.512.131c-.128.086-.265.156-.411.207-.098.023-.105.09-.06.17l.279.501a2.36 2.36 0 0 0 1.642 1.201c.338.096.7.061 1.013-.098.806-.463 1.563-1.005 2.26-1.62.023-.018.041-.041.054-.067s.019-.055.018-.084c-.182-.029-.368-.028-.55.004z" fill="#67b145"/></svg>