<svg xmlns="http://www.w3.org/2000/svg" width="31" height="28" fill="none" xmlns:v="https://vecta.io/nano"><path d="M26.273 23.043c-.301 0-.602-.034-.904-.1-.268-.067-.536-.234-.803-.469.301.1.669.134 1.004.134h.167c.971-.034 1.841-.536 2.41-1.306.301-.368.569-.77.803-1.205.803-1.406 1.272-2.946 1.272-4.586a9.05 9.05 0 0 0-.937-3.984c.536-1.507 1.004-3.616.77-6.093-.234-2.41-1.071-4.285-1.707-5.39l-5.524 5.591c-2.243-1.004-4.888-1.607-7.7-1.607-2.779 0-5.356.569-7.599 1.573L2.035.044a14.51 14.51 0 0 0-1.707 5.39c-.234 2.377.201 4.419.703 5.926-.67 1.272-1.004 2.678-1.004 4.151a8.85 8.85 0 0 0 1.272 4.586 12.55 12.55 0 0 0 .803 1.205c.569.77 1.473 1.272 2.41 1.306h.167c.435 0 .837-.067 1.205-.201-.301.268-.569.435-.904.536a2.74 2.74 0 0 1-1.038.1c-1.339-.067-2.544-.87-2.98-2.109.335 7.298 6.662 7.03 7.733 7.064 1.373.033 3.314-.368 4.72-1.272.77-.502 1.406-1.138 1.741-1.975.335.804.971 1.473 1.707 1.942 1.44.937 3.348 1.339 4.754 1.306 1.071-.034 7.365.234 7.733-7.064-.435 1.272-1.707 2.109-3.08 2.109zm-14.161-6.796c-.569-.536-1.64-.87-2.812-.87-1.306 0-2.444.435-2.98 1.038-.301-.268-.502-.603-.502-.937 0-1.004 1.473-1.808 3.314-1.808s3.314.803 3.314 1.808c0 .234-.101.502-.335.77zm3.08 5.49c-.435-1.205-1.339-2.009-2.511-2.377.335-.435 1.373-1.607 2.578-1.607 1.172 0 2.176 1.138 2.544 1.607-1.239.335-2.176 1.172-2.611 2.377zm9.006-5.49c-.569-.536-1.64-.87-2.812-.87-1.306 0-2.444.435-2.979 1.038-.301-.268-.502-.603-.502-.937 0-1.004 1.473-1.808 3.314-1.808s3.314.803 3.314 1.808c0 .234-.134.502-.335.77z" fill="#62ac44"/></svg>