<svg xmlns="http://www.w3.org/2000/svg" width="34" height="25" fill="none" xmlns:v="https://vecta.io/nano"><path d="M27.757 1.007c.188-.111.422-.074.629-.045.511.101.904.485 1.201.891.207-.129.426-.264.674-.286.202-.005.371.141.474.302.193.309.258.687.49.974.056.071.139.109.219.144.329.139.628.339.914.549.123.076.135.235.18.359.163.537.104 1.102.051 1.65-.012.276-.035.564.059.829.143.324.418.563.594.866.405.724.73 1.519.758 2.359v.03c-.024.431-.069.9-.361 1.242-.24.288-.629.374-.985.416a3.77 3.77 0 0 1-.768.026l-1.946-.31c-.116-.018-.245-.019-.34.057-.133.095-.168.267-.183.42-.023.4.045.818-.106 1.201-.077.205-.261.34-.43.466-.371.256-.786.439-1.17.674-.056.039-.042.118-.042.177.025.312.113.619.086.934a.76.76 0 0 1-.245.54c-.261.241-.488.516-.703.798-.035.048-.075.096-.087.157l-.252 1.302c-.068.218-.141.456-.321.61-.215.167-.495-.116-.713.056-.405.3-.53.82-.809 1.218-.159.202-.375.353-.614.448l-.305 4.459H21.95l.165-2.84c.069-.587-.033-1.171-.106-1.752-.006-.124-.146-.241-.267-.185-.353.102-.725.156-1.089.098-.296-.077-.522-.298-.717-.521-.6.576-1.471.773-2.282.688-.16-.247-.269-.554-.545-.697-.183-.11-.407-.053-.588.033-.413.19-.661.614-1.087.784-.374.173-.802.064-1.16-.099-.383-.184-.74-.422-1.083-.671-.177.08-.285.247-.382.406-.329.04-.668.153-.994.035-.526-.136-.893-.562-1.34-.84-.301.224-.547.537-.911.665-.237.082-.499.136-.747.07-.281-.062-.547-.17-.825-.24a.39.39 0 0 0-.274.028c-.487.22-.747.758-1.254.945-.104.05-.215.015-.318-.016l-.394 3.886c-.616.002-1.232-.001-1.848.001-.027-.223-.101-.446-.064-.673l.306-2.323c.062-.644-.284-1.24-.713-1.692.052-.251-.019-.511-.18-.707-.422-.561-1.143-.796-1.546-1.375-.121-.18-.237-.427-.112-.634.097-.246.32-.47.261-.751-.014-.089-.056-.171-.118-.235-.364-.404-.67-.855-.969-1.307-.137-.201-.126-.455-.149-.687-.048-.406.249-.748.271-1.144-.067-.226-.286-.365-.405-.562-.272-.471-.463-1-.489-1.547v-.152c.029-.255.027-.523.135-.761.177-.342.532-.552.706-.896-.075-.329-.254-.623-.328-.952a1.9 1.9 0 0 1 .477-1.377 4.28 4.28 0 0 0 .669-.101c.215-.042.374-.215.492-.389.239-.355.283-.799.503-1.164.087-.151.206-.291.367-.365l.721-.299c.129-.04.265-.081.401-.057l.906.17c.212.03.449-.029.592-.197.129-.144.164-.341.195-.525.315-.104.656-.22.988-.132l1.391.326c.254-.125.375-.411.629-.538.301-.164.662-.113.977-.022.384.109.677.397 1.034.563.25-.149.443-.447.764-.434.577.151 1.051.613 1.666.635.418 0 .605-.46.99-.542.253-.078.509.042.715.184.253.176.487.377.725.573.358-.211.765-.369 1.187-.349.492.089.968.256 1.46.344.209-.009.329-.221.506-.307.361-.169.761-.257 1.159-.257.447.057.865.242 1.299.354.212-.058.386-.224.613-.233l1.047-.003c.136-.109.261-.241.428-.306.296-.126.593-.284.919-.305.338.027.671.098 1.008.137.08-.476.286-.919.503-1.346.422-.077.838-.197 1.245-.331.251-.165.437-.411.668-.603z" fill="#62ac44"/></svg>