<svg xmlns="http://www.w3.org/2000/svg" width="43" height="30" fill="#62ac44" xmlns:v="https://vecta.io/nano"><path d="M42.682 13.309L21.931.226a.69.69 0 0 0-.722 0L.458 13.309c-.316.18-.406.586-.226.902l.857 1.308c.18.316.586.406.902.226l5.052-3.203v16.827c0 .361.271.631.632.631h1.579c.361 0 .632-.271.632-.631V10.737L21.57 3.384l11.684 7.353v18.631c0 .361.271.631.632.631h1.579c.361 0 .632-.271.632-.631V12.542l5.052 3.203c.316.181.722.09.902-.226l.857-1.308c.181-.316.09-.722-.226-.902zm-12.36 1.94l-3.158-1.444c-.226-.09-.451-.271-.632-.496l-.677-.812c-.226-.271-.586-.181-.722.135l-1.308 3.564c-.361.722-1.534 1.94-2.391 2.03l-6.812.406-1.353-.992c-.271-.18-.587-.135-.812.135-.181.226-.135.587.09.767l1.173 1.038s-.226.812-.316 2.12c-.045 1.308.857 3.158.993 3.88s.045 2.662.09 3.293S14.894 30 15.3 30h1.489c.406 0 .767-.361.677-.812l-.045-.226c-.045-.316-.316-.586-.677-.632l-.496-.045.541-1.263c.271-.632.406-1.263.451-1.94l.045-1.263c.677-.045 1.353 0 2.03.045 1.218.09 3.023.09 4.511.09l.271 2.301-.09 2.481c-.045.677.496 1.218 1.173 1.218h1.218c.496 0 .857-.451.767-.902-.045-.181-.09-.361-.18-.451-.316-.316-1.083-.361-1.083-.361l.857-4.737c.181-1.038.09-3.519.181-4.331.09-.857.496-1.895.496-1.895l2.346.271c.361.045.677-.18.767-.541l.18-1.037a.67.67 0 0 0-.406-.722z"/></svg>