<svg width="109" height="148" viewBox="0 0 109 148" fill="none" xmlns="http://www.w3.org/2000/svg">
  <path fill-rule="evenodd" clip-rule="evenodd" d="M88.8001 28.0022c-2.001-.576-3.929 1.56-3.929 1.56s-.498-2.834-2.499-3.411c-2.02-.581-3.646.578-4.158 2.355-.737 2.561.377 4.712 4.148 9.772 5.884-2.281 7.97-3.51 8.708-6.071.511-1.777-.249-3.624-2.27-4.205zM102.709 94.3395l4.397-.98c.225-.05.362-.268.319-.494-.291-1.498-.344-3.067-.124-4.661.221-1.594.699-3.09 1.386-4.453.104-.205.03-.452-.172-.561l-3.966-2.139c-.21-.113-.477-.034-.585.178-.977 1.906-1.656 4.002-1.966 6.24-.31 2.238-.226 4.44.195 6.539.047.234.283.383.516.331zM85.7431 135.953c-2.065.269-2.981 2.997-2.981 2.997s-1.587-2.401-3.652-2.131c-2.084.273-3.113 1.984-2.873 3.818.345 2.642 2.224 4.171 7.7 7.307 4.487-4.439 5.91-6.398 5.564-9.041-.24-1.834-1.674-3.223-3.758-2.95zM57.4251 118.773l-3.971-2.129c-.202-.109-.449-.034-.563.166a14.2041 14.2041 0 01-2.95 3.611 14.203 14.203 0 01-3.956 2.468c-.213.089-.318.323-.236.538l1.608 4.209c.085.223.339.337.56.247 1.983-.806 3.866-1.95 5.562-3.443 1.696-1.493 3.07-3.216 4.121-5.081.117-.208.035-.474-.175-.586zM51.3512 2.1495l-4.341-1.208c-.221-.062-.446.065-.514.285-.449 1.459-1.141 2.868-2.087 4.17a14.1758 14.1758 0 01-3.32 3.274c-.188.133-.239.385-.112.578l2.49 3.753c.132.2.404.255.6.12 1.759-1.221 3.346-2.75 4.674-4.578 1.328-1.828 2.291-3.81 2.908-5.86.069-.228-.068-.471-.298-.534zM26.854 34.8725c-2.05.366-2.837 3.134-2.837 3.134s-1.697-2.324-3.747-1.957c-2.07.37-3.017 2.128-2.691 3.949.469 2.623 2.417 4.061 8.035 6.937 4.273-4.644 5.602-6.67 5.133-9.293-.325-1.82-1.823-3.141-3.893-2.77zM.7556 83.3751l4.212 1.598c.2154.0819.4497-.0249.538-.2374.5802-1.4114 1.3983-2.7513 2.4581-3.962 1.0608-1.2102 2.2823-2.1972 3.6054-2.9583.1995-.1141.2735-.3612.1646-.5632l-2.1376-3.9668c-.1133-.2098-.3798-.2905-.5865-.1728-1.8638 1.0553-3.583 2.4332-5.072 4.1324-1.4891 1.6993-2.6292 3.5851-3.4311 5.57-.0894.2213.0259.4755.2491.5601z" fill="#3E3E3E"/>
</svg>
