<svg xmlns="http://www.w3.org/2000/svg" width="32" height="30" fill="none" xmlns:v="https://vecta.io/nano"><path fill-rule="evenodd" d="M7.451 2.287H4.699c-.55 0-.688.275-.826.55H.296c-.688 1.926.138 3.302 2.201 3.99 7.292.275 1.651 10.869 6.329 11.97l.138 10.457h1.926l1.514-8.668c2.476.138 4.265-.138 5.366-.825 3.715-1.926 6.191-1.101 7.292 3.027l4.403 2.064v4.403h2.477v-5.779c-2.477-1.789-3.027-3.99-2.614-6.467l-1.238-4.54c3.577-4.678-.688-9.494-5.091-8.53-.55.688-.55 1.376.275 1.926 3.715-.826 5.641 3.165 3.44 5.503h-6.742l-6.467-1.651L9.79 4.213c-.138-.275-.138-.55.275-.688.825-1.238.688-2.201-.138-2.889-.55.688-1.513 1.101-2.477 1.651z" fill="#62ac44"/></svg>