<svg xmlns="http://www.w3.org/2000/svg" width="21" height="39" fill="none" xmlns:v="https://vecta.io/nano"><path d="M.583 25.617c.131-7.226 6.37-5.714 5.057-10.443-3.856-3.068-4.599-7.555-1.183-10.51C4.392 1.576 7.282 0 7.282 0s2.102 2.102 1.905 4.138c1.84-.591 4.73 1.314 5.19 1.971.986-1.642 4.466-1.576 4.466-1.576s1.117 4.401-1.707 5.977c-.394 3.809-3.269 5.709-5.124 5.846-.284 3.256 4.983 4.919 4.428 10.809 3.493 1.712 4.92 4.366 2.797 7.123-3.262 4.235-11.787 4.531-12.677 2.627-.931-1.989.594-3.79 4.059-3.166 3.17.571 10.326-1.663 4.92-4.782-1.386 2.01-2.98 3.049-6.483 3.087-5.344.057-8.553-2.041-8.474-6.438z" fill="#62ac44"/></svg>