<svg xmlns="http://www.w3.org/2000/svg" width="33" height="25" fill="#62ac44" xmlns:v="https://vecta.io/nano"><path d="M8.818 12.194v5.134l-1.98-2.693-1.98 1.868v-5.016c0-.614.218-1.214.614-1.683l3.88.805c-.343.456-.535 1.01-.535 1.585zm8.6-11.536L2.021 7.211v.007a2.2 2.2 0 0 1 1.326-.132l14.922 3.102 14.07-6.428L17.418.658zM15.493 3.63l2.129-.906L26.02 4.47l-2.029.926-8.497-1.766z"/><path d="M18.269 15.399c-.044 0-.09-.005-.135-.014l-9.447-1.963a.66.66 0 1 1 .27-1.293l9.446 1.963a.66.66 0 0 1-.133 1.306zm0 9.108a.66.66 0 0 1-.275-1.26l14.071-6.423a.66.66 0 0 1 .548 1.201l-14.071 6.422c-.089.04-.182.059-.273.059z"/><path d="M18.269 19.953a.66.66 0 0 1-.275-1.261l14.071-6.423a.66.66 0 0 1 .548 1.201l-14.071 6.423a.66.66 0 0 1-.273.059zm0-4.554a.66.66 0 0 1-.275-1.26l14.071-6.422a.66.66 0 0 1 .874.326.66.66 0 0 1-.327.874L18.541 15.34a.66.66 0 0 1-.273.059zM2.437 21.216c-.044 0-.09-.005-.135-.014-1.559-.325-2.565-1.857-2.241-3.417a2.87 2.87 0 0 1 1.244-1.828 2.88 2.88 0 0 1 2.173-.413.66.66 0 0 1 .511.781c-.075.357-.424.583-.781.512a1.56 1.56 0 0 0-1.18.224 1.56 1.56 0 0 0-.676.992c-.176.847.37 1.68 1.217 1.857a.66.66 0 0 1 .511.781c-.063.312-.338.526-.644.526z"/><path d="M18.269 24.507c-.044 0-.09-.005-.135-.014l-15.831-3.29a.66.66 0 1 1 .269-1.293l15.831 3.29a.66.66 0 0 1-.134 1.307zM2.437 16.663a.68.68 0 0 1-.135-.014C.743 16.324-.263 14.792.061 13.232s1.86-2.566 3.417-2.241a.66.66 0 0 1 .512.781c-.075.356-.426.584-.78.511A1.57 1.57 0 0 0 1.354 13.5a1.57 1.57 0 0 0 1.217 1.856.66.66 0 0 1-.133 1.307z"/><path d="M18.269 19.952c-.044 0-.09-.005-.135-.014l-15.831-3.29a.66.66 0 0 1 .269-1.293l15.831 3.29a.66.66 0 0 1-.134 1.307zM32.34 4.422a.67.67 0 0 1-.135-.014L17.283 1.306a.66.66 0 0 1-.512-.781.66.66 0 0 1 .781-.511l14.923 3.102a.66.66 0 0 1-.134 1.306z"/><path d="M18.269 10.845a.66.66 0 0 1-.275-1.261l14.071-6.423a.66.66 0 0 1 .548 1.201l-14.071 6.423c-.089.04-.182.059-.273.059z"/><path d="M18.269 10.844c-.044 0-.09-.004-.135-.014L3.21 7.729a.66.66 0 1 1 .269-1.292l14.923 3.102a.66.66 0 0 1-.134 1.306z"/><path d="M2.437 12.108c-.044 0-.09-.005-.135-.014A2.87 2.87 0 0 1 .474 10.85a2.87 2.87 0 0 1-.412-2.173c.324-1.559 1.86-2.563 3.417-2.241a.66.66 0 0 1 .512.78c-.075.357-.426.584-.78.512a1.56 1.56 0 0 0-1.181.224 1.56 1.56 0 0 0-.676.993 1.57 1.57 0 0 0 1.217 1.856.66.66 0 0 1-.133 1.307z"/><path d="M2.018 7.875a.66.66 0 0 1-.259-1.268L17.158.053a.66.66 0 0 1 .866.348.66.66 0 0 1-.349.866L2.277 7.821a.66.66 0 0 1-.259.053z"/></svg>