<svg xmlns="http://www.w3.org/2000/svg" width="30" height="23" fill="#62ac44" xmlns:v="https://vecta.io/nano"><path d="M15.001 13.077c2.519 0 4.23-1.894 4.23-4.231s-1.711-4.23-4.23-4.23-4.232 1.894-4.232 4.23 1.712 4.231 4.232 4.231zm5.477 8.728c.624-.689 1.007-1.893 1.06-2.968 0-2.469-1.411-4.613-3.498-5.76-.9.786-2.087 1.252-3.425 1.252s-2.524-.465-3.425-1.252c-2.087 1.147-3.498 3.29-3.498 5.76.053 1.075.437 2.279 1.06 2.968.598.696 11.5.645 11.726 0zm2.599-13.343c2.289 0 3.846-1.895 3.846-4.231S25.367 0 23.077 0 19.23 1.894 19.23 4.231s1.556 4.231 3.847 4.231zm-16.154 0c2.29 0 3.846-1.895 3.846-4.231S9.213 0 6.923 0 3.077 1.894 3.077 4.231s1.556 4.231 3.846 4.231zm19.668-.001c-.877.787-2.033 1.252-3.337 1.252-1.141 0-2.17-.357-2.997-.974l.005.226c0 1.245-.381 2.36-1.031 3.235 2.036 1.191 3.399 3.227 3.723 5.491 2.899.012 5.898-.163 6.014-.502.608-.688.982-1.893 1.033-2.968 0-2.469-1.375-4.613-3.409-5.76zm-19.545 9.23c.323-2.265 1.686-4.3 3.723-5.491-.65-.874-1.031-1.989-1.031-3.234l.005-.226c-.827.617-1.856.974-2.996.974-1.303 0-2.46-.466-3.338-1.252C1.375 9.609 0 11.752 0 14.222c.052 1.075.425 2.279 1.034 2.968.297.355 3.205.515 6.013.502z"/></svg>