<svg width="40" height="40" viewBox="0 0 40 40" fill="none" xmlns="http://www.w3.org/2000/svg">
<ellipse cx="19.9326" cy="19.482" rx="18.6787" ry="18.1451" fill="#FCFCFC"/>
<path d="M19.9326 0.269531C9.02713 0.269531 0.186523 9.11014 0.186523 20.0156C0.186523 30.9211 9.02713 39.7617 19.9326 39.7617C30.8381 39.7617 39.6787 30.9211 39.6787 20.0156C39.6787 9.11014 30.8381 0.269531 19.9326 0.269531ZM30.9125 13.5496C22.7422 21.4557 18.6561 29.8324 18.6156 29.9172C18.5965 29.9565 18.5501 30.0424 18.5291 30.08C18.3611 30.3844 18.1482 30.5933 17.8365 30.7965C17.8303 30.8006 17.8223 30.7987 17.8158 30.8028C17.4829 31.0147 17.173 31.1429 16.7767 31.1552C16.756 31.1557 16.6636 31.1552 16.6422 31.1552C16.6422 31.1552 16.6415 31.1547 16.6407 31.1547L16.6391 31.1552C16.3209 31.1552 15.9969 31.0858 15.6903 30.9392C15.6744 30.9315 15.6655 30.9168 15.6501 30.9089C15.5908 30.879 15.4649 30.8162 15.4082 30.7807C15.1739 30.6325 15.1088 30.5811 14.9516 30.3673C14.9248 30.3314 14.8303 30.2021 14.8052 30.164C14.784 30.1293 12.6513 26.9129 9.29598 24.7686C8.27589 24.1168 7.977 22.7631 8.62877 21.7411C9.28055 20.7191 10.6323 20.4298 11.6562 21.0739C13.5882 22.3078 15.1497 23.7875 16.3021 25.0487C18.283 21.6989 22.0784 16.0007 27.8658 10.4025C28.7335 9.55406 30.1219 9.58106 30.9627 10.4527C31.8073 11.3204 31.7841 12.7088 30.9125 13.5496Z" fill="#62AC44"/>
</svg>
