<svg xmlns="http://www.w3.org/2000/svg" width="50" height="50" fill="none"><g clip-path="url(#a)"><path fill="#2C2C2C" d="M35.011 16.56a6.408 6.408 0 0 1-.545-.297 7.562 7.562 0 0 1-1.4-1.117c-1.044-1.122-1.434-2.26-1.578-3.057h.006c-.12-.661-.07-1.089-.063-1.089h-4.756v17.266c0 .232 0 .461-.01.688 0 .028-.003.054-.005.084 0 .013 0 .026-.002.039v.01a3.638 3.638 0 0 1-.616 1.742 3.94 3.94 0 0 1-1.416 1.267c-.6.32-1.278.488-1.968.487-2.216 0-4.011-1.696-4.011-3.791 0-2.095 1.796-3.792 4.011-3.792.42 0 .836.062 1.235.184l.006-4.547a9.388 9.388 0 0 0-3.612.266 9.032 9.032 0 0 0-3.195 1.604 8.896 8.896 0 0 0-2.036 2.358c-.201.325-.958 1.63-1.05 3.75-.058 1.203.327 2.45.51 2.965v.01c.116.304.563 1.339 1.291 2.211a9.444 9.444 0 0 0 2.06 1.825v-.01l.012.01C20.18 37.096 22.734 37 22.734 37c.442-.017 1.922 0 3.603-.748 1.864-.83 2.926-2.065 2.926-2.065a8.496 8.496 0 0 0 1.594-2.488c.43-1.062.574-2.336.574-2.845v-9.16c.058.032.826.51.826.51s1.107.666 2.834 1.1c1.24.308 2.909.373 2.909.373v-4.432c-.585.06-1.773-.114-2.989-.683Z"/><path stroke="#2C2C2C" stroke-miterlimit="10" stroke-width="3" d="M25.1 48.3c12.868 0 23.3-10.432 23.3-23.3S37.968 1.7 25.1 1.7 1.8 12.132 1.8 25s10.432 23.3 23.3 23.3Z"/></g><defs><clipPath id="a"><path fill="#fff" d="M0 0h50v50H0z"/></clipPath></defs></svg>