<svg xmlns="http://www.w3.org/2000/svg" fill="none" viewBox="0 0 54 67"><path fill="#F2F2F2" d="M35.361 66.105H31.27l-7.233-1.827-6.722-1.9-5.48-2.045-4.383-1.68-3.872-2.63-1.973-2.996-1.242-9.279v-5.625l.804-5.553 1.68-3.36 3.58-1.974 4.53-1.753 5.333-1.315h4.019l4.383.658 1.315-1.608h3.288l3.36.95 1.828 3.069 13.662 4.602 2.265 1.535 1.315 9.205-2.046 15.416-3.434 3.36-10.886 4.75Z"/><path fill="#003021" d="M26.09 37.2c-5.537-3.315-12.328-5.164-18.023-5.537-2.207-.146-3.628 1.085-4.032 3.022-.974 4.674-.88 9.492 0 14.182.451 2.398 1.433 4.265 3.563 5.605 4.724 2.973 12.765 5.789 18.46 6.477 2.327.282 3.625-1.162 4.095-3.086 1.1-4.518.79-9.052 0-14.181-.432-2.82-1.768-5.108-4.062-6.482Z"/><path fill="#003021" d="M53.334 39.557c-.206-4.565-2.153-7.115-6.718-8.81-2.602-.966-6.86-2.473-11.535-3.84a6.046 6.046 0 0 0-2.025-2.945l6.618-9.071 4.02 5.12a2.44 2.44 0 1 0 .888-.698l-4.09-5.211c-.203-.259-.51-.4-.84-.4-.328.005-.628.162-.823.428l-6.724 9.217c-.42-.223-.875-.4-1.364-.533a6.715 6.715 0 0 0-2.41-.209L25.35 4.815A2.502 2.502 0 0 0 24.39 0a2.503 2.503 0 0 0-.155 5l2.987 17.81h-.002a6.044 6.044 0 0 0-2.701 1.56c-2.705-.462-5.24-.706-7.357-.588-5.409.288-10.631 2.883-13.261 4.405l.002.005c-1.402.746-2.407 2.017-2.9 3.757C-.607 37.639.025 47.02.8 51.597c.65 3.837 2.614 5.561 6.002 7.353 0 0 1.089.545 1.912.904 2.144.935 5.338 2.149 8.876 3.313.052-.335-.164 1.168 0 0 .675.223.639.211 1.633.524 4.208 1.325 8.726 2.508 12.448 3.041.403.058.476.103.658.103.183 0 .33.052.658.052l.894.085c.263.016.519.028.765.028.914 0 1.722-.115 2.438-.357v.002c1.796-.594 3.877-1.533 5.774-2.482.504-.14 1.709-.834 1.93-.998a70.928 70.928 0 0 0 2.856-1.608c1.999-1.198 4.126-2.957 4.774-6.902.82-4.993 1.137-10.218.916-15.098ZM30.45 23.906c1.26.34 2.567 1.184 3.273 2.611.195.388.346.82.437 1.297.082.418.118.868.104 1.357a1.432 1.432 0 0 1-1.309 1.378c-2.383.212-6.575-.361-8.338-2.799a1.414 1.414 0 0 1-.108-1.5c.129-.238.27-.456.427-.656.291-.382.627-.702.989-.962 1.352-.968 3.092-1.114 4.525-.726Zm-13.228 1.003c1.88-.099 4.107.089 6.493.474-.07.103-.132.211-.193.322a2.498 2.498 0 0 0-.305 1.2c0 .53.167 1.061.489 1.507 1.69 2.335 5.236 3.312 8.226 3.312.387 0 .765-.017 1.127-.047a2.558 2.558 0 0 0 2.336-2.47 6.67 6.67 0 0 0-.044-1.046 180.5 180.5 0 0 1 10.87 3.645c1.189.439 2.168.937 2.97 1.517.395.345.503.972-.114 1.3-1.24.663-6.507 2.786-7.729 3.176-1.22.392-2.033.03-3.036-.742l-.002.002c-.9-.726-2.02-1.36-3.436-1.968-6.073-2.62-19.446-6.89-26.576-7.616-.162-.016-.322-.023-.479-.033 3.292-1.484 6.592-2.383 9.403-2.533ZM33.7 65.835c-8.24-.68-22.46-5.83-26.257-7.822-3.276-1.719-4.938-3.144-5.525-6.603-.815-4.812-1.301-13.933.174-19.153.758-2.685 2.928-3.983 6.096-3.66 6.373.649 19.568 4.65 26.242 7.53 3.58 1.542 5.044 3.135 5.808 6.31 1.594 6.627 1.035 14.477.127 17.934-.757 2.881-1.738 4.466-3.4 5.128l-.229.078.003.005c-.834.284-1.83.354-3.04.253Z"/><path fill="#003021" d="M34.883 47.489c.263.068.526.103.782.103.56 0 1.099-.165 1.564-.484.695-.479 1.132-1.244 1.225-2.153.186-1.769-1.03-3.567-2.712-4.011-.838-.221-1.672-.087-2.346.38-.695.48-1.132 1.245-1.226 2.154-.185 1.768 1.031 3.567 2.713 4.01Zm-1.588-3.894c.061-.575.324-1.052.745-1.34.27-.189.589-.283.925-.283.16 0 .324.021.49.066 1.165.308 2.006 1.564 1.877 2.8-.061.575-.324 1.051-.745 1.34-.399.275-.901.352-1.416.219-1.164-.308-2.007-1.564-1.876-2.802ZM37.698 55.32c.696-.479 1.132-1.245 1.226-2.153.186-1.769-1.03-3.568-2.712-4.011-.839-.221-1.672-.087-2.346.38-.695.48-1.132 1.245-1.226 2.154-.185 1.768 1.031 3.567 2.712 4.01.263.069.526.104.782.104a2.73 2.73 0 0 0 1.564-.484Zm-3.933-3.51c.061-.576.324-1.053.744-1.342.27-.188.59-.281.926-.281.16 0 .324.02.49.065 1.165.308 2.006 1.564 1.877 2.8-.061.575-.324 1.052-.745 1.34-.399.275-.901.353-1.416.219-1.164-.308-2.008-1.564-1.876-2.802ZM37.889 59.685c.089-.652-.362-1.326-1.008-1.507-.646-.18-1.24.204-1.33.857-.088.653.363 1.327 1.008 1.508.646.178 1.24-.205 1.33-.858ZM33.368 57.23c-.646-.182-1.24.204-1.33.856-.088.653.363 1.327 1.008 1.508.646.18 1.24-.204 1.33-.857.089-.653-.362-1.33-1.008-1.508Z"/><path fill="#68B445" d="m6.658 35.667.05 4.443 2.698.775.047 10.443 3.919 1.573-.634-10.842 3.027 1.29-.094-4.622-9.013-3.06ZM16.798 39.1l2.276 15.701 3.261 1.221 5.517-13.143-3.685-1.22-3.285 9.223.726.188-.843-10.608-3.967-1.362Z"/><path fill="#fff" d="M23.068 59.087c3.807.88 5.437.143 6.003-3.001l-.165-.082c-1.256 2.193-3.708 3.172-5.878 2.874l.04.209ZM5.087 35.258c.291-2.052 2.086-2.733 4.065-2.418l.059.173c-1.733.313-2.968.973-3.931 2.302l-.193-.057Z"/></svg>