<?xml version="1.0" encoding="utf-8"?>
<!-- Generator: Adobe Illustrator 21.1.0, SVG Export Plug-In . SVG Version: 6.00 Build 0)  -->
<svg version="1.1" id="Layer_1" xmlns="http://www.w3.org/2000/svg" xmlns:xlink="http://www.w3.org/1999/xlink" x="0px" y="0px"
	 viewBox="0 0 50 50" style="enable-background:new 0 0 50 50;" xml:space="preserve">
<style type="text/css">
	.st0{fill:#DCDCDC;}
	.st1{fill:none;stroke:#DCDCDC;stroke-width:3;stroke-miterlimit:10;}
</style>
<path class="st0" d="M11,33.8c2.5,1.7,5.5,2.6,8.8,2.6c10.6,0,16.4-8.8,16.4-16.4c0-0.2,0-0.5,0-0.7c1.1-0.8,2.1-1.8,3-3.1
	c-1,0.5-2.1,0.8-3.3,0.9c1.2-0.7,2.1-1.9,2.5-3.2c-1.2,0.7-2.4,1.1-3.7,1.4c-1-1.1-2.5-1.8-4.2-1.8c-3.2,0-5.8,2.6-5.8,5.8
	c0,0.4,0,0.9,0.1,1.3c-4.8-0.2-9.1-2.5-11.9-6c-0.5,0.9-0.8,1.8-0.8,2.9c0,2,1.1,3.8,2.6,4.8c-0.9,0-1.8-0.3-2.6-0.7
	c0,0.1,0,0.1,0,0.1c0,2.7,2,5.1,4.6,5.6c-0.5,0.1-1,0.2-1.5,0.2c-0.4,0-0.8,0-1.1-0.1c0.8,2.3,2.9,4,5.4,4c-1.9,1.6-4.4,2.5-7.1,2.5
	C11.9,33.9,11.5,33.9,11,33.8z"/>
<circle class="st1" cx="25" cy="25" r="23.2"/>
</svg>
