<svg xmlns="http://www.w3.org/2000/svg" viewBox="0 0 150 150"><path d="M103.8 14c8.9 0 16.9 3.7 22.5 9.6 7.1-1.3 13.6-3.9 19.6-7.5-2.4 7.3-7.2 13.3-13.6 17.1 6.3-.7 12.2-2.5 17.8-4.8-4.2 6.1-9.4 11.6-15.4 15.8.1 1.4.1 2.7.1 4.1.1 40.7-30.8 87.5-87.5 87.6-17.3 0-33.5-5-47.2-13.8 2.5.3 4.9.4 7.4.4 14.4 0 27.7-4.9 38.2-13.2-13.5-.3-24.8-9.2-28.8-21.4 1.9.4 3.9.5 5.8.5 2.8 0 5.6-.3 8.1-1.1C16.6 84.7 6 72.3 6 57.3V57c4.2 2.2 8.9 3.6 13.9 3.7-8.2-5.4-13.7-14.8-13.7-25.5 0-5.6 1.5-10.9 4.2-15.4 15.2 18.5 37.9 30.8 63.4 32.1-.5-2.4-.7-4.6-.7-7.1C73 27.8 86.8 14 103.8 14z" fill="#fff"/></svg>