<svg width="91" height="67" viewBox="0 0 91 67" fill="none" xmlns="http://www.w3.org/2000/svg">
<path d="M45.2935 0.692383C38.3888 0.692383 31.4655 3.30186 26.1997 8.56738C22.1135 12.6537 19.6789 17.7664 18.7623 23.0674C8.30626 24.7657 0.293457 33.7739 0.293457 44.6924C0.293457 56.8189 10.167 66.6924 22.2935 66.6924H71.2935C81.7849 66.6924 90.2935 58.1838 90.2935 47.6924C90.2935 37.4787 82.2131 29.2201 72.106 28.7861C72.3985 21.5094 69.9004 14.1118 64.356 8.56738C59.0936 3.30482 52.1982 0.692383 45.2935 0.692383ZM45.2935 4.69238C51.185 4.69238 57.0431 6.91068 61.5435 11.4111C66.745 16.6126 68.9167 23.6763 68.106 30.4424C68.0703 30.7252 68.0956 31.0124 68.18 31.2847C68.2645 31.557 68.4061 31.8081 68.5955 32.0211C68.7849 32.2342 69.0176 32.4043 69.2781 32.5201C69.5387 32.6359 69.8209 32.6946 70.106 32.6924H71.2935C79.6381 32.6924 86.2935 39.3478 86.2935 47.6924C86.2935 56.037 79.6381 62.6924 71.2935 62.6924H22.2935C12.3288 62.6924 4.29346 54.6571 4.29346 44.6924C4.29346 35.2831 11.4621 27.5878 20.6373 26.7549C21.0942 26.7152 21.5236 26.5197 21.8536 26.2011C22.1836 25.8825 22.394 25.4602 22.4497 25.0049C23.0267 20.0346 25.1936 15.2297 29.0123 11.4111C33.5097 6.91365 39.402 4.69238 45.2935 4.69238ZM45.2935 24.6924C44.7586 24.7024 44.2355 24.9306 43.9497 25.1924L32.9497 35.1924C32.1278 35.9078 32.0879 37.2568 32.7935 38.0362C33.4992 38.8155 34.8609 38.87 35.6373 38.1612L43.2935 31.1924V52.6924C43.2935 53.797 44.1887 54.6924 45.2935 54.6924C46.3983 54.6924 47.2935 53.797 47.2935 52.6924V31.1924L54.9497 38.1612C55.7261 38.87 57.0507 38.7803 57.7935 38.0362C58.5636 37.2649 58.4198 35.8946 57.6373 35.1924L46.6373 25.1924C46.197 24.7901 45.8243 24.6907 45.2935 24.6924Z" fill="#D5D5D5"/>
</svg>
