<svg xmlns="http://www.w3.org/2000/svg" width="38" height="23" fill="#62ac44" xmlns:v="https://vecta.io/nano"><path d="M20.195 16.121c-.693-.346-1.77-1.001-2.887-1.77-.885.192-1.963 0-3.04-.808-.269-.192-.539-.423-.808-.693-.654-.654-1.347-1.54-2.117-2.502-.077-.077-.115-.154-.192-.231a.6.6 0 0 1 .077-.808c.269-.231.654-.192.885.077.077.077.115.154.192.231 1.001 1.232 1.924 2.425 2.694 2.963 1.424 1.039 2.54.654 3.117-.038.462-.577.616-1.424-.038-2.001-.924-.847-1.809-1.924-2.694-3.002-1.001-1.232-2.078-2.502-3.002-3.233-.539-.385-1.617-.885-2.771-1.386l-.808-.346L6.57.457c-.192-.192-.462-.192-.616 0L1.105 5.268c-.192.192-.192.462 0 .616L3.26 8.039c1.078 2.271 2.463 4.965 3.579 6.273 2.271 2.656 9.814 4.657 12.085 5.157 2.309.462 3.271-2.348 1.27-3.348zm17.242.731l-2.155-2.155c-1.078-2.271-2.463-4.965-3.579-6.273-2.271-2.617-9.853-4.657-12.123-5.119s-3.271 2.348-1.232 3.348c.693.346 1.77 1.001 2.886 1.77.885-.192 1.963 0 3.04.808.269.192.539.423.808.693.654.654 1.347 1.539 2.117 2.502.077.077.115.154.192.231a.6.6 0 0 1-.077.808c-.269.231-.654.192-.885-.077-.077-.077-.116-.154-.193-.231-1.001-1.232-1.924-2.425-2.694-2.963-1.424-1.039-2.54-.654-3.117.038-.462.577-.616 1.424.038 2.001.924.847 1.809 1.924 2.694 3.002 1.001 1.232 2.078 2.502 3.002 3.233.539.385 1.616.885 2.771 1.386l.808.346 2.155 2.155c.192.192.462.192.616 0l4.811-4.811c.269-.231.269-.5.115-.693z"/></svg>