<svg xmlns="http://www.w3.org/2000/svg" fill="none" viewBox="0 0 1190 115">
<path fill="#7FC561" fill-rule="evenodd" d="m1190 32.333-39.67-1.796c-39.66-1.796-119-5.389-198.33 3.593-79.333 8.981-158.667 30.537-238 30.537S555.333 43.11 476 34.13c-79.333-8.982-158.667-5.39-238-8.982-79.333-3.592-158.667-14.37-198.333-19.76L0 0v97h1190V32.333Z" clip-rule="evenodd"/>
<path fill="#5FA503" fill-rule="evenodd" d="m0 38.333 39.667-2.13c39.666-2.129 119-6.388 198.333 4.26s158.667 36.204 238 36.204S634.667 51.11 714 40.463 889.667 63.879 969 59.62c79.33-4.26 141.67-46.842 181.33-53.231L1190 0v115H0V38.333Z" clip-rule="evenodd"/>
</svg>
