<svg xmlns="http://www.w3.org/2000/svg" width="1398" height="23" viewBox="0 0 1398 23" fill="none">
  <path fill-rule="evenodd" clip-rule="evenodd" d="M0 0.978027L33.785 2.60257C66.405 4.22711 132.81 7.4762 199.215 7.88233C266.785 8.28847 333.19 5.85166 399.595 4.22711C466 2.60257 532.405 1.7903 598.81 4.22711C665.215 6.66393 732.785 12.3498 799.19 14.7866C865.595 17.2235 932 16.4112 998.405 13.5682C1064.81 10.7253 1131.21 5.85166 1198.79 4.63325C1265.19 3.41484 1331.59 5.85166 1364.21 7.07006L1398 8.28847V22.9094H1364.21C1331.59 22.9094 1265.19 22.9094 1198.79 22.9094C1131.21 22.9094 1064.81 22.9094 998.405 22.9094C932 22.9094 865.595 22.9094 799.19 22.9094C732.785 22.9094 665.215 22.9094 598.81 22.9094C532.405 22.9094 466 22.9094 399.595 22.9094C333.19 22.9094 266.785 22.9094 199.215 22.9094C132.81 22.9094 66.405 22.9094 33.785 22.9094H0V0.978027Z" fill="#439323"/>
</svg>