<svg xmlns="http://www.w3.org/2000/svg" width="28" height="28" fill="none" xmlns:v="https://vecta.io/nano"><path d="M14.235 8.638c-.34.311-.298.815.043 1.126.765.699 1.531 1.126 2.254 1.436.893-.66 1.999-.893 2.509-.854v-.194c-.893-.039-2.169-.349-3.572-1.553-.34-.272-.893-.272-1.233.039z" fill="#68b406"/><g fill="#62ac44"><path d="M27.375 23.851a1.37 1.37 0 0 0-1.704-.825l-1.049.391 1.092-3.213v-.087c.087-.043.131-.087.131-.174l.743-9.334c0-.217-.087-.477-.306-.608-2.097-1.346-4.151-1.433-6.073 0-.131.087-.218.217-.218.347a2.29 2.29 0 0 0 1.049.26c.437.043.786.434.699.912-.044.174-.131.304-.175.391.087.043.131.087.175.13.175.174.35.217.437.478.524-.564.612-.999.612-.999a1.3 1.3 0 0 1 1.529-1.085c.743.131 1.223.781 1.092 1.52-.044.347-.612 2.996-4.937 4.862l.262 3.126c0 .087.044.13.131.174l-1.748 5.036c-.175.478-.044.999.306 1.346.393.347.918.477 1.355.304l.349-.13c-.393-.478-.524-1.085-.306-1.693l1.617-4.862h.481l-1.66 5.036c-.175.478-.044.999.35 1.346.349.347.874.477 1.354.304l3.627-1.259c.655-.261 1.005-.999.787-1.693zM11.576 9.437a.94.94 0 0 0 .73-1.077c-.086-.515-.516-.89-.988-.796-1.289.234-2.75-.094-3.996-.843.086.281 0 .375-.043 2.108 1.332.562 2.836.843 4.296.609zM3.662 20.172A6.39 6.39 0 0 1 1.68 19.6l.043 7.081A1.31 1.31 0 0 0 3.015 28c.345 0 .689-.132.905-.396a1.65 1.65 0 0 1-.258-.924v-6.509zm.625-.165H4.15h-.23l.046 6.639c0 .813.689 1.355 1.377 1.355a1.37 1.37 0 0 0 1.377-1.355L6.674 19.6a7.16 7.16 0 0 1-2.387.406z"/><path d="M4.48 5.04a2.24 2.24 0 1 0 0-4.48 2.24 2.24 0 1 0 0 4.48zM2.658 8.856c-.315-.655 0-1.441.721-1.747.676-.306 1.487 0 1.802.699.406.83.946 1.66 1.712 2.402l.135-3.32a.63.63 0 0 0-.315-.568c-1.532-.917-3.064-.961-4.641-.131-.225.087-.36.262-.36.48l-.18 4.237L0 18.204c2.433 1.747 5.317 1.878 7.84.262l-.631-4.543c-2.163-1.485-3.695-3.189-4.551-5.067z"/><path d="M22.96 8.96a2.24 2.24 0 0 0 0-4.48 2.24 2.24 0 0 0 0 4.48zM9.963 14.678a.95.95 0 0 0-.287-1.228c-2.338-1.491-3.938-3.201-4.718-5.086-.205-.438-.656-.658-1.108-.438-.41.219-.615.702-.41 1.184.902 2.236 2.748 4.209 5.415 5.875.369.263.902.132 1.108-.307zm5.838 2.236c-.17-.715.212-1.474.933-1.652 1.229-.357 2.205-.759 2.925-1.161.424-.625.975-1.25 1.611-1.161 0 0 .085-.402-.254-.447 0 0 0-.536-.933.089 0 0-1.187 1.384-1.95 1.608 0 0-.721-1.518 1.102-2.01 0 0 .594.223.933-.045 0 0 .382-.089.551-.447 0 0 .085-.134.127-.313s-.085-.357-.254-.357c-.254 0-.763-.089-1.272-.357 0 0-1.866-.357-3.307 1.831 0 0-1.102 1.563-1.526 3.394-1.908 2.01-3.222 3.216-3.222 3.751 0 0-.594-.089-.466 1.876 0 0 .212 1.742-1.272 2.01 0 0-.127.581.763-.045 0 0 .848-.313.848-2.412 0 0 .466 1.295.17 2.233 0 0-.424 1.161-1.145 1.563l.042 1.831s.466.67.466-.536c0 0 .17-1.117.848-1.697 0 0-.042 1.518.466 2.188 0 0 .466.223.127-.804 0 0 .085-1.742.933-2.992 0 0 .466-1.161.212-2.456 0 0 2.077-1.384 3.349-2.501-.382-.223-.678-.581-.806-.982z"/><path d="M24.627 12.163c.087-.454-.261-.868-.74-.95s-.914.248-1.001.702c0 .041-.566 2.438-6.004 3.801a.82.82 0 0 0-.609 1.033c.131.454.609.702 1.088.578 6.613-1.653 7.265-5 7.265-5.165zM18.27 7.959c.635-.701-.317-1.702-.907-1.001-.635-.701-1.542.35-.907 1.001l.907 1.001.907-1.001zm-.933-3.258l1.34.339.335-1.357c.239-.921-1.1-1.26-1.34-.339-.909-.194-1.244 1.163-.335 1.357zm-5.742.645l1.011.254.253-1.018c.181-.691-.83-.945-1.011-.254-.65-.145-.939.872-.253 1.018zM15.12 3.36l1.377-1.538c.918-.995-.459-2.489-1.377-1.493-.918-.995-2.295.498-1.377 1.493L15.12 3.36z"/></g></svg>